<svg width="16" height="17" viewBox="0 0 16 17" fill="none" xmlns="http://www.w3.org/2000/svg">
<path fill-rule="evenodd" clip-rule="evenodd" d="M0.970563 1.00377C-0.323521 2.29785 -0.323521 4.39598 0.970563 5.69006L10.3431 15.0626C11.6372 16.3567 13.7354 16.3567 15.0294 15.0626C16.3235 13.7686 16.3235 11.6704 15.0294 10.3764L5.65686 1.00377C4.36277 -0.290318 2.26465 -0.290318 0.970563 1.00377ZM5.87566 5.01787C5.62962 4.77183 5.23071 4.77183 4.98467 5.01787C4.73863 5.26391 4.73863 5.66282 4.98467 5.90887C5.23071 6.15491 5.62962 6.15491 5.87566 5.90887C6.1217 5.66282 6.1217 5.26391 5.87566 5.01787ZM8.10314 5.76037C7.8571 5.51433 7.45819 5.51433 7.21215 5.76037C6.96611 6.00641 6.96611 6.40532 7.21215 6.65136C7.45819 6.8974 7.8571 6.8974 8.10314 6.65136C8.34918 6.40532 8.34918 6.00641 8.10314 5.76037ZM11.0731 8.73034C11.3192 8.97638 11.3192 9.37529 11.0731 9.62133C10.8271 9.86737 10.4282 9.86737 10.1821 9.62133C9.93608 9.37529 9.93608 8.97638 10.1821 8.73034C10.4282 8.4843 10.8271 8.4843 11.0731 8.73034ZM11.8156 11.8488C12.0617 11.6028 12.0617 11.2039 11.8156 10.9578C11.5696 10.7118 11.1707 10.7118 10.9246 10.9578C10.6786 11.2039 10.6786 11.6028 10.9246 11.8488C11.1707 12.0949 11.5696 12.0949 11.8156 11.8488ZM8.84564 8.87884C9.09168 8.6328 9.09168 8.23389 8.84564 7.98785C8.5996 7.74181 8.20069 7.74181 7.95465 7.98785C7.7086 8.23389 7.7086 8.6328 7.95465 8.87884C8.20069 9.12488 8.5996 9.12488 8.84564 8.87884ZM9.58813 10.2153C9.83417 10.4614 9.83417 10.8603 9.58813 11.1063C9.34209 11.3524 8.94318 11.3524 8.69714 11.1063C8.4511 10.8603 8.4511 10.4614 8.69714 10.2153C8.94318 9.96929 9.34209 9.96929 9.58813 10.2153ZM5.72716 7.24535C5.9732 6.99931 6.37212 6.99931 6.61816 7.24535C6.8642 7.49139 6.8642 7.89031 6.61816 8.13635C6.37212 8.38239 5.9732 8.38239 5.72716 8.13635C5.48112 7.89031 5.48112 7.49139 5.72716 7.24535Z" fill="white"/>
<path d="M2.46518 8.88173L0.970563 10.3764C-0.323521 11.6704 -0.323521 13.7686 0.970563 15.0626C2.26465 16.3567 4.36277 16.3567 5.65686 15.0626L7.15147 13.568L2.46518 8.88173Z" fill="white"/>
<path d="M13.5348 7.18468L15.0294 5.69006C16.3235 4.39598 16.3235 2.29785 15.0294 1.00377C13.7354 -0.290318 11.6372 -0.290318 10.3431 1.00377L8.84853 2.49838L13.5348 7.18468Z" fill="white"/>
</svg>
