<svg width="16" height="20" viewBox="0 0 16 20" fill="none" xmlns="http://www.w3.org/2000/svg">
<path fill-rule="evenodd" clip-rule="evenodd" d="M0 2.99902V16.999C0 18.6559 1.34315 19.999 3 19.999H13C14.6569 19.999 16 18.6559 16 16.999V6.99902C16 5.34217 14.6569 3.99902 13 3.99902H1C0.447715 3.99902 0 3.55131 0 2.99902ZM3.25 9.99902C3.25 9.58481 3.58579 9.24902 4 9.24902H12C12.4142 9.24902 12.75 9.58481 12.75 9.99902C12.75 10.4132 12.4142 10.749 12 10.749H4C3.58579 10.749 3.25 10.4132 3.25 9.99902ZM3.25 13.499C3.25 13.0848 3.58579 12.749 4 12.749H9.5C9.91421 12.749 10.25 13.0848 10.25 13.499C10.25 13.9132 9.91421 14.249 9.5 14.249H4C3.58579 14.249 3.25 13.9132 3.25 13.499Z" fill="#6BAF60"/>
<path d="M0.408785 2.08612C0.757267 2.24241 1 2.59237 1 2.99902H13C13.3453 2.99902 13.6804 3.04278 14 3.12504V2.30506C14 1.08796 12.922 0.153041 11.7172 0.325164L0.919595 1.86767C0.727121 1.89517 0.552706 1.97276 0.408785 2.08612Z" fill="#6BAF60"/>
</svg>
