<svg width="230" height="242" viewBox="0 0 230 242" fill="none" xmlns="http://www.w3.org/2000/svg">
<path d="M169.205 33.7714L61.8263 35.5979C42.4933 38.5773 35.1865 56.4141 33.9497 64.9601L31.6728 161.461C31.4287 171.806 31.1984 182.631 36.0859 191.751C42.0501 202.881 51.2591 206.423 57.0059 208.832L111.411 223.41C114.887 224.341 118.566 224.179 121.948 222.945L166.001 206.872C192.32 196.318 194.183 186.847 195.351 177.904L196.761 79.7759L196.763 79.579C196.936 67.5697 197.122 54.6389 189.805 45.1276C183.149 36.4765 174.208 33.8263 169.205 33.7714Z" fill="white"/>
<rect width="12.0413" height="12.0413" transform="translate(60.5371 64.3794)" fill="black"/>
<path fill-rule="evenodd" clip-rule="evenodd" d="M76.9558 70.9476C76.9558 64.902 72.0548 60.001 66.0092 60.001C59.9635 60.001 55.0625 64.902 55.0625 70.9476C55.0625 76.9933 59.9635 81.8943 66.0092 81.8943C72.0548 81.8943 76.9558 76.9933 76.9558 70.9476ZM66.0092 64.6533C66.4626 64.6533 66.8302 65.0209 66.8302 65.4743V72.0423C66.8302 72.4957 66.4626 72.8633 66.0092 72.8633C65.5557 72.8633 65.1882 72.4957 65.1882 72.0423V65.4743C65.1882 65.0209 65.5557 64.6533 66.0092 64.6533ZM66.0092 76.421C66.6137 76.421 67.1038 75.9309 67.1038 75.3263C67.1038 74.7217 66.6137 74.2316 66.0092 74.2316C65.4046 74.2316 64.9145 74.7217 64.9145 75.3263C64.9145 75.9309 65.4046 76.421 66.0092 76.421Z" fill="#66E4FE"/>
<path d="M51.2285 125.977V112.444H55.8009C56.8581 112.444 57.7259 112.625 58.4042 112.986C59.0826 113.343 59.5848 113.834 59.9107 114.46C60.2367 115.085 60.3997 115.797 60.3997 116.594C60.3997 117.391 60.2367 118.098 59.9107 118.715C59.5848 119.332 59.0848 119.816 58.4108 120.169C57.7369 120.517 56.8757 120.691 55.8273 120.691H52.1271V119.211H55.7744C56.4969 119.211 57.0783 119.105 57.5188 118.893C57.9637 118.682 58.2853 118.382 58.4835 117.995C58.6861 117.603 58.7875 117.136 58.7875 116.594C58.7875 116.052 58.6861 115.579 58.4835 115.173C58.2809 114.768 57.9571 114.455 57.5122 114.235C57.0673 114.01 56.4792 113.898 55.748 113.898H52.8672V125.977H51.2285ZM57.5981 119.898L60.9283 125.977H59.0253L55.748 119.898H57.5981ZM65.9054 126.214C65.2622 126.214 64.6786 126.093 64.1544 125.851C63.6302 125.604 63.2139 125.25 62.9056 124.787C62.5972 124.32 62.443 123.756 62.443 123.096C62.443 122.514 62.5576 122.043 62.7866 121.682C63.0157 121.316 63.3218 121.03 63.7051 120.823C64.0883 120.616 64.5112 120.462 64.9737 120.36C65.4406 120.254 65.9098 120.171 66.3811 120.109C66.9978 120.03 67.4978 119.97 67.881 119.931C68.2686 119.887 68.5506 119.814 68.7268 119.713C68.9074 119.611 68.9977 119.435 68.9977 119.184V119.131C68.9977 118.479 68.8193 117.973 68.4625 117.611C68.1101 117.25 67.5748 117.07 66.8568 117.07C66.1124 117.07 65.5287 117.233 65.1059 117.559C64.683 117.885 64.3856 118.233 64.2138 118.603L62.7338 118.074C62.9981 117.457 63.3505 116.977 63.791 116.634C64.2359 116.286 64.7204 116.043 65.2446 115.907C65.7732 115.766 66.293 115.695 66.804 115.695C67.1299 115.695 67.5044 115.735 67.9272 115.814C68.3545 115.889 68.7664 116.046 69.1628 116.283C69.5637 116.521 69.8963 116.88 70.1606 117.36C70.4249 117.841 70.557 118.484 70.557 119.29V125.977H68.9977V124.602H68.9184C68.8126 124.822 68.6365 125.058 68.3898 125.309C68.1431 125.56 67.8149 125.774 67.4053 125.95C66.9956 126.126 66.4956 126.214 65.9054 126.214ZM66.1432 124.814C66.7599 124.814 67.2797 124.693 67.7026 124.45C68.1299 124.208 68.4514 123.895 68.6673 123.512C68.8875 123.129 68.9977 122.726 68.9977 122.303V120.876C68.9316 120.955 68.7862 121.028 68.5616 121.094C68.3413 121.155 68.0858 121.21 67.7951 121.259C67.5088 121.303 67.2291 121.343 66.9559 121.378C66.6872 121.409 66.4692 121.435 66.3018 121.457C65.8965 121.51 65.5177 121.596 65.1653 121.715C64.8173 121.829 64.5354 122.003 64.3196 122.237C64.1081 122.466 64.0024 122.779 64.0024 123.175C64.0024 123.717 64.2028 124.126 64.6037 124.404C65.0089 124.677 65.5221 124.814 66.1432 124.814ZM73.4032 125.977V115.827H74.9626V125.977H73.4032ZM74.1961 114.136C73.8921 114.136 73.6301 114.032 73.4098 113.825C73.194 113.618 73.086 113.369 73.086 113.079C73.086 112.788 73.194 112.539 73.4098 112.332C73.6301 112.125 73.8921 112.022 74.1961 112.022C74.5 112.022 74.7599 112.125 74.9758 112.332C75.196 112.539 75.3061 112.788 75.3061 113.079C75.3061 113.369 75.196 113.618 74.9758 113.825C74.7599 114.032 74.5 114.136 74.1961 114.136ZM85.0076 118.1L83.6068 118.497C83.5187 118.263 83.3887 118.037 83.217 117.816C83.0496 117.592 82.8205 117.407 82.5298 117.261C82.239 117.116 81.8668 117.043 81.4131 117.043C80.792 117.043 80.2744 117.186 79.8604 117.473C79.4507 117.755 79.2459 118.114 79.2459 118.55C79.2459 118.937 79.3868 119.244 79.6687 119.468C79.9507 119.693 80.3912 119.88 80.9902 120.03L82.4967 120.4C83.4042 120.62 84.0803 120.957 84.5252 121.411C84.9701 121.86 85.1926 122.439 85.1926 123.149C85.1926 123.73 85.0252 124.25 84.6904 124.708C84.36 125.166 83.8975 125.527 83.3028 125.792C82.7082 126.056 82.0166 126.188 81.2281 126.188C80.1929 126.188 79.3362 125.963 78.6578 125.514C77.9794 125.065 77.5499 124.408 77.3693 123.545L78.8494 123.175C78.9904 123.721 79.2569 124.131 79.6489 124.404C80.0454 124.677 80.5629 124.814 81.2017 124.814C81.9285 124.814 82.5055 124.659 82.9328 124.351C83.3645 124.038 83.5804 123.664 83.5804 123.228C83.5804 122.875 83.457 122.58 83.2103 122.342C82.9637 122.1 82.5848 121.92 82.0739 121.801L80.3823 121.404C79.4529 121.184 78.7701 120.843 78.334 120.38C77.9023 119.913 77.6865 119.329 77.6865 118.629C77.6865 118.056 77.8473 117.55 78.1688 117.109C78.4948 116.669 78.9375 116.323 79.4969 116.072C80.0608 115.821 80.6995 115.695 81.4131 115.695C82.4174 115.695 83.2059 115.916 83.7786 116.356C84.3556 116.797 84.7653 117.378 85.0076 118.1ZM91.7951 126.188C90.8172 126.188 89.9736 125.972 89.2644 125.54C88.5596 125.104 88.0156 124.496 87.6324 123.717C87.2536 122.933 87.0642 122.021 87.0642 120.981C87.0642 119.942 87.2536 119.025 87.6324 118.233C88.0156 117.435 88.5486 116.814 89.2314 116.369C89.9186 115.92 90.7203 115.695 91.6365 115.695C92.1651 115.695 92.6871 115.783 93.2025 115.96C93.7179 116.136 94.187 116.422 94.6099 116.819C95.0328 117.211 95.3698 117.73 95.6208 118.378C95.8719 119.025 95.9975 119.823 95.9975 120.77V121.431H88.1742V120.083H94.4117C94.4117 119.51 94.2971 118.999 94.0681 118.55C93.8434 118.1 93.5219 117.746 93.1034 117.486C92.6893 117.226 92.2004 117.096 91.6365 117.096C91.0154 117.096 90.478 117.25 90.0243 117.559C89.575 117.863 89.2292 118.259 88.9869 118.748C88.7447 119.237 88.6235 119.761 88.6235 120.321V121.219C88.6235 121.986 88.7557 122.635 89.02 123.168C89.2887 123.697 89.6609 124.1 90.1366 124.378C90.6124 124.651 91.1652 124.787 91.7951 124.787C92.2048 124.787 92.5748 124.73 92.9052 124.615C93.2399 124.496 93.5285 124.32 93.7707 124.087C94.013 123.849 94.2002 123.554 94.3324 123.201L95.8389 123.624C95.6803 124.135 95.4138 124.585 95.0394 124.972C94.665 125.355 94.2024 125.655 93.6518 125.871C93.1012 126.082 92.4823 126.188 91.7951 126.188ZM104.607 129.782C104.343 129.782 104.107 129.76 103.9 129.716C103.693 129.677 103.55 129.637 103.471 129.597L103.867 128.223C104.246 128.32 104.581 128.355 104.871 128.329C105.162 128.302 105.42 128.172 105.644 127.939C105.873 127.71 106.083 127.338 106.272 126.822L106.563 126.029L102.81 115.827H104.501L107.303 123.915H107.409L110.21 115.827H111.902L107.594 127.457C107.4 127.981 107.16 128.415 106.873 128.758C106.587 129.106 106.254 129.364 105.876 129.531C105.501 129.699 105.078 129.782 104.607 129.782ZM117.72 126.188C116.803 126.188 115.999 125.97 115.308 125.534C114.621 125.098 114.083 124.488 113.696 123.704C113.312 122.92 113.121 122.003 113.121 120.955C113.121 119.898 113.312 118.975 113.696 118.186C114.083 117.398 114.621 116.786 115.308 116.349C115.999 115.913 116.803 115.695 117.72 115.695C118.636 115.695 119.437 115.913 120.125 116.349C120.816 116.786 121.354 117.398 121.737 118.186C122.125 118.975 122.318 119.898 122.318 120.955C122.318 122.003 122.125 122.92 121.737 123.704C121.354 124.488 120.816 125.098 120.125 125.534C119.437 125.97 118.636 126.188 117.72 126.188ZM117.72 124.787C118.416 124.787 118.988 124.609 119.437 124.252C119.887 123.895 120.219 123.426 120.435 122.845C120.651 122.263 120.759 121.633 120.759 120.955C120.759 120.277 120.651 119.644 120.435 119.059C120.219 118.473 119.887 117.999 119.437 117.638C118.988 117.277 118.416 117.096 117.72 117.096C117.024 117.096 116.451 117.277 116.002 117.638C115.552 117.999 115.22 118.473 115.004 119.059C114.788 119.644 114.68 120.277 114.68 120.955C114.68 121.633 114.788 122.263 115.004 122.845C115.22 123.426 115.552 123.895 116.002 124.252C116.451 124.609 117.024 124.787 117.72 124.787ZM131.095 121.827V115.827H132.654V125.977H131.095V124.259H130.989C130.751 124.774 130.381 125.212 129.879 125.574C129.377 125.93 128.742 126.109 127.976 126.109C127.342 126.109 126.778 125.97 126.284 125.692C125.791 125.411 125.403 124.988 125.122 124.424C124.84 123.856 124.699 123.14 124.699 122.276V115.827H126.258V122.171C126.258 122.911 126.465 123.501 126.879 123.941C127.298 124.382 127.831 124.602 128.478 124.602C128.866 124.602 129.26 124.503 129.661 124.305C130.066 124.107 130.405 123.803 130.678 123.393C130.956 122.983 131.095 122.461 131.095 121.827ZM135.51 125.977V115.827H137.017V117.36H137.122C137.307 116.858 137.642 116.451 138.127 116.138C138.611 115.825 139.158 115.669 139.765 115.669C139.88 115.669 140.023 115.671 140.195 115.676C140.367 115.68 140.497 115.687 140.585 115.695V117.281C140.532 117.268 140.411 117.248 140.221 117.222C140.036 117.191 139.84 117.175 139.633 117.175C139.14 117.175 138.699 117.279 138.312 117.486C137.929 117.689 137.625 117.971 137.4 118.332C137.18 118.689 137.07 119.096 137.07 119.554V125.977H135.51ZM51.2285 150.977V137.444H52.7879V142.44H52.92C53.0345 142.264 53.1931 142.039 53.3958 141.766C53.6028 141.488 53.8979 141.242 54.2812 141.026C54.6688 140.805 55.193 140.695 55.8537 140.695C56.7083 140.695 57.4616 140.909 58.1135 141.336C58.7654 141.764 59.2742 142.369 59.6398 143.153C60.0054 143.937 60.1882 144.862 60.1882 145.928C60.1882 147.003 60.0054 147.935 59.6398 148.723C59.2742 149.507 58.7676 150.115 58.1201 150.547C57.4726 150.974 56.7259 151.188 55.8802 151.188C55.2282 151.188 54.7062 151.08 54.3142 150.864C53.9221 150.644 53.6204 150.395 53.409 150.118C53.1975 149.836 53.0345 149.602 52.92 149.417H52.735V150.977H51.2285ZM52.7614 145.902C52.7614 146.668 52.8738 147.345 53.0984 147.931C53.3231 148.512 53.6512 148.968 54.0829 149.298C54.5146 149.624 55.0432 149.787 55.6687 149.787C56.3207 149.787 56.8647 149.615 57.3008 149.272C57.7413 148.924 58.0716 148.457 58.2919 147.871C58.5165 147.281 58.6289 146.624 58.6289 145.902C58.6289 145.188 58.5187 144.545 58.2985 143.973C58.0827 143.396 57.7545 142.94 57.314 142.605C56.8779 142.266 56.3295 142.096 55.6687 142.096C55.0344 142.096 54.5014 142.257 54.0697 142.578C53.638 142.896 53.3121 143.341 53.0918 143.913C52.8716 144.481 52.7614 145.144 52.7614 145.902ZM64.1329 137.444V150.977H62.5735V137.444H64.1329ZM71.1121 151.188C70.1958 151.188 69.3919 150.97 68.7003 150.534C68.0131 150.098 67.4757 149.488 67.0881 148.704C66.7049 147.92 66.5132 147.003 66.5132 145.955C66.5132 144.898 66.7049 143.975 67.0881 143.186C67.4757 142.398 68.0131 141.786 68.7003 141.349C69.3919 140.913 70.1958 140.695 71.1121 140.695C72.0283 140.695 72.83 140.913 73.5172 141.349C74.2088 141.786 74.7462 142.398 75.1294 143.186C75.517 143.975 75.7109 144.898 75.7109 145.955C75.7109 147.003 75.517 147.92 75.1294 148.704C74.7462 149.488 74.2088 150.098 73.5172 150.534C72.83 150.97 72.0283 151.188 71.1121 151.188ZM71.1121 149.787C71.808 149.787 72.3807 149.609 72.83 149.252C73.2793 148.895 73.6119 148.426 73.8277 147.845C74.0436 147.263 74.1515 146.633 74.1515 145.955C74.1515 145.277 74.0436 144.644 73.8277 144.059C73.6119 143.473 73.2793 142.999 72.83 142.638C72.3807 142.277 71.808 142.096 71.1121 142.096C70.4161 142.096 69.8434 142.277 69.3941 142.638C68.9448 142.999 68.6122 143.473 68.3964 144.059C68.1805 144.644 68.0726 145.277 68.0726 145.955C68.0726 146.633 68.1805 147.263 68.3964 147.845C68.6122 148.426 68.9448 148.895 69.3941 149.252C69.8434 149.609 70.4161 149.787 71.1121 149.787ZM82.2143 151.188C81.298 151.188 80.4941 150.97 79.8025 150.534C79.1154 150.098 78.578 149.488 78.1903 148.704C77.8071 147.92 77.6155 147.003 77.6155 145.955C77.6155 144.898 77.8071 143.975 78.1903 143.186C78.578 142.398 79.1154 141.786 79.8025 141.349C80.4941 140.913 81.298 140.695 82.2143 140.695C83.1305 140.695 83.9322 140.913 84.6194 141.349C85.311 141.786 85.8484 142.398 86.2316 143.186C86.6193 143.975 86.8131 144.898 86.8131 145.955C86.8131 147.003 86.6193 147.92 86.2316 148.704C85.8484 149.488 85.311 150.098 84.6194 150.534C83.9322 150.97 83.1305 151.188 82.2143 151.188ZM82.2143 149.787C82.9103 149.787 83.4829 149.609 83.9322 149.252C84.3815 148.895 84.7141 148.426 84.9299 147.845C85.1458 147.263 85.2537 146.633 85.2537 145.955C85.2537 145.277 85.1458 144.644 84.9299 144.059C84.7141 143.473 84.3815 142.999 83.9322 142.638C83.4829 142.277 82.9103 142.096 82.2143 142.096C81.5183 142.096 80.9456 142.277 80.4963 142.638C80.047 142.999 79.7144 143.473 79.4986 144.059C79.2828 144.644 79.1748 145.277 79.1748 145.955C79.1748 146.633 79.2828 147.263 79.4986 147.845C79.7144 148.426 80.047 148.895 80.4963 149.252C80.9456 149.609 81.5183 149.787 82.2143 149.787ZM93.0258 151.188C92.18 151.188 91.4334 150.974 90.7858 150.547C90.1383 150.115 89.6317 149.507 89.2661 148.723C88.9005 147.935 88.7177 147.003 88.7177 145.928C88.7177 144.862 88.9005 143.937 89.2661 143.153C89.6317 142.369 90.1405 141.764 90.7924 141.336C91.4444 140.909 92.1976 140.695 93.0522 140.695C93.7129 140.695 94.2349 140.805 94.6182 141.026C95.0058 141.242 95.3009 141.488 95.5036 141.766C95.7106 142.039 95.8714 142.264 95.9859 142.44H96.1181V137.444H97.6774V150.977H96.1709V149.417H95.9859C95.8714 149.602 95.7084 149.836 95.497 150.118C95.2855 150.395 94.9838 150.644 94.5917 150.864C94.1997 151.08 93.6777 151.188 93.0258 151.188ZM93.2372 149.787C93.8627 149.787 94.3913 149.624 94.823 149.298C95.2547 148.968 95.5828 148.512 95.8075 147.931C96.0322 147.345 96.1445 146.668 96.1445 145.902C96.1445 145.144 96.0344 144.481 95.8141 143.913C95.5939 143.341 95.2679 142.896 94.8362 142.578C94.4045 142.257 93.8715 142.096 93.2372 142.096C92.5764 142.096 92.0258 142.266 91.5853 142.605C91.1492 142.94 90.8211 143.396 90.6008 143.973C90.385 144.545 90.277 145.188 90.277 145.902C90.277 146.624 90.3872 147.281 90.6074 147.871C90.8321 148.457 91.1624 148.924 91.5985 149.272C92.039 149.615 92.5853 149.787 93.2372 149.787ZM113.172 143.1L111.771 143.497C111.683 143.263 111.553 143.037 111.381 142.816C111.214 142.592 110.985 142.407 110.694 142.261C110.403 142.116 110.031 142.043 109.577 142.043C108.956 142.043 108.439 142.186 108.025 142.473C107.615 142.755 107.41 143.114 107.41 143.55C107.41 143.937 107.551 144.244 107.833 144.468C108.115 144.693 108.556 144.88 109.155 145.03L110.661 145.4C111.569 145.62 112.245 145.957 112.69 146.411C113.135 146.86 113.357 147.439 113.357 148.149C113.357 148.73 113.19 149.25 112.855 149.708C112.524 150.166 112.062 150.527 111.467 150.792C110.873 151.056 110.181 151.188 109.392 151.188C108.357 151.188 107.501 150.963 106.822 150.514C106.144 150.065 105.714 149.408 105.534 148.545L107.014 148.175C107.155 148.721 107.421 149.131 107.813 149.404C108.21 149.677 108.727 149.814 109.366 149.814C110.093 149.814 110.67 149.659 111.097 149.351C111.529 149.038 111.745 148.664 111.745 148.228C111.745 147.875 111.621 147.58 111.375 147.342C111.128 147.1 110.749 146.92 110.238 146.801L108.547 146.404C107.617 146.184 106.934 145.843 106.498 145.38C106.067 144.913 105.851 144.329 105.851 143.629C105.851 143.056 106.012 142.55 106.333 142.109C106.659 141.669 107.102 141.323 107.661 141.072C108.225 140.821 108.864 140.695 109.577 140.695C110.582 140.695 111.37 140.916 111.943 141.356C112.52 141.797 112.93 142.378 113.172 143.1ZM122.1 146.827V140.827H123.66V150.977H122.1V149.259H121.995C121.757 149.774 121.387 150.212 120.885 150.574C120.382 150.93 119.748 151.109 118.982 151.109C118.347 151.109 117.783 150.97 117.29 150.692C116.797 150.411 116.409 149.988 116.127 149.424C115.845 148.856 115.704 148.14 115.704 147.276V140.827H117.264V147.171C117.264 147.911 117.471 148.501 117.885 148.941C118.303 149.382 118.836 149.602 119.484 149.602C119.871 149.602 120.266 149.503 120.666 149.305C121.072 149.107 121.411 148.803 121.684 148.393C121.962 147.983 122.1 147.461 122.1 146.827ZM130.612 154.994C129.859 154.994 129.212 154.897 128.67 154.703C128.128 154.514 127.676 154.263 127.315 153.95C126.958 153.642 126.674 153.311 126.463 152.959L127.705 152.087C127.846 152.272 128.024 152.483 128.24 152.721C128.456 152.963 128.751 153.172 129.126 153.349C129.505 153.529 130 153.62 130.612 153.62C131.432 153.62 132.108 153.421 132.641 153.025C133.174 152.628 133.44 152.007 133.44 151.162V149.1H133.308C133.194 149.285 133.031 149.514 132.819 149.787C132.612 150.056 132.313 150.296 131.921 150.507C131.533 150.714 131.009 150.818 130.348 150.818C129.529 150.818 128.793 150.624 128.141 150.237C127.494 149.849 126.98 149.285 126.602 148.545C126.227 147.805 126.04 146.906 126.04 145.849C126.04 144.81 126.223 143.904 126.588 143.133C126.954 142.358 127.463 141.759 128.115 141.336C128.767 140.909 129.52 140.695 130.375 140.695C131.035 140.695 131.559 140.805 131.947 141.026C132.339 141.242 132.639 141.488 132.846 141.766C133.057 142.039 133.22 142.264 133.335 142.44H133.493V140.827H135V151.267C135 152.139 134.802 152.849 134.405 153.395C134.013 153.946 133.484 154.349 132.819 154.604C132.159 154.864 131.423 154.994 130.612 154.994ZM130.56 149.417C131.185 149.417 131.714 149.274 132.145 148.988C132.577 148.701 132.905 148.29 133.13 147.752C133.355 147.215 133.467 146.572 133.467 145.823C133.467 145.092 133.357 144.446 133.136 143.887C132.916 143.327 132.59 142.889 132.159 142.572C131.727 142.255 131.194 142.096 130.56 142.096C129.899 142.096 129.348 142.264 128.908 142.598C128.472 142.933 128.143 143.382 127.923 143.946C127.707 144.51 127.599 145.136 127.599 145.823C127.599 146.528 127.71 147.151 127.93 147.693C128.154 148.23 128.485 148.653 128.921 148.961C129.361 149.265 129.908 149.417 130.56 149.417ZM140.841 151.214C140.198 151.214 139.614 151.093 139.09 150.851C138.566 150.604 138.149 150.25 137.841 149.787C137.533 149.32 137.378 148.756 137.378 148.096C137.378 147.514 137.493 147.043 137.722 146.682C137.951 146.316 138.257 146.03 138.64 145.823C139.024 145.616 139.447 145.462 139.909 145.36C140.376 145.254 140.845 145.171 141.317 145.109C141.933 145.03 142.433 144.97 142.816 144.931C143.204 144.887 143.486 144.814 143.662 144.713C143.843 144.611 143.933 144.435 143.933 144.184V144.131C143.933 143.479 143.755 142.973 143.398 142.611C143.045 142.25 142.51 142.07 141.792 142.07C141.048 142.07 140.464 142.233 140.041 142.559C139.618 142.885 139.321 143.233 139.149 143.603L137.669 143.074C137.933 142.457 138.286 141.977 138.726 141.634C139.171 141.286 139.656 141.043 140.18 140.907C140.709 140.766 141.228 140.695 141.739 140.695C142.065 140.695 142.44 140.735 142.863 140.814C143.29 140.889 143.702 141.046 144.098 141.283C144.499 141.521 144.832 141.88 145.096 142.36C145.36 142.841 145.492 143.484 145.492 144.29V150.977H143.933V149.602H143.854C143.748 149.822 143.572 150.058 143.325 150.309C143.078 150.56 142.75 150.774 142.341 150.95C141.931 151.126 141.431 151.214 140.841 151.214ZM141.079 149.814C141.695 149.814 142.215 149.693 142.638 149.45C143.065 149.208 143.387 148.895 143.603 148.512C143.823 148.129 143.933 147.726 143.933 147.303V145.876C143.867 145.955 143.722 146.028 143.497 146.094C143.277 146.155 143.021 146.21 142.731 146.259C142.444 146.303 142.164 146.343 141.891 146.378C141.623 146.409 141.405 146.435 141.237 146.457C140.832 146.51 140.453 146.596 140.101 146.715C139.753 146.829 139.471 147.003 139.255 147.237C139.044 147.466 138.938 147.779 138.938 148.175C138.938 148.717 139.138 149.126 139.539 149.404C139.944 149.677 140.458 149.814 141.079 149.814ZM148.339 150.977V140.827H149.845V142.36H149.951C150.136 141.858 150.471 141.451 150.955 141.138C151.44 140.825 151.986 140.669 152.594 140.669C152.708 140.669 152.852 140.671 153.023 140.676C153.195 140.68 153.325 140.687 153.413 140.695V142.281C153.36 142.268 153.239 142.248 153.05 142.222C152.865 142.191 152.669 142.175 152.462 142.175C151.968 142.175 151.528 142.279 151.14 142.486C150.757 142.689 150.453 142.971 150.228 143.332C150.008 143.689 149.898 144.096 149.898 144.554V150.977H148.339ZM52.9134 176.977L50.0458 166.827H52.4839L54.2679 173.964H54.3604L56.1841 166.827H58.5958L60.4195 173.924H60.5186L62.2762 166.827H64.721L61.8467 176.977H59.3557L57.4527 170.118H57.314L55.411 176.977H52.9134ZM66.391 176.977V166.827H68.7829V176.977H66.391ZM67.5936 165.387C67.2147 165.387 66.8888 165.262 66.6157 165.01C66.3426 164.755 66.206 164.449 66.206 164.092C66.206 163.731 66.3426 163.425 66.6157 163.174C66.8888 162.918 67.2147 162.79 67.5936 162.79C67.9768 162.79 68.3028 162.918 68.5715 163.174C68.8446 163.425 68.9811 163.731 68.9811 164.092C68.9811 164.449 68.8446 164.755 68.5715 165.01C68.3028 165.262 67.9768 165.387 67.5936 165.387ZM76.3105 166.827V168.678H70.4761V166.827H76.3105ZM71.9165 164.396H74.3084V173.924C74.3084 174.245 74.3569 174.492 74.4538 174.664C74.5551 174.831 74.6872 174.946 74.8502 175.008C75.0132 175.069 75.1938 175.1 75.392 175.1C75.5418 175.1 75.6784 175.089 75.8017 175.067C75.9295 175.045 76.0264 175.025 76.0924 175.008L76.4955 176.877C76.3678 176.922 76.1849 176.97 75.9471 177.023C75.7136 177.076 75.4273 177.107 75.0881 177.115C74.489 177.133 73.9494 177.043 73.4693 176.844C72.9891 176.642 72.6081 176.329 72.3262 175.906C72.0487 175.483 71.9121 174.955 71.9165 174.32V164.396ZM80.9209 171.03V176.977H78.5289V163.444H80.868V168.552H80.9869C81.2248 167.979 81.5926 167.528 82.0904 167.197C82.5925 166.863 83.2313 166.695 84.0065 166.695C84.7113 166.695 85.3258 166.843 85.85 167.138C86.3742 167.433 86.7795 167.865 87.0658 168.433C87.3565 169.001 87.5019 169.695 87.5019 170.514V176.977H85.11V170.884C85.11 170.202 84.9338 169.671 84.5814 169.292C84.2334 168.909 83.7444 168.717 83.1145 168.717C82.6917 168.717 82.3128 168.81 81.9781 168.995C81.6477 169.175 81.3878 169.437 81.1984 169.781C81.0134 170.125 80.9209 170.541 80.9209 171.03ZM97.4759 177.181C96.8328 177.181 96.2535 177.067 95.7381 176.838C95.2271 176.604 94.8219 176.261 94.5223 175.807C94.2272 175.353 94.0796 174.794 94.0796 174.129C94.0796 173.556 94.1854 173.083 94.3968 172.708C94.6082 172.334 94.8968 172.034 95.2624 171.81C95.628 171.585 96.0399 171.415 96.498 171.301C96.9605 171.182 97.4384 171.096 97.9318 171.043C98.5265 170.981 99.0088 170.926 99.3788 170.878C99.7489 170.825 100.018 170.746 100.185 170.64C100.357 170.53 100.443 170.36 100.443 170.131V170.092C100.443 169.594 100.295 169.208 99.9999 168.935C99.7048 168.662 99.2797 168.526 98.7247 168.526C98.1388 168.526 97.6741 168.653 97.3305 168.909C96.9913 169.164 96.7623 169.466 96.6433 169.814L94.41 169.497C94.5862 168.88 94.8769 168.365 95.2822 167.951C95.6875 167.532 96.183 167.22 96.7689 167.012C97.3548 166.801 98.0023 166.695 98.7115 166.695C99.2004 166.695 99.6872 166.753 100.172 166.867C100.656 166.982 101.099 167.171 101.5 167.435C101.901 167.695 102.222 168.05 102.465 168.499C102.711 168.948 102.835 169.51 102.835 170.184V176.977H100.535V175.582H100.456C100.31 175.864 100.106 176.129 99.8414 176.375C99.5815 176.618 99.2533 176.814 98.8569 176.963C98.4648 177.109 98.0045 177.181 97.4759 177.181ZM98.097 175.424C98.5771 175.424 98.9934 175.329 99.3458 175.14C99.6982 174.946 99.9691 174.69 100.159 174.373C100.352 174.056 100.449 173.71 100.449 173.336V172.14C100.374 172.202 100.247 172.259 100.066 172.312C99.8898 172.365 99.6916 172.411 99.4713 172.45C99.2511 172.49 99.0331 172.525 98.8172 172.556C98.6014 172.587 98.4142 172.613 98.2556 172.635C97.8988 172.684 97.5794 172.763 97.2975 172.873C97.0156 172.983 96.7931 173.138 96.6301 173.336C96.4671 173.53 96.3857 173.781 96.3857 174.089C96.3857 174.53 96.5464 174.862 96.868 175.087C97.1896 175.311 97.5992 175.424 98.097 175.424ZM109.667 177.175C108.654 177.175 107.784 176.952 107.057 176.507C106.334 176.063 105.777 175.448 105.385 174.664C104.997 173.875 104.804 172.968 104.804 171.942C104.804 170.911 105.002 170.001 105.398 169.213C105.795 168.42 106.354 167.803 107.077 167.363C107.803 166.918 108.662 166.695 109.653 166.695C110.477 166.695 111.206 166.847 111.841 167.151C112.479 167.451 112.988 167.876 113.367 168.426C113.746 168.973 113.962 169.611 114.014 170.343H111.728C111.636 169.854 111.415 169.446 111.067 169.12C110.724 168.79 110.264 168.625 109.687 168.625C109.198 168.625 108.768 168.757 108.398 169.021C108.028 169.281 107.74 169.655 107.532 170.144C107.33 170.633 107.229 171.219 107.229 171.902C107.229 172.594 107.33 173.188 107.532 173.686C107.735 174.179 108.019 174.56 108.385 174.829C108.755 175.093 109.189 175.226 109.687 175.226C110.039 175.226 110.354 175.16 110.631 175.027C110.913 174.891 111.149 174.695 111.338 174.439C111.528 174.184 111.658 173.873 111.728 173.508H114.014C113.957 174.226 113.746 174.862 113.38 175.417C113.014 175.968 112.517 176.4 111.887 176.712C111.257 177.021 110.517 177.175 109.667 177.175ZM121.046 166.827V168.678H115.212V166.827H121.046ZM116.652 164.396H119.044V173.924C119.044 174.245 119.093 174.492 119.19 174.664C119.291 174.831 119.423 174.946 119.586 175.008C119.749 175.069 119.93 175.1 120.128 175.1C120.278 175.1 120.414 175.089 120.538 175.067C120.665 175.045 120.762 175.025 120.828 175.008L121.231 176.877C121.104 176.922 120.921 176.97 120.683 177.023C120.45 177.076 120.163 177.107 119.824 177.115C119.225 177.133 118.685 177.043 118.205 176.844C117.725 176.642 117.344 176.329 117.062 175.906C116.785 175.483 116.648 174.955 116.652 174.32V164.396ZM123.047 176.977V166.827H125.439V176.977H123.047ZM124.249 165.387C123.871 165.387 123.545 165.262 123.271 165.01C122.998 164.755 122.862 164.449 122.862 164.092C122.862 163.731 122.998 163.425 123.271 163.174C123.545 162.918 123.871 162.79 124.249 162.79C124.633 162.79 124.959 162.918 125.227 163.174C125.5 163.425 125.637 163.731 125.637 164.092C125.637 164.449 125.5 164.755 125.227 165.01C124.959 165.262 124.633 165.387 124.249 165.387ZM136.964 166.827L133.35 176.977H130.707L127.092 166.827H129.643L131.975 174.367H132.081L134.42 166.827H136.964ZM138.619 176.977V166.827H141.011V176.977H138.619ZM139.822 165.387C139.443 165.387 139.117 165.262 138.844 165.01C138.571 164.755 138.434 164.449 138.434 164.092C138.434 163.731 138.571 163.425 138.844 163.174C139.117 162.918 139.443 162.79 139.822 162.79C140.205 162.79 140.531 162.918 140.799 163.174C141.073 163.425 141.209 163.731 141.209 164.092C141.209 164.449 141.073 164.755 140.799 165.01C140.531 165.262 140.205 165.387 139.822 165.387ZM148.538 166.827V168.678H142.704V166.827H148.538ZM144.145 164.396H146.536V173.924C146.536 174.245 146.585 174.492 146.682 174.664C146.783 174.831 146.915 174.946 147.078 175.008C147.241 175.069 147.422 175.1 147.62 175.1C147.77 175.1 147.906 175.089 148.03 175.067C148.157 175.045 148.254 175.025 148.32 175.008L148.723 176.877C148.596 176.922 148.413 176.97 148.175 177.023C147.942 177.076 147.655 177.107 147.316 177.115C146.717 177.133 146.177 177.043 145.697 176.844C145.217 176.642 144.836 176.329 144.554 175.906C144.277 175.483 144.14 174.955 144.145 174.32V164.396ZM150.539 176.977V166.827H152.931V176.977H150.539ZM151.741 165.387C151.363 165.387 151.037 165.262 150.764 165.01C150.49 164.755 150.354 164.449 150.354 164.092C150.354 163.731 150.49 163.425 150.764 163.174C151.037 162.918 151.363 162.79 151.741 162.79C152.125 162.79 152.451 162.918 152.719 163.174C152.992 163.425 153.129 163.731 153.129 164.092C153.129 164.449 152.992 164.755 152.719 165.01C152.451 165.262 152.125 165.387 151.741 165.387ZM159.884 177.175C158.866 177.175 157.987 176.963 157.247 176.54C156.512 176.113 155.945 175.51 155.549 174.73C155.153 173.946 154.954 173.023 154.954 171.961C154.954 170.918 155.153 170.001 155.549 169.213C155.95 168.42 156.509 167.803 157.227 167.363C157.945 166.918 158.789 166.695 159.758 166.695C160.383 166.695 160.974 166.797 161.529 166.999C162.088 167.197 162.582 167.506 163.009 167.924C163.441 168.343 163.78 168.876 164.026 169.523C164.273 170.166 164.396 170.933 164.396 171.823V172.556H156.078V170.944H162.104C162.099 170.486 162 170.078 161.806 169.722C161.612 169.36 161.342 169.076 160.994 168.869C160.65 168.662 160.249 168.559 159.791 168.559C159.302 168.559 158.873 168.678 158.503 168.915C158.133 169.149 157.844 169.457 157.637 169.84C157.434 170.219 157.331 170.636 157.326 171.089V172.497C157.326 173.087 157.434 173.594 157.65 174.016C157.866 174.435 158.168 174.756 158.555 174.981C158.943 175.201 159.397 175.311 159.917 175.311C160.265 175.311 160.58 175.263 160.861 175.166C161.143 175.065 161.388 174.917 161.595 174.723C161.802 174.53 161.958 174.29 162.064 174.003L164.297 174.254C164.156 174.845 163.888 175.36 163.491 175.8C163.099 176.237 162.597 176.576 161.985 176.818C161.372 177.056 160.672 177.175 159.884 177.175ZM174.441 169.51L172.261 169.748C172.199 169.528 172.091 169.321 171.937 169.127C171.787 168.933 171.585 168.777 171.329 168.658C171.074 168.539 170.761 168.479 170.391 168.479C169.893 168.479 169.475 168.587 169.136 168.803C168.801 169.019 168.636 169.299 168.64 169.642C168.636 169.937 168.744 170.177 168.964 170.362C169.189 170.547 169.559 170.699 170.074 170.818L171.805 171.188C172.765 171.395 173.479 171.724 173.946 172.173C174.417 172.622 174.655 173.21 174.659 173.937C174.655 174.576 174.468 175.14 174.098 175.629C173.732 176.113 173.223 176.492 172.572 176.765C171.92 177.038 171.171 177.175 170.325 177.175C169.083 177.175 168.083 176.915 167.325 176.395C166.568 175.871 166.116 175.142 165.971 174.208L168.303 173.983C168.409 174.441 168.633 174.787 168.977 175.021C169.321 175.254 169.768 175.371 170.318 175.371C170.887 175.371 171.343 175.254 171.686 175.021C172.034 174.787 172.208 174.499 172.208 174.155C172.208 173.864 172.096 173.624 171.871 173.435C171.651 173.246 171.307 173.1 170.84 172.999L169.109 172.635C168.136 172.433 167.415 172.091 166.949 171.611C166.482 171.127 166.25 170.514 166.255 169.774C166.25 169.149 166.42 168.607 166.764 168.149C167.112 167.686 167.594 167.33 168.211 167.079C168.832 166.823 169.548 166.695 170.358 166.695C171.547 166.695 172.483 166.949 173.166 167.455C173.853 167.962 174.278 168.647 174.441 169.51Z" fill="black"/>
</svg>
