<svg width="70" height="70" viewBox="0 0 70 70" fill="none" xmlns="http://www.w3.org/2000/svg">
<path fill-rule="evenodd" clip-rule="evenodd" d="M34.9999 13.4739C26.9812 13.4739 20.4807 19.9744 20.4807 27.9931C20.4807 36.0119 26.9807 42.5123 34.9994 42.5123C43.0182 42.5123 49.5192 36.0118 49.5192 27.9931C49.5192 19.9744 43.0187 13.4739 34.9999 13.4739ZM16.9961 27.9931C16.9961 18.0499 25.0567 9.98926 34.9999 9.98926C44.9432 9.98926 53.0038 18.0499 53.0038 27.9931C53.0038 37.3486 45.8675 45.0374 36.7417 45.9137V48.32H40.8077C41.77 48.32 42.55 49.1001 42.55 50.0623C42.55 51.0246 41.77 51.8046 40.8077 51.8046H36.7418L36.7423 58.193C36.7424 59.1552 35.9624 59.9353 35.0001 59.9354C34.0379 59.9355 33.2578 59.1555 33.2577 58.1932L33.2572 51.8046H29.1923C28.2301 51.8046 27.45 51.0246 27.45 50.0623C27.45 49.1001 28.2301 48.32 29.1923 48.32H33.2571V45.9137C24.1314 45.0374 16.9961 37.3485 16.9961 27.9931Z" fill="#FC89D5"/>
<path d="M46.6147 27.9935C45.3755 24.1167 42.57 15.9765 32.0955 16.3781" stroke="#FC89D5" stroke-width="2.32308" stroke-linecap="round"/>
</svg>
