<svg width="58" height="58" viewBox="0 0 58 58" fill="none" xmlns="http://www.w3.org/2000/svg">
<g clip-path="url(#clip0_445_2097)">
<rect width="58" height="58" rx="29" fill="#253237"/>
<rect x="3.17505" y="17.095" width="30.7705" height="47.8653" rx="4.27368" fill="#253237"/>
<rect x="3.17505" y="17.095" width="30.7705" height="47.8653" rx="4.27368" stroke="white" stroke-width="1.70947"/>
<rect x="5.73828" y="19.6602" width="25.6421" height="15.3853" rx="1.70947" fill="white"/>
<rect x="10.8672" y="38.4648" width="17.0947" height="5.12842" rx="2.56421" fill="#66E4FE"/>
<rect x="26.6797" y="11.5996" width="22.04" height="16.24" rx="1.16" fill="#66E4FE"/>
<path d="M45.1702 15.7759C45.1702 16.801 44.318 17.6319 43.2667 17.6319C42.2155 17.6319 41.3633 16.801 41.3633 15.7759C41.3633 14.7509 42.2155 13.9199 43.2667 13.9199C44.318 13.9199 45.1702 14.7509 45.1702 15.7759Z" fill="#060407"/>
<path fill-rule="evenodd" clip-rule="evenodd" d="M40.0943 15.1573H37.5563C35.1636 15.1573 33.9672 15.1573 33.2238 15.8821C32.4805 16.6069 32.4805 17.7735 32.4805 20.1066C32.4805 22.4397 32.4805 23.6063 33.2238 24.3311C33.9672 25.0559 35.1636 25.0559 37.5563 25.0559H40.0943C42.4871 25.0559 43.6835 25.0559 44.4268 24.3311C45.1702 23.6063 45.1702 22.4397 45.1702 20.1066C45.1702 19.2074 45.1702 18.4815 45.1276 17.8874C44.6279 18.3066 43.9776 18.5599 43.2667 18.5599C42.963 18.5599 42.6704 18.5137 42.3958 18.428L41.5432 19.1208C40.9808 19.5778 40.525 19.9482 40.1227 20.2005C39.7037 20.4633 39.2955 20.6293 38.8253 20.6293C38.3551 20.6293 37.947 20.4633 37.5279 20.2005C37.1256 19.9482 36.6698 19.5778 36.1074 19.1208L34.7138 17.9884C34.5119 17.8243 34.4846 17.5317 34.6528 17.3349C34.8211 17.138 35.1212 17.1114 35.323 17.2755L36.6928 18.3885C37.2848 18.8695 37.6958 19.2024 38.0427 19.4199C38.3786 19.6306 38.6064 19.7013 38.8253 19.7013C39.0443 19.7013 39.272 19.6306 39.6079 19.4199C39.9549 19.2024 40.3658 18.8695 40.9578 18.3885L41.4904 17.9557C40.833 17.4457 40.4115 16.6588 40.4115 15.7759C40.4115 15.5633 40.436 15.3563 40.4823 15.1574C40.3565 15.1573 40.2273 15.1573 40.0943 15.1573Z" fill="#060407"/>
</g>
<defs>
<clipPath id="clip0_445_2097">
<rect width="58" height="58" rx="29" fill="white"/>
</clipPath>
</defs>
</svg>
