<svg width="58" height="58" viewBox="0 0 58 58" fill="none" xmlns="http://www.w3.org/2000/svg">
<rect width="58" height="58" rx="29" fill="#253237"/>
<rect x="12.5526" y="8.55263" width="19.8947" height="30.9474" rx="2.76316" fill="#253237"/>
<rect x="12.5526" y="8.55263" width="19.8947" height="30.9474" rx="2.76316" stroke="white" stroke-width="1.10526"/>
<path d="M25.5281 17.5234C24.2992 20.415 22.4257 20.174 21.6426 19.6921C22.0225 20.9268 23.0471 21.2152 23.9787 21.1567C24.8419 21.1026 25.6132 20.557 26.0034 19.7852C26.6729 18.4608 26.0363 17.7413 25.5281 17.5234Z" fill="#66E4FE" stroke="#66E4FE" stroke-width="0.18072"/>
<path d="M20.0294 21.2023C20.7917 18.1544 22.6798 18.0999 23.5286 18.4537C22.9606 17.2934 21.9035 17.1685 20.9924 17.3717C20.1483 17.56 19.4716 18.2192 19.2068 19.0425C18.7522 20.4552 19.4933 21.0665 20.0294 21.2023Z" fill="#66E4FE"/>
<path d="M18.3303 24.9765C18.185 24.9765 18.0587 24.9557 17.9515 24.9142C17.846 24.8727 17.7655 24.8173 17.7102 24.7481C17.6548 24.6789 17.6271 24.6046 17.6271 24.525C17.6271 24.4593 17.6444 24.4091 17.679 24.3745C17.7136 24.3382 17.7664 24.32 17.8373 24.32C17.8373 24.467 17.8814 24.5795 17.9696 24.6573C18.0579 24.7334 18.1816 24.7715 18.3407 24.7715C18.4929 24.7715 18.6097 24.7464 18.691 24.6962C18.7723 24.6444 18.8129 24.5682 18.8129 24.4679C18.8129 24.4074 18.7974 24.3581 18.7662 24.32C18.7368 24.2802 18.6858 24.2465 18.6131 24.2188C18.5422 24.1894 18.4393 24.16 18.3044 24.1306C18.1452 24.096 18.0189 24.0562 17.9255 24.0112C17.8321 23.9645 17.7638 23.9083 17.7206 23.8426C17.6773 23.7768 17.6557 23.6955 17.6557 23.5987C17.6557 23.5018 17.6825 23.417 17.7361 23.3444C17.7915 23.27 17.8693 23.2129 17.9696 23.1731C18.07 23.1333 18.1867 23.1134 18.3199 23.1134C18.4462 23.1134 18.5587 23.1316 18.6573 23.1679C18.7576 23.2025 18.8354 23.2527 18.8908 23.3184C18.9479 23.3824 18.9764 23.4551 18.9764 23.5364C18.9764 23.5866 18.96 23.6263 18.9271 23.6558C18.896 23.6834 18.8467 23.6973 18.7792 23.6973C18.7602 23.5658 18.7135 23.4698 18.6391 23.4093C18.5664 23.3487 18.4601 23.3184 18.3199 23.3184C18.185 23.3184 18.0812 23.3427 18.0086 23.3911C17.9359 23.4378 17.8996 23.5044 17.8996 23.5909C17.8996 23.6514 17.9126 23.7016 17.9385 23.7414C17.9662 23.7794 18.012 23.8123 18.076 23.84C18.1418 23.8677 18.2334 23.8945 18.3511 23.9204C18.5275 23.9585 18.6659 24.0009 18.7662 24.0476C18.8683 24.0943 18.9418 24.1513 18.9868 24.2188C19.0318 24.2863 19.0543 24.3693 19.0543 24.4679C19.0543 24.6253 18.9885 24.7499 18.8571 24.8416C18.7256 24.9315 18.55 24.9765 18.3303 24.9765ZM20.2294 24.9765C20.0859 24.9765 19.957 24.9488 19.8428 24.8934C19.7304 24.8364 19.6422 24.7585 19.5781 24.6599C19.5141 24.5596 19.4821 24.4489 19.4821 24.3278V23.7569C19.4821 23.6359 19.5141 23.5269 19.5781 23.43C19.6422 23.3314 19.7304 23.2544 19.8428 23.1991C19.957 23.142 20.0859 23.1134 20.2294 23.1134C20.3747 23.1134 20.5036 23.142 20.616 23.1991C20.7302 23.2544 20.8193 23.3314 20.8833 23.43C20.9473 23.5269 20.9793 23.6359 20.9793 23.7569V24.3278C20.9793 24.4489 20.9473 24.5596 20.8833 24.6599C20.8193 24.7585 20.7302 24.8364 20.616 24.8934C20.5019 24.9488 20.373 24.9765 20.2294 24.9765ZM20.2294 24.7637C20.3903 24.7637 20.5157 24.7239 20.6057 24.6444C20.6956 24.5648 20.7406 24.4584 20.7406 24.3252V23.7621C20.7406 23.6289 20.6956 23.5234 20.6057 23.4456C20.5157 23.366 20.3903 23.3262 20.2294 23.3262C20.0703 23.3262 19.9457 23.366 19.8558 23.4456C19.7658 23.5234 19.7209 23.6289 19.7209 23.7621V24.3252C19.7209 24.4584 19.7658 24.5648 19.8558 24.6444C19.9457 24.7239 20.0703 24.7637 20.2294 24.7637ZM21.5112 23.3158C21.5112 23.2518 21.5328 23.2025 21.5761 23.1679C21.6193 23.1316 21.679 23.1134 21.7551 23.1134V24.0034L22.7022 23.1134C22.7316 23.1377 22.7558 23.1636 22.7749 23.1913C22.7939 23.2172 22.8034 23.2406 22.8034 23.2614C22.8034 23.3046 22.7775 23.3504 22.7256 23.3989L22.1184 23.9697L22.902 24.909C22.883 24.9298 22.8605 24.9462 22.8345 24.9583C22.8103 24.9704 22.7861 24.9765 22.7619 24.9765C22.6944 24.9765 22.6399 24.9523 22.5984 24.9038L21.9419 24.1254L21.7551 24.2992V24.7819C21.7551 24.8476 21.7352 24.8969 21.6954 24.9298C21.6557 24.9609 21.5942 24.9765 21.5112 24.9765V23.3158ZM23.4195 24.9765C23.3676 24.9661 23.327 24.9445 23.2976 24.9116C23.2681 24.877 23.2534 24.8355 23.2534 24.7871C23.2534 24.7542 23.2612 24.7196 23.2768 24.6833L23.8969 23.1913C23.9177 23.1394 23.9575 23.1134 24.0163 23.1134C24.0717 23.1134 24.1106 23.1394 24.1331 23.1913L24.7532 24.6833C24.7688 24.7196 24.7766 24.7542 24.7766 24.7871C24.7766 24.8338 24.7619 24.8744 24.7325 24.909C24.703 24.9436 24.6624 24.9661 24.6105 24.9765L24.3873 24.4342H23.6427L23.4195 24.9765ZM24.3121 24.224L23.9774 23.3755L23.9566 23.3833L24.0033 23.5027L23.7179 24.224H24.3121ZM25.3079 23.251C25.3079 23.2181 25.3191 23.1913 25.3416 23.1705C25.3658 23.148 25.3961 23.1368 25.4324 23.1368H26.1486C26.3163 23.1368 26.4495 23.1861 26.5481 23.2847C26.6485 23.3816 26.6986 23.5113 26.6986 23.6739C26.6986 23.878 26.6096 24.0225 26.4314 24.1072V24.115C26.5092 24.1479 26.5689 24.1981 26.6104 24.2655C26.6519 24.3313 26.6727 24.4117 26.6727 24.5068V24.7741C26.6727 24.8398 26.6519 24.89 26.6104 24.9246C26.5689 24.9592 26.5084 24.9765 26.4288 24.9765V24.5224C26.4288 24.4203 26.4054 24.3434 26.3587 24.2915C26.3138 24.2378 26.2463 24.211 26.1563 24.211H25.5492V24.7741C25.5492 24.8398 25.5284 24.89 25.4869 24.9246C25.4471 24.9592 25.3874 24.9765 25.3079 24.9765V23.251ZM26.1408 24.0009C26.2359 24.0009 26.3112 23.9714 26.3665 23.9126C26.4236 23.8538 26.4521 23.7734 26.4521 23.6713C26.4521 23.5675 26.4253 23.488 26.3717 23.4326C26.3181 23.3772 26.2411 23.3496 26.1408 23.3496H25.5492V24.0009H26.1408Z" fill="#66E4FE"/>
<rect x="14.25" y="27.9531" width="16.5" height="3.75" rx="1.875" fill="#66E4FE"/>
<rect x="26.5526" y="18.5526" width="19.8947" height="30.9474" rx="2.76316" fill="#253237"/>
<rect x="26.5526" y="18.5526" width="19.8947" height="30.9474" rx="2.76316" stroke="white" stroke-width="1.10526"/>
<path d="M39.5281 27.5234C38.2992 30.415 36.4257 30.174 35.6426 29.6921C36.0225 30.9268 37.0471 31.2152 37.9787 31.1567C38.8419 31.1026 39.6132 30.557 40.0034 29.7852C40.6729 28.4608 40.0363 27.7413 39.5281 27.5234Z" fill="#66E4FE" stroke="#66E4FE" stroke-width="0.18072"/>
<path d="M34.0294 31.2023C34.7917 28.1544 36.6798 28.0999 37.5286 28.4537C36.9606 27.2934 35.9035 27.1685 34.9924 27.3717C34.1483 27.56 33.4716 28.2192 33.2068 29.0425C32.7522 30.4552 33.4933 31.0665 34.0294 31.2023Z" fill="#66E4FE"/>
<path d="M32.3303 34.9765C32.185 34.9765 32.0587 34.9557 31.9515 34.9142C31.846 34.8727 31.7655 34.8173 31.7102 34.7481C31.6548 34.6789 31.6271 34.6046 31.6271 34.525C31.6271 34.4593 31.6444 34.4091 31.679 34.3745C31.7136 34.3382 31.7664 34.32 31.8373 34.32C31.8373 34.467 31.8814 34.5795 31.9696 34.6573C32.0579 34.7334 32.1816 34.7715 32.3407 34.7715C32.4929 34.7715 32.6097 34.7464 32.691 34.6962C32.7723 34.6444 32.8129 34.5682 32.8129 34.4679C32.8129 34.4074 32.7974 34.3581 32.7662 34.32C32.7368 34.2802 32.6858 34.2465 32.6131 34.2188C32.5422 34.1894 32.4393 34.16 32.3044 34.1306C32.1452 34.096 32.0189 34.0562 31.9255 34.0112C31.8321 33.9645 31.7638 33.9083 31.7206 33.8426C31.6773 33.7768 31.6557 33.6955 31.6557 33.5987C31.6557 33.5018 31.6825 33.417 31.7361 33.3444C31.7915 33.27 31.8693 33.2129 31.9696 33.1731C32.07 33.1333 32.1867 33.1134 32.3199 33.1134C32.4462 33.1134 32.5587 33.1316 32.6573 33.1679C32.7576 33.2025 32.8354 33.2527 32.8908 33.3184C32.9479 33.3824 32.9764 33.4551 32.9764 33.5364C32.9764 33.5866 32.96 33.6263 32.9271 33.6558C32.896 33.6834 32.8467 33.6973 32.7792 33.6973C32.7602 33.5658 32.7135 33.4698 32.6391 33.4093C32.5664 33.3487 32.4601 33.3184 32.3199 33.3184C32.185 33.3184 32.0812 33.3427 32.0086 33.3911C31.9359 33.4378 31.8996 33.5044 31.8996 33.5909C31.8996 33.6514 31.9126 33.7016 31.9385 33.7414C31.9662 33.7794 32.012 33.8123 32.076 33.84C32.1418 33.8677 32.2334 33.8945 32.3511 33.9204C32.5275 33.9585 32.6659 34.0009 32.7662 34.0476C32.8683 34.0943 32.9418 34.1513 32.9868 34.2188C33.0318 34.2863 33.0543 34.3693 33.0543 34.4679C33.0543 34.6253 32.9885 34.7499 32.8571 34.8416C32.7256 34.9315 32.55 34.9765 32.3303 34.9765ZM34.2294 34.9765C34.0859 34.9765 33.957 34.9488 33.8428 34.8934C33.7304 34.8364 33.6422 34.7585 33.5781 34.6599C33.5141 34.5596 33.4821 34.4489 33.4821 34.3278V33.7569C33.4821 33.6359 33.5141 33.5269 33.5781 33.43C33.6422 33.3314 33.7304 33.2544 33.8428 33.1991C33.957 33.142 34.0859 33.1134 34.2294 33.1134C34.3747 33.1134 34.5036 33.142 34.616 33.1991C34.7302 33.2544 34.8193 33.3314 34.8833 33.43C34.9473 33.5269 34.9793 33.6359 34.9793 33.7569V34.3278C34.9793 34.4489 34.9473 34.5596 34.8833 34.6599C34.8193 34.7585 34.7302 34.8364 34.616 34.8934C34.5019 34.9488 34.373 34.9765 34.2294 34.9765ZM34.2294 34.7637C34.3903 34.7637 34.5157 34.7239 34.6057 34.6444C34.6956 34.5648 34.7406 34.4584 34.7406 34.3252V33.7621C34.7406 33.6289 34.6956 33.5234 34.6057 33.4456C34.5157 33.366 34.3903 33.3262 34.2294 33.3262C34.0703 33.3262 33.9457 33.366 33.8558 33.4456C33.7658 33.5234 33.7209 33.6289 33.7209 33.7621V34.3252C33.7209 34.4584 33.7658 34.5648 33.8558 34.6444C33.9457 34.7239 34.0703 34.7637 34.2294 34.7637ZM35.5112 33.3158C35.5112 33.2518 35.5328 33.2025 35.5761 33.1679C35.6193 33.1316 35.679 33.1134 35.7551 33.1134V34.0034L36.7022 33.1134C36.7316 33.1377 36.7558 33.1636 36.7749 33.1913C36.7939 33.2172 36.8034 33.2406 36.8034 33.2614C36.8034 33.3046 36.7775 33.3504 36.7256 33.3989L36.1184 33.9697L36.902 34.909C36.883 34.9298 36.8605 34.9462 36.8345 34.9583C36.8103 34.9704 36.7861 34.9765 36.7619 34.9765C36.6944 34.9765 36.6399 34.9523 36.5984 34.9038L35.9419 34.1254L35.7551 34.2992V34.7819C35.7551 34.8476 35.7352 34.8969 35.6954 34.9298C35.6557 34.9609 35.5942 34.9765 35.5112 34.9765V33.3158ZM37.4195 34.9765C37.3676 34.9661 37.327 34.9445 37.2976 34.9116C37.2681 34.877 37.2534 34.8355 37.2534 34.7871C37.2534 34.7542 37.2612 34.7196 37.2768 34.6833L37.8969 33.1913C37.9177 33.1394 37.9575 33.1134 38.0163 33.1134C38.0717 33.1134 38.1106 33.1394 38.1331 33.1913L38.7532 34.6833C38.7688 34.7196 38.7766 34.7542 38.7766 34.7871C38.7766 34.8338 38.7619 34.8744 38.7325 34.909C38.703 34.9436 38.6624 34.9661 38.6105 34.9765L38.3873 34.4342H37.6427L37.4195 34.9765ZM38.3121 34.224L37.9774 33.3755L37.9566 33.3833L38.0033 33.5027L37.7179 34.224H38.3121ZM39.3079 33.251C39.3079 33.2181 39.3191 33.1913 39.3416 33.1705C39.3658 33.148 39.3961 33.1368 39.4324 33.1368H40.1486C40.3163 33.1368 40.4495 33.1861 40.5481 33.2847C40.6485 33.3816 40.6986 33.5113 40.6986 33.6739C40.6986 33.878 40.6096 34.0225 40.4314 34.1072V34.115C40.5092 34.1479 40.5689 34.1981 40.6104 34.2655C40.6519 34.3313 40.6727 34.4117 40.6727 34.5068V34.7741C40.6727 34.8398 40.6519 34.89 40.6104 34.9246C40.5689 34.9592 40.5084 34.9765 40.4288 34.9765V34.5224C40.4288 34.4203 40.4054 34.3434 40.3587 34.2915C40.3138 34.2378 40.2463 34.211 40.1563 34.211H39.5492V34.7741C39.5492 34.8398 39.5284 34.89 39.4869 34.9246C39.4471 34.9592 39.3874 34.9765 39.3079 34.9765V33.251ZM40.1408 34.0009C40.2359 34.0009 40.3112 33.9714 40.3665 33.9126C40.4236 33.8538 40.4521 33.7734 40.4521 33.6713C40.4521 33.5675 40.4253 33.488 40.3717 33.4326C40.3181 33.3772 40.2411 33.3496 40.1408 33.3496H39.5492V34.0009H40.1408Z" fill="#66E4FE"/>
<rect x="28.25" y="37.9531" width="16.5" height="3.75" rx="1.875" fill="#66E4FE"/>
</svg>
