<svg width="20" height="21" viewBox="0 0 20 21" fill="none" xmlns="http://www.w3.org/2000/svg">
<path fill-rule="evenodd" clip-rule="evenodd" d="M10 10.75C10.4142 10.75 10.75 11.0858 10.75 11.5V12.25H11.5C11.9142 12.25 12.25 12.5858 12.25 13C12.25 13.4142 11.9142 13.75 11.5 13.75H10.75V14.5C10.75 14.9142 10.4142 15.25 10 15.25C9.58579 15.25 9.25 14.9142 9.25 14.5V13.75H8.5C8.08579 13.75 7.75 13.4142 7.75 13C7.75 12.5858 8.08579 12.25 8.5 12.25H9.25V11.5C9.25 11.0858 9.58579 10.75 10 10.75Z" fill="#76B671"/>
<path fill-rule="evenodd" clip-rule="evenodd" d="M9.948 0.250001C9.04953 0.249973 8.3003 0.249949 7.70552 0.329914C7.07773 0.414319 6.51093 0.59999 6.05546 1.05546C5.59999 1.51093 5.41432 2.07773 5.32991 2.70552C5.24995 3.3003 5.24997 4.04952 5.25 4.948L5.25 5.02572C3.22882 5.09185 2.01511 5.32803 1.17157 6.17158C0 7.34315 0 9.22877 0 13C0 16.7712 0 18.6569 1.17157 19.8284C2.34314 21 4.22876 21 7.99998 21H12C15.7712 21 17.6569 21 18.8284 19.8284C20 18.6569 20 16.7712 20 13C20 9.22877 20 7.34315 18.8284 6.17158C17.9849 5.32803 16.7712 5.09185 14.75 5.02572L14.75 4.94801C14.75 4.04954 14.7501 3.3003 14.6701 2.70552C14.5857 2.07773 14.4 1.51093 13.9445 1.05546C13.4891 0.59999 12.9223 0.414319 12.2945 0.329914C11.6997 0.249949 10.9505 0.249973 10.052 0.250001H9.948ZM13.25 5.00189V5C13.25 4.03599 13.2484 3.38843 13.1835 2.9054C13.1214 2.44393 13.0142 2.24644 12.8839 2.11612C12.7536 1.9858 12.5561 1.87858 12.0946 1.81654C11.6116 1.7516 10.964 1.75 10 1.75C9.03599 1.75 8.38843 1.7516 7.90539 1.81654C7.44393 1.87858 7.24643 1.9858 7.11612 2.11612C6.9858 2.24644 6.87858 2.44393 6.81654 2.9054C6.75159 3.38843 6.75 4.03599 6.75 5V5.00189C7.14203 5 7.55807 5 8 5H12C12.4419 5 12.858 5 13.25 5.00189ZM14 13C14 15.2091 12.2091 17 10 17C7.79086 17 6 15.2091 6 13C6 10.7909 7.79086 9 10 9C12.2091 9 14 10.7909 14 13Z" fill="#76B671"/>
</svg>
