<svg width="180" height="117" viewBox="0 0 180 117" fill="none" xmlns="http://www.w3.org/2000/svg">
<g clip-path="url(#clip0_2321_93)">
<rect x="0.00976562" y="0.259277" width="179.608" height="116.449" rx="13.2384" fill="#66E4FE"/>
<path d="M27.5234 18.3711C29.0235 18.3711 30.3195 18.654 31.4117 19.2198C32.5169 19.7725 33.3591 20.5685 33.938 21.608C34.5301 22.6475 34.8262 23.8712 34.8262 25.2791C34.8262 26.687 34.5301 27.9108 33.938 28.9502C33.3591 29.9766 32.5169 30.7661 31.4117 31.3187C30.3195 31.8582 29.0235 32.1279 27.5234 32.1279H23.2405L23.2405 18.3711H27.5234ZM27.5234 30.6476C29.2998 30.6476 30.6551 30.1805 31.5893 29.2463C32.5235 28.2989 32.9906 26.9765 32.9906 25.2791C32.9906 23.5686 32.5169 22.233 31.5696 21.2725C30.6353 20.3119 29.2866 19.8317 27.5234 19.8317H25.0365L25.0365 30.6476H27.5234ZM36.5242 26.6805C36.5242 25.5752 36.7479 24.6081 37.1953 23.7791C37.6426 22.937 38.2545 22.2857 39.0308 21.8251C39.8203 21.3646 40.6953 21.1343 41.6559 21.1343C42.6033 21.1343 43.4256 21.3383 44.123 21.7462C44.8204 22.1541 45.3401 22.6672 45.6823 23.2857V21.312H47.4981V32.1279H45.6823V30.1147C45.327 30.7463 44.7941 31.2727 44.0835 31.6937C43.3862 32.1016 42.5704 32.3056 41.6361 32.3056C40.6756 32.3056 39.8072 32.0687 39.0308 31.595C38.2545 31.1213 37.6426 30.4568 37.1953 29.6016C36.7479 28.7463 36.5242 27.7726 36.5242 26.6805ZM45.6823 26.7002C45.6823 25.8844 45.5178 25.1739 45.1888 24.5686C44.8599 23.9633 44.4125 23.5028 43.8467 23.187C43.2941 22.858 42.6822 22.6936 42.0111 22.6936C41.3401 22.6936 40.7282 22.8515 40.1756 23.1672C39.6229 23.483 39.1821 23.9436 38.8532 24.5489C38.5242 25.1541 38.3598 25.8647 38.3598 26.6805C38.3598 27.5094 38.5242 28.2331 38.8532 28.8516C39.1821 29.4568 39.6229 29.9239 40.1756 30.2529C40.7282 30.5687 41.3401 30.7266 42.0111 30.7266C42.6822 30.7266 43.2941 30.5687 43.8467 30.2529C44.4125 29.9239 44.8599 29.4568 45.1888 28.8516C45.5178 28.2331 45.6823 27.516 45.6823 26.7002ZM51.4609 19.5553C51.1188 19.5553 50.8293 19.4369 50.5925 19.2001C50.3557 18.9632 50.2372 18.6738 50.2372 18.3316C50.2372 17.9895 50.3557 17.7001 50.5925 17.4632C50.8293 17.2264 51.1188 17.1079 51.4609 17.1079C51.7899 17.1079 52.0662 17.2264 52.2899 17.4632C52.5267 17.7001 52.6452 17.9895 52.6452 18.3316C52.6452 18.6738 52.5267 18.9632 52.2899 19.2001C52.0662 19.4369 51.7899 19.5553 51.4609 19.5553ZM52.3294 21.312V32.1279H50.5333V21.312H52.3294ZM57.1866 17.5224V32.1279H55.3905V17.5224H57.1866ZM69.5636 21.312L63.0504 37.2201H61.1951L63.3267 32.0095L58.9648 21.312H60.9582L64.353 30.0753L67.7083 21.312H69.5636ZM87.0523 22.358C86.6707 21.5554 86.1181 20.9369 85.3944 20.5027C84.6707 20.0554 83.8286 19.8317 82.868 19.8317C81.9075 19.8317 81.0391 20.0554 80.2627 20.5027C79.4996 20.9369 78.8943 21.5685 78.4469 22.3975C78.0127 23.2133 77.7956 24.1607 77.7956 25.2397C77.7956 26.3186 78.0127 27.266 78.4469 28.0818C78.8943 28.8976 79.4996 29.5292 80.2627 29.9766C81.0391 30.4108 81.9075 30.6279 82.868 30.6279C84.2102 30.6279 85.3154 30.2266 86.1839 29.4239C87.0523 28.6213 87.5589 27.5357 87.7036 26.1673H82.2167V24.7067H89.6181V26.0884C89.5129 27.22 89.1576 28.2594 88.5523 29.2068C87.9471 30.1411 87.151 30.8845 86.1641 31.4371C85.1773 31.9766 84.0786 32.2464 82.868 32.2464C81.5917 32.2464 80.4272 31.9503 79.3746 31.3582C78.3219 30.7529 77.4864 29.9174 76.8679 28.8516C76.2627 27.7857 75.96 26.5818 75.96 25.2397C75.96 23.8975 76.2627 22.6936 76.8679 21.6277C77.4864 20.5488 78.3219 19.7132 79.3746 19.1211C80.4272 18.5159 81.5917 18.2132 82.868 18.2132C84.3286 18.2132 85.6181 18.5751 86.7365 19.2988C87.8681 20.0225 88.6905 21.0422 89.2037 22.358H87.0523ZM93.789 17.5224V32.1279H91.9929V17.5224H93.789ZM106.442 21.312V32.1279H104.646V30.5292C104.304 31.0819 103.824 31.5161 103.206 31.8319C102.6 32.1345 101.929 32.2858 101.192 32.2858C100.35 32.2858 99.5936 32.1148 98.9225 31.7727C98.2515 31.4174 97.7186 30.8911 97.3238 30.1937C96.9422 29.4963 96.7514 28.6476 96.7514 27.6476V21.312H98.5278V27.4107C98.5278 28.4766 98.7975 29.2989 99.337 29.8779C99.8765 30.4437 100.613 30.7266 101.548 30.7266C102.508 30.7266 103.265 30.4305 103.817 29.8384C104.37 29.2463 104.646 28.3844 104.646 27.2528V21.312H106.442ZM108.804 26.7002C108.804 25.5818 109.028 24.6081 109.475 23.7791C109.922 22.937 110.541 22.2857 111.33 21.8251C112.133 21.3646 113.047 21.1343 114.074 21.1343C115.403 21.1343 116.495 21.4567 117.35 22.1014C118.219 22.7462 118.791 23.6409 119.067 24.7857H117.133C116.949 24.1278 116.587 23.608 116.047 23.2265C115.521 22.8449 114.863 22.6541 114.074 22.6541C113.047 22.6541 112.218 23.0094 111.587 23.7199C110.955 24.4173 110.639 25.4107 110.639 26.7002C110.639 28.0029 110.955 29.0095 111.587 29.72C112.218 30.4305 113.047 30.7858 114.074 30.7858C114.863 30.7858 115.521 30.6016 116.047 30.2332C116.574 29.8647 116.936 29.3384 117.133 28.6542H119.067C118.778 29.7595 118.199 30.6476 117.33 31.3187C116.462 31.9766 115.376 32.3056 114.074 32.3056C113.047 32.3056 112.133 32.0753 111.33 31.6148C110.541 31.1542 109.922 30.5029 109.475 29.6608C109.028 28.8187 108.804 27.8318 108.804 26.7002ZM126.181 32.3056C125.168 32.3056 124.247 32.0753 123.418 31.6148C122.602 31.1542 121.957 30.5029 121.484 29.6608C121.023 28.8055 120.793 27.8186 120.793 26.7002C120.793 25.5949 121.03 24.6212 121.503 23.7791C121.99 22.9238 122.648 22.2725 123.477 21.8251C124.306 21.3646 125.234 21.1343 126.26 21.1343C127.286 21.1343 128.214 21.3646 129.043 21.8251C129.872 22.2725 130.523 22.9172 130.997 23.7594C131.484 24.6015 131.727 25.5818 131.727 26.7002C131.727 27.8186 131.477 28.8055 130.977 29.6608C130.49 30.5029 129.826 31.1542 128.984 31.6148C128.142 32.0753 127.207 32.3056 126.181 32.3056ZM126.181 30.7266C126.826 30.7266 127.431 30.5753 127.997 30.2726C128.563 29.97 129.017 29.516 129.359 28.9108C129.714 28.3055 129.892 27.5686 129.892 26.7002C129.892 25.8318 129.72 25.0949 129.378 24.4896C129.036 23.8844 128.589 23.437 128.036 23.1475C127.484 22.8449 126.885 22.6936 126.24 22.6936C125.582 22.6936 124.977 22.8449 124.424 23.1475C123.885 23.437 123.451 23.8844 123.122 24.4896C122.793 25.0949 122.628 25.8318 122.628 26.7002C122.628 27.5818 122.786 28.3252 123.102 28.9305C123.431 29.5358 123.865 29.9897 124.405 30.2924C124.944 30.5819 125.536 30.7266 126.181 30.7266ZM137.918 32.3056C137.089 32.3056 136.345 32.1674 135.687 31.8911C135.029 31.6016 134.51 31.2069 134.128 30.7069C133.747 30.1937 133.536 29.6081 133.497 28.9502H135.352C135.404 29.4897 135.654 29.9305 136.102 30.2726C136.562 30.6147 137.161 30.7858 137.898 30.7858C138.582 30.7858 139.122 30.6345 139.516 30.3318C139.911 30.0292 140.108 29.6476 140.108 29.1871C140.108 28.7134 139.898 28.3647 139.477 28.141C139.056 27.9042 138.404 27.6739 137.523 27.4502C136.72 27.2397 136.062 27.0292 135.549 26.8186C135.049 26.5949 134.615 26.2726 134.247 25.8515C133.891 25.4173 133.714 24.8515 133.714 24.1541C133.714 23.6015 133.878 23.0949 134.207 22.6343C134.536 22.1738 135.003 21.812 135.608 21.5488C136.214 21.2725 136.904 21.1343 137.681 21.1343C138.878 21.1343 139.845 21.437 140.582 22.0422C141.319 22.6475 141.714 23.4765 141.766 24.5291H139.97C139.931 23.9633 139.701 23.5094 139.28 23.1672C138.872 22.8251 138.319 22.6541 137.622 22.6541C136.977 22.6541 136.464 22.7922 136.082 23.0686C135.701 23.3449 135.51 23.7067 135.51 24.1541C135.51 24.5094 135.622 24.8054 135.845 25.0423C136.082 25.266 136.372 25.4502 136.714 25.5949C137.069 25.7265 137.556 25.8778 138.174 26.0489C138.951 26.2594 139.582 26.4699 140.069 26.6805C140.556 26.8778 140.97 27.1805 141.312 27.5884C141.668 27.9963 141.852 28.5292 141.865 29.1871C141.865 29.7792 141.701 30.3121 141.372 30.7858C141.043 31.2595 140.576 31.6345 139.97 31.9108C139.378 32.174 138.694 32.3056 137.918 32.3056ZM154.269 26.3055C154.269 26.6476 154.249 27.0094 154.21 27.391H145.565C145.631 28.4568 145.993 29.2924 146.651 29.8976C147.322 30.4897 148.131 30.7858 149.078 30.7858C149.855 30.7858 150.499 30.6082 151.013 30.2529C151.539 29.8845 151.907 29.3976 152.118 28.7923H154.052C153.763 29.8318 153.184 30.6805 152.315 31.3384C151.447 31.9832 150.368 32.3056 149.078 32.3056C148.052 32.3056 147.131 32.0753 146.315 31.6148C145.512 31.1542 144.881 30.5029 144.42 29.6608C143.96 28.8055 143.729 27.8186 143.729 26.7002C143.729 25.5818 143.953 24.6015 144.401 23.7594C144.848 22.9172 145.473 22.2725 146.276 21.8251C147.091 21.3646 148.026 21.1343 149.078 21.1343C150.105 21.1343 151.013 21.358 151.802 21.8054C152.591 22.2528 153.197 22.8712 153.618 23.6607C154.052 24.437 154.269 25.3186 154.269 26.3055ZM152.414 25.9305C152.414 25.2462 152.263 24.6607 151.96 24.1738C151.657 23.6738 151.243 23.2988 150.716 23.0488C150.203 22.7857 149.631 22.6541 148.999 22.6541C148.091 22.6541 147.315 22.9436 146.67 23.5225C146.039 24.1015 145.677 24.9041 145.585 25.9305H152.414Z" fill="black"/>
<path d="M139.057 100.919C142.927 100.919 146.109 97.7695 145.628 93.9291C145.004 88.9438 143.713 84.0539 141.783 79.3926C138.956 72.5679 134.812 66.3669 129.589 61.1435C124.366 55.9201 118.164 51.7767 111.34 48.9498C104.515 46.1229 97.2005 44.668 89.8135 44.668C82.4265 44.668 75.1118 46.1229 68.2872 48.9498C61.4625 51.7767 55.2614 55.9201 50.038 61.1435C44.8146 66.3669 40.6712 72.568 37.8443 79.3926C35.9136 84.0539 34.6228 88.9438 33.9985 93.9291C33.5175 97.7695 36.7 100.919 40.5704 100.919V100.919C44.4407 100.919 47.5191 97.7603 48.1583 93.9431C48.685 90.7984 49.5673 87.7159 50.7932 84.7562C52.9157 79.632 56.0268 74.976 59.9487 71.0541C63.8706 67.1322 68.5265 64.0212 73.6508 61.8987C78.775 59.7762 84.2671 58.6837 89.8135 58.6837C95.3599 58.6837 100.852 59.7762 105.976 61.8987C111.1 64.0212 115.756 67.1322 119.678 71.0541C123.6 74.976 126.711 79.632 128.834 84.7562C130.06 87.7159 130.942 90.7984 131.469 93.9431C132.108 97.7603 135.186 100.919 139.057 100.919V100.919Z" fill="white"/>
<path d="M40.5004 100.918C36.6687 100.918 33.5184 97.8001 33.9898 93.9975C34.7947 87.5054 36.7281 81.1853 39.7203 75.3281C43.7677 67.4052 49.6367 60.5552 56.8453 55.3409C64.054 50.1265 72.3967 46.6964 81.1884 45.3322C87.6878 44.3237 94.2956 44.4655 100.713 45.7331C104.472 46.4756 106.448 50.4435 105.248 54.0827V54.0827C104.049 57.7219 100.125 59.6385 96.3394 59.0484C92.038 58.378 87.6451 58.3722 83.316 59.044C76.6931 60.0716 70.4083 62.6556 64.9778 66.5837C59.5474 70.5118 55.1261 75.672 52.0771 81.6406C50.0842 85.5419 48.7147 89.7158 48.0051 94.0109C47.3805 97.7914 44.3322 100.918 40.5004 100.918V100.918Z" fill="black"/>
</g>
<defs>
<clipPath id="clip0_2321_93">
<rect x="0.00976562" y="0.259277" width="179.608" height="116.449" rx="13.2384" fill="white"/>
</clipPath>
</defs>
</svg>
