<svg width="351" height="109" viewBox="0 0 351 109" fill="none" xmlns="http://www.w3.org/2000/svg">
<rect x="0.0390625" y="0.181641" width="350.293" height="108.372" rx="21.8933" fill="#66E4FE"/>
<path d="M21.4253 40.0215L17.1562 24.8952H20.1032L22.8286 36.0109H22.9689L25.879 24.8952H28.56L31.4775 36.0183H31.6104L34.3358 24.8952H37.2828L33.0137 40.0215H30.3105L27.2823 29.408H27.1641L24.1285 40.0215H21.4253ZM41.1714 40.2504C40.4525 40.2504 39.8051 40.1224 39.229 39.8664C38.6578 39.6054 38.2048 39.2213 37.8699 38.7142C37.54 38.207 37.3751 37.5817 37.3751 36.8382C37.3751 36.1981 37.4933 35.6687 37.7296 35.2502C37.966 34.8317 38.2885 34.4968 38.6972 34.2457C39.1059 33.9946 39.5662 33.805 40.0783 33.677C40.5953 33.5441 41.1296 33.448 41.6811 33.389C42.3458 33.32 42.885 33.2585 43.2986 33.2043C43.7122 33.1452 44.0125 33.0566 44.1997 32.9384C44.3917 32.8153 44.4877 32.6257 44.4877 32.3697V32.3254C44.4877 31.769 44.3228 31.3381 43.9929 31.0329C43.6629 30.7276 43.1878 30.5749 42.5674 30.5749C41.9125 30.5749 41.393 30.7177 41.009 31.0033C40.6298 31.2889 40.3738 31.6262 40.2408 32.0152L37.7444 31.6607C37.9413 30.9713 38.2663 30.3952 38.7193 29.9324C39.1723 29.4646 39.7263 29.115 40.3812 28.8836C41.036 28.6472 41.7599 28.529 42.5526 28.529C43.0992 28.529 43.6433 28.5931 44.1849 28.7211C44.7265 28.8491 45.2214 29.0608 45.6694 29.3563C46.1175 29.6468 46.477 30.0431 46.7478 30.5454C47.0235 31.0476 47.1614 31.6754 47.1614 32.4288V40.0215H44.5911V38.4631H44.5025C44.34 38.7782 44.111 39.0736 43.8156 39.3494C43.5251 39.6202 43.1582 39.8393 42.7151 40.0067C42.2769 40.1692 41.7623 40.2504 41.1714 40.2504ZM41.8657 38.2858C42.4024 38.2858 42.8677 38.1799 43.2616 37.9682C43.6556 37.7516 43.9584 37.466 44.1701 37.1114C44.3868 36.7569 44.4951 36.3704 44.4951 35.9519V34.615C44.4114 34.6839 44.2686 34.748 44.0667 34.807C43.8698 34.8661 43.6482 34.9178 43.402 34.9622C43.1558 35.0065 42.9121 35.0459 42.6708 35.0803C42.4295 35.1148 42.2202 35.1443 42.043 35.169C41.6441 35.2231 41.2872 35.3117 40.972 35.4348C40.6569 35.5579 40.4082 35.7303 40.226 35.9519C40.0439 36.1685 39.9528 36.4492 39.9528 36.7939C39.9528 37.2862 40.1325 37.658 40.4919 37.9091C40.8514 38.1602 41.3093 38.2858 41.8657 38.2858ZM52.5236 24.8952V40.0215H49.8499V24.8952H52.5236ZM57.7103 36.4615L57.7029 33.2339H58.1313L62.2083 28.6768H65.3325L60.3175 34.2605H59.7636L57.7103 36.4615ZM55.273 40.0215V24.8952H57.9466V40.0215H55.273ZM62.393 40.0215L58.7 34.8587L60.5022 32.9753L65.591 40.0215H62.393ZM67.1144 40.0215V28.6768H69.7881V40.0215H67.1144ZM68.4586 27.0666C68.0352 27.0666 67.6708 26.9263 67.3655 26.6456C67.0602 26.3601 66.9076 26.0178 66.9076 25.619C66.9076 25.2152 67.0602 24.873 67.3655 24.5924C67.6708 24.3068 68.0352 24.164 68.4586 24.164C68.887 24.164 69.2514 24.3068 69.5517 24.5924C69.857 24.873 70.0096 25.2152 70.0096 25.619C70.0096 26.0178 69.857 26.3601 69.5517 26.6456C69.2514 26.9263 68.887 27.0666 68.4586 27.0666ZM75.2112 33.3742V40.0215H72.5375V28.6768H75.093V30.6045H75.2259C75.4869 29.9693 75.903 29.4646 76.4741 29.0904C77.0502 28.7161 77.7618 28.529 78.6087 28.529C79.3916 28.529 80.0735 28.6965 80.6546 29.0313C81.2405 29.3661 81.6935 29.8511 82.0136 30.4863C82.3385 31.1215 82.4986 31.8921 82.4936 32.7981V40.0215H79.82V33.2117C79.82 32.4534 79.623 31.8601 79.2291 31.4317C78.8401 31.0033 78.3009 30.7891 77.6116 30.7891C77.1438 30.7891 76.7277 30.8925 76.3634 31.0993C76.0039 31.3012 75.7208 31.5942 75.514 31.9783C75.3121 32.3623 75.2112 32.8276 75.2112 33.3742ZM90.1454 44.5121C89.1853 44.5121 88.3605 44.3816 87.6712 44.1207C86.9818 43.8646 86.4279 43.5199 86.0093 43.0866C85.5908 42.6533 85.3003 42.1732 85.1378 41.6464L87.5456 41.0629C87.6539 41.2845 87.8115 41.5036 88.0183 41.7202C88.2251 41.9418 88.5033 42.124 88.8529 42.2668C89.2074 42.4145 89.653 42.4884 90.1897 42.4884C90.948 42.4884 91.5758 42.3037 92.0731 41.9344C92.5705 41.5701 92.8191 40.9693 92.8191 40.1323V37.983H92.6862C92.5483 38.2587 92.3464 38.5418 92.0805 38.8324C91.8196 39.1229 91.4724 39.3666 91.0391 39.5636C90.6107 39.7605 90.0716 39.859 89.4216 39.859C88.5501 39.859 87.7598 39.6547 87.0507 39.246C86.3466 38.8324 85.7853 38.2169 85.3668 37.3995C84.9531 36.5772 84.7463 35.5481 84.7463 34.3122C84.7463 33.0664 84.9531 32.0152 85.3668 31.1584C85.7853 30.2967 86.3491 29.6443 87.0581 29.2012C87.7672 28.7531 88.5575 28.529 89.429 28.529C90.0937 28.529 90.6403 28.6423 91.0687 28.8688C91.502 29.0904 91.8466 29.3587 92.1027 29.6739C92.3587 29.9841 92.5532 30.277 92.6862 30.5528H92.8339V28.6768H95.4707V40.2061C95.4707 41.1761 95.2392 41.9787 94.7764 42.6139C94.3135 43.2491 93.6808 43.7243 92.8782 44.0394C92.0756 44.3545 91.1647 44.5121 90.1454 44.5121ZM90.1676 37.7614C90.7338 37.7614 91.2164 37.6235 91.6152 37.3478C92.0141 37.0721 92.3169 36.6757 92.5237 36.1587C92.7305 35.6417 92.8339 35.0212 92.8339 34.2974C92.8339 33.5835 92.7305 32.9581 92.5237 32.4214C92.3218 31.8847 92.0214 31.4686 91.6226 31.1732C91.2287 30.8728 90.7437 30.7226 90.1676 30.7226C89.5718 30.7226 89.0745 30.8778 88.6756 31.188C88.2768 31.4982 87.9764 31.9241 87.7746 32.4657C87.5727 33.0024 87.4717 33.613 87.4717 34.2974C87.4717 34.9917 87.5727 35.5998 87.7746 36.1217C87.9814 36.6387 88.2842 37.0425 88.683 37.333C89.0868 37.6186 89.5816 37.7614 90.1676 37.7614ZM103.37 40.0215V28.6768H106.044V40.0215H103.37ZM104.714 27.0666C104.291 27.0666 103.926 26.9263 103.621 26.6456C103.316 26.3601 103.163 26.0178 103.163 25.619C103.163 25.2152 103.316 24.873 103.621 24.5924C103.926 24.3068 104.291 24.164 104.714 24.164C105.142 24.164 105.507 24.3068 105.807 24.5924C106.112 24.873 106.265 25.2152 106.265 25.619C106.265 26.0178 106.112 26.3601 105.807 26.6456C105.507 26.9263 105.142 27.0666 104.714 27.0666ZM111.467 33.3742V40.0215H108.793V28.6768H111.348V30.6045H111.481C111.742 29.9693 112.158 29.4646 112.73 29.0904C113.306 28.7161 114.017 28.529 114.864 28.529C115.647 28.529 116.329 28.6965 116.91 29.0313C117.496 29.3661 117.949 29.8511 118.269 30.4863C118.594 31.1215 118.754 31.8921 118.749 32.7981V40.0215H116.075V33.2117C116.075 32.4534 115.878 31.8601 115.485 31.4317C115.096 31.0033 114.556 30.7891 113.867 30.7891C113.399 30.7891 112.983 30.8925 112.619 31.0993C112.259 31.3012 111.976 31.5942 111.769 31.9783C111.568 32.3623 111.467 32.8276 111.467 33.3742ZM132.291 28.6768V30.7448H125.769V28.6768H132.291ZM127.38 25.9588H130.053V36.6092C130.053 36.9687 130.107 37.2444 130.216 37.4364C130.329 37.6235 130.477 37.7516 130.659 37.8205C130.841 37.8894 131.043 37.9239 131.265 37.9239C131.432 37.9239 131.585 37.9116 131.722 37.887C131.865 37.8623 131.974 37.8402 132.047 37.8205L132.498 39.9107C132.355 39.9599 132.151 40.0141 131.885 40.0732C131.624 40.1323 131.304 40.1667 130.925 40.1766C130.255 40.1963 129.652 40.0953 129.115 39.8738C128.579 39.6473 128.153 39.2977 127.837 38.825C127.527 38.3523 127.375 37.7614 127.38 37.0524V25.9588ZM137.445 33.3742V40.0215H134.771V24.8952H137.386V30.6045H137.519C137.784 29.9644 138.196 29.4597 138.752 29.0904C139.313 28.7161 140.027 28.529 140.894 28.529C141.682 28.529 142.369 28.694 142.955 29.0239C143.54 29.3538 143.993 29.8363 144.314 30.4715C144.639 31.1067 144.801 31.8822 144.801 32.7981V40.0215H142.127V33.2117C142.127 32.4485 141.93 31.8552 141.536 31.4317C141.147 31.0033 140.601 30.7891 139.897 30.7891C139.424 30.7891 139.001 30.8925 138.626 31.0993C138.257 31.3012 137.967 31.5942 137.755 31.9783C137.548 32.3623 137.445 32.8276 137.445 33.3742ZM152.549 40.2431C151.411 40.2431 150.429 40.0067 149.602 39.534C148.78 39.0564 148.147 38.3818 147.704 37.5103C147.261 36.6338 147.039 35.6023 147.039 34.4156C147.039 33.2486 147.261 32.2244 147.704 31.3431C148.152 30.4568 148.777 29.7674 149.58 29.275C150.382 28.7777 151.325 28.529 152.408 28.529C153.108 28.529 153.767 28.6423 154.388 28.8688C155.013 29.0904 155.565 29.435 156.042 29.9028C156.525 30.3706 156.904 30.9664 157.18 31.6902C157.455 32.4091 157.593 33.2659 157.593 34.2605V35.0803H148.295V33.2782H155.03C155.026 32.7661 154.915 32.3106 154.698 31.9118C154.481 31.508 154.179 31.1904 153.79 30.959C153.406 30.7276 152.957 30.6119 152.445 30.6119C151.899 30.6119 151.419 30.7448 151.005 31.0107C150.592 31.2717 150.269 31.6163 150.038 32.0447C149.811 32.4682 149.695 32.9335 149.69 33.4407V35.0139C149.69 35.6737 149.811 36.2399 150.052 36.7126C150.294 37.1804 150.631 37.5398 151.064 37.7909C151.498 38.0371 152.005 38.1602 152.586 38.1602C152.975 38.1602 153.327 38.1061 153.642 37.9978C153.957 37.8845 154.23 37.7195 154.462 37.5029C154.693 37.2862 154.868 37.0179 154.986 36.6978L157.483 36.9785C157.325 37.6383 157.025 38.2144 156.581 38.7068C156.143 39.1943 155.582 39.5734 154.898 39.8442C154.213 40.1101 153.43 40.2431 152.549 40.2431ZM165.014 44.2758V28.6768H167.644V30.5528H167.799C167.937 30.277 168.131 29.9841 168.382 29.6739C168.633 29.3587 168.973 29.0904 169.402 28.8688C169.83 28.6423 170.376 28.529 171.041 28.529C171.918 28.529 172.708 28.7531 173.412 29.2012C174.121 29.6443 174.682 30.3017 175.096 31.1732C175.515 32.0398 175.724 33.1034 175.724 34.3639C175.724 35.6096 175.52 36.6683 175.111 37.5398C174.702 38.4114 174.146 39.0761 173.442 39.534C172.738 39.9919 171.94 40.2209 171.049 40.2209C170.399 40.2209 169.859 40.1126 169.431 39.8959C169.003 39.6793 168.658 39.4183 168.397 39.113C168.141 38.8028 167.942 38.5098 167.799 38.2341H167.688V44.2758H165.014ZM167.636 34.3491C167.636 35.0828 167.74 35.7254 167.947 36.2768C168.158 36.8283 168.461 37.2592 168.855 37.5694C169.254 37.8747 169.736 38.0273 170.303 38.0273C170.894 38.0273 171.388 37.8697 171.787 37.5546C172.186 37.2345 172.486 36.7988 172.688 36.2473C172.895 35.6909 172.998 35.0582 172.998 34.3491C172.998 33.645 172.898 33.0197 172.696 32.4731C172.494 31.9265 172.193 31.4982 171.795 31.188C171.396 30.8778 170.898 30.7226 170.303 30.7226C169.731 30.7226 169.246 30.8728 168.848 31.1732C168.449 31.4735 168.146 31.8945 167.939 32.4362C167.737 32.9778 167.636 33.6155 167.636 34.3491ZM181.278 40.2504C180.559 40.2504 179.912 40.1224 179.336 39.8664C178.764 39.6054 178.311 39.2213 177.977 38.7142C177.647 38.207 177.482 37.5817 177.482 36.8382C177.482 36.1981 177.6 35.6687 177.836 35.2502C178.073 34.8317 178.395 34.4968 178.804 34.2457C179.212 33.9946 179.673 33.805 180.185 33.677C180.702 33.5441 181.236 33.448 181.788 33.389C182.452 33.32 182.992 33.2585 183.405 33.2043C183.819 33.1452 184.119 33.0566 184.306 32.9384C184.498 32.8153 184.594 32.6257 184.594 32.3697V32.3254C184.594 31.769 184.429 31.3381 184.099 31.0329C183.77 30.7276 183.294 30.5749 182.674 30.5749C182.019 30.5749 181.5 30.7177 181.116 31.0033C180.736 31.2889 180.48 31.6262 180.347 32.0152L177.851 31.6607C178.048 30.9713 178.373 30.3952 178.826 29.9324C179.279 29.4646 179.833 29.115 180.488 28.8836C181.143 28.6472 181.866 28.529 182.659 28.529C183.206 28.529 183.75 28.5931 184.292 28.7211C184.833 28.8491 185.328 29.0608 185.776 29.3563C186.224 29.6468 186.584 30.0431 186.854 30.5454C187.13 31.0476 187.268 31.6754 187.268 32.4288V40.0215H184.698V38.4631H184.609C184.447 38.7782 184.218 39.0736 183.922 39.3494C183.632 39.6202 183.265 39.8393 182.822 40.0067C182.383 40.1692 181.869 40.2504 181.278 40.2504ZM181.972 38.2858C182.509 38.2858 182.974 38.1799 183.368 37.9682C183.762 37.7516 184.065 37.466 184.277 37.1114C184.493 36.7569 184.602 36.3704 184.602 35.9519V34.615C184.518 34.6839 184.375 34.748 184.173 34.807C183.976 34.8661 183.755 34.9178 183.509 34.9622C183.262 35.0065 183.019 35.0459 182.777 35.0803C182.536 35.1148 182.327 35.1443 182.15 35.169C181.751 35.2231 181.394 35.3117 181.079 35.4348C180.764 35.5579 180.515 35.7303 180.333 35.9519C180.15 36.1685 180.059 36.4492 180.059 36.7939C180.059 37.2862 180.239 37.658 180.599 37.9091C180.958 38.1602 181.416 38.2858 181.972 38.2858ZM189.956 40.0215V28.6768H192.549V30.5675H192.667C192.874 29.9127 193.228 29.408 193.731 29.0534C194.238 28.694 194.816 28.5143 195.466 28.5143C195.614 28.5143 195.779 28.5217 195.961 28.5364C196.148 28.5463 196.303 28.5635 196.427 28.5881V31.0476C196.313 31.0082 196.134 30.9738 195.887 30.9442C195.646 30.9098 195.412 30.8925 195.186 30.8925C194.698 30.8925 194.26 30.9984 193.871 31.2101C193.487 31.4169 193.184 31.705 192.963 32.0743C192.741 32.4436 192.63 32.8695 192.63 33.352V40.0215H189.956ZM200.64 36.4615L200.633 33.2339H201.061L205.138 28.6768H208.262L203.247 34.2605H202.693L200.64 36.4615ZM198.203 40.0215V24.8952H200.877V40.0215H198.203ZM205.323 40.0215L201.63 34.8587L203.432 32.9753L208.521 40.0215H205.323Z" fill="black"/>
<rect x="16.75" y="56.9683" width="103.993" height="32.84" rx="16.42" fill="black"/>
<path d="M34.9051 66.8541V80.3882H33.2663V68.5723H33.187L29.8827 70.7663V69.101L33.2663 66.8541H34.9051ZM40.3835 74.282V80.3882H38.8239V66.8541H40.3835V71.8237H40.5157C40.7536 71.2994 41.1105 70.8831 41.5863 70.5747C42.0665 70.2619 42.7053 70.1055 43.5027 70.1055C44.1944 70.1055 44.8002 70.2442 45.32 70.5218C45.8399 70.795 46.243 71.2157 46.5294 71.784C46.8201 72.3479 46.9655 73.066 46.9655 73.9384V80.3882H45.4059V74.0441C45.4059 73.2379 45.1967 72.6145 44.7781 72.1739C44.364 71.7289 43.7891 71.5065 43.0533 71.5065C42.5423 71.5065 42.0841 71.6144 41.6788 71.8303C41.2779 72.0461 40.9607 72.3611 40.7272 72.7753C40.4981 73.1894 40.3835 73.6916 40.3835 74.282ZM59.5992 80.5732C58.7269 80.5732 57.9493 80.4234 57.2664 80.1238C56.5879 79.8243 56.0483 79.4079 55.6473 78.8749C55.2508 78.3374 55.035 77.714 54.9997 77.0047H56.665C56.7003 77.4408 56.8501 77.8175 57.1144 78.1347C57.3788 78.4475 57.7246 78.6898 58.1519 78.8616C58.5793 79.0335 59.0529 79.1194 59.5728 79.1194C60.1543 79.1194 60.6698 79.018 61.1191 78.8154C61.5685 78.6127 61.9209 78.3308 62.1765 77.9695C62.432 77.6082 62.5598 77.1897 62.5598 76.7139C62.5598 76.2161 62.4364 75.7777 62.1897 75.3988C61.943 75.0155 61.5817 74.716 61.1059 74.5001C60.6301 74.2842 60.0486 74.1763 59.3613 74.1763H58.2775V72.7224H59.3613C59.8988 72.7224 60.3702 72.6255 60.7755 72.4316C61.1852 72.2378 61.5046 71.9646 61.7337 71.6122C61.9672 71.2597 62.084 70.8456 62.084 70.3698C62.084 69.9116 61.9826 69.5129 61.78 69.1737C61.5773 68.8345 61.2909 68.5701 60.9209 68.3807C60.5552 68.1912 60.1235 68.0965 59.6256 68.0965C59.1586 68.0965 58.7181 68.1824 58.3039 68.3542C57.8942 68.5217 57.5594 68.7662 57.2995 69.0878C57.0395 69.405 56.8985 69.7883 56.8765 70.2376H55.2905C55.3169 69.5283 55.5306 68.9071 55.9315 68.3741C56.3324 67.8366 56.8567 67.418 57.5043 67.1185C58.1563 66.8189 58.8723 66.6691 59.6521 66.6691C60.4891 66.6691 61.2072 66.8387 61.8064 67.1779C62.4056 67.5128 62.866 67.9555 63.1876 68.5062C63.5092 69.0569 63.67 69.6517 63.67 70.2905C63.67 71.0527 63.4695 71.7025 63.0686 72.24C62.6721 72.7775 62.1324 73.1498 61.4495 73.3568V73.4626C62.3042 73.6035 62.9717 73.967 63.4519 74.5529C63.9321 75.1345 64.1722 75.8548 64.1722 76.7139C64.1722 77.4496 63.9718 78.1105 63.5709 78.6964C63.1743 79.278 62.6325 79.7362 61.9452 80.071C61.2579 80.4058 60.4759 80.5732 59.5992 80.5732ZM71.2895 80.5732C70.2938 80.5732 69.4457 80.3023 68.7452 79.7604C68.0448 79.2141 67.5095 78.4233 67.1394 77.388C66.7693 76.3482 66.5843 75.0926 66.5843 73.6212C66.5843 72.1585 66.7693 70.9095 67.1394 69.8742C67.5139 68.8345 68.0514 68.0414 68.7519 67.4951C69.4568 66.9444 70.3026 66.6691 71.2895 66.6691C72.2763 66.6691 73.12 66.9444 73.8205 67.4951C74.5254 68.0414 75.0629 68.8345 75.433 69.8742C75.8075 70.9095 75.9947 72.1585 75.9947 73.6212C75.9947 75.0926 75.8097 76.3482 75.4396 77.388C75.0695 78.4233 74.5342 79.2141 73.8337 79.7604C73.1332 80.3023 72.2852 80.5732 71.2895 80.5732ZM71.2895 79.1194C72.2763 79.1194 73.0429 78.6436 73.5892 77.6919C74.1355 76.7403 74.4087 75.3834 74.4087 73.6212C74.4087 72.4493 74.2831 71.4514 74.032 70.6275C73.7853 69.8037 73.4284 69.1759 72.9614 68.7441C72.4988 68.3124 71.9415 68.0965 71.2895 68.0965C70.3114 68.0965 69.5471 68.5789 68.9964 69.5438C68.4457 70.5042 68.1703 71.8633 68.1703 73.6212C68.1703 74.793 68.2937 75.7887 68.5404 76.6082C68.7871 77.4276 69.1418 78.051 69.6043 78.4783C70.0713 78.9057 70.6331 79.1194 71.2895 79.1194ZM78.5323 80.3882V70.2376H80.039V71.8237H80.1712C80.3827 71.2818 80.7241 70.861 81.1955 70.5615C81.6669 70.2575 82.233 70.1055 82.8939 70.1055C83.5635 70.1055 84.1209 70.2575 84.5658 70.5615C85.0152 70.861 85.3654 71.2818 85.6166 71.8237H85.7223C85.9822 71.2994 86.3721 70.8831 86.892 70.5747C87.4119 70.2619 88.0352 70.1055 88.7622 70.1055C89.6697 70.1055 90.4121 70.3896 90.9892 70.958C91.5663 71.5219 91.8549 72.4008 91.8549 73.5947V80.3882H90.2953V73.5947C90.2953 72.8458 90.0905 72.3105 89.6807 71.9889C89.271 71.6673 88.7886 71.5065 88.2335 71.5065C87.5198 71.5065 86.9669 71.7223 86.5748 72.1541C86.1827 72.5814 85.9866 73.1233 85.9866 73.7798V80.3882H84.4006V73.4361C84.4006 72.859 84.2134 72.3942 83.8389 72.0417C83.4644 71.6849 82.982 71.5065 82.3916 71.5065C81.9863 71.5065 81.6074 71.6144 81.255 71.8303C80.907 72.0461 80.625 72.3457 80.4091 72.729C80.1977 73.1079 80.0919 73.5463 80.0919 74.0441V80.3882H78.5323ZM94.7065 80.3882V70.2376H96.266V80.3882H94.7065ZM95.4995 68.5459C95.1955 68.5459 94.9333 68.4424 94.7131 68.2353C94.4972 68.0282 94.3892 67.7793 94.3892 67.4885C94.3892 67.1978 94.4972 66.9488 94.7131 66.7418C94.9333 66.5347 95.1955 66.4312 95.4995 66.4312C95.8034 66.4312 96.0634 66.5347 96.2793 66.7418C96.4995 66.9488 96.6097 67.1978 96.6097 67.4885C96.6097 67.7793 96.4995 68.0282 96.2793 68.2353C96.0634 68.4424 95.8034 68.5459 95.4995 68.5459ZM100.682 74.282V80.3882H99.1225V70.2376H100.629V71.8237H100.761C100.999 71.3082 101.361 70.8941 101.845 70.5813C102.33 70.2641 102.955 70.1055 103.722 70.1055C104.409 70.1055 105.011 70.2465 105.526 70.5284C106.042 70.806 106.442 71.2289 106.729 71.7972C107.015 72.3611 107.158 73.0749 107.158 73.9384V80.3882H105.599V74.0441C105.599 73.2467 105.392 72.6255 104.978 72.1805C104.563 71.7311 103.995 71.5065 103.273 71.5065C102.775 71.5065 102.33 71.6144 101.938 71.8303C101.55 72.0461 101.244 72.3611 101.019 72.7753C100.794 73.1894 100.682 73.6916 100.682 74.282Z" fill="white"/>
<path d="M278.905 57.6719V55.0731L286.944 46.7433C287.803 45.8384 288.511 45.0456 289.067 44.365C289.632 43.6767 290.054 43.0231 290.332 42.4044C290.61 41.7856 290.75 41.1282 290.75 40.4321C290.75 39.6432 290.564 38.9626 290.193 38.3903C289.822 37.8102 289.315 37.3655 288.673 37.0561C288.031 36.739 287.308 36.5804 286.504 36.5804C285.653 36.5804 284.91 36.7545 284.276 37.1025C283.642 37.4506 283.155 37.9417 282.814 38.5759C282.474 39.2101 282.304 39.9526 282.304 40.8034H278.881C278.881 39.3571 279.214 38.0925 279.879 37.0097C280.544 35.9269 281.457 35.0877 282.617 34.4922C283.777 33.8889 285.096 33.5873 286.573 33.5873C288.066 33.5873 289.381 33.885 290.518 34.4806C291.662 35.0684 292.556 35.8728 293.198 36.8937C293.84 37.9069 294.161 39.0516 294.161 40.3277C294.161 41.2094 293.994 42.0718 293.662 42.9148C293.337 43.7579 292.768 44.6976 291.956 45.734C291.144 46.7626 290.015 48.0117 288.569 49.4813L283.847 54.4235V54.5975H294.543V57.6719H278.905ZM307.955 33.9121V57.6719H304.358V37.5086H304.219L298.534 41.221V37.787L304.463 33.9121H307.955ZM322.654 58.0663C320.821 58.0586 319.254 57.5752 317.955 56.6161C316.656 55.6571 315.662 54.261 314.974 52.428C314.285 50.595 313.941 48.3869 313.941 45.8036C313.941 43.2281 314.285 41.0277 314.974 39.2024C315.67 37.3771 316.667 35.9849 317.967 35.0259C319.274 34.0668 320.836 33.5873 322.654 33.5873C324.471 33.5873 326.03 34.0707 327.329 35.0375C328.628 35.9965 329.622 37.3887 330.311 39.214C331.007 41.0315 331.355 43.2281 331.355 45.8036C331.355 48.3946 331.011 50.6066 330.322 52.4396C329.634 54.2649 328.64 55.661 327.341 56.6277C326.041 57.5868 324.479 58.0663 322.654 58.0663ZM322.654 54.9687C324.262 54.9687 325.519 54.1837 326.424 52.6136C327.337 51.0436 327.793 48.7736 327.793 45.8036C327.793 43.8313 327.584 42.1646 327.167 40.8034C326.757 39.4344 326.165 38.398 325.392 37.6942C324.626 36.9826 323.713 36.6269 322.654 36.6269C321.053 36.6269 319.796 37.4157 318.883 38.9935C317.971 40.5713 317.51 42.8414 317.503 45.8036C317.503 47.7836 317.708 49.4581 318.118 50.827C318.535 52.1883 319.127 53.2208 319.893 53.9246C320.658 54.6207 321.579 54.9687 322.654 54.9687Z" fill="#030606"/>
<path d="M284.726 80.1572V71.6955H286.307V73.0728H286.412C286.588 72.6063 286.877 72.2427 287.277 71.982C287.677 71.7176 288.157 71.5853 288.715 71.5853C289.28 71.5853 289.754 71.7176 290.136 71.982C290.522 72.2464 290.806 72.61 290.99 73.0728H291.078C291.28 72.621 291.602 72.2611 292.042 71.993C292.483 71.7212 293.008 71.5853 293.618 71.5853C294.385 71.5853 295.012 71.8259 295.496 72.307C295.985 72.7881 296.229 73.5135 296.229 74.483V80.1572H294.582V74.6373C294.582 74.0644 294.426 73.6494 294.114 73.3923C293.801 73.1352 293.429 73.0066 292.995 73.0066C292.459 73.0066 292.042 73.1719 291.745 73.5024C291.447 73.8293 291.299 74.2498 291.299 74.764V80.1572H289.657V74.5326C289.657 74.0735 289.514 73.7044 289.227 73.4253C288.941 73.1462 288.568 73.0066 288.109 73.0066C287.797 73.0066 287.508 73.0893 287.244 73.2545C286.983 73.4161 286.772 73.642 286.61 73.9321C286.453 74.2223 286.374 74.5583 286.374 74.9403V80.1572H284.726ZM301.985 83.5067C301.312 83.5067 300.734 83.4185 300.249 83.2422C299.768 83.0659 299.375 82.8327 299.07 82.5426C298.765 82.2525 298.538 81.9348 298.387 81.5895L299.803 81.0056C299.902 81.1672 300.034 81.338 300.2 81.5179C300.369 81.7016 300.596 81.8576 300.883 81.9862C301.173 82.1147 301.546 82.179 302.001 82.179C302.625 82.179 303.141 82.0266 303.549 81.7218C303.957 81.4206 304.161 80.9395 304.161 80.2784V78.6147H304.056C303.957 78.7947 303.813 78.9948 303.626 79.2152C303.443 79.4356 303.189 79.6265 302.866 79.7881C302.543 79.9497 302.122 80.0305 301.604 80.0305C300.936 80.0305 300.334 79.8744 299.797 79.5623C299.265 79.2464 298.843 78.7818 298.53 78.1685C298.222 77.5515 298.068 76.7931 298.068 75.8933C298.068 74.9935 298.22 74.2223 298.525 73.5796C298.833 72.9369 299.256 72.4447 299.792 72.1032C300.328 71.758 300.936 71.5853 301.615 71.5853C302.141 71.5853 302.565 71.6735 302.888 71.8498C303.211 72.0224 303.463 72.2244 303.643 72.4558C303.826 72.6871 303.968 72.891 304.067 73.0672H304.188V71.6955H305.802V80.3445C305.802 81.0717 305.633 81.6685 305.295 82.1349C304.957 82.6014 304.5 82.9466 303.924 83.1706C303.351 83.3946 302.704 83.5067 301.985 83.5067ZM301.968 78.6643C302.442 78.6643 302.842 78.5541 303.169 78.3338C303.499 78.1097 303.749 77.7902 303.918 77.3752C304.091 76.9565 304.177 76.4552 304.177 75.8713C304.177 75.302 304.093 74.8007 303.924 74.3673C303.755 73.934 303.507 73.5961 303.18 73.3537C302.853 73.1076 302.449 72.9846 301.968 72.9846C301.472 72.9846 301.059 73.1131 300.728 73.3702C300.398 73.6236 300.148 73.9689 299.979 74.4059C299.814 74.843 299.731 75.3314 299.731 75.8713C299.731 76.4258 299.816 76.9125 299.985 77.3311C300.154 77.7498 300.403 78.0767 300.734 78.3117C301.068 78.5468 301.48 78.6643 301.968 78.6643ZM312.308 68.3461L308.672 81.854H307.201L310.837 68.3461H312.308ZM316.875 80.3225C316.192 80.3225 315.582 80.148 315.046 79.7991C314.514 79.4466 314.095 78.9453 313.79 78.2952C313.489 77.6415 313.338 76.8574 313.338 75.9429C313.338 75.0284 313.491 74.2462 313.796 73.5961C314.104 72.946 314.526 72.4484 315.063 72.1032C315.599 71.758 316.207 71.5853 316.886 71.5853C317.411 71.5853 317.834 71.6735 318.153 71.8498C318.476 72.0224 318.726 72.2244 318.902 72.4558C319.082 72.6871 319.222 72.891 319.321 73.0672H319.42V68.875H321.067V80.1572H319.459V78.8406H319.321C319.222 79.0206 319.079 79.2262 318.891 79.4576C318.708 79.689 318.454 79.891 318.131 80.0636C317.808 80.2362 317.389 80.3225 316.875 80.3225ZM317.239 78.9177C317.712 78.9177 318.113 78.7928 318.44 78.5431C318.77 78.2897 319.02 77.939 319.189 77.4909C319.361 77.0428 319.448 76.5213 319.448 75.9264C319.448 75.3388 319.363 74.8246 319.194 74.3839C319.025 73.9432 318.778 73.5998 318.451 73.3537C318.124 73.1076 317.72 72.9846 317.239 72.9846C316.743 72.9846 316.33 73.1131 315.999 73.3702C315.669 73.6273 315.419 73.9781 315.25 74.4224C315.085 74.8668 315.002 75.3681 315.002 75.9264C315.002 76.492 315.087 77.0006 315.256 77.4523C315.424 77.9041 315.674 78.2622 316.005 78.5266C316.339 78.7873 316.75 78.9177 317.239 78.9177ZM325.066 68.875V80.1572H323.418V68.875H325.066Z" fill="#030606"/>
</svg>
