<svg width="58" height="58" viewBox="0 0 58 58" fill="none" xmlns="http://www.w3.org/2000/svg">
<rect width="58" height="58" rx="29" fill="#253237"/>
<rect x="15.7368" y="11.7368" width="26.5263" height="41.2632" rx="3.68421" fill="#253237"/>
<rect x="15.7368" y="11.7368" width="26.5263" height="41.2632" rx="3.68421" stroke="white" stroke-width="1.47368"/>
<rect x="18" y="33" width="22" height="7" rx="1.47368" fill="#66E4FE"/>
<path d="M23.6307 35.7841C23.7102 35.7932 23.7591 35.8307 23.7773 35.8966C23.7773 35.9239 23.7693 35.9625 23.7534 36.0125C23.6989 36.1784 23.6682 36.2761 23.6614 36.3057C23.7 36.2739 23.7568 36.2125 23.8318 36.1216C23.9045 36.033 23.9625 35.9886 24.0057 35.9886C24.0284 35.9886 24.0523 35.9966 24.0773 36.0125C24.1318 36.0511 24.1591 36.1023 24.1591 36.1659C24.1568 36.2045 24.1375 36.2352 24.1011 36.258C24.0784 36.2693 24.0432 36.2807 23.9955 36.292C23.8341 36.3239 23.7341 36.3466 23.6955 36.3602C23.7432 36.3761 23.8 36.3909 23.8659 36.4045C23.9977 36.4295 24.0761 36.4489 24.1011 36.4625C24.1352 36.483 24.1534 36.5136 24.1557 36.5545C24.1557 36.5773 24.15 36.6023 24.1386 36.6295C24.1068 36.7 24.0636 36.7352 24.0091 36.7352C23.9705 36.733 23.9182 36.6955 23.8523 36.6227C23.75 36.5068 23.6864 36.4386 23.6614 36.4182C23.6727 36.4682 23.6886 36.525 23.7091 36.5886C23.7545 36.7136 23.7773 36.7909 23.7773 36.8205C23.7773 36.8295 23.7761 36.8386 23.7739 36.8477C23.758 36.9068 23.7091 36.9364 23.6273 36.9364C23.5477 36.9273 23.4989 36.8898 23.4807 36.8239C23.4807 36.7966 23.4886 36.7591 23.5045 36.7114C23.5568 36.5523 23.5864 36.4545 23.5932 36.4182C23.5614 36.4477 23.5091 36.5057 23.4364 36.592C23.3568 36.6852 23.2955 36.7318 23.2523 36.7318C23.2295 36.7318 23.2057 36.7239 23.1807 36.708C23.1284 36.6693 23.1023 36.6182 23.1023 36.5545C23.1045 36.5159 23.1227 36.4852 23.1568 36.4625C23.1795 36.4511 23.2148 36.4398 23.2625 36.4284C23.4239 36.3943 23.5227 36.3705 23.5591 36.3568C23.5136 36.3432 23.4591 36.3295 23.3955 36.3159C23.2614 36.2932 23.1818 36.2739 23.1568 36.258C23.125 36.2398 23.108 36.2091 23.1057 36.1659C23.1057 36.1432 23.1114 36.1182 23.1227 36.0909C23.1523 36.0205 23.1943 35.9852 23.2489 35.9852C23.2852 35.9875 23.3364 36.0239 23.4023 36.0943C23.5023 36.208 23.5659 36.2761 23.5932 36.2989C23.5841 36.2489 23.5682 36.1932 23.5455 36.1318C23.5023 36.0045 23.4807 35.9273 23.4807 35.9C23.4807 35.8909 23.4818 35.8818 23.4841 35.8727C23.5 35.8136 23.5489 35.7841 23.6307 35.7841ZM24.8818 35.7841C24.9614 35.7932 25.0102 35.8307 25.0284 35.8966C25.0284 35.9239 25.0205 35.9625 25.0045 36.0125C24.95 36.1784 24.9193 36.2761 24.9125 36.3057C24.9511 36.2739 25.008 36.2125 25.083 36.1216C25.1557 36.033 25.2136 35.9886 25.2568 35.9886C25.2795 35.9886 25.3034 35.9966 25.3284 36.0125C25.383 36.0511 25.4102 36.1023 25.4102 36.1659C25.408 36.2045 25.3886 36.2352 25.3523 36.258C25.3295 36.2693 25.2943 36.2807 25.2466 36.292C25.0852 36.3239 24.9852 36.3466 24.9466 36.3602C24.9943 36.3761 25.0511 36.3909 25.117 36.4045C25.2489 36.4295 25.3273 36.4489 25.3523 36.4625C25.3864 36.483 25.4045 36.5136 25.4068 36.5545C25.4068 36.5773 25.4011 36.6023 25.3898 36.6295C25.358 36.7 25.3148 36.7352 25.2602 36.7352C25.2216 36.733 25.1693 36.6955 25.1034 36.6227C25.0011 36.5068 24.9375 36.4386 24.9125 36.4182C24.9239 36.4682 24.9398 36.525 24.9602 36.5886C25.0057 36.7136 25.0284 36.7909 25.0284 36.8205C25.0284 36.8295 25.0273 36.8386 25.025 36.8477C25.0091 36.9068 24.9602 36.9364 24.8784 36.9364C24.7989 36.9273 24.75 36.8898 24.7318 36.8239C24.7318 36.7966 24.7398 36.7591 24.7557 36.7114C24.808 36.5523 24.8375 36.4545 24.8443 36.4182C24.8125 36.4477 24.7602 36.5057 24.6875 36.592C24.608 36.6852 24.5466 36.7318 24.5034 36.7318C24.4807 36.7318 24.4568 36.7239 24.4318 36.708C24.3795 36.6693 24.3534 36.6182 24.3534 36.5545C24.3557 36.5159 24.3739 36.4852 24.408 36.4625C24.4307 36.4511 24.4659 36.4398 24.5136 36.4284C24.675 36.3943 24.7739 36.3705 24.8102 36.3568C24.7648 36.3432 24.7102 36.3295 24.6466 36.3159C24.5125 36.2932 24.433 36.2739 24.408 36.258C24.3761 36.2398 24.3591 36.2091 24.3568 36.1659C24.3568 36.1432 24.3625 36.1182 24.3739 36.0909C24.4034 36.0205 24.4455 35.9852 24.5 35.9852C24.5364 35.9875 24.5875 36.0239 24.6534 36.0943C24.7534 36.208 24.817 36.2761 24.8443 36.2989C24.8352 36.2489 24.8193 36.1932 24.7966 36.1318C24.7534 36.0045 24.7318 35.9273 24.7318 35.9C24.7318 35.8909 24.733 35.8818 24.7352 35.8727C24.7511 35.8136 24.8 35.7841 24.8818 35.7841ZM26.133 35.7841C26.2125 35.7932 26.2614 35.8307 26.2795 35.8966C26.2795 35.9239 26.2716 35.9625 26.2557 36.0125C26.2011 36.1784 26.1705 36.2761 26.1636 36.3057C26.2023 36.2739 26.2591 36.2125 26.3341 36.1216C26.4068 36.033 26.4648 35.9886 26.508 35.9886C26.5307 35.9886 26.5545 35.9966 26.5795 36.0125C26.6341 36.0511 26.6614 36.1023 26.6614 36.1659C26.6591 36.2045 26.6398 36.2352 26.6034 36.258C26.5807 36.2693 26.5455 36.2807 26.4977 36.292C26.3364 36.3239 26.2364 36.3466 26.1977 36.3602C26.2455 36.3761 26.3023 36.3909 26.3682 36.4045C26.5 36.4295 26.5784 36.4489 26.6034 36.4625C26.6375 36.483 26.6557 36.5136 26.658 36.5545C26.658 36.5773 26.6523 36.6023 26.6409 36.6295C26.6091 36.7 26.5659 36.7352 26.5114 36.7352C26.4727 36.733 26.4205 36.6955 26.3545 36.6227C26.2523 36.5068 26.1886 36.4386 26.1636 36.4182C26.175 36.4682 26.1909 36.525 26.2114 36.5886C26.2568 36.7136 26.2795 36.7909 26.2795 36.8205C26.2795 36.8295 26.2784 36.8386 26.2761 36.8477C26.2602 36.9068 26.2114 36.9364 26.1295 36.9364C26.05 36.9273 26.0011 36.8898 25.983 36.8239C25.983 36.7966 25.9909 36.7591 26.0068 36.7114C26.0591 36.5523 26.0886 36.4545 26.0955 36.4182C26.0636 36.4477 26.0114 36.5057 25.9386 36.592C25.8591 36.6852 25.7977 36.7318 25.7545 36.7318C25.7318 36.7318 25.708 36.7239 25.683 36.708C25.6307 36.6693 25.6045 36.6182 25.6045 36.5545C25.6068 36.5159 25.625 36.4852 25.6591 36.4625C25.6818 36.4511 25.717 36.4398 25.7648 36.4284C25.9261 36.3943 26.025 36.3705 26.0614 36.3568C26.0159 36.3432 25.9614 36.3295 25.8977 36.3159C25.7636 36.2932 25.6841 36.2739 25.6591 36.258C25.6273 36.2398 25.6102 36.2091 25.608 36.1659C25.608 36.1432 25.6136 36.1182 25.625 36.0909C25.6545 36.0205 25.6966 35.9852 25.7511 35.9852C25.7875 35.9875 25.8386 36.0239 25.9045 36.0943C26.0045 36.208 26.0682 36.2761 26.0955 36.2989C26.0864 36.2489 26.0705 36.1932 26.0477 36.1318C26.0045 36.0045 25.983 35.9273 25.983 35.9C25.983 35.8909 25.9841 35.8818 25.9864 35.8727C26.0023 35.8136 26.0511 35.7841 26.133 35.7841ZM27.3841 35.7841C27.4636 35.7932 27.5125 35.8307 27.5307 35.8966C27.5307 35.9239 27.5227 35.9625 27.5068 36.0125C27.4523 36.1784 27.4216 36.2761 27.4148 36.3057C27.4534 36.2739 27.5102 36.2125 27.5852 36.1216C27.658 36.033 27.7159 35.9886 27.7591 35.9886C27.7818 35.9886 27.8057 35.9966 27.8307 36.0125C27.8852 36.0511 27.9125 36.1023 27.9125 36.1659C27.9102 36.2045 27.8909 36.2352 27.8545 36.258C27.8318 36.2693 27.7966 36.2807 27.7489 36.292C27.5875 36.3239 27.4875 36.3466 27.4489 36.3602C27.4966 36.3761 27.5534 36.3909 27.6193 36.4045C27.7511 36.4295 27.8295 36.4489 27.8545 36.4625C27.8886 36.483 27.9068 36.5136 27.9091 36.5545C27.9091 36.5773 27.9034 36.6023 27.892 36.6295C27.8602 36.7 27.817 36.7352 27.7625 36.7352C27.7239 36.733 27.6716 36.6955 27.6057 36.6227C27.5034 36.5068 27.4398 36.4386 27.4148 36.4182C27.4261 36.4682 27.442 36.525 27.4625 36.5886C27.508 36.7136 27.5307 36.7909 27.5307 36.8205C27.5307 36.8295 27.5295 36.8386 27.5273 36.8477C27.5114 36.9068 27.4625 36.9364 27.3807 36.9364C27.3011 36.9273 27.2523 36.8898 27.2341 36.8239C27.2341 36.7966 27.242 36.7591 27.258 36.7114C27.3102 36.5523 27.3398 36.4545 27.3466 36.4182C27.3148 36.4477 27.2625 36.5057 27.1898 36.592C27.1102 36.6852 27.0489 36.7318 27.0057 36.7318C26.983 36.7318 26.9591 36.7239 26.9341 36.708C26.8818 36.6693 26.8557 36.6182 26.8557 36.5545C26.858 36.5159 26.8761 36.4852 26.9102 36.4625C26.933 36.4511 26.9682 36.4398 27.0159 36.4284C27.1773 36.3943 27.2761 36.3705 27.3125 36.3568C27.267 36.3432 27.2125 36.3295 27.1489 36.3159C27.0148 36.2932 26.9352 36.2739 26.9102 36.258C26.8784 36.2398 26.8614 36.2091 26.8591 36.1659C26.8591 36.1432 26.8648 36.1182 26.8761 36.0909C26.9057 36.0205 26.9477 35.9852 27.0023 35.9852C27.0386 35.9875 27.0898 36.0239 27.1557 36.0943C27.2557 36.208 27.3193 36.2761 27.3466 36.2989C27.3375 36.2489 27.3216 36.1932 27.2989 36.1318C27.2557 36.0045 27.2341 35.9273 27.2341 35.9C27.2341 35.8909 27.2352 35.8818 27.2375 35.8727C27.2534 35.8136 27.3023 35.7841 27.3841 35.7841ZM28.6352 35.7841C28.7148 35.7932 28.7636 35.8307 28.7818 35.8966C28.7818 35.9239 28.7739 35.9625 28.758 36.0125C28.7034 36.1784 28.6727 36.2761 28.6659 36.3057C28.7045 36.2739 28.7614 36.2125 28.8364 36.1216C28.9091 36.033 28.967 35.9886 29.0102 35.9886C29.033 35.9886 29.0568 35.9966 29.0818 36.0125C29.1364 36.0511 29.1636 36.1023 29.1636 36.1659C29.1614 36.2045 29.142 36.2352 29.1057 36.258C29.083 36.2693 29.0477 36.2807 29 36.292C28.8386 36.3239 28.7386 36.3466 28.7 36.3602C28.7477 36.3761 28.8045 36.3909 28.8705 36.4045C29.0023 36.4295 29.0807 36.4489 29.1057 36.4625C29.1398 36.483 29.158 36.5136 29.1602 36.5545C29.1602 36.5773 29.1545 36.6023 29.1432 36.6295C29.1114 36.7 29.0682 36.7352 29.0136 36.7352C28.975 36.733 28.9227 36.6955 28.8568 36.6227C28.7545 36.5068 28.6909 36.4386 28.6659 36.4182C28.6773 36.4682 28.6932 36.525 28.7136 36.5886C28.7591 36.7136 28.7818 36.7909 28.7818 36.8205C28.7818 36.8295 28.7807 36.8386 28.7784 36.8477C28.7625 36.9068 28.7136 36.9364 28.6318 36.9364C28.5523 36.9273 28.5034 36.8898 28.4852 36.8239C28.4852 36.7966 28.4932 36.7591 28.5091 36.7114C28.5614 36.5523 28.5909 36.4545 28.5977 36.4182C28.5659 36.4477 28.5136 36.5057 28.4409 36.592C28.3614 36.6852 28.3 36.7318 28.2568 36.7318C28.2341 36.7318 28.2102 36.7239 28.1852 36.708C28.133 36.6693 28.1068 36.6182 28.1068 36.5545C28.1091 36.5159 28.1273 36.4852 28.1614 36.4625C28.1841 36.4511 28.2193 36.4398 28.267 36.4284C28.4284 36.3943 28.5273 36.3705 28.5636 36.3568C28.5182 36.3432 28.4636 36.3295 28.4 36.3159C28.2659 36.2932 28.1864 36.2739 28.1614 36.258C28.1295 36.2398 28.1125 36.2091 28.1102 36.1659C28.1102 36.1432 28.1159 36.1182 28.1273 36.0909C28.1568 36.0205 28.1989 35.9852 28.2534 35.9852C28.2898 35.9875 28.3409 36.0239 28.4068 36.0943C28.5068 36.208 28.5705 36.2761 28.5977 36.2989C28.5886 36.2489 28.5727 36.1932 28.55 36.1318C28.5068 36.0045 28.4852 35.9273 28.4852 35.9C28.4852 35.8909 28.4864 35.8818 28.4886 35.8727C28.5045 35.8136 28.5534 35.7841 28.6352 35.7841ZM29.8864 35.7841C29.9659 35.7932 30.0148 35.8307 30.033 35.8966C30.033 35.9239 30.025 35.9625 30.0091 36.0125C29.9545 36.1784 29.9239 36.2761 29.917 36.3057C29.9557 36.2739 30.0125 36.2125 30.0875 36.1216C30.1602 36.033 30.2182 35.9886 30.2614 35.9886C30.2841 35.9886 30.308 35.9966 30.333 36.0125C30.3875 36.0511 30.4148 36.1023 30.4148 36.1659C30.4125 36.2045 30.3932 36.2352 30.3568 36.258C30.3341 36.2693 30.2989 36.2807 30.2511 36.292C30.0898 36.3239 29.9898 36.3466 29.9511 36.3602C29.9989 36.3761 30.0557 36.3909 30.1216 36.4045C30.2534 36.4295 30.3318 36.4489 30.3568 36.4625C30.3909 36.483 30.4091 36.5136 30.4114 36.5545C30.4114 36.5773 30.4057 36.6023 30.3943 36.6295C30.3625 36.7 30.3193 36.7352 30.2648 36.7352C30.2261 36.733 30.1739 36.6955 30.108 36.6227C30.0057 36.5068 29.942 36.4386 29.917 36.4182C29.9284 36.4682 29.9443 36.525 29.9648 36.5886C30.0102 36.7136 30.033 36.7909 30.033 36.8205C30.033 36.8295 30.0318 36.8386 30.0295 36.8477C30.0136 36.9068 29.9648 36.9364 29.883 36.9364C29.8034 36.9273 29.7545 36.8898 29.7364 36.8239C29.7364 36.7966 29.7443 36.7591 29.7602 36.7114C29.8125 36.5523 29.842 36.4545 29.8489 36.4182C29.817 36.4477 29.7648 36.5057 29.692 36.592C29.6125 36.6852 29.5511 36.7318 29.508 36.7318C29.4852 36.7318 29.4614 36.7239 29.4364 36.708C29.3841 36.6693 29.358 36.6182 29.358 36.5545C29.3602 36.5159 29.3784 36.4852 29.4125 36.4625C29.4352 36.4511 29.4705 36.4398 29.5182 36.4284C29.6795 36.3943 29.7784 36.3705 29.8148 36.3568C29.7693 36.3432 29.7148 36.3295 29.6511 36.3159C29.517 36.2932 29.4375 36.2739 29.4125 36.258C29.3807 36.2398 29.3636 36.2091 29.3614 36.1659C29.3614 36.1432 29.367 36.1182 29.3784 36.0909C29.408 36.0205 29.45 35.9852 29.5045 35.9852C29.5409 35.9875 29.592 36.0239 29.658 36.0943C29.758 36.208 29.8216 36.2761 29.8489 36.2989C29.8398 36.2489 29.8239 36.1932 29.8011 36.1318C29.758 36.0045 29.7364 35.9273 29.7364 35.9C29.7364 35.8909 29.7375 35.8818 29.7398 35.8727C29.7557 35.8136 29.8045 35.7841 29.8864 35.7841ZM31.1375 35.7841C31.217 35.7932 31.2659 35.8307 31.2841 35.8966C31.2841 35.9239 31.2761 35.9625 31.2602 36.0125C31.2057 36.1784 31.175 36.2761 31.1682 36.3057C31.2068 36.2739 31.2636 36.2125 31.3386 36.1216C31.4114 36.033 31.4693 35.9886 31.5125 35.9886C31.5352 35.9886 31.5591 35.9966 31.5841 36.0125C31.6386 36.0511 31.6659 36.1023 31.6659 36.1659C31.6636 36.2045 31.6443 36.2352 31.608 36.258C31.5852 36.2693 31.55 36.2807 31.5023 36.292C31.3409 36.3239 31.2409 36.3466 31.2023 36.3602C31.25 36.3761 31.3068 36.3909 31.3727 36.4045C31.5045 36.4295 31.583 36.4489 31.608 36.4625C31.642 36.483 31.6602 36.5136 31.6625 36.5545C31.6625 36.5773 31.6568 36.6023 31.6455 36.6295C31.6136 36.7 31.5705 36.7352 31.5159 36.7352C31.4773 36.733 31.425 36.6955 31.3591 36.6227C31.2568 36.5068 31.1932 36.4386 31.1682 36.4182C31.1795 36.4682 31.1955 36.525 31.2159 36.5886C31.2614 36.7136 31.2841 36.7909 31.2841 36.8205C31.2841 36.8295 31.283 36.8386 31.2807 36.8477C31.2648 36.9068 31.2159 36.9364 31.1341 36.9364C31.0545 36.9273 31.0057 36.8898 30.9875 36.8239C30.9875 36.7966 30.9955 36.7591 31.0114 36.7114C31.0636 36.5523 31.0932 36.4545 31.1 36.4182C31.0682 36.4477 31.0159 36.5057 30.9432 36.592C30.8636 36.6852 30.8023 36.7318 30.7591 36.7318C30.7364 36.7318 30.7125 36.7239 30.6875 36.708C30.6352 36.6693 30.6091 36.6182 30.6091 36.5545C30.6114 36.5159 30.6295 36.4852 30.6636 36.4625C30.6864 36.4511 30.7216 36.4398 30.7693 36.4284C30.9307 36.3943 31.0295 36.3705 31.0659 36.3568C31.0205 36.3432 30.9659 36.3295 30.9023 36.3159C30.7682 36.2932 30.6886 36.2739 30.6636 36.258C30.6318 36.2398 30.6148 36.2091 30.6125 36.1659C30.6125 36.1432 30.6182 36.1182 30.6295 36.0909C30.6591 36.0205 30.7011 35.9852 30.7557 35.9852C30.792 35.9875 30.8432 36.0239 30.9091 36.0943C31.0091 36.208 31.0727 36.2761 31.1 36.2989C31.0909 36.2489 31.075 36.1932 31.0523 36.1318C31.0091 36.0045 30.9875 35.9273 30.9875 35.9C30.9875 35.8909 30.9886 35.8818 30.9909 35.8727C31.0068 35.8136 31.0557 35.7841 31.1375 35.7841ZM32.3886 35.7841C32.4682 35.7932 32.517 35.8307 32.5352 35.8966C32.5352 35.9239 32.5273 35.9625 32.5114 36.0125C32.4568 36.1784 32.4261 36.2761 32.4193 36.3057C32.458 36.2739 32.5148 36.2125 32.5898 36.1216C32.6625 36.033 32.7205 35.9886 32.7636 35.9886C32.7864 35.9886 32.8102 35.9966 32.8352 36.0125C32.8898 36.0511 32.917 36.1023 32.917 36.1659C32.9148 36.2045 32.8955 36.2352 32.8591 36.258C32.8364 36.2693 32.8011 36.2807 32.7534 36.292C32.592 36.3239 32.492 36.3466 32.4534 36.3602C32.5011 36.3761 32.558 36.3909 32.6239 36.4045C32.7557 36.4295 32.8341 36.4489 32.8591 36.4625C32.8932 36.483 32.9114 36.5136 32.9136 36.5545C32.9136 36.5773 32.908 36.6023 32.8966 36.6295C32.8648 36.7 32.8216 36.7352 32.767 36.7352C32.7284 36.733 32.6761 36.6955 32.6102 36.6227C32.508 36.5068 32.4443 36.4386 32.4193 36.4182C32.4307 36.4682 32.4466 36.525 32.467 36.5886C32.5125 36.7136 32.5352 36.7909 32.5352 36.8205C32.5352 36.8295 32.5341 36.8386 32.5318 36.8477C32.5159 36.9068 32.467 36.9364 32.3852 36.9364C32.3057 36.9273 32.2568 36.8898 32.2386 36.8239C32.2386 36.7966 32.2466 36.7591 32.2625 36.7114C32.3148 36.5523 32.3443 36.4545 32.3511 36.4182C32.3193 36.4477 32.267 36.5057 32.1943 36.592C32.1148 36.6852 32.0534 36.7318 32.0102 36.7318C31.9875 36.7318 31.9636 36.7239 31.9386 36.708C31.8864 36.6693 31.8602 36.6182 31.8602 36.5545C31.8625 36.5159 31.8807 36.4852 31.9148 36.4625C31.9375 36.4511 31.9727 36.4398 32.0205 36.4284C32.1818 36.3943 32.2807 36.3705 32.317 36.3568C32.2716 36.3432 32.217 36.3295 32.1534 36.3159C32.0193 36.2932 31.9398 36.2739 31.9148 36.258C31.883 36.2398 31.8659 36.2091 31.8636 36.1659C31.8636 36.1432 31.8693 36.1182 31.8807 36.0909C31.9102 36.0205 31.9523 35.9852 32.0068 35.9852C32.0432 35.9875 32.0943 36.0239 32.1602 36.0943C32.2602 36.208 32.3239 36.2761 32.3511 36.2989C32.342 36.2489 32.3261 36.1932 32.3034 36.1318C32.2602 36.0045 32.2386 35.9273 32.2386 35.9C32.2386 35.8909 32.2398 35.8818 32.242 35.8727C32.258 35.8136 32.3068 35.7841 32.3886 35.7841ZM33.6398 35.7841C33.7193 35.7932 33.7682 35.8307 33.7864 35.8966C33.7864 35.9239 33.7784 35.9625 33.7625 36.0125C33.708 36.1784 33.6773 36.2761 33.6705 36.3057C33.7091 36.2739 33.7659 36.2125 33.8409 36.1216C33.9136 36.033 33.9716 35.9886 34.0148 35.9886C34.0375 35.9886 34.0614 35.9966 34.0864 36.0125C34.1409 36.0511 34.1682 36.1023 34.1682 36.1659C34.1659 36.2045 34.1466 36.2352 34.1102 36.258C34.0875 36.2693 34.0523 36.2807 34.0045 36.292C33.8432 36.3239 33.7432 36.3466 33.7045 36.3602C33.7523 36.3761 33.8091 36.3909 33.875 36.4045C34.0068 36.4295 34.0852 36.4489 34.1102 36.4625C34.1443 36.483 34.1625 36.5136 34.1648 36.5545C34.1648 36.5773 34.1591 36.6023 34.1477 36.6295C34.1159 36.7 34.0727 36.7352 34.0182 36.7352C33.9795 36.733 33.9273 36.6955 33.8614 36.6227C33.7591 36.5068 33.6955 36.4386 33.6705 36.4182C33.6818 36.4682 33.6977 36.525 33.7182 36.5886C33.7636 36.7136 33.7864 36.7909 33.7864 36.8205C33.7864 36.8295 33.7852 36.8386 33.783 36.8477C33.767 36.9068 33.7182 36.9364 33.6364 36.9364C33.5568 36.9273 33.508 36.8898 33.4898 36.8239C33.4898 36.7966 33.4977 36.7591 33.5136 36.7114C33.5659 36.5523 33.5955 36.4545 33.6023 36.4182C33.5705 36.4477 33.5182 36.5057 33.4455 36.592C33.3659 36.6852 33.3045 36.7318 33.2614 36.7318C33.2386 36.7318 33.2148 36.7239 33.1898 36.708C33.1375 36.6693 33.1114 36.6182 33.1114 36.5545C33.1136 36.5159 33.1318 36.4852 33.1659 36.4625C33.1886 36.4511 33.2239 36.4398 33.2716 36.4284C33.433 36.3943 33.5318 36.3705 33.5682 36.3568C33.5227 36.3432 33.4682 36.3295 33.4045 36.3159C33.2705 36.2932 33.1909 36.2739 33.1659 36.258C33.1341 36.2398 33.117 36.2091 33.1148 36.1659C33.1148 36.1432 33.1205 36.1182 33.1318 36.0909C33.1614 36.0205 33.2034 35.9852 33.258 35.9852C33.2943 35.9875 33.3455 36.0239 33.4114 36.0943C33.5114 36.208 33.575 36.2761 33.6023 36.2989C33.5932 36.2489 33.5773 36.1932 33.5545 36.1318C33.5114 36.0045 33.4898 35.9273 33.4898 35.9C33.4898 35.8909 33.4909 35.8818 33.4932 35.8727C33.5091 35.8136 33.558 35.7841 33.6398 35.7841Z" fill="black"/>
<path d="M32.5381 18.6973C30.8995 22.5526 28.4016 22.2313 27.3574 21.5888C27.864 23.2351 29.2302 23.6196 30.4723 23.5416C31.6231 23.4694 32.6516 22.742 33.1718 21.713C34.0645 19.9471 33.2157 18.9877 32.5381 18.6973Z" fill="#66E4FE" stroke="#66E4FE" stroke-width="0.24096"/>
<path d="M25.2071 23.6038C26.2236 19.5399 28.7411 19.4672 29.8728 19.9389C29.1154 18.3919 27.7059 18.2254 26.4912 18.4963C25.3658 18.7473 24.4635 19.6263 24.1103 20.724C23.5043 22.6076 24.4924 23.4227 25.2071 23.6038Z" fill="#66E4FE"/>
<path d="M23.1071 27.6366C22.9134 27.6366 22.745 27.6089 22.602 27.5536C22.4613 27.4982 22.354 27.4244 22.2802 27.3322C22.2064 27.2399 22.1695 27.1407 22.1695 27.0346C22.1695 26.947 22.1926 26.8801 22.2387 26.834C22.2848 26.7855 22.3552 26.7613 22.4498 26.7613C22.4498 26.9574 22.5086 27.1073 22.6262 27.2111C22.7438 27.3126 22.9087 27.3633 23.1209 27.3633C23.3239 27.3633 23.4796 27.3298 23.588 27.263C23.6964 27.1938 23.7506 27.0923 23.7506 26.9585C23.7506 26.8778 23.7298 26.8121 23.6883 26.7613C23.6491 26.7083 23.5811 26.6633 23.4842 26.6264C23.3896 26.5872 23.2524 26.548 23.0725 26.5088C22.8603 26.4626 22.6919 26.4096 22.5674 26.3496C22.4428 26.2873 22.3517 26.2124 22.2941 26.1247C22.2364 26.0371 22.2076 25.9287 22.2076 25.7995C22.2076 25.6704 22.2433 25.5573 22.3148 25.4605C22.3886 25.3613 22.4924 25.2852 22.6262 25.2321C22.76 25.1791 22.9157 25.1526 23.0933 25.1526C23.2616 25.1526 23.4115 25.1768 23.543 25.2252C23.6768 25.2714 23.7806 25.3382 23.8544 25.4259C23.9305 25.5112 23.9685 25.6081 23.9685 25.7165C23.9685 25.7834 23.9466 25.8364 23.9028 25.8756C23.8613 25.9125 23.7956 25.931 23.7056 25.931C23.6802 25.7557 23.618 25.6277 23.5188 25.547C23.4219 25.4662 23.2801 25.4259 23.0933 25.4259C22.9134 25.4259 22.775 25.4582 22.6781 25.5228C22.5812 25.585 22.5328 25.6738 22.5328 25.7891C22.5328 25.8699 22.5501 25.9368 22.5847 25.9898C22.6216 26.0405 22.6827 26.0844 22.768 26.1213C22.8557 26.1582 22.9779 26.1939 23.1348 26.2285C23.37 26.2793 23.5545 26.3358 23.6883 26.398C23.8244 26.4603 23.9224 26.5364 23.9824 26.6264C24.0424 26.7163 24.0723 26.827 24.0723 26.9585C24.0723 27.1684 23.9847 27.3345 23.8094 27.4567C23.6341 27.5766 23.4 27.6366 23.1071 27.6366ZM25.6392 27.6366C25.4478 27.6366 25.276 27.5997 25.1238 27.5259C24.9738 27.4498 24.8562 27.346 24.7709 27.2145C24.6855 27.0808 24.6429 26.9331 24.6429 26.7717V26.0106C24.6429 25.8491 24.6855 25.7038 24.7709 25.5746C24.8562 25.4432 24.9738 25.3405 25.1238 25.2667C25.276 25.1906 25.4478 25.1526 25.6392 25.1526C25.833 25.1526 26.0048 25.1906 26.1547 25.2667C26.307 25.3405 26.4257 25.4432 26.5111 25.5746C26.5964 25.7038 26.6391 25.8491 26.6391 26.0106V26.7717C26.6391 26.9331 26.5964 27.0808 26.5111 27.2145C26.4257 27.346 26.307 27.4498 26.1547 27.5259C26.0025 27.5997 25.8307 27.6366 25.6392 27.6366ZM25.6392 27.3529C25.8537 27.3529 26.021 27.2999 26.1409 27.1938C26.2608 27.0877 26.3208 26.9458 26.3208 26.7682V26.0175C26.3208 25.8399 26.2608 25.6992 26.1409 25.5954C26.021 25.4893 25.8537 25.4363 25.6392 25.4363C25.427 25.4363 25.261 25.4893 25.141 25.5954C25.0211 25.6992 24.9611 25.8399 24.9611 26.0175V26.7682C24.9611 26.9458 25.0211 27.0877 25.141 27.1938C25.261 27.2999 25.427 27.3529 25.6392 27.3529ZM27.3483 25.4224C27.3483 25.3371 27.3771 25.2714 27.4348 25.2252C27.4924 25.1768 27.572 25.1526 27.6735 25.1526V26.3392L28.9363 25.1526C28.9755 25.1849 29.0078 25.2195 29.0331 25.2564C29.0585 25.291 29.0712 25.3221 29.0712 25.3498C29.0712 25.4074 29.0366 25.4686 28.9674 25.5331L28.1578 26.2943L29.2027 27.5467C29.1773 27.5743 29.1473 27.5962 29.1127 27.6124C29.0804 27.6285 29.0481 27.6366 29.0158 27.6366C28.9259 27.6366 28.8532 27.6043 28.7979 27.5397L27.9226 26.5018L27.6735 26.7336V27.3771C27.6735 27.4648 27.647 27.5305 27.5939 27.5743C27.5409 27.6158 27.459 27.6366 27.3483 27.6366V25.4224ZM29.8927 27.6366C29.8235 27.6228 29.7693 27.5939 29.7301 27.5501C29.6909 27.504 29.6713 27.4486 29.6713 27.3841C29.6713 27.3402 29.6816 27.2941 29.7024 27.2457L30.5293 25.2564C30.5569 25.1872 30.61 25.1526 30.6884 25.1526C30.7622 25.1526 30.8141 25.1872 30.8441 25.2564L31.6709 27.2457C31.6917 27.2941 31.7021 27.3402 31.7021 27.3841C31.7021 27.4463 31.6825 27.5005 31.6433 27.5467C31.6041 27.5928 31.5499 27.6228 31.4807 27.6366L31.1831 26.9135H30.1902L29.8927 27.6366ZM31.0828 26.6333L30.6365 25.502L30.6088 25.5124L30.6711 25.6715L30.2905 26.6333H31.0828ZM32.4105 25.3359C32.4105 25.2921 32.4255 25.2564 32.4554 25.2287C32.4877 25.1987 32.5281 25.1837 32.5765 25.1837H33.5314C33.7551 25.1837 33.9327 25.2494 34.0642 25.3809C34.198 25.5101 34.2649 25.683 34.2649 25.8999C34.2649 26.172 34.1461 26.3646 33.9085 26.4776V26.488C34.0123 26.5318 34.0919 26.5987 34.1472 26.6887C34.2026 26.7763 34.2303 26.8836 34.2303 27.0104V27.3668C34.2303 27.4544 34.2026 27.5213 34.1472 27.5674C34.0919 27.6135 34.0111 27.6366 33.905 27.6366V27.0312C33.905 26.8951 33.8739 26.7924 33.8116 26.7233C33.7517 26.6518 33.6617 26.616 33.5418 26.616H32.7322V27.3668C32.7322 27.4544 32.7045 27.5213 32.6492 27.5674C32.5961 27.6135 32.5166 27.6366 32.4105 27.6366V25.3359ZM33.521 26.3358C33.6479 26.3358 33.7482 26.2966 33.822 26.2181C33.8981 26.1397 33.9362 26.0325 33.9362 25.8964C33.9362 25.758 33.9004 25.6519 33.8289 25.5781C33.7574 25.5043 33.6548 25.4674 33.521 25.4674H32.7322V26.3358H33.521Z" fill="#66E4FE"/>
</svg>
