<svg width="73" height="43" viewBox="0 0 73 43" fill="none" xmlns="http://www.w3.org/2000/svg">
<rect x="0.5" y="27.6543" width="4" height="9" rx="2" fill="white" fill-opacity="0.2"/>
<rect x="6.5" y="28.6543" width="4" height="7" rx="2" fill="white" fill-opacity="0.2"/>
<rect x="12.5" y="30.6543" width="4" height="9" rx="2" fill="white" fill-opacity="0.2"/>
<rect x="17.5" y="30.6543" width="4" height="11" rx="2" fill="white" fill-opacity="0.2"/>
<rect x="23.5" y="35.6543" width="4" height="7" rx="2" fill="white" fill-opacity="0.2"/>
<rect x="29.5" y="27.6543" width="4" height="14" rx="2" fill="white" fill-opacity="0.2"/>
<rect x="35.5" y="20.6543" width="4" height="18" rx="2" fill="white" fill-opacity="0.2"/>
<rect x="47.5" y="27.6543" width="4" height="5" rx="2" fill="white" fill-opacity="0.2"/>
<rect x="58.5" y="8.6543" width="4" height="5" rx="2" fill="white" fill-opacity="0.2"/>
<rect x="58.5" y="14.6543" width="4" height="5" rx="2" fill="white" fill-opacity="0.2"/>
<rect x="58.5" y="36.6543" width="4" height="5" rx="2" fill="white" fill-opacity="0.2"/>
<rect x="65" y="0.175781" width="6" height="25" rx="3" fill="white" fill-opacity="0.2"/>
<rect x="66" y="18.1758" width="4" height="6" rx="2" fill="#FF5C5C"/>
<rect x="58.5" y="21.6543" width="4" height="13" rx="2" fill="white" fill-opacity="0.2"/>
</svg>
