<svg width="352" height="106" viewBox="0 0 352 106" fill="none" xmlns="http://www.w3.org/2000/svg">
<rect x="0.921875" y="0.513184" width="350.293" height="105.088" rx="21.8933" fill="#66E4FE"/>
<path d="M21.702 38.1641H18.7772L24.1024 23.0378H27.4852L32.8178 38.1641H29.893L25.8529 26.1398H25.7347L21.702 38.1641ZM21.798 32.2332H29.7748V34.4342H21.798V32.2332ZM38.5566 38.3635C37.6654 38.3635 36.8677 38.1345 36.1636 37.6766C35.4595 37.2187 34.9031 36.5539 34.4944 35.6824C34.0857 34.8109 33.8813 33.7522 33.8813 32.5065C33.8813 31.2459 34.0882 30.1824 34.5018 29.3158C34.9203 28.4442 35.4841 27.7869 36.1931 27.3437C36.9022 26.8957 37.6925 26.6716 38.564 26.6716C39.2287 26.6716 39.7753 26.7849 40.2037 27.0114C40.6321 27.2329 40.9718 27.5013 41.2229 27.8164C41.474 28.1266 41.6685 28.4196 41.8064 28.6954H41.9172V23.0378H44.5983V38.1641H41.9689V36.3767H41.8064C41.6685 36.6524 41.4691 36.9454 41.2082 37.2556C40.9472 37.5609 40.6025 37.8218 40.1741 38.0385C39.7457 38.2552 39.2066 38.3635 38.5566 38.3635ZM39.3026 36.1699C39.8688 36.1699 40.3514 36.0172 40.7502 35.7119C41.1491 35.4017 41.4519 34.9709 41.6587 34.4194C41.8655 33.8679 41.9689 33.2254 41.9689 32.4917C41.9689 31.758 41.8655 31.1204 41.6587 30.5788C41.4568 30.0371 41.1564 29.6161 40.7576 29.3158C40.3637 29.0154 39.8787 28.8652 39.3026 28.8652C38.7068 28.8652 38.2095 29.0203 37.8106 29.3305C37.4118 29.6407 37.1114 30.0691 36.9096 30.6157C36.7077 31.1622 36.6067 31.7876 36.6067 32.4917C36.6067 33.2007 36.7077 33.8335 36.9096 34.3899C37.1164 34.9414 37.4192 35.3771 37.818 35.6972C38.2218 36.0123 38.7166 36.1699 39.3026 36.1699ZM51.6573 38.3635C50.7661 38.3635 49.9684 38.1345 49.2643 37.6766C48.5602 37.2187 48.0038 36.5539 47.5951 35.6824C47.1864 34.8109 46.9821 33.7522 46.9821 32.5065C46.9821 31.2459 47.1889 30.1824 47.6025 29.3158C48.021 28.4442 48.5848 27.7869 49.2939 27.3437C50.0029 26.8957 50.7932 26.6716 51.6647 26.6716C52.3295 26.6716 52.876 26.7849 53.3044 27.0114C53.7328 27.2329 54.0725 27.5013 54.3236 27.8164C54.5748 28.1266 54.7693 28.4196 54.9071 28.6954H55.0179V23.0378H57.699V38.1641H55.0696V36.3767H54.9071C54.7693 36.6524 54.5698 36.9454 54.3089 37.2556C54.0479 37.5609 53.7032 37.8218 53.2748 38.0385C52.8465 38.2552 52.3073 38.3635 51.6573 38.3635ZM52.4033 36.1699C52.9696 36.1699 53.4521 36.0172 53.8509 35.7119C54.2498 35.4017 54.5526 34.9709 54.7594 34.4194C54.9662 33.8679 55.0696 33.2254 55.0696 32.4917C55.0696 31.758 54.9662 31.1204 54.7594 30.5788C54.5575 30.0371 54.2572 29.6161 53.8583 29.3158C53.4644 29.0154 52.9794 28.8652 52.4033 28.8652C51.8075 28.8652 51.3102 29.0203 50.9114 29.3305C50.5125 29.6407 50.2122 30.0691 50.0103 30.6157C49.8084 31.1622 49.7075 31.7876 49.7075 32.4917C49.7075 33.2007 49.8084 33.8335 50.0103 34.3899C50.2171 34.9414 50.5199 35.3771 50.9187 35.6972C51.3225 36.0123 51.8174 36.1699 52.4033 36.1699ZM70.9511 38.1641H65.8253V23.0378H71.0545C72.5563 23.0378 73.8464 23.3406 74.9247 23.9462C76.008 24.5469 76.8401 25.4111 77.4212 26.5387C78.0022 27.6663 78.2927 29.0154 78.2927 30.5861C78.2927 32.1618 77.9997 33.5159 77.4138 34.6484C76.8328 35.7809 75.9932 36.65 74.8952 37.2556C73.8021 37.8612 72.4874 38.1641 70.9511 38.1641ZM68.5655 35.7932H70.8182C71.8719 35.7932 72.7508 35.6012 73.4549 35.2171C74.1591 34.8281 74.6884 34.2495 75.0429 33.4814C75.3974 32.7084 75.5747 31.7433 75.5747 30.5861C75.5747 29.429 75.3974 28.4689 75.0429 27.7056C74.6884 26.9375 74.164 26.3639 73.4697 25.9847C72.7804 25.6007 71.9236 25.4086 70.8994 25.4086H68.5655V35.7932ZM80.7781 38.1641V26.8193H83.4517V38.1641H80.7781ZM82.1223 25.2092C81.6988 25.2092 81.3345 25.0689 81.0292 24.7882C80.7239 24.5026 80.5712 24.1604 80.5712 23.7616C80.5712 23.3578 80.7239 23.0156 81.0292 22.7349C81.3345 22.4494 81.6988 22.3066 82.1223 22.3066C82.5507 22.3066 82.915 22.4494 83.2154 22.7349C83.5207 23.0156 83.6733 23.3578 83.6733 23.7616C83.6733 24.1604 83.5207 24.5026 83.2154 24.7882C82.915 25.0689 82.5507 25.2092 82.1223 25.2092ZM91.2235 38.3856C90.0861 38.3856 89.1038 38.1493 88.2766 37.6766C87.4543 37.199 86.8216 36.5244 86.3784 35.6529C85.9352 34.7764 85.7137 33.7448 85.7137 32.5582C85.7137 31.3912 85.9352 30.367 86.3784 29.4856C86.8265 28.5993 87.4518 27.91 88.2544 27.4176C89.057 26.9203 89.9999 26.6716 91.0832 26.6716C91.7824 26.6716 92.4422 26.7849 93.0626 27.0114C93.688 27.2329 94.2394 27.5776 94.7171 28.0454C95.1996 28.5132 95.5788 29.109 95.8545 29.8328C96.1302 30.5517 96.2681 31.4084 96.2681 32.4031V33.2229H86.9693V31.4207H93.7052C93.7003 30.9087 93.5895 30.4532 93.3728 30.0544C93.1562 29.6506 92.8534 29.333 92.4644 29.1016C92.0803 28.8702 91.6322 28.7544 91.1201 28.7544C90.5736 28.7544 90.0935 28.8874 89.6799 29.1533C89.2663 29.4142 88.9438 29.7589 88.7123 30.1873C88.4858 30.6108 88.3701 31.0761 88.3652 31.5832V33.1564C88.3652 33.8162 88.4858 34.3825 88.7271 34.8552C88.9684 35.323 89.3057 35.6824 89.739 35.9335C90.1723 36.1797 90.6794 36.3028 91.2605 36.3028C91.6495 36.3028 92.0015 36.2487 92.3167 36.1403C92.6318 36.0271 92.9051 35.8621 93.1365 35.6455C93.3679 35.4288 93.5427 35.1605 93.6609 34.8404L96.1573 35.1211C95.9998 35.7809 95.6994 36.357 95.2562 36.8494C94.818 37.3368 94.2567 37.716 93.5723 37.9868C92.8878 38.2527 92.1049 38.3856 91.2235 38.3856ZM104.195 26.8193V28.8874H97.6733V26.8193H104.195ZM99.2834 24.1013H101.957V34.7518C101.957 35.1112 102.011 35.387 102.12 35.579C102.233 35.7661 102.381 35.8941 102.563 35.9631C102.745 36.032 102.947 36.0665 103.168 36.0665C103.336 36.0665 103.488 36.0542 103.626 36.0295C103.769 36.0049 103.877 35.9828 103.951 35.9631L104.402 38.0533C104.259 38.1025 104.055 38.1567 103.789 38.2158C103.528 38.2749 103.208 38.3093 102.829 38.3192C102.159 38.3389 101.556 38.2379 101.019 38.0163C100.482 37.7898 100.056 37.4402 99.7413 36.9675C99.4311 36.4949 99.2785 35.904 99.2834 35.1949V24.1013ZM111.708 38.1641V23.0378H117.381C118.543 23.0378 119.518 23.2544 120.305 23.6877C121.098 24.121 121.696 24.7168 122.1 25.4751C122.509 26.2285 122.713 27.0852 122.713 28.0454C122.713 29.0154 122.509 29.8771 122.1 30.6305C121.692 31.3838 121.088 31.9771 120.291 32.4105C119.493 32.8388 118.511 33.053 117.344 33.053H113.584V30.8003H116.974C117.654 30.8003 118.21 30.6822 118.644 30.4458C119.077 30.2095 119.397 29.8845 119.604 29.4709C119.816 29.0573 119.921 28.5821 119.921 28.0454C119.921 27.5087 119.816 27.036 119.604 26.6273C119.397 26.2186 119.075 25.901 118.636 25.6745C118.203 25.4431 117.644 25.3274 116.96 25.3274H114.448V38.1641H111.708ZM127.649 23.0378V38.1641H124.975V23.0378H127.649ZM133.663 38.393C132.944 38.393 132.296 38.265 131.72 38.009C131.149 37.748 130.696 37.3639 130.361 36.8568C130.031 36.3496 129.867 35.7243 129.867 34.9807C129.867 34.3406 129.985 33.8113 130.221 33.3928C130.457 32.9742 130.78 32.6394 131.189 32.3883C131.597 32.1372 132.058 31.9476 132.57 31.8196C133.087 31.6866 133.621 31.5906 134.172 31.5315C134.837 31.4626 135.376 31.401 135.79 31.3469C136.204 31.2878 136.504 31.1992 136.691 31.081C136.883 30.9579 136.979 30.7683 136.979 30.5123V30.468C136.979 29.9116 136.814 29.4807 136.484 29.1754C136.154 28.8702 135.679 28.7175 135.059 28.7175C134.404 28.7175 133.884 28.8603 133.5 29.1459C133.121 29.4315 132.865 29.7688 132.732 30.1578L130.236 29.8032C130.433 29.1139 130.758 28.5378 131.211 28.0749C131.664 27.6072 132.218 27.2576 132.873 27.0261C133.527 26.7898 134.251 26.6716 135.044 26.6716C135.591 26.6716 136.135 26.7356 136.676 26.8637C137.218 26.9917 137.713 27.2034 138.161 27.4988C138.609 27.7893 138.968 28.1857 139.239 28.688C139.515 29.1902 139.653 29.818 139.653 30.5714V38.1641H137.083V36.6056H136.994C136.831 36.9208 136.602 37.2162 136.307 37.4919C136.017 37.7628 135.65 37.9819 135.207 38.1493C134.768 38.3118 134.254 38.393 133.663 38.393ZM134.357 36.4284C134.894 36.4284 135.359 36.3225 135.753 36.1108C136.147 35.8941 136.45 35.6085 136.662 35.254C136.878 34.8995 136.987 34.513 136.987 34.0944V32.7576C136.903 32.8265 136.76 32.8905 136.558 32.9496C136.361 33.0087 136.14 33.0604 135.893 33.1047C135.647 33.149 135.403 33.1884 135.162 33.2229C134.921 33.2574 134.712 33.2869 134.534 33.3115C134.136 33.3657 133.779 33.4543 133.463 33.5774C133.148 33.7005 132.9 33.8729 132.717 34.0944C132.535 34.3111 132.444 34.5918 132.444 34.9364C132.444 35.4288 132.624 35.8006 132.983 36.0517C133.343 36.3028 133.801 36.4284 134.357 36.4284ZM145.015 31.5168V38.1641H142.341V26.8193H144.897V28.7471H145.03C145.291 28.1119 145.707 27.6072 146.278 27.2329C146.854 26.8587 147.566 26.6716 148.412 26.6716C149.195 26.6716 149.877 26.839 150.458 27.1739C151.044 27.5087 151.497 27.9937 151.817 28.6289C152.142 29.2641 152.302 30.0347 152.297 30.9407V38.1641H149.624V31.3543C149.624 30.596 149.427 30.0027 149.033 29.5743C148.644 29.1459 148.105 28.9317 147.415 28.9317C146.948 28.9317 146.532 29.0351 146.167 29.2419C145.808 29.4438 145.525 29.7368 145.318 30.1208C145.116 30.5049 145.015 30.9702 145.015 31.5168Z" fill="black"/>
<rect x="18.2676" y="55.1108" width="103.993" height="32.84" rx="16.42" fill="black"/>
<path d="M29.9026 78.5308V64.9967H34.6342C35.577 64.9967 36.3546 65.1597 36.967 65.4857C37.5794 65.8073 38.0353 66.2413 38.3349 66.7876C38.6345 67.3295 38.7843 67.9308 38.7843 68.5917C38.7843 69.1732 38.6808 69.6534 38.4737 70.0323C38.271 70.4112 38.0023 70.7108 37.6675 70.9311C37.337 71.1514 36.978 71.3144 36.5903 71.4201V71.5523C37.0044 71.5787 37.4207 71.7241 37.8393 71.9884C38.2578 72.2528 38.6081 72.6316 38.89 73.1251C39.172 73.6185 39.313 74.2221 39.313 74.9358C39.313 75.6142 39.1588 76.2244 38.8504 76.7663C38.542 77.3082 38.0552 77.7378 37.3899 78.055C36.7247 78.3722 35.859 78.5308 34.7928 78.5308H29.9026ZM31.5415 77.0769H34.7928C35.8634 77.0769 36.6233 76.8698 37.0727 76.4557C37.5265 76.0372 37.7534 75.5305 37.7534 74.9358C37.7534 74.4776 37.6366 74.0547 37.4031 73.667C37.1696 73.2749 36.837 72.9621 36.4053 72.7286C35.9735 72.4907 35.4625 72.3717 34.8721 72.3717H31.5415V77.0769ZM31.5415 70.9443H34.5813C35.0748 70.9443 35.5197 70.8474 35.9162 70.6535C36.3171 70.4597 36.6343 70.1865 36.8678 69.8341C37.1057 69.4816 37.2247 69.0675 37.2247 68.5917C37.2247 67.9969 37.0176 67.4925 36.6035 67.0784C36.1894 66.6598 35.5329 66.4506 34.6342 66.4506H31.5415V70.9443ZM41.7944 78.5308V68.3802H43.3011V69.9134H43.4069C43.5919 69.4111 43.9267 69.0036 44.4114 68.6908C44.896 68.378 45.4423 68.2216 46.0503 68.2216C46.1648 68.2216 46.308 68.2238 46.4798 68.2282C46.6516 68.2326 46.7816 68.2392 46.8697 68.2481V69.8341C46.8168 69.8209 46.6957 69.801 46.5062 69.7746C46.3212 69.7438 46.1251 69.7283 45.9181 69.7283C45.4247 69.7283 44.9841 69.8319 44.5964 70.0389C44.2131 70.2416 43.9091 70.5236 43.6844 70.8848C43.4642 71.2417 43.354 71.6492 43.354 72.1074V78.5308H41.7944ZM52.6653 78.7422C51.6872 78.7422 50.8436 78.5264 50.1343 78.0946C49.4294 77.6584 48.8853 77.0505 48.502 76.2707C48.1231 75.4865 47.9337 74.5745 47.9337 73.5348C47.9337 72.4951 48.1231 71.5787 48.502 70.7857C48.8853 69.9883 49.4183 69.3671 50.1012 68.9221C50.7885 68.4727 51.5903 68.2481 52.5067 68.2481C53.0354 68.2481 53.5574 68.3362 54.0729 68.5124C54.5883 68.6886 55.0575 68.975 55.4805 69.3715C55.9034 69.7636 56.2404 70.2834 56.4916 70.9311C56.7427 71.5787 56.8682 72.3761 56.8682 73.3233V73.9842H49.0439V72.636H55.2822C55.2822 72.0633 55.1677 71.5523 54.9386 71.1029C54.7139 70.6535 54.3923 70.2989 53.9738 70.0389C53.5596 69.779 53.0706 69.649 52.5067 69.649C51.8855 69.649 51.348 69.8032 50.8942 70.1116C50.4449 70.4156 50.099 70.8121 49.8567 71.3011C49.6144 71.7902 49.4932 72.3144 49.4932 72.8739V73.7727C49.4932 74.5393 49.6254 75.1891 49.8897 75.7222C50.1585 76.2509 50.5308 76.654 51.0066 76.9315C51.4824 77.2047 52.0353 77.3412 52.6653 77.3412C53.075 77.3412 53.4451 77.284 53.7755 77.1694C54.1103 77.0505 54.3989 76.8742 54.6412 76.6408C54.8835 76.4028 55.0708 76.1077 55.2029 75.7552L56.7096 76.1782C56.551 76.6892 56.2845 77.1386 55.91 77.5263C55.5355 77.9096 55.073 78.2092 54.5223 78.425C53.9716 78.6365 53.3526 78.7422 52.6653 78.7422ZM62.2277 78.7687C61.5845 78.7687 61.0007 78.6475 60.4764 78.4052C59.9522 78.1585 59.5358 77.8038 59.2275 77.3412C58.9191 76.8742 58.7649 76.3103 58.7649 75.6495C58.7649 75.0679 58.8794 74.5965 59.1085 74.2353C59.3376 73.8696 59.6438 73.5833 60.0271 73.3762C60.4104 73.1691 60.8333 73.0149 61.2959 72.9136C61.7629 72.8079 62.2321 72.7242 62.7035 72.6625C63.3203 72.5832 63.8203 72.5237 64.2036 72.4841C64.5913 72.44 64.8733 72.3673 65.0495 72.266C65.2301 72.1646 65.3204 71.9884 65.3204 71.7373V71.6844C65.3204 71.0324 65.142 70.5258 64.7851 70.1645C64.4327 69.8032 63.8974 69.6226 63.1793 69.6226C62.4347 69.6226 61.851 69.7856 61.4281 70.1116C61.0051 70.4376 60.7077 70.7857 60.5359 71.1558L59.0556 70.6271C59.32 70.0103 59.6724 69.5301 60.113 69.1864C60.558 68.8384 61.0426 68.5961 61.5668 68.4595C62.0955 68.3185 62.6154 68.2481 63.1264 68.2481C63.4524 68.2481 63.8269 68.2877 64.2499 68.367C64.6772 68.4419 65.0891 68.5983 65.4856 68.8362C65.8865 69.0741 66.2192 69.4332 66.4835 69.9134C66.7478 70.3936 66.88 71.0368 66.88 71.843V78.5308H65.3204V77.1562H65.2411C65.1354 77.3765 64.9592 77.6122 64.7124 77.8633C64.4657 78.1144 64.1375 78.3281 63.7278 78.5043C63.3181 78.6806 62.818 78.7687 62.2277 78.7687ZM62.4656 77.3677C63.0824 77.3677 63.6022 77.2465 64.0252 77.0042C64.4525 76.7619 64.7741 76.4491 64.99 76.0658C65.2103 75.6825 65.3204 75.2794 65.3204 74.8565V73.4291C65.2543 73.5084 65.109 73.5811 64.8843 73.6471C64.664 73.7088 64.4085 73.7639 64.1177 73.8123C63.8313 73.8564 63.5516 73.8961 63.2784 73.9313C63.0097 73.9621 62.7916 73.9886 62.6242 74.0106C62.2189 74.0635 61.84 74.1494 61.4875 74.2683C61.1395 74.3829 60.8575 74.5569 60.6417 74.7904C60.4302 75.0195 60.3245 75.3323 60.3245 75.7288C60.3245 76.2707 60.5249 76.6804 60.9258 76.958C61.3311 77.2311 61.8444 77.3677 62.4656 77.3677ZM71.1804 74.83L71.154 72.9004H71.4712L75.9121 68.3802H77.8417L73.1101 73.1647H72.9779L71.1804 74.83ZM69.7266 78.5308V64.9967H71.2862V78.5308H69.7266ZM76.1764 78.5308L72.2114 73.5084L73.3216 72.4246L78.1589 78.5308H76.1764ZM84.3692 68.3802V69.7019H78.8974V68.3802H84.3692ZM80.5363 78.5308V66.9792C80.5363 66.3977 80.6729 65.9131 80.946 65.5254C81.2192 65.1377 81.5739 64.8469 82.01 64.6531C82.4462 64.4592 82.9065 64.3623 83.3912 64.3623C83.7745 64.3623 84.0873 64.3931 84.3296 64.4548C84.5719 64.5165 84.7525 64.5738 84.8715 64.6266L84.4221 65.9748C84.3428 65.9483 84.2326 65.9153 84.0917 65.8756C83.9551 65.836 83.7745 65.8161 83.5498 65.8161C83.0343 65.8161 82.662 65.9461 82.4329 66.206C82.2083 66.466 82.0959 66.8471 82.0959 67.3493V78.5308H80.5363ZM89.2512 78.7687C88.608 78.7687 88.0242 78.6475 87.5 78.4052C86.9757 78.1585 86.5594 77.8038 86.251 77.3412C85.9426 76.8742 85.7884 76.3103 85.7884 75.6495C85.7884 75.0679 85.9029 74.5965 86.132 74.2353C86.3611 73.8696 86.6673 73.5833 87.0506 73.3762C87.4339 73.1691 87.8568 73.0149 88.3194 72.9136C88.7864 72.8079 89.2556 72.7242 89.727 72.6625C90.3438 72.5832 90.8438 72.5237 91.2271 72.4841C91.6148 72.44 91.8968 72.3673 92.073 72.266C92.2536 72.1646 92.3439 71.9884 92.3439 71.7373V71.6844C92.3439 71.0324 92.1655 70.5258 91.8087 70.1645C91.4562 69.8032 90.9209 69.6226 90.2028 69.6226C89.4583 69.6226 88.8745 69.7856 88.4516 70.1116C88.0286 70.4376 87.7313 70.7857 87.5594 71.1558L86.0791 70.6271C86.3435 70.0103 86.6959 69.5301 87.1365 69.1864C87.5815 68.8384 88.0661 68.5961 88.5903 68.4595C89.119 68.3185 89.6389 68.2481 90.1499 68.2481C90.476 68.2481 90.8504 68.2877 91.2734 68.367C91.7007 68.4419 92.1126 68.5983 92.5091 68.8362C92.9101 69.0741 93.2427 69.4332 93.507 69.9134C93.7714 70.3936 93.9035 71.0368 93.9035 71.843V78.5308H92.3439V77.1562H92.2646C92.1589 77.3765 91.9827 77.6122 91.736 77.8633C91.4892 78.1144 91.161 78.3281 90.7513 78.5043C90.3416 78.6806 89.8415 78.7687 89.2512 78.7687ZM89.4891 77.3677C90.1059 77.3677 90.6257 77.2465 91.0487 77.0042C91.476 76.7619 91.7976 76.4491 92.0135 76.0658C92.2338 75.6825 92.3439 75.2794 92.3439 74.8565V73.4291C92.2779 73.5084 92.1325 73.5811 91.9078 73.6471C91.6875 73.7088 91.432 73.7639 91.1412 73.8123C90.8548 73.8564 90.5751 73.8961 90.3019 73.9313C90.0332 73.9621 89.8151 73.9886 89.6477 74.0106C89.2424 74.0635 88.8635 74.1494 88.511 74.2683C88.163 74.3829 87.881 74.5569 87.6652 74.7904C87.4537 75.0195 87.348 75.3323 87.348 75.7288C87.348 76.2707 87.5484 76.6804 87.9493 76.958C88.3546 77.2311 88.8679 77.3677 89.4891 77.3677ZM103.94 70.6535L102.539 71.05C102.451 70.8165 102.321 70.5896 102.149 70.3694C101.982 70.1447 101.753 69.9596 101.462 69.8142C101.171 69.6689 100.799 69.5962 100.345 69.5962C99.7239 69.5962 99.2062 69.7394 98.7921 70.0257C98.3824 70.3077 98.1775 70.6667 98.1775 71.1029C98.1775 71.4906 98.3185 71.7968 98.6005 72.0215C98.8824 72.2461 99.323 72.4334 99.9221 72.5832L101.429 72.9532C102.336 73.1735 103.013 73.5106 103.458 73.9643C103.903 74.4137 104.125 74.9931 104.125 75.7024C104.125 76.2839 103.958 76.8038 103.623 77.2619C103.292 77.7201 102.83 78.0814 102.235 78.3457C101.64 78.6101 100.949 78.7422 100.16 78.7422C99.1247 78.7422 98.2678 78.5175 97.5894 78.0682C96.9109 77.6188 96.4814 76.9624 96.3007 76.0989L97.781 75.7288C97.922 76.2751 98.1885 76.6848 98.5806 76.958C98.9771 77.2311 99.4948 77.3677 100.134 77.3677C100.861 77.3677 101.438 77.2135 101.865 76.9051C102.297 76.5923 102.513 76.2178 102.513 75.7817C102.513 75.4292 102.389 75.134 102.143 74.8961C101.896 74.6538 101.517 74.4732 101.006 74.3542L99.3142 73.9577C98.3846 73.7374 97.7017 73.396 97.2656 72.9334C96.8338 72.4664 96.6179 71.8827 96.6179 71.1822C96.6179 70.6095 96.7787 70.1028 97.1003 69.6623C97.4264 69.2217 97.8691 68.8759 98.4286 68.6247C98.9926 68.3736 99.6314 68.2481 100.345 68.2481C101.35 68.2481 102.138 68.4683 102.711 68.9089C103.288 69.3495 103.698 69.931 103.94 70.6535ZM110.887 68.3802V69.7019H105.627V68.3802H110.887ZM107.16 65.9483H108.72V75.6231C108.72 76.0636 108.783 76.394 108.911 76.6143C109.043 76.8302 109.211 76.9756 109.413 77.0505C109.621 77.121 109.839 77.1562 110.068 77.1562C110.24 77.1562 110.381 77.1474 110.491 77.1298C110.601 77.1077 110.689 77.0901 110.755 77.0769L111.072 78.4779C110.966 78.5175 110.819 78.5572 110.629 78.5968C110.44 78.6409 110.2 78.6629 109.909 78.6629C109.469 78.6629 109.037 78.5682 108.614 78.3788C108.195 78.1893 107.847 77.9008 107.57 77.5131C107.297 77.1254 107.16 76.6363 107.16 76.046V65.9483Z" fill="white"/>
<path d="M288.171 32.0547L288.171 55.8145L284.574 55.8145L284.574 35.6511L284.435 35.6511L278.751 39.3636L278.751 35.9296L284.679 32.0547L288.171 32.0547ZM294.598 55.8145L294.598 53.2157L302.638 44.8859C303.496 43.981 304.204 43.1882 304.761 42.5076C305.326 41.8192 305.747 41.1657 306.026 40.5469C306.304 39.9282 306.443 39.2708 306.443 38.5747C306.443 37.7858 306.258 37.1052 305.886 36.5328C305.515 35.9528 305.008 35.5081 304.367 35.1987C303.725 34.8816 303.001 34.723 302.197 34.723C301.346 34.723 300.604 34.897 299.97 35.2451C299.335 35.5931 298.848 36.0843 298.508 36.7185C298.167 37.3527 297.997 38.0952 297.997 38.9459L294.575 38.9459C294.575 37.4996 294.907 36.2351 295.573 35.1523C296.238 34.0695 297.15 33.2303 298.311 32.6348C299.471 32.0315 300.789 31.7299 302.267 31.7299C303.759 31.7299 305.074 32.0276 306.211 32.6232C307.356 33.211 308.249 34.0153 308.891 35.0363C309.533 36.0495 309.854 37.1941 309.854 38.4703C309.854 39.352 309.688 40.2144 309.355 41.0574C309.03 41.9005 308.462 42.8402 307.65 43.8766C306.838 44.9052 305.708 46.1543 304.262 47.6238L299.54 52.566L299.54 52.7401L310.237 52.7401L310.237 55.8145L294.598 55.8145ZM322.906 56.2089C321.073 56.2012 319.506 55.7178 318.207 54.7587C316.908 53.7997 315.914 52.4036 315.225 50.5706C314.537 48.7376 314.193 46.5294 314.193 43.9462C314.193 41.3707 314.537 39.1702 315.225 37.345C315.922 35.5197 316.919 34.1275 318.219 33.1684C319.526 32.2094 321.088 31.7299 322.906 31.7299C324.723 31.7299 326.282 32.2132 327.581 33.18C328.88 34.1391 329.874 35.5313 330.563 37.3566C331.259 39.1741 331.607 41.3707 331.607 43.9462C331.607 46.5372 331.263 48.7492 330.574 50.5822C329.886 52.4075 328.892 53.8035 327.593 54.7703C326.293 55.7294 324.731 56.2089 322.906 56.2089ZM322.906 53.1113C324.514 53.1113 325.771 52.3263 326.676 50.7562C327.589 49.1862 328.045 46.9161 328.045 43.9462C328.045 41.9739 327.836 40.3072 327.419 38.9459C327.009 37.577 326.417 36.5406 325.644 35.8368C324.878 35.1252 323.965 34.7694 322.906 34.7694C321.305 34.7694 320.048 35.5583 319.135 37.1361C318.223 38.7139 317.762 40.9839 317.755 43.9462C317.755 45.9262 317.96 47.6006 318.369 48.9696C318.787 50.3308 319.379 51.3634 320.144 52.0672C320.91 52.7633 321.831 53.1113 322.906 53.1113Z" fill="#030606"/>
<path d="M290.611 78.2998L290.611 67.0175L292.313 67.0175L292.313 72.4053L292.451 72.4053L297.183 67.0175L299.326 67.0175L294.775 72.0968L299.342 78.2998L297.293 78.2998L293.646 73.2591L292.313 74.7906L292.313 78.2998L290.611 78.2998ZM303.723 78.4706C302.904 78.4706 302.199 78.2851 301.608 77.9142C301.02 77.5396 300.568 77.0236 300.253 76.3662C299.937 75.7088 299.779 74.9559 299.779 74.1075C299.779 73.2481 299.94 72.4897 300.264 71.8323C300.587 71.1713 301.042 70.6553 301.63 70.2843C302.217 69.9134 302.91 69.7279 303.707 69.7279C304.349 69.7279 304.922 69.8473 305.425 70.086C305.929 70.321 306.334 70.6516 306.643 71.0776C306.955 71.5036 307.141 72.0013 307.199 72.5705L305.596 72.5705C305.508 72.1739 305.306 71.8323 304.99 71.5459C304.678 71.2594 304.259 71.1162 303.734 71.1162C303.275 71.1162 302.873 71.2374 302.528 71.4798C302.186 71.7185 301.92 72.06 301.729 72.5044C301.538 72.9451 301.443 73.4666 301.443 74.069C301.443 74.686 301.536 75.2185 301.723 75.6665C301.911 76.1146 302.175 76.4617 302.517 76.7077C302.862 76.9538 303.268 77.0768 303.734 77.0768C304.046 77.0768 304.329 77.0199 304.583 76.906C304.84 76.7885 305.055 76.6214 305.227 76.4047C305.403 76.188 305.526 75.9273 305.596 75.6225L307.199 75.6225C307.141 76.1697 306.962 76.6581 306.665 77.0878C306.367 77.5175 305.969 77.8554 305.47 78.1015C304.974 78.3475 304.392 78.4706 303.723 78.4706ZM311.423 78.4871C310.887 78.4871 310.402 78.3879 309.969 78.1896C309.536 77.9876 309.192 77.6957 308.939 77.3137C308.689 76.9318 308.564 76.4635 308.564 75.9089C308.564 75.4315 308.656 75.0385 308.84 74.73C309.023 74.4215 309.271 74.1773 309.583 73.9973C309.896 73.8174 310.244 73.6815 310.63 73.5897C311.016 73.4979 311.409 73.4281 311.809 73.3803C312.316 73.3216 312.727 73.2738 313.043 73.2371C313.359 73.1967 313.588 73.1324 313.732 73.0443C313.875 72.9561 313.946 72.8129 313.946 72.6146L313.946 72.576C313.946 72.0949 313.811 71.7221 313.539 71.4577C313.271 71.1933 312.87 71.0611 312.338 71.0611C311.783 71.0611 311.346 71.1841 311.027 71.4302C310.711 71.6726 310.492 71.9425 310.371 72.24L308.823 71.8874C309.007 71.3733 309.275 70.9582 309.627 70.6424C309.984 70.3229 310.393 70.0915 310.856 69.9483C311.319 69.8014 311.805 69.7279 312.316 69.7279C312.654 69.7279 313.012 69.7683 313.39 69.8491C313.772 69.9262 314.128 70.0695 314.459 70.2788C314.793 70.4882 315.067 70.7875 315.28 71.1768C315.493 71.5624 315.599 72.0637 315.599 72.6807L315.599 78.2998L313.99 78.2998L313.99 77.1429L313.924 77.1429C313.818 77.3559 313.658 77.5653 313.445 77.7709C313.232 77.9766 312.958 78.1474 312.624 78.2833C312.29 78.4192 311.89 78.4871 311.423 78.4871ZM311.781 77.165C312.237 77.165 312.626 77.075 312.949 76.895C313.276 76.7151 313.524 76.48 313.693 76.1899C313.866 75.8961 313.952 75.5821 313.952 75.2479L313.952 74.1571C313.893 74.2159 313.779 74.2709 313.61 74.3224C313.445 74.3701 313.256 74.4123 313.043 74.4491C312.83 74.4821 312.622 74.5133 312.42 74.5427C312.218 74.5684 312.049 74.5905 311.914 74.6088C311.594 74.6492 311.302 74.7172 311.038 74.8127C310.777 74.9081 310.568 75.0459 310.41 75.2258C310.255 75.4021 310.178 75.6372 310.178 75.931C310.178 76.3386 310.329 76.6471 310.63 76.8565C310.931 77.0621 311.315 77.165 311.781 77.165ZM319.44 67.0175L319.44 78.2998L317.793 78.2998L317.793 67.0175L319.44 67.0175Z" fill="#030606"/>
</svg>
