<svg width="343" height="343" viewBox="0 0 343 343" fill="none" xmlns="http://www.w3.org/2000/svg">
<g clip-path="url(#clip0_678_2945)">
<rect width="343" height="343" rx="18" fill="#283B3E"/>
<g clip-path="url(#clip1_678_2945)">
<rect x="20.2656" y="9.01367" width="313" height="111.329" rx="12.7755" transform="rotate(4.84918 20.2656 9.01367)" fill="white" fill-opacity="0.1"/>
<path fill-rule="evenodd" clip-rule="evenodd" d="M37.0988 38.5382C34.7224 36.3747 31.5234 32.8623 31.7815 29.8199C32.2127 24.7374 37.1248 23.2429 40.6787 27.4989C44.8987 23.9024 49.4888 26.203 49.0576 31.2856C48.7995 34.328 45.0545 37.2512 42.3477 38.9835C41.1223 39.7677 40.5096 40.1598 39.611 40.0836C38.7124 40.0073 38.1745 39.5176 37.0988 38.5382ZM44.5058 28.536C44.8636 28.5663 45.129 28.881 45.0987 29.2388L45.0071 30.3186L46.0868 30.4102C46.4446 30.4405 46.7101 30.7552 46.6797 31.113C46.6494 31.4708 46.3347 31.7362 45.9769 31.7059L44.8971 31.6143L44.8055 32.694C44.7752 33.0518 44.4605 33.3173 44.1027 33.2869C43.7449 33.2566 43.4795 32.9419 43.5098 32.5841L43.6014 31.5044L42.5217 31.4128C42.1639 31.3824 41.8984 31.0677 41.9288 30.7099C41.9591 30.3521 42.2738 30.0867 42.6316 30.117L43.7114 30.2086L43.803 29.1289C43.8333 28.7711 44.148 28.5056 44.5058 28.536Z" fill="#FF5C5C"/>
<path d="M63.0184 29.5077L62.1606 39.6187L60.5021 39.478L60.8773 35.0553L56.12 34.6517L55.7448 39.0744L54.0863 38.9337L54.944 28.8227L56.6026 28.9634L56.2347 33.2988L60.9921 33.7023L61.3599 29.3669L63.0184 29.5077ZM72.0476 36.2228C72.022 36.5235 71.9796 36.7934 71.9202 37.0326L65.7954 36.5129C65.7896 37.1572 65.9836 37.6914 66.3774 38.1155C66.7713 38.5397 67.2786 38.7781 67.8993 38.8308C68.7916 38.9065 69.4537 38.5866 69.8856 37.871L71.675 38.0228C71.37 38.7394 70.8773 39.3081 70.1969 39.729C69.5269 40.1411 68.7216 40.3072 67.7808 40.2274C67.0146 40.1624 66.3404 39.9343 65.7581 39.543C65.1864 39.1428 64.7523 38.6175 64.4558 37.9672C64.1698 37.3079 64.0618 36.5661 64.1318 35.7417C64.2017 34.9173 64.4279 34.2087 64.8103 33.616C65.2033 33.0144 65.7148 32.5693 66.3449 32.2809C66.9847 31.9933 67.6975 31.8828 68.4831 31.9494C69.2396 32.0136 69.8997 32.2357 70.4633 32.6156C71.027 32.9956 71.4482 33.5002 71.7269 34.1295C72.0065 34.7491 72.1134 35.4469 72.0476 36.2228ZM70.3607 35.5522C70.4029 34.9403 70.2262 34.432 69.8307 34.0273C69.4352 33.6225 68.9223 33.3934 68.2918 33.3399C67.7196 33.2913 67.2142 33.4341 66.7756 33.7681C66.3378 34.0924 66.0537 34.5616 65.9235 35.1757L70.3607 35.5522ZM73.1133 36.4744C73.1816 35.6694 73.4069 34.9705 73.7894 34.3777C74.1815 33.7858 74.6781 33.3444 75.2791 33.0535C75.8906 32.7537 76.5456 32.6334 77.2439 32.6927C77.8743 32.7461 78.4116 32.9187 78.8558 33.2104C79.3104 33.4932 79.6628 33.8308 79.9128 34.2232L80.0115 33.0593L81.6846 33.2013L81.0045 41.2174L79.3315 41.0755L79.4327 39.8825C79.1193 40.2369 78.7095 40.5196 78.2031 40.7306C77.6968 40.9417 77.1332 41.0208 76.5125 40.9682C75.8239 40.9098 75.2083 40.6817 74.6657 40.284C74.1239 39.8766 73.71 39.3433 73.424 38.684C73.1486 38.0159 73.045 37.2794 73.1133 36.4744ZM79.6721 37.0601C79.719 36.5073 79.6433 36.0173 79.4451 35.5902C79.2566 35.1639 78.9871 34.8285 78.6367 34.5838C78.2862 34.3392 77.8976 34.1988 77.4709 34.1626C77.0441 34.1264 76.6374 34.1993 76.2507 34.3814C75.8649 34.5538 75.5383 34.8338 75.271 35.2214C75.0142 35.6002 74.8623 36.066 74.8154 36.6188C74.7685 37.1716 74.8389 37.666 75.0266 38.102C75.224 38.5388 75.4975 38.8844 75.8472 39.1387C76.2073 39.3842 76.5959 39.5246 77.013 39.56C77.4397 39.5962 77.8464 39.5232 78.2331 39.3411C78.6197 39.159 78.9419 38.8738 79.1995 38.4853C79.4677 38.088 79.6252 37.613 79.6721 37.0601ZM85.4227 34.6906C85.6998 34.3039 86.0466 34.0158 86.4631 33.8265C86.8902 33.6282 87.3802 33.5526 87.933 33.5995L87.7874 35.3162L87.3655 35.2804C86.7157 35.2253 86.2071 35.3482 85.8396 35.6492C85.4819 35.9509 85.2684 36.5092 85.1993 37.3239L84.8414 41.5429L83.1829 41.4022L83.863 33.3861L85.5215 33.5268L85.4227 34.6906ZM91.2666 35.3769L90.8901 39.8141C90.8646 40.1148 90.914 40.3388 91.0383 40.4861C91.1731 40.6245 91.4102 40.7081 91.7497 40.7369L92.768 40.8233L92.6508 42.2054L91.3414 42.0943C90.5946 42.031 90.0372 41.8079 89.6692 41.425C89.3011 41.0421 89.1504 40.4578 89.2171 39.6722L89.5935 35.235L88.6479 35.1547L88.7627 33.8018L89.7083 33.882L89.8774 31.8889L91.5505 32.0308L91.3814 34.0239L93.3308 34.1893L93.2161 35.5423L91.2666 35.3769ZM103.21 43.1013L101.226 38.8594L99.9602 38.752L99.617 42.7964L97.9585 42.6557L98.8163 32.5446L102.308 32.8408C103.084 32.9067 103.727 33.098 104.237 33.4148C104.757 33.7325 105.129 34.1303 105.352 34.6084C105.585 35.0873 105.678 35.608 105.63 36.1705C105.574 36.83 105.329 37.4149 104.895 37.9251C104.472 38.4265 103.854 38.7404 103.042 38.8669L105.189 43.2691L103.21 43.1013ZM100.072 37.4281L101.906 37.5836C102.526 37.6363 103.005 37.5206 103.342 37.2365C103.688 36.9533 103.884 36.5499 103.928 36.0261C103.972 35.5024 103.852 35.0819 103.566 34.7646C103.281 34.4376 102.824 34.2473 102.193 34.1938L100.36 34.0383L100.072 37.4281ZM106.941 39.3442C107.009 38.5392 107.235 37.8403 107.617 37.2476C108.009 36.6556 108.506 36.2142 109.107 35.9233C109.718 35.6235 110.373 35.5032 111.072 35.5625C111.702 35.616 112.239 35.7885 112.683 36.0802C113.138 36.363 113.49 36.7006 113.74 37.093L113.839 35.9292L115.512 36.0711L114.832 44.0872L113.159 43.9453L113.26 42.7523C112.947 43.1067 112.537 43.3894 112.031 43.6005C111.524 43.8115 110.961 43.8907 110.34 43.838C109.652 43.7796 109.036 43.5515 108.493 43.1538C107.952 42.7464 107.538 42.2131 107.252 41.5539C106.976 40.8858 106.873 40.1492 106.941 39.3442ZM113.5 39.93C113.547 39.3771 113.471 38.8871 113.273 38.46C113.084 38.0338 112.815 37.6983 112.464 37.4537C112.114 37.209 111.725 37.0686 111.299 37.0324C110.872 36.9962 110.465 37.0691 110.078 37.2513C109.693 37.4237 109.366 37.7037 109.099 38.0913C108.842 38.47 108.69 38.9358 108.643 39.4886C108.596 40.0415 108.667 40.5359 108.854 40.9718C109.052 41.4086 109.325 41.7542 109.675 42.0086C110.035 42.254 110.424 42.3944 110.841 42.4298C111.267 42.466 111.674 42.3931 112.061 42.211C112.447 42.0289 112.77 41.7436 113.027 41.3552C113.295 40.9579 113.453 40.4828 113.5 39.93ZM119.511 37.7731L119.134 42.2103C119.109 42.511 119.158 42.7349 119.282 42.8822C119.417 43.0207 119.654 43.1043 119.994 43.1331L121.012 43.2195L120.895 44.6016L119.586 44.4905C118.839 44.4271 118.281 44.204 117.913 43.8211C117.545 43.4382 117.395 42.854 117.461 42.0684L117.838 37.6311L116.892 37.5509L117.007 36.1979L117.953 36.2781L118.122 34.285L119.795 34.4269L119.626 36.4201L121.575 36.5854L121.46 37.9384L119.511 37.7731ZM130.127 41.1501C130.102 41.4507 130.059 41.7207 130 41.9598L123.875 41.4402C123.869 42.0845 124.063 42.6187 124.457 43.0428C124.851 43.467 125.358 43.7054 125.979 43.7581C126.871 43.8338 127.533 43.5138 127.965 42.7983L129.755 42.9501C129.45 43.6666 128.957 44.2354 128.276 44.6563C127.607 45.0684 126.801 45.2345 125.86 45.1547C125.094 45.0897 124.42 44.8615 123.838 44.4702C123.266 44.0701 122.832 43.5448 122.535 42.8945C122.249 42.2352 122.141 41.4934 122.211 40.669C122.281 39.8446 122.508 39.136 122.89 38.5433C123.283 37.9417 123.794 37.4966 124.425 37.2082C125.064 36.9205 125.777 36.8101 126.563 36.8767C127.319 36.9409 127.979 37.163 128.543 37.5429C129.107 37.9229 129.528 38.4275 129.807 39.0568C130.086 39.6764 130.193 40.3742 130.127 41.1501ZM128.44 40.4795C128.482 39.8676 128.306 39.3593 127.91 38.9545C127.515 38.5498 127.002 38.3207 126.371 38.2672C125.799 38.2186 125.294 38.3614 124.855 38.6954C124.417 39.0197 124.133 39.4889 124.003 40.103L128.44 40.4795Z" fill="white"/>
<path d="M263.12 47.4634L262.387 56.1025L261.251 56.0061L261.798 49.5642L258.38 55.7625L257.581 55.6947L255.245 48.9957L254.697 55.4501L253.561 55.3537L254.294 46.7146L255.517 46.8184L258.108 54.2305L261.909 47.3607L263.12 47.4634ZM264.182 52.7843C264.241 52.0852 264.435 51.4854 264.762 50.9851C265.09 50.4765 265.512 50.0973 266.028 49.8477C266.552 49.5987 267.118 49.5 267.725 49.5516C268.325 49.6024 268.834 49.7756 269.253 50.071C269.672 50.3664 269.974 50.7189 270.157 51.1284L270.263 49.88L271.411 49.9774L270.831 56.8188L269.682 56.7214L269.79 55.448C269.532 55.8284 269.166 56.1327 268.694 56.3609C268.231 56.5815 267.704 56.6668 267.114 56.6166C266.506 56.5651 265.969 56.3687 265.504 56.0274C265.038 55.6861 264.687 55.233 264.45 54.668C264.213 54.103 264.123 53.4751 264.182 52.7843ZM269.974 53.2882C270.017 52.7722 269.951 52.3139 269.776 51.9134C269.6 51.5129 269.342 51.1976 269.001 50.9675C268.669 50.7298 268.291 50.5929 267.867 50.5569C267.442 50.5209 267.047 50.5879 266.68 50.758C266.314 50.9281 266.01 51.1958 265.769 51.561C265.529 51.9262 265.387 52.3668 265.343 52.8828C265.298 53.4071 265.364 53.8737 265.539 54.2825C265.714 54.683 265.968 55.0022 266.3 55.2399C266.632 55.4693 267.011 55.602 267.435 55.638C267.86 55.674 268.255 55.607 268.622 55.4369C268.997 55.2592 269.305 54.9877 269.546 54.6225C269.787 54.249 269.93 53.8042 269.974 53.2882ZM274.373 51.3478C274.606 50.9736 274.915 50.6938 275.299 50.5085C275.692 50.3238 276.155 50.2541 276.688 50.2993L276.588 51.4728L276.288 51.4474C275.015 51.3394 274.32 51.9762 274.202 53.3578L273.887 57.0781L272.751 56.9817L273.331 50.1403L274.467 50.2367L274.373 51.3478ZM280.489 56.7203C281.618 55.961 282.505 55.3363 283.15 54.8462C283.796 54.3477 284.348 53.8203 284.806 53.264C285.273 52.7 285.531 52.1309 285.579 51.5567C285.625 51.0157 285.528 50.5799 285.288 50.2494C285.057 49.9112 284.65 49.7174 284.067 49.668C283.501 49.62 283.045 49.7615 282.698 50.0925C282.361 50.416 282.155 50.8721 282.079 51.4609L280.981 51.3677C281.093 50.4384 281.437 49.7424 282.013 49.2799C282.589 48.8174 283.297 48.6218 284.137 48.6932C284.995 48.7659 285.653 49.0606 286.112 49.5774C286.58 50.0949 286.778 50.7697 286.707 51.602C286.649 52.2928 286.383 52.9493 285.912 53.5715C285.449 54.1861 284.934 54.7209 284.367 55.1757C283.801 55.6223 283.082 56.1397 282.211 56.7281L286.506 57.0924L286.425 58.0412L280.42 57.5318L280.489 56.7203ZM289.396 55.9545C289.439 56.4359 289.599 56.8184 289.877 57.1018C290.163 57.3859 290.564 57.5499 291.08 57.5937C291.771 57.6523 292.302 57.4248 292.672 56.9114C293.051 56.3986 293.286 55.5007 293.379 54.2176C293.172 54.5773 292.856 54.848 292.429 55.0298C292.004 55.2033 291.542 55.2689 291.042 55.2265C290.485 55.1792 289.995 55.0245 289.573 54.7623C289.16 54.4926 288.847 54.1265 288.635 53.6642C288.422 53.2019 288.343 52.6587 288.396 52.0345C288.471 51.1439 288.79 50.4501 289.352 49.9529C289.915 49.4473 290.67 49.2348 291.619 49.3153C292.784 49.4141 293.568 49.862 293.97 50.659C294.38 51.4566 294.521 52.6044 294.394 54.1026C294.305 55.1512 294.136 56.0087 293.887 56.6749C293.646 57.3419 293.285 57.8352 292.806 58.155C292.334 58.4754 291.711 58.6028 290.937 58.5372C290.088 58.4651 289.446 58.1801 289.011 57.6821C288.575 57.1841 288.354 56.5786 288.347 55.8655L289.396 55.9545ZM291.311 54.2811C291.869 54.3284 292.341 54.1966 292.728 53.8857C293.115 53.5665 293.334 53.1115 293.384 52.5206C293.437 51.8963 293.305 51.378 292.988 50.9655C292.671 50.553 292.196 50.3199 291.564 50.2662C290.981 50.2168 290.499 50.3604 290.119 50.6969C289.746 51.0342 289.535 51.5024 289.484 52.1017C289.432 52.7092 289.562 53.2106 289.872 53.6057C290.182 54.0009 290.662 54.226 291.311 54.2811Z" fill="white"/>
<path fill-rule="evenodd" clip-rule="evenodd" d="M305.923 50.66C306.127 50.5128 306.413 50.5592 306.56 50.7637L309.837 55.3156C309.968 55.4982 309.947 55.7494 309.787 55.9073L305.79 59.842C305.61 60.0188 305.321 60.0165 305.144 59.8369C304.968 59.6574 304.97 59.3685 305.149 59.1917L308.868 55.5313L305.819 51.2969C305.672 51.0924 305.718 50.8073 305.923 50.66Z" fill="#66E4FE"/>
<path d="M30.5027 70.7779L33.6709 71.0467L33.5894 72.0076L29.2396 71.6386L30.0074 62.5884L31.189 62.6887L30.5027 70.7779ZM34.7068 68.4929C34.7684 67.7658 34.9696 67.142 35.3102 66.6216C35.6515 66.0926 36.0903 65.6983 36.6268 65.4386C37.1718 65.1797 37.7603 65.0771 38.3922 65.1307C39.0155 65.1836 39.5451 65.3636 39.9811 65.6709C40.4171 65.9782 40.7304 66.3448 40.921 66.7707L41.0311 65.4723L42.2257 65.5736L41.622 72.689L40.4275 72.5877L40.5398 71.2633C40.2709 71.659 39.8909 71.9755 39.4 72.2128C38.9184 72.4422 38.3704 72.5309 37.7558 72.4787C37.1239 72.4251 36.5658 72.2208 36.0815 71.8659C35.5972 71.5109 35.2318 71.0397 34.9852 70.452C34.7386 69.8644 34.6458 69.2114 34.7068 68.4929ZM40.7304 69.017C40.7759 68.4803 40.7074 68.0037 40.5248 67.5871C40.3421 67.1706 40.0735 66.8427 39.7189 66.6033C39.3737 66.3561 38.9804 66.2137 38.5389 66.1763C38.0975 66.1388 37.6861 66.2085 37.3049 66.3855C36.9238 66.5624 36.6081 66.8407 36.3579 67.2206C36.1077 67.6004 35.9598 68.0586 35.9143 68.5953C35.868 69.1407 35.9359 69.6259 36.1177 70.0512C36.3004 70.4677 36.5643 70.7996 36.9095 71.0468C37.2554 71.2854 37.6491 71.4235 38.0906 71.4609C38.5321 71.4984 38.9434 71.4286 39.3246 71.2517C39.7152 71.0669 40.0355 70.7846 40.2857 70.4047C40.5366 70.0163 40.6849 69.5537 40.7304 69.017ZM45.5811 66.8391L45.2253 71.0331C45.1959 71.3793 45.2486 71.6322 45.3832 71.7919C45.5186 71.9429 45.7681 72.0338 46.1317 72.0646L47.0016 72.1384L46.9168 73.1382L45.8521 73.0479C45.1942 72.9921 44.7137 72.7987 44.4104 72.4679C44.1072 72.137 43.985 71.6253 44.0437 70.9328L44.3995 66.7389L43.4776 66.6606L43.5602 65.6868L44.4821 65.765L44.6341 63.9732L45.8157 64.0734L45.6637 65.8653L47.5205 66.0228L47.4379 66.9966L45.5811 66.8391ZM55.1656 69.9801C55.1465 70.2051 55.1133 70.4421 55.0661 70.6909L49.3789 70.2084C49.3627 70.9133 49.5541 71.4831 49.9532 71.918C50.3616 72.345 50.8774 72.5849 51.5007 72.6378C52.0114 72.6811 52.4454 72.6003 52.8029 72.3952C53.1697 72.1822 53.4392 71.8825 53.6115 71.496L54.884 71.604C54.6355 72.2717 54.2073 72.7977 53.5993 73.182C52.992 73.5577 52.2642 73.7096 51.4158 73.6376C50.7407 73.5803 50.1476 73.3774 49.6366 73.0289C49.1343 72.6812 48.7551 72.2174 48.4991 71.6377C48.2439 71.0494 48.1475 70.3873 48.2099 69.6515C48.2723 68.9157 48.4742 68.2833 48.8155 67.7543C49.1568 67.2253 49.604 66.836 50.157 66.5865C50.7194 66.329 51.3468 66.2297 52.0393 66.2885C52.7145 66.3457 53.2993 66.5436 53.7937 66.8819C54.2881 67.2203 54.6518 67.6609 54.8847 68.2038C55.1271 68.7388 55.2207 69.3309 55.1656 69.9801ZM53.966 69.6298C54.0042 69.1797 53.9373 68.786 53.7654 68.4489C53.5942 68.103 53.3425 67.8332 53.0102 67.6394C52.6873 67.4376 52.3181 67.3191 51.9026 67.2838C51.3053 67.2332 50.7784 67.3803 50.3219 67.7252C49.8741 68.0708 49.5913 68.5786 49.4734 69.2487L53.966 69.6298ZM58.9093 74.2733C58.364 74.2271 57.8826 74.0947 57.4652 73.8762C57.0486 73.649 56.7287 73.3603 56.5056 73.0101C56.2832 72.6512 56.1774 72.2543 56.1881 71.8192L57.4086 71.9228C57.4132 72.2806 57.553 72.5846 57.8282 72.8346C58.1121 73.0854 58.4964 73.2313 58.9812 73.2724C59.4313 73.3106 59.7947 73.2412 60.0712 73.0641C60.3478 72.8871 60.499 72.647 60.5247 72.3441C60.5511 72.0325 60.4321 71.7913 60.1675 71.6207C59.9038 71.4413 59.4881 71.2535 58.9206 71.0571C58.4044 70.8739 57.9833 70.6986 57.6575 70.5315C57.341 70.3564 57.0733 70.1201 56.8545 69.8226C56.645 69.5171 56.5597 69.1349 56.5986 68.6762C56.6295 68.3126 56.7659 67.9885 57.008 67.7039C57.2502 67.4193 57.5776 67.2073 57.9905 67.068C58.4041 66.92 58.8663 66.8676 59.377 66.911C60.1647 66.9778 60.7841 67.2309 61.235 67.6702C61.686 68.1095 61.8994 68.6769 61.8753 69.3723L60.6937 69.2721C60.6993 68.8976 60.5732 68.5861 60.3153 68.3376C60.066 68.0897 59.712 67.9464 59.2532 67.9075C58.8291 67.8715 58.4838 67.9337 58.2173 68.0942C57.9509 68.2547 57.8052 68.4821 57.7802 68.7764C57.7604 69.0101 57.8174 69.2111 57.9514 69.3794C58.0947 69.5398 58.2748 69.6771 58.4918 69.7915C58.7182 69.8978 59.03 70.0246 59.4273 70.1716C59.9263 70.3534 60.3301 70.5272 60.6386 70.6929C60.9479 70.8499 61.2036 71.0721 61.4059 71.3595C61.6169 71.6477 61.7083 72.0086 61.6803 72.4421C61.6472 72.8316 61.5093 73.173 61.2664 73.4663C61.0236 73.7596 60.6954 73.9802 60.2818 74.1282C59.8775 74.2683 59.4201 74.3167 58.9093 74.2733ZM65.1464 68.499L64.7906 72.6929C64.7612 73.0392 64.8139 73.2921 64.9486 73.4517C65.084 73.6027 65.3335 73.6936 65.697 73.7245L66.567 73.7983L66.4822 74.7981L65.4174 74.7078C64.7596 74.6519 64.279 74.4586 63.9758 74.1277C63.6725 73.7969 63.5503 73.2852 63.609 72.5927L63.9648 68.3987L63.043 68.3205L63.1256 67.3467L64.0475 67.4249L64.1995 65.633L65.3811 65.7333L65.229 67.5251L67.0858 67.6826L67.0032 68.6565L65.1464 68.499Z" fill="white" fill-opacity="0.5"/>
<path d="M62.3873 101.733C62.7119 101.813 62.9991 101.972 63.2491 102.211C63.5077 102.451 63.7014 102.738 63.83 103.071C63.9673 103.406 64.0205 103.754 63.9897 104.118C63.9508 104.577 63.7987 104.982 63.5334 105.335C63.2688 105.679 62.9023 105.939 62.4338 106.118C61.9747 106.288 61.4422 106.347 60.8363 106.296L57.4603 106.01L58.2281 96.9595L61.4742 97.2349C62.0888 97.2871 62.6037 97.4354 63.0189 97.6798C63.4348 97.9156 63.7363 98.2159 63.9233 98.5805C64.1103 98.9451 64.1855 99.3438 64.1488 99.7766C64.1032 100.313 63.9183 100.747 63.5938 101.077C63.2788 101.399 62.8766 101.617 62.3873 101.733ZM59.0781 100.968L61.0647 101.137C61.6187 101.184 62.0582 101.09 62.3832 100.856C62.7082 100.622 62.8902 100.276 62.9291 99.817C62.968 99.3582 62.847 98.9861 62.5661 98.7007C62.2851 98.4153 61.859 98.2484 61.2877 98.1999L59.3271 98.0336L59.0781 100.968ZM60.815 105.313C61.4036 105.363 61.8742 105.264 62.2266 105.015C62.579 104.766 62.7762 104.394 62.818 103.901C62.8606 103.399 62.7209 102.99 62.3989 102.675C62.0776 102.352 61.627 102.165 61.047 102.116L58.9955 101.942L58.7245 105.136L60.815 105.313ZM72.0172 100.797C71.9533 101.55 71.6404 102.156 71.0784 102.614C70.5258 103.064 69.7215 103.244 68.6654 103.155L66.9255 103.007L66.605 106.785L65.4234 106.685L66.1912 97.6351L69.1127 97.8829C70.1341 97.9696 70.8879 98.282 71.3741 98.8202C71.8689 99.3592 72.0833 100.018 72.0172 100.797ZM68.748 102.181C69.4059 102.237 69.9028 102.135 70.2386 101.876C70.5745 101.616 70.7648 101.223 70.8096 100.695C70.9044 99.5781 70.3112 98.9655 69.03 98.8568L67.2901 98.7092L67.0081 102.033L68.748 102.181ZM82.8849 99.1167L82.1226 108.102L80.941 108.002L81.5094 101.302L77.9546 107.748L77.1236 107.678L74.6937 100.71L74.1242 107.423L72.9427 107.323L73.7049 98.3379L74.9774 98.4459L77.6713 106.155L81.6254 99.0099L82.8849 99.1167Z" fill="white" fill-opacity="0.5"/>
<path d="M27.8717 88.1634L28.0745 85.7728L32.8557 86.1784L31.4341 102.935L28.7907 102.711L30.0095 88.3447L27.8717 88.1634ZM35.908 88.8451L36.1108 86.4546L40.8919 86.8602L39.4703 103.617L36.8269 103.393L38.0457 89.0265L35.908 88.8451ZM53.1729 91.8147C53.0641 91.0955 52.8025 90.5408 52.388 90.1507C51.9735 89.7605 51.3678 89.5316 50.571 89.464C49.3604 89.3613 48.4166 89.752 47.7396 90.6361C47.064 91.5048 46.6198 93.0106 46.4072 95.1534C46.8628 94.5129 47.4893 94.0413 48.2867 93.7385C49.0842 93.4357 49.9273 93.3221 50.8161 93.3975C51.8275 93.4833 52.6974 93.7809 53.4259 94.2903C54.1711 94.7857 54.7231 95.4653 55.0819 96.3292C55.4561 97.1944 55.5945 98.2017 55.497 99.351C55.406 100.424 55.1102 101.363 54.6096 102.17C54.1244 102.977 53.4472 103.591 52.5781 104.012C51.7102 104.416 50.694 104.569 49.5294 104.471C47.951 104.337 46.739 103.887 45.8933 103.12C45.0643 102.34 44.5199 101.298 44.26 99.9952C44.0155 98.6934 43.9738 97.0923 44.135 95.1921C44.6108 89.5835 46.8256 86.9468 50.7792 87.2823C52.3116 87.4123 53.4795 87.9281 54.2828 88.8297C55.1014 89.7326 55.5359 90.7959 55.5865 92.0195L53.1729 91.8147ZM50.0542 95.5554C49.1194 95.4761 48.2985 95.692 47.5915 96.2031C46.901 96.7001 46.511 97.4774 46.4213 98.5347C46.3316 99.5921 46.5589 100.46 47.1032 101.139C47.6642 101.804 48.4887 102.183 49.5767 102.275C50.5421 102.357 51.326 102.123 51.9284 101.572C52.5461 101.022 52.8972 100.249 52.9817 99.2534C53.0701 98.2113 52.8645 97.3604 52.3648 96.7006C51.8818 96.0268 51.1116 95.6451 50.0542 95.5554Z" fill="white"/>
<rect x="245.867" y="107.893" width="3.65015" height="8.21283" rx="1.82507" transform="rotate(4.84918 245.867 107.893)" fill="white" fill-opacity="0.2"/>
<rect x="251.246" y="109.266" width="3.65015" height="6.38775" rx="1.82507" transform="rotate(4.84918 251.246 109.266)" fill="white" fill-opacity="0.2"/>
<rect x="256.549" y="111.547" width="3.65015" height="8.21283" rx="1.82507" transform="rotate(4.84918 256.549 111.547)" fill="white" fill-opacity="0.2"/>
<rect x="261.096" y="111.934" width="3.65015" height="10.0379" rx="1.82507" transform="rotate(4.84918 261.096 111.934)" fill="white" fill-opacity="0.2"/>
<rect x="266.164" y="116.941" width="3.65015" height="6.38775" rx="1.82507" transform="rotate(4.84918 266.164 116.941)" fill="white" fill-opacity="0.2"/>
<rect x="272.236" y="110.129" width="3.65015" height="12.7755" rx="1.82507" transform="rotate(4.84918 272.236 110.129)" fill="white" fill-opacity="0.2"/>
<rect x="278.232" y="104.229" width="3.65015" height="16.4257" rx="1.82507" transform="rotate(4.84918 278.232 104.229)" fill="white" fill-opacity="0.2"/>
<rect x="288.605" y="111.518" width="3.65015" height="4.56268" rx="1.82507" transform="rotate(4.84918 288.605 111.518)" fill="white" fill-opacity="0.2"/>
<rect x="300.07" y="95.0918" width="3.65015" height="4.56268" rx="1.82507" transform="rotate(4.84918 300.07 95.0918)" fill="white" fill-opacity="0.2"/>
<rect x="299.607" y="100.547" width="3.65015" height="4.56268" rx="1.82507" transform="rotate(4.84918 299.607 100.547)" fill="white" fill-opacity="0.2"/>
<rect x="297.91" y="120.553" width="3.65015" height="4.56268" rx="1.82507" transform="rotate(4.84918 297.91 120.553)" fill="white" fill-opacity="0.2"/>
<g clip-path="url(#clip2_678_2945)">
<rect x="306.637" y="87.8828" width="5.47522" height="22.8134" rx="2.73761" transform="rotate(4.84918 306.637 87.8828)" fill="white" fill-opacity="0.2"/>
<rect x="306.156" y="104.326" width="3.65015" height="5.47522" rx="1.82507" transform="rotate(4.84918 306.156 104.326)" fill="#FF5C5C"/>
</g>
<rect x="299.068" y="106.912" width="3.65015" height="11.863" rx="1.82507" transform="rotate(4.84918 299.068 106.912)" fill="white" fill-opacity="0.2"/>
</g>
<rect x="18" y="124" width="149.965" height="88.3644" rx="12.7755" fill="#445659"/>
<path d="M36.7622 144.524V153.639H35.8494V149.375H30.9072V153.639H29.9944V144.524H30.9072V148.618H35.8494V144.524H36.7622ZM39.3013 145.176C39.1187 145.176 38.9622 145.11 38.8318 144.98C38.7014 144.85 38.6362 144.689 38.6362 144.498C38.6362 144.306 38.7014 144.15 38.8318 144.028C38.9622 143.898 39.1187 143.832 39.3013 143.832C39.4838 143.832 39.6403 143.898 39.7707 144.028C39.9011 144.15 39.9663 144.306 39.9663 144.498C39.9663 144.689 39.9011 144.85 39.7707 144.98C39.6403 145.11 39.4838 145.176 39.3013 145.176ZM39.7577 146.519V153.639H38.8449V146.519H39.7577ZM44.8109 146.414C45.4803 146.414 46.0628 146.571 46.5583 146.884C47.0538 147.197 47.4103 147.592 47.6276 148.071V146.519H48.5404V153.821C48.5404 154.473 48.397 155.051 48.1101 155.556C47.8319 156.06 47.4407 156.447 46.9365 156.716C46.4323 156.994 45.8585 157.133 45.2152 157.133C44.3024 157.133 43.5417 156.916 42.9332 156.481C42.3333 156.047 41.9595 155.456 41.8117 154.708H42.7115C42.868 155.203 43.1635 155.599 43.5982 155.895C44.0416 156.19 44.5806 156.338 45.2152 156.338C45.6759 156.338 46.0889 156.238 46.454 156.038C46.8191 155.847 47.106 155.56 47.3147 155.177C47.5233 154.795 47.6276 154.343 47.6276 153.821V152.061C47.4016 152.548 47.0408 152.952 46.5453 153.274C46.0585 153.587 45.4803 153.743 44.8109 153.743C44.1589 153.743 43.5721 153.591 43.0505 153.287C42.5376 152.982 42.1334 152.552 41.8378 151.996C41.5509 151.439 41.4075 150.796 41.4075 150.066C41.4075 149.335 41.5509 148.696 41.8378 148.149C42.1334 147.592 42.5376 147.166 43.0505 146.871C43.5721 146.567 44.1589 146.414 44.8109 146.414ZM47.6276 150.079C47.6276 149.505 47.5103 149.001 47.2755 148.566C47.0408 148.131 46.7192 147.797 46.3106 147.562C45.9107 147.327 45.4673 147.21 44.9805 147.21C44.4762 147.21 44.0242 147.323 43.6243 147.549C43.2244 147.775 42.9071 148.105 42.6724 148.54C42.4463 148.966 42.3333 149.475 42.3333 150.066C42.3333 150.648 42.4463 151.161 42.6724 151.604C42.9071 152.039 43.2244 152.374 43.6243 152.609C44.0242 152.835 44.4762 152.948 44.9805 152.948C45.4673 152.948 45.9107 152.83 46.3106 152.595C46.7192 152.361 47.0408 152.026 47.2755 151.591C47.5103 151.157 47.6276 150.652 47.6276 150.079ZM54.0147 146.388C54.5537 146.388 55.0362 146.501 55.4622 146.727C55.8969 146.953 56.2359 147.301 56.4793 147.771C56.7314 148.231 56.8575 148.796 56.8575 149.466V153.639H55.9577V149.57C55.9577 148.796 55.7621 148.205 55.3709 147.797C54.9884 147.388 54.4625 147.184 53.7931 147.184C53.1063 147.184 52.5586 147.401 52.15 147.836C51.7414 148.27 51.5371 148.909 51.5371 149.753V153.639H50.6243V143.989H51.5371V147.731C51.7631 147.306 52.0935 146.975 52.5282 146.74C52.9715 146.506 53.4671 146.388 54.0147 146.388ZM65.3181 149.714C65.3181 150.027 65.3094 150.266 65.292 150.431H59.3848C59.4109 150.97 59.5413 151.431 59.776 151.813C60.0108 152.196 60.3194 152.487 60.7019 152.687C61.0844 152.878 61.5017 152.974 61.9537 152.974C62.5449 152.974 63.0404 152.83 63.4403 152.543C63.8489 152.256 64.1184 151.87 64.2488 151.383H65.2138C65.0399 152.078 64.6661 152.648 64.0923 153.091C63.5273 153.526 62.8144 153.743 61.9537 153.743C61.2843 153.743 60.6845 153.595 60.1542 153.3C59.6239 152.995 59.2066 152.569 58.9023 152.022C58.6068 151.465 58.459 150.818 58.459 150.079C58.459 149.34 58.6068 148.692 58.9023 148.136C59.1979 147.579 59.6109 147.153 60.1412 146.858C60.6715 146.562 61.2757 146.414 61.9537 146.414C62.6318 146.414 63.223 146.562 63.7272 146.858C64.2401 147.153 64.6313 147.553 64.9008 148.057C65.179 148.553 65.3181 149.105 65.3181 149.714ZM64.3923 149.688C64.4009 149.157 64.2923 148.705 64.0662 148.331C63.8489 147.958 63.549 147.675 63.1665 147.484C62.784 147.292 62.3667 147.197 61.9146 147.197C61.2365 147.197 60.6584 147.414 60.1803 147.849C59.7021 148.284 59.437 148.896 59.3848 149.688H64.3923ZM69.4397 153.743C68.6225 153.743 67.9531 153.556 67.4315 153.182C66.9186 152.8 66.6317 152.282 66.5709 151.63H67.5098C67.5532 152.03 67.7401 152.356 68.0705 152.609C68.4095 152.852 68.8616 152.974 69.4267 152.974C69.9222 152.974 70.309 152.856 70.5872 152.622C70.8741 152.387 71.0176 152.096 71.0176 151.748C71.0176 151.504 70.9393 151.304 70.7828 151.148C70.6264 150.992 70.4264 150.87 70.183 150.783C69.9483 150.687 69.6266 150.587 69.218 150.483C68.6877 150.344 68.2574 150.205 67.927 150.066C67.5967 149.927 67.3142 149.722 67.0794 149.453C66.8534 149.175 66.7404 148.805 66.7404 148.344C66.7404 147.997 66.8447 147.675 67.0534 147.379C67.262 147.084 67.5576 146.849 67.9401 146.675C68.3226 146.501 68.7573 146.414 69.2441 146.414C70.0091 146.414 70.6264 146.61 71.0958 147.001C71.5652 147.384 71.8174 147.914 71.8521 148.592H70.9393C70.9132 148.175 70.7481 147.84 70.4438 147.588C70.1482 147.327 69.7396 147.197 69.218 147.197C68.7573 147.197 68.3835 147.306 68.0966 147.523C67.8097 147.74 67.6662 148.01 67.6662 148.331C67.6662 148.61 67.7488 148.84 67.914 149.022C68.0879 149.196 68.3009 149.335 68.553 149.44C68.8051 149.535 69.1441 149.644 69.5701 149.766C70.083 149.905 70.4916 150.04 70.7959 150.17C71.1002 150.3 71.361 150.492 71.5783 150.744C71.7956 150.996 71.9086 151.331 71.9173 151.748C71.9173 152.13 71.813 152.474 71.6044 152.778C71.3957 153.074 71.1045 153.308 70.7307 153.482C70.3569 153.656 69.9265 153.743 69.4397 153.743ZM74.8222 147.288V151.709C74.8222 152.143 74.9048 152.443 75.07 152.609C75.2352 152.774 75.5264 152.856 75.9437 152.856H76.7783V153.639H75.8002C75.1569 153.639 74.6788 153.491 74.3658 153.195C74.0529 152.891 73.8964 152.396 73.8964 151.709V147.288H72.9053V146.519H73.8964V144.732H74.8222V146.519H76.7783V147.288H74.8222Z" fill="white" fill-opacity="0.7"/>
<path fill-rule="evenodd" clip-rule="evenodd" d="M100.764 157.764C105.804 157.764 109.889 153.679 109.889 148.639C109.889 143.599 105.804 139.514 100.764 139.514C95.7242 139.514 91.6387 143.599 91.6387 148.639C91.6387 153.679 95.7242 157.764 100.764 157.764ZM98.7108 145.901C98.7108 145.523 99.0172 145.217 99.3952 145.217H103.502C103.88 145.217 104.186 145.523 104.186 145.901V150.008C104.186 150.386 103.88 150.692 103.502 150.692C103.124 150.692 102.817 150.386 102.817 150.008V147.554L98.5104 151.861C98.2431 152.128 97.8098 152.128 97.5425 151.861C97.2752 151.593 97.2752 151.16 97.5425 150.893L101.849 146.586H99.3952C99.0172 146.586 98.7108 146.279 98.7108 145.901Z" fill="#66E4FE"/>
<path d="M32.2331 186.278C33.9408 184.802 35.2838 183.592 36.2622 182.649C37.2583 181.689 38.0855 180.693 38.7437 179.661C39.4018 178.629 39.7309 177.598 39.7309 176.566C39.7309 175.499 39.473 174.662 38.9571 174.058C38.4591 173.453 37.6675 173.15 36.5824 173.15C35.5329 173.15 34.7146 173.488 34.1276 174.164C33.5584 174.823 33.256 175.712 33.2204 176.833H30.2853C30.3387 174.805 30.9435 173.257 32.0997 172.19C33.2737 171.105 34.7591 170.562 36.5557 170.562C38.4946 170.562 40.0066 171.096 41.0917 172.163C42.1946 173.23 42.7461 174.654 42.7461 176.432C42.7461 177.713 42.417 178.949 41.7588 180.141C41.1184 181.315 40.3446 182.374 39.4374 183.316C38.548 184.241 37.4095 185.318 36.0221 186.545L34.8213 187.612H43.2797V190.147H30.312V187.933L32.2331 186.278ZM45.9519 180.435C45.9519 177.357 46.4678 174.956 47.4995 173.23C48.549 171.487 50.3457 170.616 52.8894 170.616C55.4331 170.616 57.2209 171.487 58.2526 173.23C59.3021 174.956 59.8269 177.357 59.8269 180.435C59.8269 183.548 59.3021 185.985 58.2526 187.746C57.2209 189.489 55.4331 190.361 52.8894 190.361C50.3457 190.361 48.549 189.489 47.4995 187.746C46.4678 185.985 45.9519 183.548 45.9519 180.435ZM56.8384 180.435C56.8384 178.994 56.7406 177.775 56.5449 176.779C56.367 175.783 55.9935 174.974 55.4242 174.351C54.855 173.711 54.0101 173.391 52.8894 173.391C51.7687 173.391 50.9238 173.711 50.3546 174.351C49.7853 174.974 49.4029 175.783 49.2072 176.779C49.0293 177.775 48.9404 178.994 48.9404 180.435C48.9404 181.929 49.0293 183.183 49.2072 184.197C49.3851 185.211 49.7586 186.029 50.3279 186.652C50.9149 187.274 51.7687 187.586 52.8894 187.586C54.0101 187.586 54.855 187.274 55.4242 186.652C56.0113 186.029 56.3937 185.211 56.5716 184.197C56.7495 183.183 56.8384 181.929 56.8384 180.435ZM62.6452 173.737V170.962H68.1952V190.414H65.1267V173.737H62.6452Z" fill="#66E4FE"/>
<path d="M82.7766 179.559V190.414H81.6753V181.746L77.8052 190.414H77.0029L73.1328 181.777V190.414H72.0315V179.559H73.1957L77.3962 188.967L81.5967 179.559H82.7766ZM88.8775 181.698C89.685 181.698 90.3877 181.887 90.9856 182.265C91.5834 182.642 92.0134 183.12 92.2756 183.696V181.824H93.3768V190.634C93.3768 191.421 93.2038 192.118 92.8577 192.727C92.5221 193.335 92.0501 193.802 91.4418 194.127C90.8335 194.462 90.1413 194.63 89.3651 194.63C88.2639 194.63 87.3462 194.368 86.612 193.844C85.8883 193.319 85.4374 192.606 85.2591 191.704H86.3446C86.5334 192.302 86.89 192.779 87.4144 193.136C87.9493 193.492 88.5995 193.671 89.3651 193.671C89.921 193.671 90.4192 193.55 90.8597 193.309C91.3002 193.078 91.6463 192.732 91.898 192.27C92.1497 191.809 92.2756 191.264 92.2756 190.634V188.51C92.0029 189.098 91.5676 189.586 90.9698 189.974C90.3825 190.351 89.685 190.54 88.8775 190.54C88.0908 190.54 87.3829 190.356 86.7536 189.989C86.1348 189.622 85.6471 189.103 85.2905 188.432C84.9444 187.761 84.7714 186.984 84.7714 186.103C84.7714 185.222 84.9444 184.452 85.2905 183.791C85.6471 183.12 86.1348 182.606 86.7536 182.249C87.3829 181.882 88.0908 181.698 88.8775 181.698ZM92.2756 186.119C92.2756 185.427 92.134 184.819 91.8508 184.294C91.5676 183.77 91.1796 183.366 90.6866 183.083C90.2042 182.8 89.6693 182.658 89.082 182.658C88.4737 182.658 87.9283 182.794 87.4458 183.067C86.9634 183.34 86.5806 183.738 86.2974 184.263C86.0247 184.777 85.8883 185.39 85.8883 186.103C85.8883 186.806 86.0247 187.425 86.2974 187.96C86.5806 188.484 86.9634 188.888 87.4458 189.171C87.9283 189.444 88.4737 189.58 89.082 189.58C89.6693 189.58 90.2042 189.439 90.6866 189.155C91.1796 188.872 91.5676 188.469 91.8508 187.944C92.134 187.42 92.2756 186.811 92.2756 186.119ZM100.784 175.626L96.4415 193.026H95.356L99.6666 175.626H100.784ZM102.332 186.103C102.332 185.222 102.51 184.452 102.867 183.791C103.223 183.12 103.711 182.606 104.33 182.249C104.959 181.882 105.667 181.698 106.454 181.698C107.209 181.698 107.89 181.882 108.499 182.249C109.107 182.616 109.553 183.093 109.836 183.681V178.772H110.937V190.414H109.836V188.495C109.574 189.093 109.144 189.586 108.546 189.974C107.948 190.351 107.245 190.54 106.438 190.54C105.651 190.54 104.943 190.356 104.314 189.989C103.695 189.622 103.207 189.103 102.851 188.432C102.505 187.761 102.332 186.984 102.332 186.103ZM109.836 186.119C109.836 185.427 109.694 184.819 109.411 184.294C109.128 183.77 108.74 183.366 108.247 183.083C107.765 182.8 107.23 182.658 106.642 182.658C106.034 182.658 105.489 182.794 105.006 183.067C104.524 183.34 104.141 183.738 103.858 184.263C103.585 184.777 103.449 185.39 103.449 186.103C103.449 186.806 103.585 187.425 103.858 187.96C104.141 188.484 104.524 188.888 105.006 189.171C105.489 189.444 106.034 189.58 106.642 189.58C107.23 189.58 107.765 189.439 108.247 189.155C108.74 188.872 109.128 188.469 109.411 187.944C109.694 187.42 109.836 186.811 109.836 186.119ZM114.553 178.772V190.414H113.451V178.772H114.553Z" fill="white" fill-opacity="0.5"/>
<rect x="179.828" y="124" width="150.353" height="88.2886" rx="12.7755" fill="#445659"/>
<path d="M192.735 152.858H196.008V153.602H191.823V144.486H192.735V152.858ZM200.428 153.706C199.758 153.706 199.154 153.558 198.615 153.263C198.085 152.958 197.663 152.532 197.35 151.985C197.046 151.428 196.894 150.781 196.894 150.042C196.894 149.303 197.05 148.659 197.363 148.112C197.676 147.555 198.102 147.129 198.641 146.834C199.18 146.529 199.784 146.377 200.454 146.377C201.123 146.377 201.727 146.529 202.266 146.834C202.814 147.129 203.24 147.555 203.544 148.112C203.857 148.659 204.014 149.303 204.014 150.042C204.014 150.772 203.857 151.415 203.544 151.972C203.231 152.528 202.801 152.958 202.253 153.263C201.706 153.558 201.097 153.706 200.428 153.706ZM200.428 152.91C200.897 152.91 201.332 152.806 201.732 152.597C202.132 152.38 202.453 152.058 202.697 151.633C202.949 151.198 203.075 150.668 203.075 150.042C203.075 149.416 202.953 148.89 202.71 148.464C202.466 148.029 202.145 147.707 201.745 147.499C201.345 147.281 200.91 147.173 200.441 147.173C199.971 147.173 199.537 147.281 199.137 147.499C198.737 147.707 198.415 148.029 198.172 148.464C197.937 148.89 197.82 149.416 197.82 150.042C197.82 150.668 197.937 151.198 198.172 151.633C198.415 152.058 198.732 152.38 199.124 152.597C199.524 152.806 199.958 152.91 200.428 152.91ZM215.067 146.482L212.837 153.602H211.924L209.955 147.629L207.986 153.602H207.06L204.83 146.482H205.756L207.529 152.676L209.525 146.482H210.437L212.406 152.689L214.167 146.482H215.067ZM222.753 149.676C222.753 149.989 222.744 150.229 222.727 150.394H216.82C216.846 150.933 216.976 151.393 217.211 151.776C217.445 152.158 217.754 152.45 218.137 152.65C218.519 152.841 218.936 152.937 219.388 152.937C219.98 152.937 220.475 152.793 220.875 152.506C221.284 152.219 221.553 151.832 221.684 151.346H222.648C222.475 152.041 222.101 152.611 221.527 153.054C220.962 153.489 220.249 153.706 219.388 153.706C218.719 153.706 218.119 153.558 217.589 153.263C217.059 152.958 216.641 152.532 216.337 151.985C216.041 151.428 215.894 150.781 215.894 150.042C215.894 149.303 216.041 148.655 216.337 148.099C216.633 147.542 217.046 147.116 217.576 146.821C218.106 146.525 218.71 146.377 219.388 146.377C220.067 146.377 220.658 146.525 221.162 146.821C221.675 147.116 222.066 147.516 222.336 148.02C222.614 148.516 222.753 149.068 222.753 149.676ZM221.827 149.65C221.836 149.12 221.727 148.668 221.501 148.294C221.284 147.92 220.984 147.638 220.601 147.447C220.219 147.255 219.801 147.16 219.349 147.16C218.671 147.16 218.093 147.377 217.615 147.812C217.137 148.246 216.872 148.859 216.82 149.65H221.827ZM226.874 153.706C226.057 153.706 225.388 153.519 224.866 153.145C224.353 152.763 224.066 152.245 224.006 151.593H224.944C224.988 151.993 225.175 152.319 225.505 152.571C225.844 152.815 226.296 152.937 226.861 152.937C227.357 152.937 227.744 152.819 228.022 152.584C228.309 152.35 228.452 152.058 228.452 151.711C228.452 151.467 228.374 151.267 228.218 151.111C228.061 150.954 227.861 150.833 227.618 150.746C227.383 150.65 227.061 150.55 226.653 150.446C226.122 150.307 225.692 150.168 225.362 150.029C225.031 149.889 224.749 149.685 224.514 149.416C224.288 149.137 224.175 148.768 224.175 148.307C224.175 147.96 224.279 147.638 224.488 147.342C224.697 147.047 224.992 146.812 225.375 146.638C225.757 146.464 226.192 146.377 226.679 146.377C227.444 146.377 228.061 146.573 228.531 146.964C229 147.347 229.252 147.877 229.287 148.555H228.374C228.348 148.138 228.183 147.803 227.879 147.551C227.583 147.29 227.174 147.16 226.653 147.16C226.192 147.16 225.818 147.268 225.531 147.486C225.244 147.703 225.101 147.973 225.101 148.294C225.101 148.572 225.184 148.803 225.349 148.985C225.523 149.159 225.736 149.298 225.988 149.403C226.24 149.498 226.579 149.607 227.005 149.729C227.518 149.868 227.926 150.002 228.231 150.133C228.535 150.263 228.796 150.455 229.013 150.707C229.23 150.959 229.343 151.293 229.352 151.711C229.352 152.093 229.248 152.437 229.039 152.741C228.83 153.036 228.539 153.271 228.165 153.445C227.792 153.619 227.361 153.706 226.874 153.706ZM232.257 147.251V151.672C232.257 152.106 232.34 152.406 232.505 152.571C232.67 152.737 232.961 152.819 233.378 152.819H234.213V153.602H233.235C232.592 153.602 232.114 153.454 231.801 153.158C231.488 152.854 231.331 152.358 231.331 151.672V147.251H230.34V146.482H231.331V144.695H232.257V146.482H234.213V147.251H232.257Z" fill="white" fill-opacity="0.7"/>
<path fill-rule="evenodd" clip-rule="evenodd" d="M241.882 148.639C241.882 153.679 245.968 157.764 251.007 157.764C256.047 157.764 260.133 153.679 260.133 148.639C260.133 143.599 256.047 139.514 251.007 139.514C245.968 139.514 241.882 143.599 241.882 148.639ZM253.745 146.586C254.123 146.586 254.429 146.892 254.429 147.27L254.429 151.377C254.429 151.755 254.123 152.061 253.745 152.061L249.639 152.061C249.261 152.061 248.954 151.755 248.954 151.377C248.954 150.999 249.261 150.692 249.639 150.692L252.093 150.692L247.786 146.385C247.519 146.118 247.519 145.685 247.786 145.417C248.053 145.15 248.487 145.15 248.754 145.417L253.061 149.724L253.061 147.27C253.061 146.892 253.367 146.586 253.745 146.586Z" fill="#FE6666"/>
<path d="M191.98 173.663V170.888H197.53V190.34H194.461V173.663H191.98ZM201.308 173.663V170.888H206.858V190.34H203.79V173.663H201.308ZM211.037 180.361C211.037 177.283 211.553 174.882 212.585 173.156C213.634 171.413 215.431 170.541 217.975 170.541C220.518 170.541 222.306 171.413 223.338 173.156C224.387 174.882 224.912 177.283 224.912 180.361C224.912 183.474 224.387 185.911 223.338 187.672C222.306 189.415 220.518 190.286 217.975 190.286C215.431 190.286 213.634 189.415 212.585 187.672C211.553 185.911 211.037 183.474 211.037 180.361ZM221.924 180.361C221.924 178.92 221.826 177.701 221.63 176.705C221.452 175.709 221.079 174.9 220.51 174.277C219.94 173.637 219.095 173.316 217.975 173.316C216.854 173.316 216.009 173.637 215.44 174.277C214.871 174.9 214.488 175.709 214.292 176.705C214.115 177.701 214.026 178.92 214.026 180.361C214.026 181.855 214.115 183.109 214.292 184.123C214.47 185.137 214.844 185.955 215.413 186.578C216 187.2 216.854 187.511 217.975 187.511C219.095 187.511 219.94 187.2 220.51 186.578C221.097 185.955 221.479 185.137 221.657 184.123C221.835 183.109 221.924 181.855 221.924 180.361Z" fill="#FE6666"/>
<path d="M238.533 179.485V190.34H237.432V181.671L233.562 190.34H232.76L228.89 181.703V190.34H227.788V179.485H228.953L233.153 188.892L237.353 179.485H238.533ZM244.634 181.624C245.442 181.624 246.145 181.813 246.742 182.191C247.34 182.568 247.77 183.045 248.032 183.622V181.75H249.134V190.56C249.134 191.347 248.961 192.044 248.614 192.652C248.279 193.261 247.807 193.727 247.199 194.053C246.59 194.388 245.898 194.556 245.122 194.556C244.021 194.556 243.103 194.294 242.369 193.769C241.645 193.245 241.194 192.532 241.016 191.63H242.101C242.29 192.228 242.647 192.705 243.171 193.062C243.706 193.418 244.356 193.596 245.122 193.596C245.678 193.596 246.176 193.476 246.616 193.235C247.057 193.004 247.403 192.658 247.655 192.196C247.907 191.735 248.032 191.189 248.032 190.56V188.436C247.76 189.024 247.324 189.511 246.727 189.899C246.139 190.277 245.442 190.466 244.634 190.466C243.848 190.466 243.14 190.282 242.51 189.915C241.892 189.548 241.404 189.029 241.047 188.358C240.701 187.686 240.528 186.91 240.528 186.029C240.528 185.148 240.701 184.377 241.047 183.717C241.404 183.045 241.892 182.531 242.51 182.175C243.14 181.808 243.848 181.624 244.634 181.624ZM248.032 186.045C248.032 185.353 247.891 184.744 247.608 184.22C247.324 183.696 246.936 183.292 246.443 183.009C245.961 182.725 245.426 182.584 244.839 182.584C244.23 182.584 243.685 182.72 243.203 182.993C242.72 183.266 242.337 183.664 242.054 184.189C241.781 184.702 241.645 185.316 241.645 186.029C241.645 186.732 241.781 187.351 242.054 187.886C242.337 188.41 242.72 188.814 243.203 189.097C243.685 189.37 244.23 189.506 244.839 189.506C245.426 189.506 245.961 189.364 246.443 189.081C246.936 188.798 247.324 188.394 247.608 187.87C247.891 187.345 248.032 186.737 248.032 186.045ZM256.54 175.552L252.198 192.951H251.113L255.423 175.552H256.54ZM258.089 186.029C258.089 185.148 258.267 184.377 258.623 183.717C258.98 183.045 259.468 182.531 260.087 182.175C260.716 181.808 261.424 181.624 262.21 181.624C262.965 181.624 263.647 181.808 264.256 182.175C264.864 182.542 265.31 183.019 265.593 183.606V178.698H266.694V190.34H265.593V188.421C265.331 189.018 264.901 189.511 264.303 189.899C263.705 190.277 263.002 190.466 262.195 190.466C261.408 190.466 260.7 190.282 260.071 189.915C259.452 189.548 258.964 189.029 258.608 188.358C258.262 187.686 258.089 186.91 258.089 186.029ZM265.593 186.045C265.593 185.353 265.451 184.744 265.168 184.22C264.885 183.696 264.497 183.292 264.004 183.009C263.521 182.725 262.986 182.584 262.399 182.584C261.791 182.584 261.245 182.72 260.763 182.993C260.281 183.266 259.898 183.664 259.615 184.189C259.342 184.702 259.206 185.316 259.206 186.029C259.206 186.732 259.342 187.351 259.615 187.886C259.898 188.41 260.281 188.814 260.763 189.097C261.245 189.37 261.791 189.506 262.399 189.506C262.986 189.506 263.521 189.364 264.004 189.081C264.497 188.798 264.885 188.394 265.168 187.87C265.451 187.345 265.593 186.737 265.593 186.045ZM270.309 178.698V190.34H269.208V178.698H270.309Z" fill="white" fill-opacity="0.5"/>
<line x1="27.9512" y1="319.71" x2="286.199" y2="319.71" stroke="white" stroke-opacity="0.2" stroke-width="0.912536" stroke-dasharray="4.56 4.56"/>
<line x1="27.9512" y1="284.122" x2="286.199" y2="284.122" stroke="white" stroke-opacity="0.2" stroke-width="0.912536" stroke-dasharray="4.56 4.56"/>
<line x1="27.9512" y1="248.532" x2="286.199" y2="248.532" stroke="white" stroke-opacity="0.2" stroke-width="0.912536" stroke-dasharray="4.56 4.56"/>
<rect x="17" y="228" width="313" height="219.921" rx="16.4257" fill="white" fill-opacity="0.1"/>
<path d="M295.852 249.051C297.451 247.852 298.684 246.779 299.553 245.832C300.43 244.877 300.869 243.943 300.869 243.031C300.869 242.431 300.717 241.953 300.413 241.597C300.118 241.232 299.631 241.05 298.953 241.05C298.293 241.05 297.781 241.258 297.416 241.675C297.06 242.084 296.86 242.631 296.816 243.317H295.93C295.982 242.353 296.278 241.606 296.816 241.076C297.364 240.537 298.076 240.268 298.953 240.268C299.796 240.268 300.478 240.507 300.999 240.985C301.521 241.454 301.781 242.123 301.781 242.991C301.781 244.043 301.342 245.063 300.465 246.054C299.596 247.035 298.523 247.995 297.246 248.934H302.068V249.702H295.852V249.051ZM309.382 241.206H304.612V244.542C304.83 244.238 305.147 243.99 305.564 243.799C305.981 243.6 306.432 243.5 306.919 243.5C307.631 243.5 308.213 243.647 308.665 243.943C309.117 244.229 309.443 244.607 309.642 245.076C309.842 245.537 309.942 246.032 309.942 246.562C309.942 247.17 309.825 247.722 309.59 248.217C309.364 248.703 309.013 249.09 308.535 249.377C308.066 249.663 307.479 249.807 306.776 249.807C305.881 249.807 305.155 249.576 304.599 249.116C304.043 248.647 303.705 248.017 303.583 247.227H304.482C304.595 247.8 304.856 248.243 305.264 248.556C305.672 248.868 306.176 249.025 306.776 249.025C307.531 249.025 308.1 248.803 308.483 248.36C308.874 247.908 309.069 247.313 309.069 246.575C309.069 245.854 308.874 245.294 308.483 244.894C308.092 244.486 307.531 244.282 306.802 244.282C306.298 244.282 305.855 244.399 305.472 244.633C305.09 244.868 304.808 245.185 304.625 245.585H303.765V240.411H309.382V241.206ZM311.534 245.011C311.534 243.517 311.765 242.357 312.225 241.532C312.685 240.707 313.511 240.294 314.701 240.294C315.891 240.294 316.716 240.707 317.177 241.532C317.637 242.357 317.867 243.517 317.867 245.011C317.867 246.532 317.637 247.709 317.177 248.543C316.716 249.377 315.891 249.794 314.701 249.794C313.502 249.794 312.672 249.377 312.212 248.543C311.76 247.709 311.534 246.532 311.534 245.011ZM316.968 245.011C316.968 244.203 316.912 243.521 316.799 242.965C316.686 242.409 316.464 241.962 316.134 241.623C315.804 241.284 315.326 241.115 314.701 241.115C314.075 241.115 313.598 241.284 313.267 241.623C312.937 241.962 312.716 242.409 312.603 242.965C312.49 243.521 312.433 244.203 312.433 245.011C312.433 245.845 312.49 246.545 312.603 247.109C312.716 247.665 312.937 248.113 313.267 248.451C313.598 248.79 314.075 248.96 314.701 248.96C315.326 248.96 315.804 248.79 316.134 248.451C316.464 248.113 316.686 247.665 316.799 247.109C316.912 246.545 316.968 245.845 316.968 245.011Z" fill="white" fill-opacity="0.5"/>
<path d="M295.852 285.477C297.451 284.278 298.684 283.205 299.553 282.258C300.43 281.302 300.869 280.368 300.869 279.456C300.869 278.857 300.717 278.379 300.413 278.023C300.118 277.658 299.631 277.476 298.953 277.476C298.293 277.476 297.781 277.684 297.416 278.101C297.06 278.509 296.86 279.057 296.816 279.743H295.93C295.982 278.779 296.278 278.032 296.816 277.502C297.364 276.963 298.076 276.694 298.953 276.694C299.796 276.694 300.478 276.933 300.999 277.41C301.521 277.88 301.781 278.548 301.781 279.417C301.781 280.468 301.342 281.489 300.465 282.48C299.596 283.461 298.523 284.421 297.246 285.359H302.068V286.128H295.852V285.477ZM303.492 281.437C303.492 279.943 303.722 278.783 304.182 277.958C304.643 277.132 305.468 276.72 306.658 276.72C307.848 276.72 308.674 277.132 309.134 277.958C309.595 278.783 309.825 279.943 309.825 281.437C309.825 282.957 309.595 284.134 309.134 284.968C308.674 285.802 307.848 286.219 306.658 286.219C305.459 286.219 304.63 285.802 304.169 284.968C303.718 284.134 303.492 282.957 303.492 281.437ZM308.926 281.437C308.926 280.629 308.869 279.947 308.756 279.391C308.643 278.835 308.422 278.388 308.092 278.049C307.762 277.71 307.284 277.541 306.658 277.541C306.033 277.541 305.555 277.71 305.225 278.049C304.895 278.388 304.673 278.835 304.56 279.391C304.447 279.947 304.391 280.629 304.391 281.437C304.391 282.271 304.447 282.97 304.56 283.535C304.673 284.091 304.895 284.538 305.225 284.877C305.555 285.216 306.033 285.385 306.658 285.385C307.284 285.385 307.762 285.216 308.092 284.877C308.422 284.538 308.643 284.091 308.756 283.535C308.869 282.97 308.926 282.271 308.926 281.437ZM311.522 281.437C311.522 279.943 311.752 278.783 312.212 277.958C312.673 277.132 313.498 276.72 314.688 276.72C315.878 276.72 316.704 277.132 317.164 277.958C317.624 278.783 317.855 279.943 317.855 281.437C317.855 282.957 317.624 284.134 317.164 284.968C316.704 285.802 315.878 286.219 314.688 286.219C313.489 286.219 312.66 285.802 312.199 284.968C311.747 284.134 311.522 282.957 311.522 281.437ZM316.956 281.437C316.956 280.629 316.899 279.947 316.786 279.391C316.673 278.835 316.452 278.388 316.122 278.049C315.791 277.71 315.314 277.541 314.688 277.541C314.063 277.541 313.585 277.71 313.255 278.049C312.925 278.388 312.703 278.835 312.59 279.391C312.477 279.947 312.421 280.629 312.421 281.437C312.421 282.271 312.477 282.97 312.59 283.535C312.703 284.091 312.925 284.538 313.255 284.877C313.585 285.216 314.063 285.385 314.688 285.385C315.314 285.385 315.791 285.216 316.122 284.877C316.452 284.538 316.673 284.091 316.786 283.535C316.899 282.97 316.956 282.271 316.956 281.437Z" fill="white" fill-opacity="0.5"/>
<path d="M295.591 314.097V313.276H297.807V322.619H296.882V314.097H295.591ZM305.729 314.058H300.96V317.394C301.177 317.09 301.494 316.842 301.911 316.651C302.328 316.451 302.78 316.351 303.267 316.351C303.979 316.351 304.561 316.499 305.013 316.794C305.465 317.081 305.79 317.459 305.99 317.928C306.19 318.388 306.29 318.884 306.29 319.414C306.29 320.022 306.173 320.573 305.938 321.068C305.712 321.555 305.36 321.942 304.882 322.228C304.413 322.515 303.827 322.658 303.123 322.658C302.228 322.658 301.503 322.428 300.947 321.968C300.391 321.498 300.052 320.869 299.931 320.078H300.83C300.943 320.651 301.203 321.095 301.612 321.407C302.02 321.72 302.524 321.876 303.123 321.876C303.879 321.876 304.448 321.655 304.83 321.212C305.221 320.76 305.417 320.165 305.417 319.427C305.417 318.705 305.221 318.145 304.83 317.746C304.439 317.337 303.879 317.133 303.149 317.133C302.645 317.133 302.202 317.25 301.82 317.485C301.438 317.719 301.156 318.037 300.973 318.436H300.113V313.263H305.729V314.058ZM307.882 317.863C307.882 316.369 308.112 315.209 308.573 314.384C309.033 313.558 309.858 313.146 311.049 313.146C312.239 313.146 313.064 313.558 313.524 314.384C313.985 315.209 314.215 316.369 314.215 317.863C314.215 319.383 313.985 320.56 313.524 321.394C313.064 322.228 312.239 322.645 311.049 322.645C309.85 322.645 309.02 322.228 308.56 321.394C308.108 320.56 307.882 319.383 307.882 317.863ZM313.316 317.863C313.316 317.055 313.26 316.373 313.147 315.817C313.034 315.261 312.812 314.814 312.482 314.475C312.152 314.136 311.674 313.967 311.049 313.967C310.423 313.967 309.945 314.136 309.615 314.475C309.285 314.814 309.064 315.261 308.951 315.817C308.838 316.373 308.781 317.055 308.781 317.863C308.781 318.697 308.838 319.396 308.951 319.961C309.064 320.517 309.285 320.964 309.615 321.303C309.945 321.642 310.423 321.811 311.049 321.811C311.674 321.811 312.152 321.642 312.482 321.303C312.812 320.964 313.034 320.517 313.147 319.961C313.26 319.396 313.316 318.697 313.316 317.863Z" fill="white" fill-opacity="0.5"/>
<path d="M27.0371 365.734C29.6687 363.673 35.5439 357.205 39.3114 347.043C39.8258 345.655 41.1262 344.693 42.6061 344.693H48.5124C50.3426 344.693 51.8447 343.245 51.9114 341.416L53.1074 308.646C53.1729 306.85 53.5241 305.078 54.2077 303.416C58.1499 293.831 65.6157 279.138 70.5347 281.57C74.7783 283.669 86.1655 322.544 93.5212 295.966C96.3503 288.768 104.06 285.889 112.264 331.957C115.211 347.092 122.873 372.821 129.946 354.659C132.775 344.877 139.636 328.524 144.445 341.37C147.628 350.229 155.62 357.206 162.127 314.238C166.371 290.245 177.051 249.012 185.821 276.033C188.558 291.43 194.591 317.774 199.465 316.96C201.813 316.567 203.129 312.999 205.241 314.097C207.501 315.272 209.694 319.294 209.868 329.348C209.897 331.072 210.074 332.805 210.573 334.456C214.295 346.78 223.255 364.588 234.623 352.998C243.464 340.816 240.847 301.725 251.598 295.966C257.963 292.828 274.16 288.989 288.023 298.734" stroke="#66E4FE" stroke-width="2.27222" stroke-linecap="round"/>
<circle cx="51.6771" cy="342.921" r="2.73761" fill="#FF5C5C"/>
</g>
<defs>
<clipPath id="clip0_678_2945">
<rect width="343" height="343" rx="18" fill="white"/>
</clipPath>
<clipPath id="clip1_678_2945">
<rect x="20.2656" y="9.01367" width="313" height="111.329" rx="12.7755" transform="rotate(4.84918 20.2656 9.01367)" fill="white"/>
</clipPath>
<clipPath id="clip2_678_2945">
<rect x="306.637" y="87.8828" width="5.47522" height="22.8134" rx="2.73761" transform="rotate(4.84918 306.637 87.8828)" fill="white"/>
</clipPath>
</defs>
</svg>
