<svg width="351" height="102" viewBox="0 0 351 102" fill="none" xmlns="http://www.w3.org/2000/svg">
<rect x="0.470703" y="0.187988" width="350.293" height="101.804" rx="21.8933" fill="white"/>
<path d="M31.4839 25.7756C31.415 25.1306 31.1245 24.6283 30.6124 24.2689C30.1052 23.9094 29.4454 23.7297 28.633 23.7297C28.0618 23.7297 27.5719 23.8159 27.1632 23.9882C26.7545 24.1606 26.4418 24.3944 26.2252 24.6899C26.0085 24.9853 25.8977 25.3226 25.8928 25.7017C25.8928 26.0169 25.9642 26.2902 26.107 26.5216C26.2547 26.753 26.4541 26.95 26.7053 27.1125C26.9564 27.27 27.2346 27.403 27.5399 27.5113C27.8451 27.6196 28.1529 27.7107 28.4631 27.7846L29.8812 28.1391C30.4524 28.272 31.0014 28.4518 31.5282 28.6783C32.06 28.9048 32.5352 29.1903 32.9537 29.535C33.3772 29.8797 33.712 30.2958 33.9582 30.7832C34.2044 31.2707 34.3275 31.8419 34.3275 32.4968C34.3275 33.3831 34.101 34.1635 33.648 34.8381C33.195 35.5077 32.5401 36.0321 31.6833 36.4113C30.8315 36.7855 29.7999 36.9726 28.5887 36.9726C27.4118 36.9726 26.3901 36.7904 25.5235 36.4261C24.6618 36.0617 23.9873 35.5299 23.4998 34.8307C23.0172 34.1315 22.7563 33.2797 22.7169 32.2752H25.4127C25.4521 32.802 25.6146 33.2403 25.9002 33.5899C26.1858 33.9395 26.5575 34.2004 27.0155 34.3728C27.4783 34.5451 27.9953 34.6313 28.5665 34.6313C29.1623 34.6313 29.6842 34.5427 30.1323 34.3654C30.5853 34.1832 30.9398 33.9321 31.1959 33.612C31.4519 33.2871 31.5824 32.9079 31.5873 32.4746C31.5824 32.0807 31.4667 31.7557 31.2402 31.4997C31.0137 31.2387 30.6961 31.022 30.2874 30.8497C29.8837 30.6725 29.411 30.5149 28.8693 30.377L27.1484 29.9339C25.9027 29.6138 24.9179 29.1288 24.1941 28.4788C23.4752 27.824 23.1157 26.9549 23.1157 25.8716C23.1157 24.9804 23.357 24.1999 23.8395 23.5303C24.327 22.8606 24.9893 22.3412 25.8263 21.9719C26.6634 21.5977 27.6113 21.4105 28.6699 21.4105C29.7433 21.4105 30.6838 21.5977 31.4913 21.9719C32.3038 22.3412 32.9414 22.8557 33.4043 23.5155C33.8671 24.1704 34.1059 24.9238 34.1207 25.7756H31.4839ZM42.3172 25.3989V27.467H35.7954V25.3989H42.3172ZM37.4056 22.6809H40.0793V33.3314C40.0793 33.6908 40.1334 33.9666 40.2417 34.1586C40.355 34.3457 40.5027 34.4737 40.6849 34.5427C40.8671 34.6116 41.069 34.6461 41.2905 34.6461C41.458 34.6461 41.6106 34.6337 41.7485 34.6091C41.8913 34.5845 41.9996 34.5624 42.0734 34.5427L42.524 36.6329C42.3812 36.6821 42.1768 36.7363 41.911 36.7954C41.65 36.8544 41.3299 36.8889 40.9508 36.8988C40.2811 36.9185 39.678 36.8175 39.1412 36.5959C38.6045 36.3694 38.1786 36.0198 37.8635 35.5471C37.5533 35.0744 37.4006 34.4836 37.4056 33.7745V22.6809ZM44.5533 36.7437V25.3989H47.1457V27.2897H47.2639C47.4707 26.6348 47.8252 26.1301 48.3274 25.7756C48.8346 25.4162 49.4132 25.2364 50.0631 25.2364C50.2109 25.2364 50.3758 25.2438 50.558 25.2586C50.7451 25.2684 50.9002 25.2857 51.0233 25.3103V27.7698C50.91 27.7304 50.7303 27.6959 50.4841 27.6664C50.2429 27.6319 50.009 27.6147 49.7825 27.6147C49.295 27.6147 48.8568 27.7206 48.4678 27.9323C48.0837 28.1391 47.7809 28.4271 47.5593 28.7964C47.3377 29.1657 47.227 29.5916 47.227 30.0742V36.7437H44.5533ZM57.3549 36.9652C56.2174 36.9652 55.2351 36.7289 54.4079 36.2562C53.5856 35.7786 52.9529 35.104 52.5097 34.2324C52.0666 33.356 51.845 32.3244 51.845 31.1378C51.845 29.9708 52.0666 28.9466 52.5097 28.0652C52.9578 27.1789 53.5831 26.4896 54.3857 25.9972C55.1883 25.4999 56.1313 25.2512 57.2145 25.2512C57.9137 25.2512 58.5735 25.3645 59.1939 25.591C59.8193 25.8125 60.3708 26.1572 60.8484 26.625C61.3309 27.0928 61.7101 27.6886 61.9858 28.4124C62.2615 29.1313 62.3994 29.988 62.3994 30.9827V31.8025H53.1006V30.0003H59.8365C59.8316 29.4882 59.7208 29.0328 59.5041 28.6339C59.2875 28.2302 58.9847 27.9126 58.5957 27.6812C58.2116 27.4497 57.7635 27.334 57.2514 27.334C56.7049 27.334 56.2248 27.467 55.8112 27.7329C55.3976 27.9938 55.0751 28.3385 54.8436 28.7669C54.6171 29.1903 54.5014 29.6557 54.4965 30.1628V31.736C54.4965 32.3958 54.6171 32.9621 54.8584 33.4348C55.0997 33.9025 55.437 34.262 55.8703 34.5131C56.3036 34.7593 56.8108 34.8824 57.3918 34.8824C57.7808 34.8824 58.1328 34.8282 58.448 34.7199C58.7631 34.6067 59.0364 34.4417 59.2678 34.2251C59.4992 34.0084 59.674 33.7401 59.7922 33.42L62.2886 33.7007C62.1311 34.3605 61.8307 34.9366 61.3875 35.429C60.9493 35.9164 60.388 36.2956 59.7036 36.5664C59.0191 36.8323 58.2362 36.9652 57.3549 36.9652ZM70.3263 25.3989V27.467H63.8046V25.3989H70.3263ZM65.4147 22.6809L68.0884 22.6809V33.3314C68.0884 33.6908 68.1426 33.9666 68.2509 34.1586C68.3641 34.3457 68.5119 34.4737 68.694 34.5427C68.8762 34.6116 69.0781 34.6461 69.2997 34.6461C69.4671 34.6461 69.6197 34.6337 69.7576 34.6091C69.9004 34.5845 70.0087 34.5624 70.0826 34.5427L70.5331 36.6329C70.3903 36.6821 70.186 36.7363 69.9201 36.7954C69.6591 36.8544 69.3391 36.8889 68.9599 36.8988C68.2903 36.9185 67.6871 36.8175 67.1504 36.5959C66.6137 36.3694 66.1878 36.0198 65.8726 35.5471C65.5624 35.0744 65.4098 34.4836 65.4147 33.7745V22.6809ZM77.3891 36.9652C76.2566 36.9652 75.2841 36.7166 74.4716 36.2193C73.6641 35.7219 73.0412 35.035 72.603 34.1586C72.1697 33.2772 71.9531 32.2629 71.9531 31.1156C71.9531 29.9634 72.1746 28.9466 72.6178 28.0652C73.0609 27.1789 73.6863 26.4896 74.4938 25.9972C75.3063 25.4999 76.2664 25.2512 77.3743 25.2512C78.2951 25.2512 79.11 25.4211 79.819 25.7608C80.533 26.0957 81.1017 26.5708 81.5252 27.1863C81.9486 27.7969 82.1899 28.5108 82.249 29.3282H79.6935C79.5901 28.7817 79.3439 28.3262 78.9549 27.9618C78.5708 27.5925 78.0563 27.4079 77.4112 27.4079C76.8647 27.4079 76.3846 27.5556 75.971 27.851C75.5574 28.1416 75.2349 28.5601 75.0034 29.1066C74.7769 29.6532 74.6637 30.3081 74.6637 31.0713C74.6637 31.8443 74.7769 32.5091 75.0034 33.0655C75.2299 33.617 75.5475 34.0429 75.9562 34.3432C76.3698 34.6387 76.8548 34.7864 77.4112 34.7864C77.8051 34.7864 78.1572 34.7125 78.4674 34.5648C78.7825 34.4122 79.046 34.1931 79.2577 33.9075C79.4694 33.6219 79.6147 33.2747 79.6935 32.8661H82.249C82.185 33.6687 81.9486 34.3802 81.5399 35.0006C81.1313 35.6161 80.5749 36.0986 79.8707 36.4482C79.1666 36.7929 78.3394 36.9652 77.3891 36.9652ZM87.1181 30.0964V36.7437H84.4444V21.6174H87.0591V27.3266H87.192C87.4579 26.6865 87.869 26.1818 88.4254 25.8125C88.9868 25.4383 89.7007 25.2512 90.5673 25.2512C91.3552 25.2512 92.0421 25.4162 92.628 25.7461C93.214 26.076 93.667 26.5585 93.987 27.1937C94.312 27.8289 94.4745 28.6044 94.4745 29.5203V36.7437H91.8008V29.9339C91.8008 29.1707 91.6038 28.5773 91.2099 28.1539C90.8209 27.7255 90.2744 27.5113 89.5703 27.5113C89.0976 27.5113 88.6741 27.6147 88.2999 27.8215C87.9306 28.0234 87.6401 28.3164 87.4283 28.7004C87.2215 29.0845 87.1181 29.5498 87.1181 30.0964ZM97.1999 36.7437V25.3989H99.8736V36.7437H97.1999ZM98.5441 23.7888C98.1207 23.7888 97.7563 23.6485 97.451 23.3678C97.1457 23.0822 96.9931 22.74 96.9931 22.3412C96.9931 21.9374 97.1457 21.5952 97.451 21.3145C97.7563 21.0289 98.1207 20.8861 98.5441 20.8861C98.9725 20.8861 99.3369 21.0289 99.6372 21.3145C99.9425 21.5952 100.095 21.9374 100.095 22.3412C100.095 22.74 99.9425 23.0822 99.6372 23.3678C99.3369 23.6485 98.9725 23.7888 98.5441 23.7888ZM105.297 30.0964V36.7437H102.623V25.3989H105.178V27.3266H105.311C105.572 26.6915 105.988 26.1868 106.56 25.8125C107.136 25.4383 107.847 25.2512 108.694 25.2512C109.477 25.2512 110.159 25.4186 110.74 25.7534C111.326 26.0883 111.779 26.5733 112.099 27.2085C112.424 27.8437 112.584 28.6142 112.579 29.5203V36.7437H109.905V29.9339C109.905 29.1756 109.708 28.5822 109.315 28.1539C108.926 27.7255 108.386 27.5113 107.697 27.5113C107.229 27.5113 106.813 27.6147 106.449 27.8215C106.089 28.0234 105.806 28.3164 105.599 28.7004C105.398 29.0845 105.297 29.5498 105.297 30.0964ZM120.231 41.2343C119.271 41.2343 118.446 41.1038 117.757 40.8428C117.067 40.5868 116.513 40.2421 116.095 39.8088C115.676 39.3755 115.386 38.8954 115.223 38.3685L117.631 37.7851C117.739 38.0066 117.897 38.2258 118.104 38.4424C118.311 38.664 118.589 38.8462 118.938 38.989C119.293 39.1367 119.739 39.2105 120.275 39.2105C121.034 39.2105 121.661 39.0259 122.159 38.6566C122.656 38.2922 122.905 37.6915 122.905 36.8544V34.7051H122.772C122.634 34.9809 122.432 35.264 122.166 35.5545C121.905 35.845 121.558 36.0888 121.125 36.2857C120.696 36.4827 120.157 36.5812 119.507 36.5812C118.636 36.5812 117.845 36.3768 117.136 35.9681C116.432 35.5545 115.871 34.939 115.452 34.1217C115.039 33.2994 114.832 32.2703 114.832 31.0344C114.832 29.7886 115.039 28.7373 115.452 27.8806C115.871 27.0189 116.435 26.3665 117.144 25.9233C117.853 25.4752 118.643 25.2512 119.514 25.2512C120.179 25.2512 120.726 25.3645 121.154 25.591C121.587 25.8125 121.932 26.0809 122.188 26.396C122.444 26.7062 122.639 26.9992 122.772 27.2749H122.919V25.3989H125.556V36.9283C125.556 37.8983 125.325 38.7009 124.862 39.3361C124.399 39.9713 123.766 40.4464 122.964 40.7616C122.161 41.0767 121.25 41.2343 120.231 41.2343ZM120.253 34.4836C120.819 34.4836 121.302 34.3457 121.701 34.07C122.1 33.7942 122.402 33.3978 122.609 32.8808C122.816 32.3638 122.919 31.7434 122.919 31.0196C122.919 30.3056 122.816 29.6803 122.609 29.1436C122.407 28.6069 122.107 28.1908 121.708 27.8954C121.314 27.595 120.829 27.4448 120.253 27.4448C119.657 27.4448 119.16 27.5999 118.761 27.9101C118.362 28.2203 118.062 28.6463 117.86 29.1879C117.658 29.7246 117.557 30.3352 117.557 31.0196C117.557 31.7139 117.658 32.322 117.86 32.8439C118.067 33.3609 118.37 33.7647 118.769 34.0552C119.172 34.3408 119.667 34.4836 120.253 34.4836ZM133.574 36.7437V21.6174H143.412V23.9144H136.314V28.0209H142.902V30.3179H136.314V34.4466H143.471V36.7437H133.574ZM148.275 25.3989L150.565 29.5867L152.891 25.3989H155.72L152.3 31.0713L155.779 36.7437H152.965L150.565 32.6593L148.187 36.7437H145.35L148.807 31.0713L145.439 25.3989H148.275ZM162.384 36.9652C161.247 36.9652 160.264 36.7289 159.437 36.2562C158.615 35.7786 157.982 35.104 157.539 34.2324C157.096 33.356 156.874 32.3244 156.874 31.1378C156.874 29.9708 157.096 28.9466 157.539 28.0652C157.987 27.1789 158.612 26.4896 159.415 25.9972C160.218 25.4999 161.16 25.2512 162.244 25.2512C162.943 25.2512 163.603 25.3645 164.223 25.591C164.848 25.8125 165.4 26.1572 165.878 26.625C166.36 27.0928 166.739 27.6886 167.015 28.4124C167.291 29.1313 167.429 29.988 167.429 30.9827V31.8025H158.13V30.0003H164.866C164.861 29.4882 164.75 29.0328 164.533 28.6339C164.317 28.2302 164.014 27.9126 163.625 27.6812C163.241 27.4497 162.793 27.334 162.281 27.334C161.734 27.334 161.254 27.467 160.84 27.7329C160.427 27.9938 160.104 28.3385 159.873 28.7669C159.646 29.1903 159.531 29.6557 159.526 30.1628V31.736C159.526 32.3958 159.646 32.9621 159.888 33.4348C160.129 33.9025 160.466 34.262 160.899 34.5131C161.333 34.7593 161.84 34.8824 162.421 34.8824C162.81 34.8824 163.162 34.8282 163.477 34.7199C163.792 34.6067 164.066 34.4417 164.297 34.2251C164.528 34.0084 164.703 33.7401 164.821 33.42L167.318 33.7007C167.16 34.3605 166.86 34.9366 166.417 35.429C165.979 35.9164 165.417 36.2956 164.733 36.5664C164.048 36.8323 163.265 36.9652 162.384 36.9652ZM169.691 36.7437V25.3989H172.283V27.2897H172.401C172.608 26.6348 172.962 26.1301 173.465 25.7756C173.972 25.4162 174.55 25.2364 175.2 25.2364C175.348 25.2364 175.513 25.2438 175.695 25.2586C175.882 25.2684 176.037 25.2857 176.161 25.3103V27.7698C176.047 27.7304 175.868 27.6959 175.621 27.6664C175.38 27.6319 175.146 27.6147 174.92 27.6147C174.432 27.6147 173.994 27.7206 173.605 27.9323C173.221 28.1391 172.918 28.4271 172.697 28.7964C172.475 29.1657 172.364 29.5916 172.364 30.0742V36.7437H169.691ZM182.418 36.9652C181.286 36.9652 180.313 36.7166 179.501 36.2193C178.693 35.7219 178.07 35.035 177.632 34.1586C177.199 33.2772 176.982 32.2629 176.982 31.1156C176.982 29.9634 177.204 28.9466 177.647 28.0652C178.09 27.1789 178.715 26.4896 179.523 25.9972C180.335 25.4999 181.296 25.2512 182.403 25.2512C183.324 25.2512 184.139 25.4211 184.848 25.7608C185.562 26.0957 186.131 26.5708 186.554 27.1863C186.978 27.7969 187.219 28.5108 187.278 29.3282H184.723C184.619 28.7817 184.373 28.3262 183.984 27.9618C183.6 27.5925 183.085 27.4079 182.44 27.4079C181.894 27.4079 181.414 27.5556 181 27.851C180.587 28.1416 180.264 28.5601 180.033 29.1066C179.806 29.6532 179.693 30.3081 179.693 31.0713C179.693 31.8443 179.806 32.5091 180.033 33.0655C180.259 33.617 180.577 34.0429 180.985 34.3432C181.399 34.6387 181.884 34.7864 182.44 34.7864C182.834 34.7864 183.186 34.7125 183.497 34.5648C183.812 34.4122 184.075 34.1931 184.287 33.9075C184.499 33.6219 184.644 33.2747 184.723 32.8661H187.278C187.214 33.6687 186.978 34.3802 186.569 35.0006C186.16 35.6161 185.604 36.0986 184.9 36.4482C184.196 36.7929 183.369 36.9652 182.418 36.9652ZM189.474 36.7437V25.3989H192.147V36.7437H189.474ZM190.818 23.7888C190.394 23.7888 190.03 23.6485 189.725 23.3678C189.419 23.0822 189.267 22.74 189.267 22.3412C189.267 21.9374 189.419 21.5952 189.725 21.3145C190.03 21.0289 190.394 20.8861 190.818 20.8861C191.246 20.8861 191.611 21.0289 191.911 21.3145C192.216 21.5952 192.369 21.9374 192.369 22.3412C192.369 22.74 192.216 23.0822 191.911 23.3678C191.611 23.6485 191.246 23.7888 190.818 23.7888ZM203.863 28.3976L201.426 28.6635C201.357 28.4173 201.236 28.1859 201.064 27.9692C200.897 27.7526 200.67 27.5778 200.384 27.4448C200.099 27.3119 199.749 27.2454 199.336 27.2454C198.779 27.2454 198.311 27.366 197.932 27.6073C197.558 27.8486 197.373 28.1612 197.378 28.5453C197.373 28.8752 197.494 29.1436 197.74 29.3504C197.991 29.5572 198.405 29.7271 198.981 29.86L200.916 30.2736C201.99 30.505 202.787 30.8719 203.309 31.3741C203.836 31.8764 204.102 32.5337 204.107 33.3461C204.102 34.0601 203.893 34.6904 203.479 35.2369C203.07 35.7786 202.502 36.202 201.773 36.5073C201.044 36.8126 200.207 36.9652 199.262 36.9652C197.873 36.9652 196.756 36.6747 195.909 36.0937C195.062 35.5077 194.557 34.6928 194.394 33.649L197.002 33.3978C197.12 33.9099 197.371 34.2965 197.755 34.5574C198.139 34.8184 198.639 34.9489 199.254 34.9489C199.89 34.9489 200.399 34.8184 200.783 34.5574C201.172 34.2965 201.367 33.9739 201.367 33.5899C201.367 33.2649 201.241 32.9965 200.99 32.7848C200.744 32.5731 200.36 32.4106 199.838 32.2973L197.903 31.8911C196.815 31.6646 196.01 31.283 195.488 30.7463C194.966 30.2047 194.707 29.5203 194.712 28.693C194.707 27.9938 194.897 27.3882 195.281 26.8761C195.67 26.3591 196.209 25.9603 196.898 25.6796C197.593 25.394 198.393 25.2512 199.299 25.2512C200.628 25.2512 201.675 25.5343 202.438 26.1006C203.206 26.6668 203.681 27.4325 203.863 28.3976ZM211.334 36.9652C210.197 36.9652 209.214 36.7289 208.387 36.2562C207.565 35.7786 206.932 35.104 206.489 34.2324C206.046 33.356 205.824 32.3244 205.824 31.1378C205.824 29.9708 206.046 28.9466 206.489 28.0652C206.937 27.1789 207.562 26.4896 208.365 25.9972C209.168 25.4999 210.11 25.2512 211.194 25.2512C211.893 25.2512 212.553 25.3645 213.173 25.591C213.798 25.8125 214.35 26.1572 214.828 26.625C215.31 27.0928 215.689 27.6886 215.965 28.4124C216.241 29.1313 216.379 29.988 216.379 30.9827V31.8025H207.08V30.0003H213.816C213.811 29.4882 213.7 29.0328 213.483 28.6339C213.267 28.2302 212.964 27.9126 212.575 27.6812C212.191 27.4497 211.743 27.334 211.231 27.334C210.684 27.334 210.204 27.467 209.79 27.7329C209.377 27.9938 209.054 28.3385 208.823 28.7669C208.596 29.1903 208.481 29.6557 208.476 30.1628V31.736C208.476 32.3958 208.596 32.9621 208.838 33.4348C209.079 33.9025 209.416 34.262 209.849 34.5131C210.283 34.7593 210.79 34.8824 211.371 34.8824C211.76 34.8824 212.112 34.8282 212.427 34.7199C212.742 34.6067 213.016 34.4417 213.247 34.2251C213.478 34.0084 213.653 33.7401 213.771 33.42L216.268 33.7007C216.11 34.3605 215.81 34.9366 215.367 35.429C214.928 35.9164 214.367 36.2956 213.683 36.5664C212.998 36.8323 212.215 36.9652 211.334 36.9652ZM227.607 28.3976L225.17 28.6635C225.101 28.4173 224.98 28.1859 224.808 27.9692C224.64 27.7526 224.414 27.5778 224.128 27.4448C223.843 27.3119 223.493 27.2454 223.079 27.2454C222.523 27.2454 222.055 27.366 221.676 27.6073C221.302 27.8486 221.117 28.1612 221.122 28.5453C221.117 28.8752 221.238 29.1436 221.484 29.3504C221.735 29.5572 222.149 29.7271 222.725 29.86L224.66 30.2736C225.733 30.505 226.531 30.8719 227.053 31.3741C227.58 31.8764 227.846 32.5337 227.851 33.3461C227.846 34.0601 227.637 34.6904 227.223 35.2369C226.814 35.7786 226.246 36.202 225.517 36.5073C224.788 36.8126 223.951 36.9652 223.006 36.9652C221.617 36.9652 220.499 36.6747 219.652 36.0937C218.805 35.5077 218.301 34.6928 218.138 33.649L220.745 33.3978C220.864 33.9099 221.115 34.2965 221.499 34.5574C221.883 34.8184 222.383 34.9489 222.998 34.9489C223.633 34.9489 224.143 34.8184 224.527 34.5574C224.916 34.2965 225.111 33.9739 225.111 33.5899C225.111 33.2649 224.985 32.9965 224.734 32.7848C224.488 32.5731 224.104 32.4106 223.582 32.2973L221.647 31.8911C220.558 31.6646 219.753 31.283 219.231 30.7463C218.709 30.2047 218.451 29.5203 218.456 28.693C218.451 27.9938 218.641 27.3882 219.025 26.8761C219.414 26.3591 219.953 25.9603 220.642 25.6796C221.336 25.394 222.137 25.2512 223.043 25.2512C224.372 25.2512 225.418 25.5343 226.182 26.1006C226.95 26.6668 227.425 27.4325 227.607 28.3976Z" fill="black"/>
<rect x="21.7715" y="53.6904" width="83.1947" height="32.84" rx="16.42" fill="#66E4FE"/>
<path d="M41.8432 77.2954C40.9708 77.2954 40.1933 77.1456 39.5104 76.846C38.8319 76.5464 38.2922 76.1301 37.8913 75.597C37.4948 75.0595 37.2789 74.4361 37.2437 73.7268H38.909C38.9443 74.163 39.0941 74.5397 39.3584 74.8569C39.6227 75.1697 39.9686 75.412 40.3959 75.5838C40.8233 75.7556 41.2969 75.8415 41.8167 75.8415C42.3983 75.8415 42.9137 75.7402 43.3631 75.5375C43.8125 75.3349 44.1649 75.0529 44.4204 74.6917C44.676 74.3304 44.8037 73.9119 44.8037 73.4361C44.8037 72.9382 44.6804 72.4999 44.4337 72.121C44.1869 71.7377 43.8257 71.4381 43.3499 71.2222C42.8741 71.0064 42.2925 70.8984 41.6053 70.8984H40.5215V69.4446H41.6053C42.1427 69.4446 42.6141 69.3477 43.0195 69.1538C43.4292 68.96 43.7486 68.6868 43.9777 68.3344C44.2112 67.9819 44.3279 67.5678 44.3279 67.092C44.3279 66.6338 44.2266 66.2351 44.0239 65.8959C43.8213 65.5566 43.5349 65.2923 43.1648 65.1028C42.7992 64.9134 42.3674 64.8187 41.8696 64.8187C41.4026 64.8187 40.962 64.9046 40.5479 65.0764C40.1382 65.2438 39.8034 65.4883 39.5434 65.8099C39.2835 66.1271 39.1425 66.5104 39.1205 66.9598H37.5345C37.5609 66.2505 37.7746 65.6293 38.1755 65.0962C38.5764 64.5587 39.1007 64.1402 39.7483 63.8406C40.4003 63.541 41.1162 63.3913 41.896 63.3913C42.7331 63.3913 43.4512 63.5609 44.0504 63.9001C44.6495 64.2349 45.1099 64.6777 45.4315 65.2284C45.7531 65.7791 45.9139 66.3739 45.9139 67.0127C45.9139 67.7748 45.7135 68.4247 45.3126 68.9622C44.9161 69.4996 44.3764 69.8719 43.6935 70.079V70.1847C44.5482 70.3257 45.2157 70.6892 45.6959 71.2751C46.1761 71.8567 46.4162 72.577 46.4162 73.4361C46.4162 74.1718 46.2157 74.8326 45.8148 75.4186C45.4183 76.0001 44.8764 76.4583 44.1892 76.7931C43.5019 77.128 42.7199 77.2954 41.8432 77.2954ZM53.5335 77.2954C52.5378 77.2954 51.6897 77.0244 50.9892 76.4826C50.2887 75.9363 49.7534 75.1454 49.3834 74.1101C49.0133 73.0704 48.8283 71.8148 48.8283 70.3433C48.8283 68.8807 49.0133 67.6317 49.3834 66.5963C49.7579 65.5566 50.2953 64.7636 50.9958 64.2173C51.7007 63.6666 52.5466 63.3913 53.5335 63.3913C54.5203 63.3913 55.364 63.6666 56.0645 64.2173C56.7694 64.7636 57.3069 65.5566 57.6769 66.5963C58.0514 67.6317 58.2387 68.8807 58.2387 70.3433C58.2387 71.8148 58.0536 73.0704 57.6836 74.1101C57.3135 75.1454 56.7782 75.9363 56.0777 76.4826C55.3772 77.0244 54.5291 77.2954 53.5335 77.2954ZM53.5335 75.8415C54.5203 75.8415 55.2869 75.3657 55.8332 74.4141C56.3795 73.4625 56.6526 72.1056 56.6526 70.3433C56.6526 69.1714 56.5271 68.1736 56.276 67.3497C56.0292 66.5259 55.6724 65.8981 55.2054 65.4663C54.7428 65.0346 54.1855 64.8187 53.5335 64.8187C52.5554 64.8187 51.791 65.3011 51.2403 66.2659C50.6896 67.2263 50.4143 68.5855 50.4143 70.3433C50.4143 71.5152 50.5376 72.5109 50.7844 73.3303C51.0311 74.1498 51.3857 74.7732 51.8483 75.2005C52.3153 75.6279 52.877 75.8415 53.5335 75.8415ZM60.7763 77.1104V66.9598H62.283V68.5458H62.4152C62.6267 68.0039 62.9681 67.5832 63.4395 67.2836C63.9109 66.9796 64.477 66.8276 65.1379 66.8276C65.8075 66.8276 66.3648 66.9796 66.8098 67.2836C67.2592 67.5832 67.6094 68.0039 67.8605 68.5458H67.9663C68.2262 68.0216 68.6161 67.6052 69.136 67.2968C69.6558 66.984 70.2792 66.8276 71.0061 66.8276C71.9137 66.8276 72.656 67.1118 73.2332 67.6801C73.8103 68.244 74.0989 69.123 74.0989 70.3169V77.1104H72.5393V70.3169C72.5393 69.5679 72.3344 69.0327 71.9247 68.711C71.515 68.3894 71.0326 68.2286 70.4775 68.2286C69.7638 68.2286 69.2109 68.4445 68.8188 68.8763C68.4267 69.3036 68.2306 69.8455 68.2306 70.5019V77.1104H66.6446V70.1583C66.6446 69.5812 66.4573 69.1164 66.0829 68.7639C65.7084 68.4071 65.226 68.2286 64.6356 68.2286C64.2303 68.2286 63.8514 68.3366 63.499 68.5524C63.1509 68.7683 62.869 69.0679 62.6531 69.4512C62.4416 69.8301 62.3359 70.2684 62.3359 70.7663V77.1104H60.7763ZM76.9504 77.1104V66.9598H78.51V77.1104H76.9504ZM77.7434 65.2681C77.4394 65.2681 77.1773 65.1645 76.957 64.9575C76.7412 64.7504 76.6332 64.5015 76.6332 64.2107C76.6332 63.9199 76.7412 63.671 76.957 63.464C77.1773 63.2569 77.4394 63.1534 77.7434 63.1534C78.0474 63.1534 78.3074 63.2569 78.5232 63.464C78.7435 63.671 78.8536 63.9199 78.8536 64.2107C78.8536 64.5015 78.7435 64.7504 78.5232 64.9575C78.3074 65.1645 78.0474 65.2681 77.7434 65.2681ZM82.9261 71.0042V77.1104H81.3665V66.9598H82.8732V68.5458H83.0054C83.2433 68.0304 83.6046 67.6162 84.0892 67.3034C84.5738 66.9862 85.1994 66.8276 85.966 66.8276C86.6532 66.8276 87.2546 66.9686 87.7701 67.2506C88.2855 67.5281 88.6864 67.9511 88.9728 68.5194C89.2592 69.0833 89.4024 69.797 89.4024 70.6605V77.1104H87.8428V70.7663C87.8428 69.9688 87.6357 69.3477 87.2216 68.9027C86.8074 68.4533 86.2391 68.2286 85.5166 68.2286C85.0188 68.2286 84.5738 68.3366 84.1817 68.5524C83.794 68.7683 83.4878 69.0833 83.2631 69.4974C83.0384 69.9116 82.9261 70.4138 82.9261 71.0042Z" fill="black"/>
<path d="M282.763 30.6343L282.763 54.394L279.166 54.394L279.166 34.2307L279.027 34.2307L273.342 37.9432L273.342 34.5092L279.271 30.6343L282.763 30.6343ZM297.462 54.7885C295.629 54.7808 294.063 54.2974 292.763 53.3383C291.464 52.3793 290.47 50.9832 289.782 49.1502C289.093 47.3172 288.749 45.109 288.749 42.5258C288.749 39.9502 289.093 37.7498 289.782 35.9245C290.478 34.0992 291.475 32.7071 292.775 31.748C294.082 30.789 295.644 30.3094 297.462 30.3094C299.279 30.3094 300.838 30.7928 302.137 31.7596C303.436 32.7187 304.43 34.1108 305.119 35.9361C305.815 37.7537 306.163 39.9502 306.163 42.5258C306.163 45.1168 305.819 47.3288 305.13 49.1618C304.442 50.9871 303.448 52.3831 302.149 53.3499C300.849 54.309 299.287 54.7885 297.462 54.7885ZM297.462 51.6909C299.07 51.6909 300.327 50.9059 301.232 49.3358C302.145 47.7657 302.601 45.4957 302.601 42.5258C302.601 40.5535 302.392 38.8868 301.975 37.5255C301.565 36.1566 300.973 35.1202 300.2 34.4164C299.434 33.7048 298.521 33.349 297.462 33.349C295.861 33.349 294.604 34.1379 293.691 35.7157C292.779 37.2935 292.318 39.5635 292.311 42.5258C292.311 44.5057 292.516 46.1802 292.926 47.5492C293.343 48.9104 293.935 49.943 294.701 50.6468C295.466 51.3429 296.387 51.6909 297.462 51.6909ZM318.307 54.7189C316.644 54.7189 315.174 54.4327 313.898 53.8604C312.63 53.288 311.636 52.4991 310.917 51.4937C310.197 50.4882 309.841 49.3435 309.849 48.0597C309.841 47.0542 310.046 46.1299 310.464 45.2869C310.889 44.4361 311.466 43.7284 312.193 43.1638C312.92 42.5915 313.732 42.228 314.629 42.0733L314.629 41.9341C313.446 41.6479 312.498 41.0137 311.787 40.0315C311.075 39.0492 310.723 37.92 310.731 36.6438C310.723 35.4295 311.044 34.3467 311.694 33.3954C312.351 32.4364 313.252 31.6823 314.397 31.1331C315.542 30.584 316.845 30.3094 318.307 30.3094C319.753 30.3094 321.045 30.5879 322.182 31.1447C323.326 31.6939 324.227 32.448 324.885 33.407C325.542 34.3583 325.875 35.4373 325.882 36.6438C325.875 37.92 325.511 39.0492 324.792 40.0315C324.073 41.0137 323.137 41.6479 321.984 41.9341L321.984 42.0733C322.874 42.228 323.674 42.5915 324.386 43.1638C325.105 43.7284 325.677 44.4361 326.103 45.2869C326.536 46.1299 326.756 47.0542 326.764 48.0597C326.756 49.3435 326.393 50.4882 325.674 51.4937C324.954 52.4991 323.957 53.288 322.68 53.8604C321.412 54.4327 319.954 54.7189 318.307 54.7189ZM318.307 51.7837C319.289 51.7837 320.14 51.6213 320.859 51.2965C321.578 50.9639 322.135 50.5037 322.53 49.9159C322.924 49.3203 323.125 48.6243 323.133 47.8276C323.125 47.0001 322.909 46.2692 322.483 45.6349C322.065 45.0007 321.497 44.5019 320.778 44.1384C320.058 43.7749 319.235 43.5931 318.307 43.5931C317.371 43.5931 316.539 43.7749 315.812 44.1384C315.085 44.5019 314.513 45.0007 314.095 45.6349C313.678 46.2692 313.473 47.0001 313.48 47.8276C313.473 48.6243 313.662 49.3203 314.049 49.9159C314.443 50.5037 315.004 50.9639 315.731 51.2965C316.458 51.6213 317.317 51.7837 318.307 51.7837ZM318.307 40.7275C319.096 40.7275 319.795 40.569 320.406 40.2519C321.017 39.9348 321.497 39.4939 321.845 38.9293C322.201 38.3647 322.383 37.7034 322.39 36.9455C322.383 36.203 322.205 35.5533 321.857 34.9964C321.516 34.4396 321.041 34.0103 320.43 33.7087C319.819 33.3993 319.111 33.2446 318.307 33.2446C317.487 33.2446 316.768 33.3993 316.149 33.7087C315.538 34.0103 315.062 34.4396 314.722 34.9964C314.381 35.5533 314.215 36.203 314.223 36.9455C314.215 37.7034 314.385 38.3647 314.733 38.9293C315.081 39.4939 315.561 39.9348 316.172 40.2519C316.791 40.569 317.502 40.7275 318.307 40.7275Z" fill="#030606"/>
<path d="M277.57 76.8794L277.57 68.4177L279.151 68.4177L279.151 69.7949L279.256 69.7949C279.432 69.3285 279.721 68.9649 280.121 68.7042C280.521 68.4397 281 68.3075 281.559 68.3075C282.124 68.3075 282.598 68.4397 282.98 68.7042C283.366 68.9686 283.65 69.3322 283.834 69.7949L283.922 69.7949C284.124 69.3432 284.445 68.9833 284.886 68.7152C285.327 68.4434 285.852 68.3075 286.462 68.3075C287.229 68.3075 287.855 68.5481 288.34 69.0292C288.829 69.5103 289.073 70.2356 289.073 71.2052L289.073 76.8794L287.426 76.8794L287.426 71.3595C287.426 70.7865 287.27 70.3715 286.957 70.1144C286.645 69.8574 286.272 69.7288 285.839 69.7288C285.303 69.7288 284.886 69.8941 284.589 70.2246C284.291 70.5515 284.142 70.972 284.142 71.4862L284.142 76.8794L282.501 76.8794L282.501 71.2548C282.501 70.7957 282.357 70.4266 282.071 70.1475C281.785 69.8684 281.412 69.7288 280.953 69.7288C280.64 69.7288 280.352 69.8114 280.088 69.9767C279.827 70.1383 279.616 70.3642 279.454 70.6543C279.296 70.9444 279.217 71.2805 279.217 71.6624L279.217 76.8794L277.57 76.8794ZM294.828 80.2288C294.156 80.2288 293.578 80.1407 293.093 79.9644C292.612 79.7881 292.219 79.5549 291.914 79.2648C291.609 78.9746 291.382 78.6569 291.231 78.3117L292.647 77.7278C292.746 77.8894 292.878 78.0601 293.043 78.2401C293.212 78.4237 293.44 78.5798 293.726 78.7084C294.017 78.8369 294.389 78.9012 294.845 78.9012C295.469 78.9012 295.985 78.7488 296.393 78.4439C296.8 78.1428 297.004 77.6617 297.004 77.0006L297.004 75.3369L296.9 75.3369C296.8 75.5169 296.657 75.717 296.47 75.9374C296.286 76.1577 296.033 76.3487 295.71 76.5103C295.387 76.6719 294.966 76.7527 294.448 76.7527C293.78 76.7527 293.177 76.5966 292.641 76.2844C292.109 75.9686 291.686 75.504 291.374 74.8907C291.066 74.2737 290.911 73.5153 290.911 72.6155C290.911 71.7157 291.064 70.9444 291.369 70.3017C291.677 69.659 292.1 69.1669 292.636 68.8253C293.172 68.4801 293.78 68.3075 294.459 68.3075C294.984 68.3075 295.409 68.3957 295.732 68.5719C296.055 68.7446 296.306 68.9465 296.486 69.1779C296.67 69.4093 296.811 69.6131 296.911 69.7894L297.032 69.7894L297.032 68.4177L298.646 68.4177L298.646 77.0667C298.646 77.7939 298.477 78.3907 298.139 78.8571C297.801 79.3235 297.344 79.6687 296.767 79.8928C296.194 80.1168 295.548 80.2288 294.828 80.2288ZM294.812 75.3865C295.286 75.3865 295.686 75.2763 296.013 75.0559C296.343 74.8319 296.593 74.5124 296.762 74.0974C296.935 73.6787 297.021 73.1774 297.021 72.5935C297.021 72.0242 296.936 71.5229 296.767 71.0895C296.598 70.6561 296.351 70.3183 296.024 70.0759C295.697 69.8298 295.293 69.7068 294.812 69.7068C294.316 69.7068 293.903 69.8353 293.572 70.0924C293.242 70.3458 292.992 70.691 292.823 71.1281C292.658 71.5651 292.575 72.0536 292.575 72.5935C292.575 73.148 292.66 73.6346 292.829 74.0533C292.997 74.472 293.247 74.7989 293.578 75.0339C293.912 75.269 294.323 75.3865 294.812 75.3865ZM305.152 65.0683L301.516 78.5761L300.045 78.5761L303.681 65.0683L305.152 65.0683ZM309.719 77.0447C309.036 77.0447 308.426 76.8702 307.89 76.5213C307.357 76.1687 306.939 75.6674 306.634 75.0174C306.333 74.3637 306.182 73.5795 306.182 72.6651C306.182 71.7506 306.335 70.9683 306.639 70.3183C306.948 69.6682 307.37 69.1706 307.906 68.8253C308.443 68.4801 309.05 68.3075 309.73 68.3075C310.255 68.3075 310.677 68.3957 310.997 68.5719C311.32 68.7446 311.57 68.9465 311.746 69.1779C311.926 69.4093 312.066 69.6131 312.165 69.7894L312.264 69.7894L312.264 65.5971L313.911 65.5971L313.911 76.8794L312.303 76.8794L312.303 75.5628L312.165 75.5628C312.066 75.7427 311.922 75.9484 311.735 76.1798C311.552 76.4111 311.298 76.6131 310.975 76.7857C310.652 76.9584 310.233 77.0447 309.719 77.0447ZM310.082 75.6399C310.556 75.6399 310.957 75.515 311.283 75.2653C311.614 75.0119 311.864 74.6611 312.033 74.2131C312.205 73.765 312.292 73.2435 312.292 72.6485C312.292 72.0609 312.207 71.5468 312.038 71.106C311.869 70.6653 311.621 70.3219 311.294 70.0759C310.968 69.8298 310.564 69.7068 310.082 69.7068C309.587 69.7068 309.173 69.8353 308.843 70.0924C308.512 70.3495 308.263 70.7002 308.094 71.1446C307.928 71.589 307.846 72.0903 307.846 72.6485C307.846 73.2141 307.93 73.7228 308.099 74.1745C308.268 74.6262 308.518 74.9843 308.848 75.2488C309.183 75.5095 309.594 75.6399 310.082 75.6399ZM316.394 76.8794L316.394 65.5971L318.097 65.5971L318.097 75.414L323.209 75.414L323.209 76.8794L316.394 76.8794Z" fill="#030606"/>
</svg>
