<svg width="20" height="21" viewBox="0 0 20 21" fill="none" xmlns="http://www.w3.org/2000/svg">
<path d="M5.75 1.5C5.75 1.08579 5.41421 0.75 5 0.75C4.58579 0.75 4.25 1.08579 4.25 1.5V3.07926C2.81067 3.19451 1.86577 3.47737 1.17157 4.17157C0.477374 4.86577 0.194513 5.81067 0.0792572 7.25H19.9207C19.8055 5.81067 19.5226 4.86577 18.8284 4.17157C18.1342 3.47737 17.1893 3.19451 15.75 3.07926V1.5C15.75 1.08579 15.4142 0.75 15 0.75C14.5858 0.75 14.25 1.08579 14.25 1.5V3.0129C13.5847 3 12.839 3 12 3H8C7.16097 3 6.41527 3 5.75 3.0129V1.5Z" fill="#66E4FE"/>
<path fill-rule="evenodd" clip-rule="evenodd" d="M0 11C0 10.161 0 9.41527 0.012902 8.75H19.9871C20 9.41527 20 10.161 20 11V13C20 16.7712 20 18.6569 18.8284 19.8284C17.6569 21 15.7712 21 12 21H8C4.22876 21 2.34315 21 1.17157 19.8284C0 18.6569 0 16.7712 0 13V11ZM15 13C15.5523 13 16 12.5523 16 12C16 11.4477 15.5523 11 15 11C14.4477 11 14 11.4477 14 12C14 12.5523 14.4477 13 15 13ZM15 17C15.5523 17 16 16.5523 16 16C16 15.4477 15.5523 15 15 15C14.4477 15 14 15.4477 14 16C14 16.5523 14.4477 17 15 17ZM11 12C11 12.5523 10.5523 13 10 13C9.44771 13 9 12.5523 9 12C9 11.4477 9.44771 11 10 11C10.5523 11 11 11.4477 11 12ZM11 16C11 16.5523 10.5523 17 10 17C9.44771 17 9 16.5523 9 16C9 15.4477 9.44771 15 10 15C10.5523 15 11 15.4477 11 16ZM5 13C5.55228 13 6 12.5523 6 12C6 11.4477 5.55228 11 5 11C4.44772 11 4 11.4477 4 12C4 12.5523 4.44772 13 5 13ZM5 17C5.55228 17 6 16.5523 6 16C6 15.4477 5.55228 15 5 15C4.44772 15 4 15.4477 4 16C4 16.5523 4.44772 17 5 17Z" fill="#66E4FE"/>
</svg>
