<svg width="38" height="38" viewBox="0 0 38 38" fill="none" xmlns="http://www.w3.org/2000/svg">
<path d="M14.6721 20.2733C11.3917 23.5537 6.07311 23.5537 2.79271 20.2733C1.5099 18.9905 0.728739 17.396 0.449219 15.7336H17.0156C16.7361 17.396 15.9549 18.9905 14.6721 20.2733Z" fill="#66E4FE"/>
<path d="M17.0156 12.9336H0.449219C0.728739 11.2712 1.5099 9.6767 2.79271 8.3939C6.07311 5.11349 11.3917 5.11349 14.6721 8.3939C15.9549 9.6767 16.7361 11.2712 17.0156 12.9336Z" fill="#66E4FE"/>
<path d="M24.1476 9.89183C26.3345 12.0788 29.8803 12.0788 32.0672 9.89183C33.1607 8.79836 33.7074 7.3652 33.7074 5.93203C33.7074 4.49887 33.1607 3.0657 32.0672 1.97223C29.8803 -0.214703 26.3345 -0.214703 24.1476 1.97223C23.0541 3.0657 22.5074 4.49887 22.5074 5.93203C22.5074 7.3652 23.0541 8.79836 24.1476 9.89183Z" fill="#66E4FE"/>
<path d="M35.6225 19.1765C38.3474 21.9013 38.3474 26.3192 35.6225 29.0441L33.7048 30.9618L33.7059 30.9562L32.3396 30.693C32.3319 30.6913 32.3126 30.6869 32.2858 30.6801C32.2322 30.6666 32.1418 30.6421 32.019 30.6029C31.7735 30.5245 31.3991 30.3875 30.9318 30.1623C29.9988 29.7127 28.6898 28.9091 27.2902 27.5094C25.8905 26.1097 25.0868 24.8006 24.637 23.8675C24.4117 23.4001 24.2747 23.0256 24.1962 22.78C24.157 22.6573 24.1325 22.5668 24.1189 22.5132C24.1122 22.4864 24.1082 22.4688 24.1064 22.4611L23.8427 21.0931L23.8372 21.0942L25.7549 19.1765C28.4797 16.4516 32.8976 16.4516 35.6225 19.1765Z" fill="#66E4FE"/>
<path d="M21.475 23.4564C21.491 23.5106 21.5089 23.5693 21.529 23.632C21.6441 23.9923 21.8284 24.4891 22.1147 25.0831C22.688 26.2727 23.6679 27.8469 25.3103 29.4893C26.9527 31.1317 28.5268 32.1115 29.7163 32.6847C30.3102 32.9709 30.807 33.1552 31.1673 33.2702C31.2299 33.2902 31.2883 33.3081 31.3425 33.3241L29.0441 35.6225C26.3192 38.3474 21.9013 38.3474 19.1765 35.6225C16.4516 32.8976 16.4516 28.4797 19.1765 25.7549L21.475 23.4564Z" fill="#66E4FE"/>
</svg>
