<svg width="158" height="160" viewBox="0 0 158 160" fill="none" xmlns="http://www.w3.org/2000/svg">
<path d="M78.8925 159.346V29.0762H10.3558C4.79449 29.0762 0.433363 33.851 0.936039 39.3896L10.8293 148.396C11.3921 154.597 16.5913 159.346 22.8181 159.346H78.8925Z" fill="#66E4FE" fill-opacity="0.2"/>
<path d="M78.1075 159.346V29.0762H146.644C152.206 29.0762 156.567 33.851 156.064 39.3896L146.171 148.396C145.608 154.597 140.409 159.346 134.182 159.346H78.1075Z" fill="#1B3D44"/>
<path d="M24.6345 142.547L17.1973 65.9022C17.1973 64.5963 18.2559 63.5376 19.5619 63.5376H28.1605C28.8555 63.4797 29.4973 63.461 30.0896 63.4753C35.2625 63.6003 38.1252 69.2054 41.6942 72.952C43.2354 74.5698 44.7133 75.9811 46.0701 77.1858C50.038 80.7087 55.4525 81.8924 59.982 84.6561C63.7845 86.9763 64.9197 90.006 64.9197 91.6982L65.71 141.287C65.7482 143.688 63.8124 145.655 61.4112 145.655H28.0579C26.287 145.655 24.8056 144.31 24.6345 142.547Z" fill="white" fill-opacity="0.09"/>
<rect x="30.5254" y="90.5566" width="12.898" height="2.14966" rx="1.07483" fill="#66E4FE"/>
<rect x="30.5254" y="97.4355" width="25.7959" height="2.14966" rx="1.07483" fill="white" fill-opacity="0.1"/>
<rect x="30.5254" y="104.314" width="25.7959" height="2.14966" rx="1.07483" fill="white" fill-opacity="0.1"/>
<rect x="30.5254" y="111.193" width="25.7959" height="2.14966" rx="1.07483" fill="white" fill-opacity="0.1"/>
<rect x="30.5254" y="118.072" width="25.7959" height="2.14966" rx="1.07483" fill="white" fill-opacity="0.1"/>
<rect x="30.5254" y="124.951" width="25.7959" height="2.14966" rx="1.07483" fill="white" fill-opacity="0.1"/>
<rect x="30.5254" y="131.83" width="25.7959" height="2.14966" rx="1.07483" fill="white" fill-opacity="0.1"/>
<path d="M135.301 142.547L142.738 65.9022C142.738 64.5963 141.68 63.5376 140.374 63.5376H131.775C131.08 63.4797 130.438 63.461 129.846 63.4753C124.673 63.6003 121.81 69.2054 118.241 72.952C116.7 74.5698 115.222 75.9811 113.865 77.1858C109.898 80.7087 104.483 81.8924 99.9535 84.6561C96.1511 86.9763 95.0158 90.006 95.0158 91.6982L94.2256 141.287C94.1873 143.688 96.1231 145.655 98.5244 145.655H131.878C133.649 145.655 135.13 144.31 135.301 142.547Z" fill="white" fill-opacity="0.1"/>
<rect width="12.898" height="2.14966" rx="1.07483" transform="matrix(-1 0 0 1 129.41 90.5566)" fill="#66E4FE"/>
<rect width="25.7959" height="2.14966" rx="1.07483" transform="matrix(-1 0 0 1 129.41 97.4355)" fill="white" fill-opacity="0.1"/>
<rect width="25.7959" height="2.14966" rx="1.07483" transform="matrix(-1 0 0 1 129.41 104.314)" fill="white" fill-opacity="0.1"/>
<rect width="25.7959" height="2.14966" rx="1.07483" transform="matrix(-1 0 0 1 129.41 111.193)" fill="white" fill-opacity="0.1"/>
<rect width="25.7959" height="2.14966" rx="1.07483" transform="matrix(-1 0 0 1 129.41 118.072)" fill="white" fill-opacity="0.1"/>
<rect width="25.7959" height="2.14966" rx="1.07483" transform="matrix(-1 0 0 1 129.41 124.951)" fill="white" fill-opacity="0.1"/>
<rect width="25.7959" height="2.14966" rx="1.07483" transform="matrix(-1 0 0 1 129.41 131.83)" fill="white" fill-opacity="0.1"/>
<path d="M78.7583 133.642C73.7486 133.642 68.9441 131.651 65.4016 128.109C61.8592 124.567 59.8691 119.762 59.8691 114.752C59.8691 109.743 61.8592 104.938 65.4016 101.396C68.9441 97.8534 73.7486 95.8633 78.7583 95.8633" stroke="#FB7878" stroke-width="5.54936"/>
<path d="M78.6519 133.642C83.6616 133.642 88.4661 131.651 92.0085 128.109C95.5509 124.567 97.541 119.762 97.541 114.752C97.541 109.743 95.5509 104.938 92.0085 101.396C88.4661 97.8534 83.6616 95.8633 78.6519 95.8633" stroke="#FB7878" stroke-width="5.54936"/>
<path d="M84.6719 109.266L72.4684 121.469" stroke="#FB7878" stroke-width="2.38764" stroke-linecap="round"/>
<path d="M84.9375 121.469L72.734 109.265" stroke="#FB7878" stroke-width="2.38764" stroke-linecap="round"/>
<path d="M79.1937 66.2233C71.075 66.2233 63.2888 62.9981 57.548 57.2573C51.8072 51.5165 48.582 43.7304 48.582 35.6116C48.582 27.4929 51.8072 19.7067 57.548 13.9659C63.2888 8.22515 71.075 5 79.1937 5" stroke="#66E4FE" stroke-width="8.99325"/>
<path d="M79.0212 66.2233C87.1399 66.2233 94.9261 62.9981 100.667 57.2573C106.408 51.5165 109.633 43.7304 109.633 35.6116C109.633 27.4929 106.408 19.7067 100.667 13.9659C94.9261 8.22515 87.1399 5 79.0212 5" stroke="#66E4FE" stroke-width="8.99325"/>
<path d="M75.7285 34.4186L79.1066 10.1582L82.4846 34.4186H75.7285Z" fill="#66E4FE"/>
<circle cx="79.1072" cy="39.3318" r="6.44898" fill="#66E4FE"/>
</svg>
