<svg width="24" height="24" viewBox="0 0 24 24" fill="none" xmlns="http://www.w3.org/2000/svg">
<path d="M23.9612 11.8459C23.9612 18.2436 18.7748 23.43 12.3771 23.43C5.97936 23.43 0.792969 18.2436 0.792969 11.8459C0.792969 5.44811 5.97936 0.261719 12.3771 0.261719C18.7748 0.261719 23.9612 5.44811 23.9612 11.8459Z" fill="#E7772D"/>
<path fill-rule="evenodd" clip-rule="evenodd" d="M12.3771 6.34339C12.8569 6.34339 13.2459 6.73237 13.2459 7.2122V11.486L15.8875 14.1275C16.2268 14.4668 16.2268 15.0169 15.8875 15.3562C15.5482 15.6955 14.9981 15.6955 14.6588 15.3562L11.7628 12.4602C11.5998 12.2973 11.5083 12.0763 11.5083 11.8459V7.2122C11.5083 6.73237 11.8973 6.34339 12.3771 6.34339Z" fill="white"/>
</svg>
