<svg width="48" height="49" viewBox="0 0 48 49" fill="none" xmlns="http://www.w3.org/2000/svg">
<path d="M30.952 19.3062L31.5031 14.762L31.5031 14.762C31.6315 13.7034 31.6957 13.174 31.5849 12.734C31.4371 12.1474 31.0778 11.6476 30.586 11.3447C30.2172 11.1175 29.723 11.0487 28.7347 10.9112C27.7463 10.7736 27.2521 10.7049 26.8414 10.8236C26.2936 10.9819 25.8271 11.3667 25.5442 11.8935C25.3321 12.2886 25.1991 13.3859 25.0707 14.4445L15.2602 13.0794C15.3886 12.0207 15.5217 10.9234 15.4109 10.4834C15.2631 9.89671 14.9038 9.39694 14.412 9.09401C14.0432 8.86682 13.549 8.79806 12.5607 8.66052C11.5723 8.52299 11.0782 8.45423 10.6674 8.57294C10.1197 8.73121 9.65307 9.11606 9.37026 9.64283C9.15815 10.0379 9.09396 10.5672 8.96556 11.6259L8.41443 16.17C8.28603 17.2287 8.22183 17.758 8.33266 18.198C8.48042 18.7847 8.83971 19.2844 9.33149 19.5874C9.70033 19.8146 10.1945 19.8833 11.1828 20.0209L11.1828 20.0209L11.1829 20.0209C12.1712 20.1584 12.6654 20.2272 13.0762 20.1085C13.6239 19.9502 14.0905 19.5653 14.3733 19.0386C14.5854 18.6435 14.7185 17.5461 14.8469 16.4875L24.6573 17.8526C24.5289 18.9113 24.3958 20.0086 24.5066 20.4486C24.6544 21.0353 25.0137 21.5351 25.5055 21.838C25.8743 22.0652 26.3685 22.134 27.3568 22.2715L27.3568 22.2715L27.3569 22.2715C28.3452 22.409 28.8394 22.4778 29.2501 22.3591C29.7979 22.2008 30.2644 21.816 30.5473 21.2892C30.7594 20.8941 30.8236 20.3648 30.9519 19.3062L30.952 19.3062Z" fill="#66E4FE"/>
<path d="M17.2176 36.898L16.1103 32.4718C15.8524 31.4406 15.7234 30.925 15.7789 30.4732C15.853 29.8707 16.1474 29.3245 16.5975 28.9545C16.935 28.6771 17.4164 28.539 18.3791 28.2627C19.3418 27.9863 19.8231 27.8482 20.245 27.9077C20.8074 27.987 21.3174 28.3024 21.6627 28.7845C21.9218 29.146 22.1891 30.2149 22.4471 31.246L22.4471 31.2461L32.0029 28.5035C31.7449 27.4723 31.4776 26.4034 31.5331 25.9516C31.6071 25.3491 31.9016 24.8029 32.3517 24.4329C32.6892 24.1555 33.1706 24.0174 34.1332 23.7411C35.0959 23.4648 35.5773 23.3266 35.9991 23.3861C36.5616 23.4654 37.0716 23.7808 37.4169 24.2629C37.6759 24.6244 37.8049 25.14 38.0628 26.1712L39.1701 30.5974C39.428 31.6286 39.557 32.1441 39.5015 32.596C39.4274 33.1984 39.133 33.7447 38.6829 34.1146C38.3454 34.3921 37.864 34.5302 36.9013 34.8065L36.9013 34.8065L36.9013 34.8065C35.9386 35.0828 35.4573 35.221 35.0354 35.1615C34.473 35.0822 33.963 34.7668 33.6177 34.2847C33.3586 33.9231 33.0913 32.8543 32.8333 31.8231L23.2775 34.5657L23.2775 34.5657C23.5355 35.5969 23.8028 36.6657 23.7473 37.1176C23.6733 37.72 23.3788 38.2663 22.9287 38.6362C22.5912 38.9137 22.1099 39.0518 21.1472 39.3281L21.1472 39.3281L21.1471 39.3281C20.1845 39.6044 19.7031 39.7426 19.2813 39.6831C18.7188 39.6038 18.2088 39.2884 17.8635 38.8063C17.6045 38.4447 17.4755 37.9291 17.2176 36.898Z" fill="white"/>
</svg>
