<svg width="16" height="17" viewBox="0 0 16 17" fill="none" xmlns="http://www.w3.org/2000/svg">
<path d="M15.355 0.678199C16.215 1.53819 16.215 2.93252 15.355 3.79251L14.9586 4.18895C14.8431 4.16396 14.6978 4.12591 14.5321 4.06843C14.0886 3.91458 13.5058 3.62382 12.9576 3.07561C12.4094 2.52739 12.1186 1.94459 11.9648 1.50112C11.9073 1.33545 11.8692 1.19007 11.8442 1.07464L12.2407 0.678199C13.1007 -0.181795 14.495 -0.181795 15.355 0.678199Z" fill="#66E4FE"/>
<path d="M10.0641 9.08346C9.74084 9.40667 9.57924 9.56828 9.40105 9.70726C9.19086 9.87121 8.96343 10.0118 8.72279 10.1265C8.51879 10.2237 8.30197 10.2959 7.86834 10.4405L5.58167 11.2027C5.36828 11.2738 5.13301 11.2183 4.97395 11.0592C4.8149 10.9002 4.75936 10.6649 4.83049 10.4515L5.59271 8.16486C5.73726 7.73123 5.80953 7.51441 5.90675 7.31042C6.02143 7.06978 6.16199 6.84235 6.32594 6.63215C6.46492 6.45396 6.62653 6.29236 6.94974 5.96915L10.8826 2.03628C11.0936 2.59164 11.4634 3.27851 12.1091 3.92413C12.7547 4.56976 13.4416 4.93957 13.9969 5.1506L10.0641 9.08346Z" fill="#66E4FE"/>
<path d="M14.8284 14.8616C16 13.6901 16 11.8044 16 8.0332C16 6.7946 16 5.75939 15.9585 4.88608L10.8688 9.97582C10.5878 10.2569 10.3767 10.4682 10.1391 10.6535C9.86016 10.871 9.55837 11.0575 9.23905 11.2097C8.96706 11.3393 8.68371 11.4337 8.3066 11.5593L5.96115 12.3411C5.31654 12.556 4.60588 12.3882 4.12543 11.9078C3.64497 11.4273 3.47721 10.7167 3.69207 10.0721L4.47388 7.72659C4.59948 7.34948 4.69386 7.06614 4.82348 6.79415C4.97566 6.47483 5.16218 6.17304 5.37973 5.89413C5.56504 5.65654 5.77626 5.44542 6.05738 5.16443L11.1471 0.0747097C10.2738 0.0332031 9.2386 0.0332031 8 0.0332031C4.22876 0.0332031 2.34315 0.0332031 1.17157 1.20478C0 2.37635 0 4.26197 0 8.0332C0 11.8044 0 13.6901 1.17157 14.8616C2.34315 16.0332 4.22876 16.0332 8 16.0332C11.7712 16.0332 13.6569 16.0332 14.8284 14.8616Z" fill="#66E4FE"/>
</svg>
