<svg width="316" height="99" viewBox="0 0 316 99" fill="none" xmlns="http://www.w3.org/2000/svg">
<rect x="0.353516" y="0.100098" width="315.085" height="98.3066" rx="21.1412" fill="white" fill-opacity="0.1"/>
<path d="M30.2708 35.187V20.5804H32.9168V26.7639H39.6852V20.5804H42.3384V35.187H39.6852V28.982H32.9168V35.187H30.2708ZM45.1021 35.187V24.232H47.6839V35.187H45.1021ZM46.4001 22.6772C45.9912 22.6772 45.6394 22.5417 45.3446 22.2707C45.0498 21.9949 44.9024 21.6645 44.9024 21.2793C44.9024 20.8894 45.0498 20.559 45.3446 20.2879C45.6394 20.0122 45.9912 19.8743 46.4001 19.8743C46.8138 19.8743 47.1656 20.0122 47.4557 20.2879C47.7505 20.559 47.8979 20.8894 47.8979 21.2793C47.8979 21.6645 47.7505 21.9949 47.4557 22.2707C47.1656 22.5417 46.8138 22.6772 46.4001 22.6772ZM55.1031 39.5234C54.176 39.5234 53.3795 39.3974 52.7139 39.1454C52.0482 38.8981 51.5133 38.5653 51.1091 38.1469C50.705 37.7284 50.4244 37.2648 50.2675 36.7561L52.5926 36.1926C52.6972 36.4066 52.8494 36.6182 53.0491 36.8274C53.2488 37.0414 53.5174 37.2173 53.855 37.3552C54.1974 37.4978 54.6277 37.5692 55.1459 37.5692C55.8782 37.5692 56.4844 37.3908 56.9646 37.0342C57.4449 36.6824 57.685 36.1023 57.685 35.294V33.2185H57.5566C57.4235 33.4848 57.2285 33.7582 56.9718 34.0387C56.7198 34.3193 56.3845 34.5546 55.9661 34.7448C55.5525 34.935 55.0318 35.0301 54.4042 35.0301C53.5626 35.0301 52.7995 34.8328 52.1148 34.4381C51.4348 34.0387 50.8928 33.4444 50.4886 32.6551C50.0892 31.8611 49.8895 30.8673 49.8895 29.6739C49.8895 28.4709 50.0892 27.4558 50.4886 26.6284C50.8928 25.7963 51.4372 25.1663 52.1219 24.7384C52.8066 24.3057 53.5697 24.0894 54.4113 24.0894C55.0532 24.0894 55.581 24.1987 55.9947 24.4175C56.4131 24.6314 56.7459 24.8906 56.9932 25.1949C57.2404 25.4944 57.4282 25.7773 57.5566 26.0436H57.6992V24.232H60.2454V35.3653C60.2454 36.302 60.0219 37.077 59.575 37.6904C59.128 38.3038 58.5171 38.7626 57.742 39.0669C56.967 39.3712 56.0874 39.5234 55.1031 39.5234ZM55.1245 33.0046C55.6713 33.0046 56.1373 32.8714 56.5224 32.6052C56.9076 32.3389 57.2 31.9561 57.3997 31.4569C57.5994 30.9576 57.6992 30.3585 57.6992 29.6596C57.6992 28.9702 57.5994 28.3663 57.3997 27.848C57.2047 27.3298 56.9147 26.928 56.5296 26.6427C56.1492 26.3527 55.6808 26.2076 55.1245 26.2076C54.5492 26.2076 54.069 26.3574 53.6838 26.657C53.2987 26.9565 53.0087 27.3678 52.8137 27.8908C52.6188 28.4091 52.5213 28.9987 52.5213 29.6596C52.5213 30.33 52.6188 30.9172 52.8137 31.4212C53.0134 31.9205 53.3058 32.3104 53.691 32.5909C54.0809 32.8667 54.5587 33.0046 55.1245 33.0046ZM65.4733 28.7681V35.187H62.8914V20.5804H65.4162V26.0935H65.5446C65.8014 25.4754 66.1984 24.988 66.7357 24.6314C67.2777 24.2701 67.9672 24.0894 68.804 24.0894C69.5648 24.0894 70.2281 24.2487 70.7939 24.5672C71.3597 24.8858 71.7971 25.3518 72.1062 25.9651C72.42 26.5785 72.5769 27.3274 72.5769 28.2118V35.187H69.9951V28.6112C69.9951 27.8742 69.8049 27.3012 69.4245 26.8923C69.0489 26.4787 68.5211 26.2718 67.8412 26.2718C67.3847 26.2718 66.9758 26.3717 66.6144 26.5714C66.2578 26.7663 65.9773 27.0492 65.7728 27.4201C65.5731 27.791 65.4733 28.2403 65.4733 28.7681ZM80.0585 35.401C78.9602 35.401 78.0116 35.1727 77.2128 34.7163C76.4188 34.2551 75.8078 33.6037 75.3798 32.7621C74.9519 31.9157 74.7379 30.9196 74.7379 29.7737C74.7379 28.6468 74.9519 27.6578 75.3798 26.8067C75.8125 25.9509 76.4164 25.2852 77.1914 24.8097C77.9664 24.3295 78.877 24.0894 79.923 24.0894C80.5982 24.0894 81.2353 24.1987 81.8344 24.4175C82.4383 24.6314 82.9708 24.9643 83.432 25.416C83.898 25.8677 84.2641 26.443 84.5304 27.1419C84.7967 27.8361 84.9298 28.6635 84.9298 29.6239V30.4156H75.9504V28.6754H82.4549C82.4502 28.1809 82.3432 27.741 82.134 27.3559C81.9248 26.966 81.6324 26.6593 81.2567 26.4359C80.8859 26.2124 80.4532 26.1007 79.9587 26.1007C79.4309 26.1007 78.9673 26.229 78.5679 26.4858C78.1685 26.7378 77.8571 27.0706 77.6336 27.4843C77.4149 27.8932 77.3031 28.3425 77.2984 28.8323V30.3514C77.2984 30.9886 77.4149 31.5354 77.6479 31.9918C77.8809 32.4435 78.2066 32.7906 78.625 33.0331C79.0434 33.2708 79.5331 33.3897 80.0942 33.3897C80.4698 33.3897 80.8098 33.3374 81.1141 33.2328C81.4184 33.1234 81.6823 32.9642 81.9058 32.7549C82.1292 32.5457 82.298 32.2866 82.4121 31.9775L84.8228 32.2486C84.6707 32.8857 84.3806 33.442 83.9527 33.9175C83.5295 34.3882 82.9875 34.7543 82.3266 35.0158C81.6656 35.2726 80.9096 35.401 80.0585 35.401ZM95.7724 27.1277L93.4188 27.3844C93.3523 27.1467 93.2358 26.9232 93.0694 26.714C92.9077 26.5048 92.689 26.336 92.4132 26.2076C92.1374 26.0793 91.7998 26.0151 91.4004 26.0151C90.8631 26.0151 90.4114 26.1316 90.0453 26.3645C89.684 26.5975 89.5057 26.8995 89.5104 27.2703C89.5057 27.5889 89.6222 27.848 89.8599 28.0477C90.1024 28.2474 90.5018 28.4115 91.0581 28.5398L92.9267 28.9392C93.9633 29.1627 94.7335 29.517 95.2375 30.0019C95.7463 30.4869 96.0031 31.1217 96.0078 31.9062C96.0031 32.5957 95.801 33.2043 95.4016 33.7321C95.0069 34.2551 94.4578 34.664 93.754 34.9588C93.0503 35.2536 92.242 35.401 91.3291 35.401C89.9883 35.401 88.9089 35.1204 88.0911 34.5594C87.2733 33.9936 86.7859 33.2067 86.629 32.1986L89.1467 31.9561C89.2608 32.4506 89.5033 32.8239 89.8742 33.0759C90.245 33.3279 90.7276 33.4539 91.322 33.4539C91.9353 33.4539 92.4275 33.3279 92.7983 33.0759C93.174 32.8239 93.3618 32.5125 93.3618 32.1416C93.3618 31.8278 93.2405 31.5686 92.998 31.3642C92.7603 31.1597 92.3894 31.0028 91.8854 30.8935L90.0168 30.5012C88.966 30.2825 88.1886 29.914 87.6846 29.3957C87.1806 28.8727 86.931 28.2118 86.9357 27.413C86.931 26.7378 87.114 26.153 87.4849 25.6585C87.8605 25.1592 88.3812 24.7741 89.0468 24.503C89.7172 24.2273 90.4899 24.0894 91.3648 24.0894C92.6486 24.0894 93.659 24.3628 94.3959 24.9096C95.1377 25.4564 95.5965 26.1957 95.7724 27.1277ZM103.607 24.232V26.229H97.3094V24.232H103.607ZM98.8642 21.6074H101.446V31.892C101.446 32.2391 101.498 32.5053 101.603 32.6908C101.712 32.8714 101.855 32.9951 102.031 33.0616C102.207 33.1282 102.402 33.1615 102.616 33.1615C102.777 33.1615 102.925 33.1496 103.058 33.1258C103.196 33.102 103.3 33.0806 103.372 33.0616L103.807 35.08C103.669 35.1276 103.472 35.1799 103.215 35.2369C102.963 35.294 102.654 35.3273 102.288 35.3368C101.641 35.3558 101.059 35.2583 100.54 35.0444C100.022 34.8256 99.6107 34.4881 99.3064 34.0316C99.0069 33.5751 98.8595 33.0046 98.8642 32.3199V21.6074ZM110.862 35.187V20.5804H116.34C117.462 20.5804 118.403 20.7753 119.164 21.1652C119.93 21.5551 120.507 22.1019 120.897 22.8056C121.292 23.5045 121.489 24.32 121.489 25.2519C121.489 26.1886 121.29 27.0017 120.89 27.6911C120.495 28.3758 119.913 28.906 119.143 29.2816C118.372 29.6525 117.426 29.8379 116.304 29.8379H112.403V27.6412H115.948C116.604 27.6412 117.141 27.5509 117.559 27.3702C117.978 27.1847 118.287 26.9161 118.487 26.5642C118.691 26.2076 118.793 25.7702 118.793 25.2519C118.793 24.7337 118.691 24.2915 118.487 23.9253C118.282 23.5545 117.971 23.2739 117.552 23.0838C117.134 22.8888 116.594 22.7913 115.933 22.7913H113.508V35.187H110.862ZM118.408 28.5684L122.024 35.187H119.071L115.52 28.5684H118.408ZM128.504 35.401C127.405 35.401 126.457 35.1727 125.658 34.7163C124.864 34.2551 124.253 33.6037 123.825 32.7621C123.397 31.9157 123.183 30.9196 123.183 29.7737C123.183 28.6468 123.397 27.6578 123.825 26.8067C124.258 25.9509 124.862 25.2852 125.637 24.8097C126.412 24.3295 127.322 24.0894 128.368 24.0894C129.043 24.0894 129.68 24.1987 130.28 24.4175C130.883 24.6314 131.416 24.9643 131.877 25.416C132.343 25.8677 132.709 26.443 132.976 27.1419C133.242 27.8361 133.375 28.6635 133.375 29.6239V30.4156H124.396V28.6754H130.9C130.895 28.1809 130.788 27.741 130.579 27.3559C130.37 26.966 130.077 26.6593 129.702 26.4359C129.331 26.2124 128.898 26.1007 128.404 26.1007C127.876 26.1007 127.412 26.229 127.013 26.4858C126.614 26.7378 126.302 27.0706 126.079 27.4843C125.86 27.8932 125.748 28.3425 125.744 28.8323V30.3514C125.744 30.9886 125.86 31.5354 126.093 31.9918C126.326 32.4435 126.652 32.7906 127.07 33.0331C127.489 33.2708 127.978 33.3897 128.539 33.3897C128.915 33.3897 129.255 33.3374 129.559 33.2328C129.864 33.1234 130.127 32.9642 130.351 32.7549C130.574 32.5457 130.743 32.2866 130.857 31.9775L133.268 32.2486C133.116 32.8857 132.826 33.442 132.398 33.9175C131.975 34.3882 131.433 34.7543 130.772 35.0158C130.111 35.2726 129.355 35.401 128.504 35.401ZM138.712 35.4081C138.017 35.4081 137.392 35.2845 136.836 35.0372C136.284 34.7852 135.847 34.4144 135.523 33.9246C135.205 33.4349 135.046 32.831 135.046 32.1131C135.046 31.4949 135.16 30.9838 135.388 30.5796C135.616 30.1755 135.928 29.8522 136.322 29.6097C136.717 29.3672 137.162 29.1841 137.656 29.0605C138.155 28.9321 138.671 28.8394 139.204 28.7823C139.846 28.7158 140.366 28.6563 140.766 28.604C141.165 28.547 141.455 28.4614 141.636 28.3473C141.821 28.2284 141.914 28.0454 141.914 27.7981V27.7553C141.914 27.218 141.755 26.802 141.436 26.5072C141.117 26.2124 140.659 26.065 140.06 26.065C139.427 26.065 138.926 26.2029 138.555 26.4787C138.189 26.7544 137.941 27.0801 137.813 27.4558L135.402 27.1134C135.592 26.4477 135.906 25.8914 136.344 25.4445C136.781 24.9928 137.316 24.6552 137.948 24.4317C138.581 24.2035 139.28 24.0894 140.045 24.0894C140.573 24.0894 141.098 24.1512 141.621 24.2748C142.145 24.3984 142.622 24.6029 143.055 24.8882C143.488 25.1687 143.835 25.5515 144.096 26.0365C144.363 26.5214 144.496 27.1277 144.496 27.8552V35.187H142.014V33.6821H141.928C141.771 33.9864 141.55 34.2717 141.265 34.538C140.984 34.7995 140.63 35.0111 140.202 35.1727C139.779 35.3297 139.282 35.4081 138.712 35.4081ZM139.382 33.511C139.9 33.511 140.35 33.4087 140.73 33.2043C141.11 32.9951 141.403 32.7193 141.607 32.3769C141.816 32.0346 141.921 31.6614 141.921 31.2572V29.9663C141.84 30.0328 141.702 30.0947 141.507 30.1517C141.317 30.2088 141.103 30.2587 140.865 30.3015C140.628 30.3443 140.392 30.3823 140.159 30.4156C139.926 30.4489 139.724 30.4774 139.553 30.5012C139.168 30.5535 138.823 30.6391 138.519 30.7579C138.215 30.8768 137.975 31.0432 137.799 31.2572C137.623 31.4664 137.535 31.7374 137.535 32.0703C137.535 32.5457 137.708 32.9047 138.055 33.1472C138.403 33.3897 138.845 33.511 139.382 33.511ZM151.157 35.3796C150.297 35.3796 149.526 35.1585 148.846 34.7163C148.166 34.2741 147.629 33.6322 147.234 32.7906C146.84 31.949 146.643 30.9267 146.643 29.7238C146.643 28.5066 146.842 27.4795 147.242 26.6427C147.646 25.8011 148.19 25.1663 148.875 24.7384C149.56 24.3057 150.323 24.0894 151.164 24.0894C151.806 24.0894 152.334 24.1987 152.748 24.4175C153.161 24.6314 153.489 24.8906 153.732 25.1949C153.974 25.4944 154.162 25.7773 154.295 26.0436H154.402V20.5804L156.991 20.5804V35.187H154.452V33.461H154.295C154.162 33.7273 153.97 34.0102 153.718 34.3098C153.466 34.6046 153.133 34.8566 152.719 35.0658C152.305 35.275 151.785 35.3796 151.157 35.3796ZM151.878 33.2613C152.424 33.2613 152.89 33.1139 153.275 32.8191C153.661 32.5196 153.953 32.1035 154.153 31.571C154.352 31.0385 154.452 30.418 154.452 29.7095C154.452 29.0011 154.352 28.3853 154.153 27.8623C153.958 27.3393 153.668 26.9327 153.283 26.6427C152.902 26.3527 152.434 26.2076 151.878 26.2076C151.302 26.2076 150.822 26.3574 150.437 26.657C150.052 26.9565 149.762 27.3702 149.567 27.898C149.372 28.4257 149.274 29.0296 149.274 29.7095C149.274 30.3942 149.372 31.0052 149.567 31.5425C149.766 32.075 150.059 32.4958 150.444 32.8049C150.834 33.1092 151.312 33.2613 151.878 33.2613ZM159.742 35.187V24.232H162.324V35.187H159.742ZM161.041 22.6772C160.632 22.6772 160.28 22.5417 159.985 22.2707C159.69 21.9949 159.543 21.6645 159.543 21.2793C159.543 20.8894 159.69 20.559 159.985 20.2879C160.28 20.0122 160.632 19.8743 161.041 19.8743C161.454 19.8743 161.806 20.0122 162.096 20.2879C162.391 20.559 162.538 20.8894 162.538 21.2793C162.538 21.6645 162.391 21.9949 162.096 22.2707C161.806 22.5417 161.454 22.6772 161.041 22.6772ZM167.561 28.7681V35.187H164.979V24.232H167.447V26.0935H167.575C167.827 25.4802 168.229 24.9928 168.781 24.6314C169.337 24.2701 170.024 24.0894 170.842 24.0894C171.598 24.0894 172.256 24.251 172.818 24.5744C173.383 24.8977 173.821 25.366 174.13 25.9794C174.444 26.5928 174.598 27.3369 174.593 28.2118V35.187H172.012V28.6112C172.012 27.8789 171.821 27.306 171.441 26.8923C171.065 26.4787 170.545 26.2718 169.879 26.2718C169.427 26.2718 169.026 26.3717 168.674 26.5714C168.327 26.7663 168.053 27.0492 167.854 27.4201C167.659 27.791 167.561 28.2403 167.561 28.7681ZM181.982 39.5234C181.055 39.5234 180.259 39.3974 179.593 39.1454C178.927 38.8981 178.392 38.5653 177.988 38.1469C177.584 37.7284 177.304 37.2648 177.147 36.7561L179.472 36.1926C179.576 36.4066 179.729 36.6182 179.928 36.8274C180.128 37.0414 180.397 37.2173 180.734 37.3552C181.077 37.4978 181.507 37.5692 182.025 37.5692C182.757 37.5692 183.364 37.3908 183.844 37.0342C184.324 36.6824 184.564 36.1023 184.564 35.294V33.2185H184.436C184.303 33.4848 184.108 33.7582 183.851 34.0387C183.599 34.3193 183.264 34.5546 182.845 34.7448C182.432 34.935 181.911 35.0301 181.283 35.0301C180.442 35.0301 179.679 34.8328 178.994 34.4381C178.314 34.0387 177.772 33.4444 177.368 32.6551C176.968 31.8611 176.769 30.8673 176.769 29.6739C176.769 28.4709 176.968 27.4558 177.368 26.6284C177.772 25.7963 178.316 25.1663 179.001 24.7384C179.686 24.3057 180.449 24.0894 181.291 24.0894C181.932 24.0894 182.46 24.1987 182.874 24.4175C183.292 24.6314 183.625 24.8906 183.872 25.1949C184.12 25.4944 184.307 25.7773 184.436 26.0436H184.578V24.232H187.125V35.3653C187.125 36.302 186.901 37.077 186.454 37.6904C186.007 38.3038 185.396 38.7626 184.621 39.0669C183.846 39.3712 182.967 39.5234 181.982 39.5234ZM182.004 33.0046C182.551 33.0046 183.016 32.8714 183.402 32.6052C183.787 32.3389 184.079 31.9561 184.279 31.4569C184.479 30.9576 184.578 30.3585 184.578 29.6596C184.578 28.9702 184.479 28.3663 184.279 27.848C184.084 27.3298 183.794 26.928 183.409 26.6427C183.028 26.3527 182.56 26.2076 182.004 26.2076C181.428 26.2076 180.948 26.3574 180.563 26.657C180.178 26.9565 179.888 27.3678 179.693 27.8908C179.498 28.4091 179.4 28.9987 179.4 29.6596C179.4 30.33 179.498 30.9172 179.693 31.4212C179.893 31.9205 180.185 32.3104 180.57 32.5909C180.96 32.8667 181.438 33.0046 182.004 33.0046Z" fill="white"/>
<rect x="28.8301" y="50.7578" width="80.3365" height="31.7118" rx="15.8559" fill="#66E4FE"/>
<path d="M56.5146 64.1288C56.3742 63.6991 56.1891 63.3141 55.9594 62.9737C55.7339 62.6291 55.4638 62.3356 55.149 62.0931C54.8384 61.8506 54.4853 61.6655 54.0897 61.5379C53.694 61.4103 53.2601 61.3465 52.7879 61.3465C52.0136 61.3465 51.3095 61.5464 50.6756 61.9463C50.0417 62.3462 49.5376 62.9354 49.1632 63.714C48.7888 64.4925 48.6017 65.4476 48.6017 66.5792C48.6017 67.7109 48.791 68.6659 49.1696 69.4445C49.5482 70.223 50.0609 70.8122 50.7075 71.2121C51.3542 71.612 52.0816 71.812 52.89 71.812C53.6387 71.812 54.2981 71.6524 54.8682 71.3334C55.4425 71.01 55.8892 70.5548 56.2083 69.9677C56.5316 69.3764 56.6933 68.6808 56.6933 67.881L57.1783 67.9831H53.2473V66.5792H58.2248V67.9831C58.2248 69.0595 57.9951 69.9954 57.5356 70.7909C57.0804 71.5865 56.4508 72.2034 55.6467 72.6415C54.8469 73.0755 53.928 73.2924 52.89 73.2924C51.7328 73.2924 50.716 73.0202 49.8396 72.4756C48.9675 71.9311 48.2868 71.1568 47.7976 70.1528C47.3126 69.1488 47.0701 67.9576 47.0701 66.5792C47.0701 65.5454 47.2084 64.6159 47.4849 63.7905C47.7657 62.961 48.1613 62.2548 48.6719 61.6719C49.1824 61.0891 49.7865 60.6424 50.4842 60.3318C51.1819 60.0213 51.9498 59.866 52.7879 59.866C53.477 59.866 54.1194 59.9702 54.715 60.1787C55.3149 60.3829 55.8488 60.6743 56.3168 61.0529C56.789 61.4273 57.1825 61.8761 57.4973 62.3994C57.8121 62.9184 58.0291 63.4949 58.1482 64.1288H56.5146ZM64.7131 73.318C63.8282 73.318 63.0518 73.1074 62.3839 72.6862C61.7202 72.265 61.2012 71.6758 60.8268 70.9186C60.4567 70.1613 60.2716 69.2764 60.2716 68.2639C60.2716 67.2429 60.4567 66.3516 60.8268 65.5901C61.2012 64.8286 61.7202 64.2372 62.3839 63.8161C63.0518 63.3949 63.8282 63.1843 64.7131 63.1843C65.598 63.1843 66.3723 63.3949 67.0359 63.8161C67.7038 64.2372 68.2229 64.8286 68.593 65.5901C68.9674 66.3516 69.1545 67.2429 69.1545 68.2639C69.1545 69.2764 68.9674 70.1613 68.593 70.9186C68.2229 71.6758 67.7038 72.265 67.0359 72.6862C66.3723 73.1074 65.598 73.318 64.7131 73.318ZM64.7131 71.9651C65.3853 71.9651 65.9383 71.7928 66.3723 71.4482C66.8062 71.1036 67.1274 70.6505 67.3358 70.089C67.5443 69.5274 67.6485 68.9191 67.6485 68.2639C67.6485 67.6088 67.5443 66.9983 67.3358 66.4324C67.1274 65.8666 66.8062 65.4093 66.3723 65.0604C65.9383 64.7116 65.3853 64.5372 64.7131 64.5372C64.0409 64.5372 63.4879 64.7116 63.0539 65.0604C62.62 65.4093 62.2988 65.8666 62.0903 66.4324C61.8819 66.9983 61.7776 67.6088 61.7776 68.2639C61.7776 68.9191 61.8819 69.5274 62.0903 70.089C62.2988 70.6505 62.62 71.1036 63.0539 71.4482C63.4879 71.7928 64.0409 71.9651 64.7131 71.9651ZM75.4354 73.318C74.5505 73.318 73.7741 73.1074 73.1062 72.6862C72.4426 72.265 71.9235 71.6758 71.5492 70.9186C71.179 70.1613 70.994 69.2764 70.994 68.2639C70.994 67.2429 71.179 66.3516 71.5492 65.5901C71.9235 64.8286 72.4426 64.2372 73.1062 63.8161C73.7741 63.3949 74.5505 63.1843 75.4354 63.1843C76.3203 63.1843 77.0946 63.3949 77.7583 63.8161C78.4262 64.2372 78.9452 64.8286 79.3153 65.5901C79.6897 66.3516 79.8769 67.2429 79.8769 68.2639C79.8769 69.2764 79.6897 70.1613 79.3153 70.9186C78.9452 71.6758 78.4262 72.265 77.7583 72.6862C77.0946 73.1074 76.3203 73.318 75.4354 73.318ZM75.4354 71.9651C76.1076 71.9651 76.6607 71.7928 77.0946 71.4482C77.5285 71.1036 77.8497 70.6505 78.0582 70.089C78.2666 69.5274 78.3709 68.9191 78.3709 68.2639C78.3709 67.6088 78.2666 66.9983 78.0582 66.4324C77.8497 65.8666 77.5285 65.4093 77.0946 65.0604C76.6607 64.7116 76.1076 64.5372 75.4354 64.5372C74.7633 64.5372 74.2102 64.7116 73.7763 65.0604C73.3423 65.4093 73.0211 65.8666 72.8127 66.4324C72.6042 66.9983 72.5 67.6088 72.5 68.2639C72.5 68.9191 72.6042 69.5274 72.8127 70.089C73.0211 70.6505 73.3423 71.1036 73.7763 71.4482C74.2102 71.7928 74.7633 71.9651 75.4354 71.9651ZM85.877 73.318C85.0602 73.318 84.3391 73.1116 83.7137 72.699C83.0883 72.2821 82.5991 71.695 82.246 70.9377C81.8929 70.1762 81.7163 69.2764 81.7163 68.2384C81.7163 67.2088 81.8929 66.3155 82.246 65.5582C82.5991 64.8009 83.0905 64.216 83.7201 63.8033C84.3497 63.3906 85.0772 63.1843 85.9025 63.1843C86.5407 63.1843 87.0448 63.2907 87.4149 63.5034C87.7893 63.7118 88.0743 63.9501 88.27 64.2181C88.47 64.4819 88.6253 64.6988 88.7359 64.869H88.8635V60.0447H90.3695V73.1138H88.9145V71.6078H88.7359C88.6253 71.7864 88.4678 72.0119 88.2636 72.2842C88.0594 72.5522 87.768 72.7926 87.3894 73.0053C87.0108 73.2137 86.5066 73.318 85.877 73.318ZM86.0812 71.9651C86.6853 71.9651 87.1958 71.8077 87.6127 71.4929C88.0297 71.1738 88.3466 70.7335 88.5636 70.1719C88.7805 69.6061 88.889 68.9531 88.889 68.2129C88.889 67.4811 88.7827 66.8409 88.5699 66.2921C88.3572 65.739 88.0424 65.3093 87.6255 65.003C87.2086 64.6925 86.6938 64.5372 86.0812 64.5372C85.4431 64.5372 84.9113 64.701 84.4859 65.0285C84.0647 65.3519 83.7477 65.7922 83.535 66.3495C83.3266 66.9025 83.2223 67.5237 83.2223 68.2129C83.2223 68.9106 83.3287 69.5444 83.5414 70.1145C83.7584 70.6803 84.0774 71.1313 84.4986 71.4674C84.924 71.7992 85.4516 71.9651 86.0812 71.9651Z" fill="black"/>
<path d="M247.742 28.1332L247.742 51.0767L244.269 51.0767L244.269 31.606L244.134 31.606L238.645 35.191L238.645 31.8749L244.37 28.1332L247.742 28.1332ZM262.653 28.1332L262.653 51.0767L259.18 51.0767L259.18 31.606L259.045 31.606L253.556 35.191L253.556 31.8749L259.281 28.1332L262.653 28.1332ZM276.847 51.4576C275.077 51.4501 273.564 50.9833 272.31 50.0572C271.055 49.1311 270.095 47.783 269.43 46.013C268.766 44.2429 268.433 42.1106 268.433 39.6161C268.433 37.1291 268.766 35.0043 269.43 33.2417C270.103 31.4791 271.066 30.1347 272.321 29.2086C273.583 28.2825 275.092 27.8195 276.847 27.8195C278.602 27.8195 280.107 28.2863 281.362 29.2198C282.616 30.1459 283.576 31.4903 284.241 33.2529C284.913 35.008 285.249 37.1291 285.249 39.6161C285.249 42.1181 284.917 44.2541 284.252 46.0242C283.587 47.7867 282.627 49.1348 281.373 50.0684C280.118 50.9945 278.609 51.4576 276.847 51.4576ZM276.847 48.4664C278.4 48.4664 279.614 47.7083 280.488 46.1922C281.369 44.6761 281.81 42.484 281.81 39.6161C281.81 37.7116 281.608 36.1021 281.205 34.7877C280.809 33.4657 280.238 32.4649 279.491 31.7853C278.751 31.0982 277.87 30.7546 276.847 30.7546C275.301 30.7546 274.087 31.5164 273.206 33.04C272.325 34.5636 271.88 36.7556 271.873 39.6161C271.873 41.5281 272.071 43.145 272.466 44.467C272.87 45.7814 273.441 46.7785 274.18 47.4581C274.92 48.1303 275.809 48.4664 276.847 48.4664Z" fill="white"/>
<path d="M240.399 72.5801L240.399 64.4091L241.926 64.4091L241.926 65.739L242.027 65.739C242.197 65.2886 242.476 64.9375 242.862 64.6857C243.249 64.4303 243.712 64.3027 244.251 64.3027C244.797 64.3027 245.254 64.4303 245.623 64.6857C245.996 64.941 246.27 65.2921 246.448 65.739L246.533 65.739C246.728 65.3028 247.038 64.9552 247.464 64.6963C247.889 64.4339 248.397 64.3027 248.985 64.3027C249.726 64.3027 250.331 64.535 250.799 64.9996C251.271 65.4641 251.507 66.1646 251.507 67.1008L251.507 72.5801L249.916 72.5801L249.916 67.2498C249.916 66.6965 249.765 66.2958 249.464 66.0475C249.163 65.7993 248.803 65.6751 248.384 65.6751C247.866 65.6751 247.464 65.8347 247.177 66.1539C246.889 66.4696 246.746 66.8756 246.746 67.3721L246.746 72.5801L245.16 72.5801L245.16 67.1487C245.16 66.7054 245.022 66.349 244.745 66.0794C244.469 65.8099 244.109 65.6751 243.666 65.6751C243.364 65.6751 243.086 65.7549 242.83 65.9145C242.579 66.0706 242.375 66.2887 242.219 66.5689C242.066 66.849 241.99 67.1735 241.99 67.5424L241.99 72.5801L240.399 72.5801ZM257.065 75.8144C256.416 75.8144 255.857 75.7293 255.389 75.5591C254.924 75.3889 254.545 75.1637 254.25 74.8835C253.956 74.6033 253.736 74.2966 253.591 73.9632L254.958 73.3993C255.054 73.5553 255.181 73.7203 255.341 73.894C255.504 74.0714 255.724 74.2221 256.001 74.3462C256.281 74.4703 256.641 74.5324 257.08 74.5324C257.683 74.5324 258.182 74.3852 258.575 74.0909C258.969 73.8001 259.166 73.3355 259.166 72.6971L259.166 71.0906L259.065 71.0906C258.969 71.2643 258.831 71.4576 258.65 71.6704C258.472 71.8832 258.228 72.0676 257.916 72.2237C257.604 72.3797 257.198 72.4577 256.697 72.4577C256.052 72.4577 255.47 72.307 254.953 72.0056C254.438 71.7006 254.031 71.2519 253.729 70.6597C253.431 70.0639 253.282 69.3315 253.282 68.4627C253.282 67.5938 253.429 66.849 253.724 66.2284C254.022 65.6078 254.43 65.1325 254.947 64.8027C255.465 64.4694 256.052 64.3027 256.708 64.3027C257.215 64.3027 257.625 64.3878 257.937 64.558C258.249 64.7247 258.492 64.9198 258.666 65.1432C258.843 65.3666 258.98 65.5634 259.075 65.7337L259.192 65.7337L259.192 64.4091L260.751 64.4091L260.751 72.7609C260.751 73.4631 260.588 74.0394 260.262 74.4898C259.935 74.9402 259.494 75.2736 258.937 75.4899C258.384 75.7063 257.76 75.8144 257.065 75.8144ZM257.049 71.1384C257.506 71.1384 257.893 71.0321 258.208 70.8193C258.527 70.6029 258.769 70.2944 258.932 69.8936C259.098 69.4894 259.182 69.0053 259.182 68.4414C259.182 67.8917 259.1 67.4076 258.937 66.9891C258.774 66.5706 258.535 66.2444 258.219 66.0103C257.903 65.7727 257.513 65.6539 257.049 65.6539C256.57 65.6539 256.171 65.778 255.852 66.0262C255.532 66.271 255.291 66.6043 255.128 67.0263C254.969 67.4484 254.889 67.92 254.889 68.4414C254.889 68.9769 254.97 69.4468 255.133 69.8511C255.297 70.2554 255.538 70.571 255.857 70.798C256.18 71.025 256.577 71.1384 257.049 71.1384ZM267.034 61.1747L263.523 74.2185L262.102 74.2185L265.613 61.1747L267.034 61.1747ZM271.444 72.7397C270.784 72.7397 270.195 72.5712 269.677 72.2343C269.163 71.8938 268.759 71.4098 268.465 70.782C268.174 70.1508 268.028 69.3936 268.028 68.5105C268.028 67.6275 268.176 66.8721 268.47 66.2444C268.768 65.6166 269.176 65.1361 269.693 64.8027C270.211 64.4694 270.798 64.3027 271.454 64.3027C271.961 64.3027 272.369 64.3878 272.678 64.558C272.99 64.7247 273.231 64.9198 273.401 65.1432C273.575 65.3666 273.71 65.5634 273.806 65.7337L273.901 65.7337L273.901 61.6854L275.492 61.6854L275.492 72.5801L273.939 72.5801L273.939 71.3087L273.806 71.3087C273.71 71.4825 273.571 71.6811 273.391 71.9045C273.213 72.1279 272.969 72.323 272.656 72.4896C272.344 72.6563 271.94 72.7397 271.444 72.7397ZM271.795 71.3832C272.252 71.3832 272.639 71.2626 272.954 71.0214C273.274 70.7767 273.515 70.438 273.678 70.0054C273.845 69.5727 273.928 69.0691 273.928 68.4946C273.928 67.9271 273.846 67.4306 273.683 67.0051C273.52 66.5795 273.281 66.2479 272.965 66.0103C272.649 65.7727 272.259 65.6539 271.795 65.6539C271.316 65.6539 270.917 65.778 270.598 66.0262C270.279 66.2745 270.037 66.6132 269.874 67.0423C269.715 67.4714 269.635 67.9555 269.635 68.4946C269.635 69.0407 269.716 69.5319 269.88 69.9681C270.043 70.4043 270.284 70.7501 270.603 71.0055C270.926 71.2573 271.323 71.3832 271.795 71.3832ZM277.89 72.5801L277.89 61.6854L279.533 61.6854L279.533 71.165L284.47 71.165L284.47 72.5801L277.89 72.5801Z" fill="white" fill-opacity="0.49"/>
</svg>
