<svg width="375" height="412" viewBox="0 0 375 412" fill="none" xmlns="http://www.w3.org/2000/svg">
<g filter="url(#filter0_d_454_123)">
<rect x="21" y="18" width="141" height="65.0769" rx="10.3927" fill="white" fill-opacity="0.3" shape-rendering="crispEdges"/>
<path d="M40.8957 32.0249V42.7471H39.4857V34.7519L35.922 42.7471H34.9304L31.3511 34.7364V42.7471H29.9411V32.0249H31.4596L35.4262 40.8877L39.3928 32.0249H40.8957ZM46.9902 42.8865C46.1948 42.8865 45.4717 42.7058 44.8209 42.3442C44.1805 41.9827 43.6743 41.4714 43.3025 40.8103C42.9409 40.1388 42.7602 39.3641 42.7602 38.4861C42.7602 37.6184 42.9461 36.854 43.318 36.1929C43.7002 35.5215 44.2166 35.0101 44.8674 34.6589C45.5182 34.2974 46.2464 34.1166 47.0521 34.1166C47.8579 34.1166 48.5861 34.2974 49.2369 34.6589C49.8876 35.0101 50.399 35.5163 50.7708 36.1774C51.153 36.8385 51.3441 37.6081 51.3441 38.4861C51.3441 39.3641 51.1479 40.1388 50.7553 40.8103C50.3731 41.4714 49.8515 41.9827 49.1904 42.3442C48.5293 42.7058 47.7959 42.8865 46.9902 42.8865ZM46.9902 41.647C47.4963 41.647 47.9715 41.5282 48.4157 41.2906C48.8598 41.053 49.2162 40.6966 49.4848 40.2215C49.7637 39.7463 49.9031 39.1678 49.9031 38.4861C49.9031 37.8043 49.7688 37.2259 49.5003 36.7507C49.2317 36.2755 48.8805 35.9243 48.4466 35.6971C48.0128 35.4595 47.5428 35.3407 47.0366 35.3407C46.5202 35.3407 46.045 35.4595 45.6112 35.6971C45.1876 35.9243 44.8468 36.2755 44.5885 36.7507C44.3303 37.2259 44.2012 37.8043 44.2012 38.4861C44.2012 39.1782 44.3251 39.7618 44.573 40.237C44.8313 40.7121 45.1721 41.0685 45.5957 41.3061C46.0192 41.5333 46.484 41.647 46.9902 41.647ZM52.6712 38.4706C52.6712 37.6029 52.8468 36.8437 53.198 36.1929C53.5492 35.5318 54.0296 35.0205 54.639 34.6589C55.2588 34.2974 55.9509 34.1166 56.7153 34.1166C57.3764 34.1166 57.991 34.2716 58.5591 34.5815C59.1272 34.881 59.5611 35.2787 59.8607 35.7745V31.2811H61.2861V42.7471H59.8607V41.1511C59.5817 41.6573 59.1686 42.0756 58.6211 42.4062C58.0736 42.7264 57.4332 42.8865 56.6998 42.8865C55.9457 42.8865 55.2588 42.7006 54.639 42.3287C54.0296 41.9569 53.5492 41.4352 53.198 40.7638C52.8468 40.0923 52.6712 39.3279 52.6712 38.4706ZM59.8607 38.4861C59.8607 37.8456 59.7315 37.2878 59.4733 36.8127C59.215 36.3375 58.8638 35.976 58.4197 35.7281C57.9858 35.4698 57.5055 35.3407 56.9787 35.3407C56.4519 35.3407 55.9715 35.4647 55.5377 35.7126C55.1038 35.9605 54.7578 36.322 54.4996 36.7972C54.2413 37.2723 54.1122 37.8301 54.1122 38.4706C54.1122 39.1214 54.2413 39.6895 54.4996 40.175C54.7578 40.6501 55.1038 41.0169 55.5377 41.2751C55.9715 41.523 56.4519 41.647 56.9787 41.647C57.5055 41.647 57.9858 41.523 58.4197 41.2751C58.8638 41.0169 59.215 40.6501 59.4733 40.175C59.7315 39.6895 59.8607 39.1265 59.8607 38.4861ZM71.1992 34.2561V42.7471H69.7892V41.492C69.5207 41.9259 69.1436 42.2667 68.6581 42.5147C68.183 42.7522 67.6562 42.871 67.0777 42.871C66.4166 42.871 65.8226 42.7367 65.2958 42.4682C64.769 42.1893 64.3507 41.7761 64.0408 41.2286C63.7412 40.6811 63.5914 40.0149 63.5914 39.2298V34.2561H64.9859V39.0439C64.9859 39.8806 65.1977 40.5262 65.6212 40.9807C66.0447 41.4249 66.6232 41.647 67.3566 41.647C68.1107 41.647 68.7046 41.4145 69.1385 40.9497C69.5723 40.4849 69.7892 39.8083 69.7892 38.9199V34.2561H71.1992ZM74.9899 31.2811V42.7471H73.5799V31.2811H74.9899ZM85.1403 38.1762C85.1403 38.4448 85.1248 38.7288 85.0938 39.0284H78.3072C78.3589 39.8651 78.6429 40.521 79.1594 40.9962C79.6862 41.461 80.3215 41.6934 81.0652 41.6934C81.6747 41.6934 82.1808 41.554 82.5837 41.2751C82.9969 40.9859 83.2861 40.6037 83.4514 40.1285H84.9699C84.7426 40.9445 84.2881 41.6108 83.6063 42.1273C82.9246 42.6334 82.0775 42.8865 81.0652 42.8865C80.2595 42.8865 79.5365 42.7058 78.896 42.3442C78.2659 41.9827 77.7701 41.4714 77.4085 40.8103C77.047 40.1388 76.8662 39.3641 76.8662 38.4861C76.8662 37.6081 77.0418 36.8385 77.393 36.1774C77.7443 35.5163 78.2349 35.0101 78.865 34.6589C79.5055 34.2974 80.2389 34.1166 81.0652 34.1166C81.871 34.1166 82.5837 34.2922 83.2035 34.6434C83.8233 34.9947 84.2984 35.4801 84.629 36.0999C84.9699 36.7094 85.1403 37.4015 85.1403 38.1762ZM83.6838 37.8818C83.6838 37.3447 83.565 36.885 83.3274 36.5028C83.0899 36.1103 82.7645 35.8159 82.3513 35.6196C81.9484 35.413 81.4991 35.3097 81.0033 35.3097C80.2905 35.3097 79.6811 35.537 79.1749 35.9915C78.6791 36.446 78.395 37.0761 78.3227 37.8818H83.6838ZM90.528 32.8306V31.5445H93.441V42.7471H92.0155V32.8306H90.528Z" fill="#66E4FE"/>
<path d="M36.5883 56.7384V57.885H33.6443V67.5381H32.2343V57.885H29.2749V56.7384H36.5883ZM39.7339 60.4261C39.9818 59.9406 40.333 59.5636 40.7875 59.295C41.2524 59.0264 41.8153 58.8922 42.4764 58.8922V60.3486H42.1046C40.5241 60.3486 39.7339 61.206 39.7339 62.9207V67.5381H38.3239V59.0471H39.7339V60.4261ZM51.8513 62.9672C51.8513 63.2358 51.8358 63.5198 51.8048 63.8194H45.0182C45.0699 64.6561 45.354 65.312 45.8704 65.7872C46.3973 66.252 47.0325 66.4845 47.7763 66.4845C48.3857 66.4845 48.8919 66.345 49.2947 66.0661C49.7079 65.7769 49.9971 65.3947 50.1624 64.9195H51.6809C51.4536 65.7356 50.9991 66.4018 50.3174 66.9183C49.6356 67.4245 48.7886 67.6775 47.7763 67.6775C46.9706 67.6775 46.2475 67.4968 45.607 67.1352C44.9769 66.7737 44.4811 66.2624 44.1196 65.6013C43.758 64.9298 43.5773 64.1551 43.5773 63.2771C43.5773 62.3991 43.7529 61.6295 44.1041 60.9684C44.4553 60.3073 44.9459 59.8012 45.576 59.45C46.2165 59.0884 46.9499 58.9076 47.7763 58.9076C48.582 58.9076 49.2947 59.0833 49.9145 59.4345C50.5343 59.7857 51.0095 60.2712 51.34 60.8909C51.6809 61.5004 51.8513 62.1925 51.8513 62.9672ZM50.3948 62.6728C50.3948 62.1357 50.276 61.676 50.0385 61.2938C49.8009 60.9013 49.4755 60.6069 49.0623 60.4106C48.6595 60.204 48.2101 60.1007 47.7143 60.1007C47.0015 60.1007 46.3921 60.328 45.8859 60.7825C45.3901 61.237 45.106 61.8671 45.0337 62.6728H50.3948ZM57.8495 58.8922C58.8825 58.8922 59.7192 59.2072 60.3596 59.8373C61.0001 60.4571 61.3203 61.3558 61.3203 62.5334V67.5381H59.9258V62.7348C59.9258 61.8878 59.714 61.2422 59.2905 60.798C58.867 60.3435 58.2885 60.1162 57.5551 60.1162C56.8114 60.1162 56.2174 60.3486 55.7732 60.8135C55.3394 61.2783 55.1225 61.9549 55.1225 62.8433V67.5381H53.7125V59.0471H55.1225V60.2557C55.4014 59.8218 55.7784 59.4861 56.2536 59.2485C56.7391 59.0109 57.271 58.8922 57.8495 58.8922ZM63.0967 63.2616C63.0967 62.3939 63.2723 61.6347 63.6235 60.9839C63.9747 60.3228 64.4551 59.8115 65.0645 59.45C65.6843 59.0884 66.3764 58.9076 67.1408 58.9076C67.8019 58.9076 68.4165 59.0626 68.9846 59.3725C69.5527 59.672 69.9866 60.0697 70.2862 60.5656V56.0722H71.7116V67.5381H70.2862V65.9422C70.0073 66.4483 69.5941 66.8667 69.0466 67.1972C68.4991 67.5174 67.8587 67.6775 67.1253 67.6775C66.3712 67.6775 65.6843 67.4916 65.0645 67.1197C64.4551 66.7479 63.9747 66.2262 63.6235 65.5548C63.2723 64.8834 63.0967 64.119 63.0967 63.2616ZM70.2862 63.2771C70.2862 62.6367 70.157 62.0789 69.8988 61.6037C69.6405 61.1285 69.2893 60.767 68.8452 60.5191C68.4113 60.2608 67.931 60.1317 67.4042 60.1317C66.8774 60.1317 66.397 60.2557 65.9632 60.5036C65.5293 60.7515 65.1833 61.113 64.9251 61.5882C64.6668 62.0634 64.5377 62.6212 64.5377 63.2616C64.5377 63.9124 64.6668 64.4805 64.9251 64.966C65.1833 65.4412 65.5293 65.8079 65.9632 66.0661C66.397 66.314 66.8774 66.438 67.4042 66.438C67.931 66.438 68.4113 66.314 68.8452 66.0661C69.2893 65.8079 69.6405 65.4412 69.8988 64.966C70.157 64.4805 70.2862 63.9175 70.2862 63.2771ZM84.609 65.1364H79.8987L79.031 67.5381H77.5435L81.4481 56.8004H83.075L86.9642 67.5381H85.4767L84.609 65.1364ZM84.2061 63.9898L82.2538 58.5358L80.3015 63.9898H84.2061ZM92.8029 58.8922C93.8359 58.8922 94.6726 59.2072 95.313 59.8373C95.9535 60.4571 96.2737 61.3558 96.2737 62.5334V67.5381H94.8792V62.7348C94.8792 61.8878 94.6674 61.2422 94.2439 60.798C93.8204 60.3435 93.2419 60.1162 92.5085 60.1162C91.7648 60.1162 91.1708 60.3486 90.7267 60.8135C90.2928 61.2783 90.0759 61.9549 90.0759 62.8433V67.5381H88.6659V59.0471H90.0759V60.2557C90.3548 59.8218 90.7318 59.4861 91.207 59.2485C91.6925 59.0109 92.2245 58.8922 92.8029 58.8922ZM98.0501 63.2616C98.0501 62.3939 98.2257 61.6347 98.5769 60.9839C98.9281 60.3228 99.4085 59.8115 100.018 59.45C100.638 59.0884 101.325 58.9076 102.079 58.9076C102.822 58.9076 103.468 59.0678 104.016 59.388C104.563 59.7082 104.971 60.1111 105.24 60.5965V59.0471H106.665V67.5381H105.24V65.9576C104.961 66.4535 104.542 66.8667 103.985 67.1972C103.437 67.5174 102.797 67.6775 102.063 67.6775C101.309 67.6775 100.627 67.4916 100.018 67.1197C99.4085 66.7479 98.9281 66.2262 98.5769 65.5548C98.2257 64.8834 98.0501 64.119 98.0501 63.2616ZM105.24 63.2771C105.24 62.6367 105.11 62.0789 104.852 61.6037C104.594 61.1285 104.243 60.767 103.799 60.5191C103.365 60.2608 102.884 60.1317 102.358 60.1317C101.831 60.1317 101.35 60.2557 100.917 60.5036C100.483 60.7515 100.137 61.113 99.8785 61.5882C99.6202 62.0634 99.4911 62.6212 99.4911 63.2616C99.4911 63.9124 99.6202 64.4805 99.8785 64.966C100.137 65.4412 100.483 65.8079 100.917 66.0661C101.35 66.314 101.831 66.438 102.358 66.438C102.884 66.438 103.365 66.314 103.799 66.0661C104.243 65.8079 104.594 65.4412 104.852 64.966C105.11 64.4805 105.24 63.9175 105.24 63.2771ZM110.458 56.0722V67.5381H109.048V56.0722H110.458ZM120.174 59.0471L115.061 71.5357H113.605L115.278 67.4451L111.854 59.0471H113.419L116.084 65.9267L118.718 59.0471H120.174ZM124.598 67.6775C123.947 67.6775 123.363 67.5691 122.847 67.3522C122.33 67.1249 121.922 66.815 121.623 66.4225C121.323 66.0196 121.158 65.56 121.127 65.0435H122.583C122.625 65.467 122.821 65.813 123.172 66.0816C123.534 66.3502 124.004 66.4845 124.582 66.4845C125.119 66.4845 125.543 66.3657 125.853 66.1281C126.163 65.8905 126.318 65.5909 126.318 65.2294C126.318 64.8575 126.152 64.5838 125.822 64.4082C125.491 64.2223 124.98 64.0415 124.288 63.8659C123.658 63.7006 123.141 63.5353 122.738 63.3701C122.346 63.1945 122.005 62.9414 121.716 62.6108C121.437 62.27 121.297 61.8258 121.297 61.2783C121.297 60.8445 121.426 60.4468 121.685 60.0852C121.943 59.7237 122.31 59.4396 122.785 59.233C123.26 59.0161 123.802 58.9076 124.412 58.9076C125.352 58.9076 126.111 59.1452 126.689 59.6204C127.268 60.0956 127.578 60.7463 127.619 61.5727H126.209C126.178 61.1285 125.997 60.7722 125.667 60.5036C125.347 60.235 124.913 60.1007 124.365 60.1007C123.859 60.1007 123.456 60.2092 123.157 60.4261C122.857 60.643 122.707 60.9271 122.707 61.2783C122.707 61.5572 122.795 61.7896 122.971 61.9756C123.157 62.1512 123.384 62.2958 123.652 62.4094C123.931 62.5127 124.314 62.6315 124.799 62.7658C125.409 62.9311 125.904 63.0963 126.287 63.2616C126.669 63.4165 126.994 63.6541 127.263 63.9743C127.542 64.2946 127.686 64.7129 127.697 65.2294C127.697 65.6942 127.567 66.1126 127.309 66.4845C127.051 66.8563 126.684 67.1507 126.209 67.3676C125.744 67.5742 125.207 67.6775 124.598 67.6775ZM130.415 57.6681C130.147 57.6681 129.919 57.5751 129.733 57.3892C129.548 57.2033 129.455 56.976 129.455 56.7074C129.455 56.4389 129.548 56.2116 129.733 56.0257C129.919 55.8397 130.147 55.7468 130.415 55.7468C130.673 55.7468 130.89 55.8397 131.066 56.0257C131.252 56.2116 131.345 56.4389 131.345 56.7074C131.345 56.976 131.252 57.2033 131.066 57.3892C130.89 57.5751 130.673 57.6681 130.415 57.6681ZM131.097 59.0471V67.5381H129.687V59.0471H131.097ZM136.506 67.6775C135.855 67.6775 135.272 67.5691 134.755 67.3522C134.239 67.1249 133.831 66.815 133.531 66.4225C133.232 66.0196 133.066 65.56 133.035 65.0435H134.492C134.533 65.467 134.729 65.813 135.081 66.0816C135.442 66.3502 135.912 66.4845 136.491 66.4845C137.028 66.4845 137.451 66.3657 137.761 66.1281C138.071 65.8905 138.226 65.5909 138.226 65.2294C138.226 64.8575 138.061 64.5838 137.73 64.4082C137.4 64.2223 136.888 64.0415 136.196 63.8659C135.566 63.7006 135.05 63.5353 134.647 63.3701C134.254 63.1945 133.913 62.9414 133.624 62.6108C133.345 62.27 133.206 61.8258 133.206 61.2783C133.206 60.8445 133.335 60.4468 133.593 60.0852C133.851 59.7237 134.218 59.4396 134.693 59.233C135.168 59.0161 135.711 58.9076 136.32 58.9076C137.26 58.9076 138.019 59.1452 138.598 59.6204C139.176 60.0956 139.486 60.7463 139.527 61.5727H138.117C138.086 61.1285 137.906 60.7722 137.575 60.5036C137.255 60.235 136.821 60.1007 136.274 60.1007C135.767 60.1007 135.365 60.2092 135.065 60.4261C134.765 60.643 134.616 60.9271 134.616 61.2783C134.616 61.5572 134.704 61.7896 134.879 61.9756C135.065 62.1512 135.292 62.2958 135.561 62.4094C135.84 62.5127 136.222 62.6315 136.707 62.7658C137.317 62.9311 137.813 63.0963 138.195 63.2616C138.577 63.4165 138.903 63.6541 139.171 63.9743C139.45 64.2946 139.595 64.7129 139.605 65.2294C139.605 65.6942 139.476 66.1126 139.218 66.4845C138.959 66.8563 138.593 67.1507 138.117 67.3676C137.653 67.5742 137.115 67.6775 136.506 67.6775Z" fill="white"/>
</g>
<g clip-path="url(#clip0_454_123)">
<rect width="379" height="344" transform="translate(53 68)" fill="white" fill-opacity="0.07"/>
<circle cx="83.5" cy="104" r="10.66" stroke="#66E4FE" stroke-width="3.68"/>
<path d="M121.56 101.4C121.307 100.933 120.94 100.58 120.46 100.34C119.993 100.087 119.44 99.96 118.8 99.96C117.693 99.96 116.807 100.327 116.14 101.06C115.473 101.78 115.14 102.747 115.14 103.96C115.14 105.253 115.487 106.267 116.18 107C116.887 107.72 117.853 108.08 119.08 108.08C119.92 108.08 120.627 107.867 121.2 107.44C121.787 107.013 122.213 106.4 122.48 105.6H118.14V103.08H125.58V106.26C125.327 107.113 124.893 107.907 124.28 108.64C123.68 109.373 122.913 109.967 121.98 110.42C121.047 110.873 119.993 111.1 118.82 111.1C117.433 111.1 116.193 110.8 115.1 110.2C114.02 109.587 113.173 108.74 112.56 107.66C111.96 106.58 111.66 105.347 111.66 103.96C111.66 102.573 111.96 101.34 112.56 100.26C113.173 99.1667 114.02 98.32 115.1 97.72C116.18 97.1067 117.413 96.8 118.8 96.8C120.48 96.8 121.893 97.2067 123.04 98.02C124.2 98.8333 124.967 99.96 125.34 101.4H121.56ZM130.894 96.2V111H127.474V96.2H130.894ZM144.393 99.84V111H140.973V109.48C140.626 109.973 140.153 110.373 139.553 110.68C138.966 110.973 138.313 111.12 137.593 111.12C136.739 111.12 135.986 110.933 135.333 110.56C134.679 110.173 134.173 109.62 133.813 108.9C133.453 108.18 133.273 107.333 133.273 106.36V99.84H136.673V105.9C136.673 106.647 136.866 107.227 137.253 107.64C137.639 108.053 138.159 108.26 138.813 108.26C139.479 108.26 140.006 108.053 140.393 107.64C140.779 107.227 140.973 106.647 140.973 105.9V99.84H144.393ZM146.169 105.42C146.169 104.26 146.403 103.247 146.869 102.38C147.349 101.513 148.009 100.847 148.849 100.38C149.703 99.9133 150.676 99.68 151.769 99.68C153.169 99.68 154.336 100.047 155.269 100.78C156.216 101.513 156.836 102.547 157.129 103.88H153.489C153.183 103.027 152.589 102.6 151.709 102.6C151.083 102.6 150.583 102.847 150.209 103.34C149.836 103.82 149.649 104.513 149.649 105.42C149.649 106.327 149.836 107.027 150.209 107.52C150.583 108 151.083 108.24 151.709 108.24C152.589 108.24 153.183 107.813 153.489 106.96H157.129C156.836 108.267 156.216 109.293 155.269 110.04C154.323 110.787 153.156 111.16 151.769 111.16C150.676 111.16 149.703 110.927 148.849 110.46C148.009 109.993 147.349 109.327 146.869 108.46C146.403 107.593 146.169 106.58 146.169 105.42ZM164.039 111.16C162.945 111.16 161.959 110.927 161.079 110.46C160.212 109.993 159.525 109.327 159.019 108.46C158.525 107.593 158.279 106.58 158.279 105.42C158.279 104.273 158.532 103.267 159.039 102.4C159.545 101.52 160.239 100.847 161.119 100.38C161.999 99.9133 162.985 99.68 164.079 99.68C165.172 99.68 166.159 99.9133 167.039 100.38C167.919 100.847 168.612 101.52 169.119 102.4C169.625 103.267 169.879 104.273 169.879 105.42C169.879 106.567 169.619 107.58 169.099 108.46C168.592 109.327 167.892 109.993 166.999 110.46C166.119 110.927 165.132 111.16 164.039 111.16ZM164.039 108.2C164.692 108.2 165.245 107.96 165.699 107.48C166.165 107 166.399 106.313 166.399 105.42C166.399 104.527 166.172 103.84 165.719 103.36C165.279 102.88 164.732 102.64 164.079 102.64C163.412 102.64 162.859 102.88 162.419 103.36C161.979 103.827 161.759 104.513 161.759 105.42C161.759 106.313 161.972 107 162.399 107.48C162.839 107.96 163.385 108.2 164.039 108.2ZM176.233 111.16C175.26 111.16 174.393 110.993 173.633 110.66C172.873 110.327 172.273 109.873 171.833 109.3C171.393 108.713 171.146 108.06 171.093 107.34H174.473C174.513 107.727 174.693 108.04 175.013 108.28C175.333 108.52 175.726 108.64 176.193 108.64C176.62 108.64 176.946 108.56 177.173 108.4C177.413 108.227 177.533 108.007 177.533 107.74C177.533 107.42 177.366 107.187 177.033 107.04C176.7 106.88 176.16 106.707 175.413 106.52C174.613 106.333 173.946 106.14 173.413 105.94C172.88 105.727 172.42 105.4 172.033 104.96C171.646 104.507 171.453 103.9 171.453 103.14C171.453 102.5 171.626 101.92 171.973 101.4C172.333 100.867 172.853 100.447 173.533 100.14C174.226 99.8333 175.046 99.68 175.993 99.68C177.393 99.68 178.493 100.027 179.293 100.72C180.106 101.413 180.573 102.333 180.693 103.48H177.533C177.48 103.093 177.306 102.787 177.013 102.56C176.733 102.333 176.36 102.22 175.893 102.22C175.493 102.22 175.186 102.3 174.973 102.46C174.76 102.607 174.653 102.813 174.653 103.08C174.653 103.4 174.82 103.64 175.153 103.8C175.5 103.96 176.033 104.12 176.753 104.28C177.58 104.493 178.253 104.707 178.773 104.92C179.293 105.12 179.746 105.453 180.133 105.92C180.533 106.373 180.74 106.987 180.753 107.76C180.753 108.413 180.566 109 180.193 109.52C179.833 110.027 179.306 110.427 178.613 110.72C177.933 111.013 177.14 111.16 176.233 111.16ZM193.365 105.24C193.365 105.56 193.345 105.893 193.305 106.24H185.565C185.619 106.933 185.839 107.467 186.225 107.84C186.625 108.2 187.112 108.38 187.685 108.38C188.539 108.38 189.132 108.02 189.465 107.3H193.105C192.919 108.033 192.579 108.693 192.085 109.28C191.605 109.867 190.999 110.327 190.265 110.66C189.532 110.993 188.712 111.16 187.805 111.16C186.712 111.16 185.739 110.927 184.885 110.46C184.032 109.993 183.365 109.327 182.885 108.46C182.405 107.593 182.165 106.58 182.165 105.42C182.165 104.26 182.399 103.247 182.865 102.38C183.345 101.513 184.012 100.847 184.865 100.38C185.719 99.9133 186.699 99.68 187.805 99.68C188.885 99.68 189.845 99.9067 190.685 100.36C191.525 100.813 192.179 101.46 192.645 102.3C193.125 103.14 193.365 104.12 193.365 105.24ZM189.865 104.34C189.865 103.753 189.665 103.287 189.265 102.94C188.865 102.593 188.365 102.42 187.765 102.42C187.192 102.42 186.705 102.587 186.305 102.92C185.919 103.253 185.679 103.727 185.585 104.34H189.865ZM198.828 103.96C198.828 102.573 199.128 101.34 199.728 100.26C200.328 99.1667 201.161 98.32 202.228 97.72C203.308 97.1067 204.528 96.8 205.888 96.8C207.555 96.8 208.981 97.24 210.168 98.12C211.355 99 212.148 100.2 212.548 101.72H208.788C208.508 101.133 208.108 100.687 207.588 100.38C207.081 100.073 206.501 99.92 205.848 99.92C204.795 99.92 203.941 100.287 203.288 101.02C202.635 101.753 202.308 102.733 202.308 103.96C202.308 105.187 202.635 106.167 203.288 106.9C203.941 107.633 204.795 108 205.848 108C206.501 108 207.081 107.847 207.588 107.54C208.108 107.233 208.508 106.787 208.788 106.2H212.548C212.148 107.72 211.355 108.92 210.168 109.8C208.981 110.667 207.555 111.1 205.888 111.1C204.528 111.1 203.308 110.8 202.228 110.2C201.161 109.587 200.328 108.74 199.728 107.66C199.128 106.58 198.828 105.347 198.828 103.96ZM221.502 99.72C222.782 99.72 223.809 100.147 224.582 101C225.356 101.84 225.742 103 225.742 104.48V111H222.342V104.94C222.342 104.193 222.149 103.613 221.762 103.2C221.376 102.787 220.856 102.58 220.202 102.58C219.549 102.58 219.029 102.787 218.642 103.2C218.256 103.613 218.062 104.193 218.062 104.94V111H214.642V96.2H218.062V101.34C218.409 100.847 218.882 100.453 219.482 100.16C220.082 99.8667 220.756 99.72 221.502 99.72ZM227.439 105.4C227.439 104.253 227.652 103.247 228.079 102.38C228.519 101.513 229.112 100.847 229.859 100.38C230.606 99.9133 231.439 99.68 232.359 99.68C233.146 99.68 233.832 99.84 234.419 100.16C235.019 100.48 235.479 100.9 235.799 101.42V99.84H239.219V111H235.799V109.42C235.466 109.94 234.999 110.36 234.399 110.68C233.812 111 233.126 111.16 232.339 111.16C231.432 111.16 230.606 110.927 229.859 110.46C229.112 109.98 228.519 109.307 228.079 108.44C227.652 107.56 227.439 106.547 227.439 105.4ZM235.799 105.42C235.799 104.567 235.559 103.893 235.079 103.4C234.612 102.907 234.039 102.66 233.359 102.66C232.679 102.66 232.099 102.907 231.619 103.4C231.152 103.88 230.919 104.547 230.919 105.4C230.919 106.253 231.152 106.933 231.619 107.44C232.099 107.933 232.679 108.18 233.359 108.18C234.039 108.18 234.612 107.933 235.079 107.44C235.559 106.947 235.799 106.273 235.799 105.42ZM245.113 101.7C245.513 101.087 246.013 100.607 246.613 100.26C247.213 99.9 247.88 99.72 248.613 99.72V103.34H247.673C246.82 103.34 246.18 103.527 245.753 103.9C245.326 104.26 245.113 104.9 245.113 105.82V111H241.693V99.84H245.113V101.7ZM256.468 108.1V111H254.728C253.488 111 252.521 110.7 251.828 110.1C251.134 109.487 250.788 108.493 250.788 107.12V102.68H249.428V99.84H250.788V97.12H254.208V99.84H256.448V102.68H254.208V107.16C254.208 107.493 254.288 107.733 254.448 107.88C254.608 108.027 254.874 108.1 255.248 108.1H256.468Z" fill="white"/>
<g clip-path="url(#clip1_454_123)">
<path fill-rule="evenodd" clip-rule="evenodd" d="M286.061 108.06C285.78 108.341 285.398 108.499 285.001 108.499C284.603 108.499 284.222 108.341 283.941 108.06L278.283 102.404C278.002 102.123 277.844 101.741 277.844 101.344C277.844 100.946 278.002 100.564 278.283 100.283C278.565 100.002 278.946 99.8437 279.344 99.8438C279.742 99.8438 280.124 100.002 280.405 100.283L285.001 104.879L289.597 100.283C289.88 100.01 290.258 99.8586 290.652 99.8619C291.045 99.8651 291.421 100.023 291.7 100.301C291.978 100.579 292.136 100.955 292.139 101.348C292.143 101.741 291.992 102.12 291.719 102.403L286.062 108.061L286.061 108.06Z" fill="#66E4FE"/>
</g>
<path d="M71.54 143.5V142.252H74.036V151H72.656V143.5H71.54ZM80.6193 144.28C80.5313 143.912 80.3713 143.636 80.1393 143.452C79.9073 143.268 79.5833 143.176 79.1673 143.176C78.5353 143.176 78.0633 143.42 77.7513 143.908C77.4393 144.388 77.2753 145.188 77.2593 146.308C77.4673 145.956 77.7713 145.684 78.1713 145.492C78.5713 145.3 79.0033 145.204 79.4673 145.204C79.9953 145.204 80.4593 145.32 80.8593 145.552C81.2673 145.776 81.5833 146.104 81.8073 146.536C82.0393 146.968 82.1553 147.484 82.1553 148.084C82.1553 148.644 82.0433 149.144 81.8193 149.584C81.6033 150.024 81.2793 150.372 80.8473 150.628C80.4153 150.876 79.8953 151 79.2873 151C78.4633 151 77.8153 150.82 77.3433 150.46C76.8793 150.092 76.5513 149.576 76.3593 148.912C76.1753 148.248 76.0833 147.42 76.0833 146.428C76.0833 143.5 77.1153 142.036 79.1793 142.036C79.9793 142.036 80.6073 142.252 81.0633 142.684C81.5273 143.116 81.7993 143.648 81.8793 144.28H80.6193ZM79.1673 146.356C78.6793 146.356 78.2633 146.504 77.9193 146.8C77.5833 147.088 77.4153 147.508 77.4153 148.06C77.4153 148.612 77.5713 149.052 77.8833 149.38C78.2033 149.7 78.6473 149.86 79.2153 149.86C79.7193 149.86 80.1153 149.704 80.4033 149.392C80.6993 149.08 80.8473 148.664 80.8473 148.144C80.8473 147.6 80.7033 147.168 80.4153 146.848C80.1353 146.52 79.7193 146.356 79.1673 146.356ZM83.6145 146.512C83.6145 145.128 83.8465 144.048 84.3105 143.272C84.7825 142.488 85.5905 142.096 86.7345 142.096C87.8785 142.096 88.6825 142.488 89.1465 143.272C89.6185 144.048 89.8545 145.128 89.8545 146.512C89.8545 147.912 89.6185 149.008 89.1465 149.8C88.6825 150.584 87.8785 150.976 86.7345 150.976C85.5905 150.976 84.7825 150.584 84.3105 149.8C83.8465 149.008 83.6145 147.912 83.6145 146.512ZM88.5105 146.512C88.5105 145.864 88.4665 145.316 88.3785 144.868C88.2985 144.42 88.1305 144.056 87.8745 143.776C87.6185 143.488 87.2385 143.344 86.7345 143.344C86.2305 143.344 85.8505 143.488 85.5945 143.776C85.3385 144.056 85.1665 144.42 85.0785 144.868C84.9985 145.316 84.9585 145.864 84.9585 146.512C84.9585 147.184 84.9985 147.748 85.0785 148.204C85.1585 148.66 85.3265 149.028 85.5825 149.308C85.8465 149.588 86.2305 149.728 86.7345 149.728C87.2385 149.728 87.6185 149.588 87.8745 149.308C88.1385 149.028 88.3105 148.66 88.3905 148.204C88.4705 147.748 88.5105 147.184 88.5105 146.512Z" fill="#B0B0B0"/>
<path d="M71.54 174.5V173.252H74.036V182H72.656V174.5H71.54ZM75.7473 180.176V179.144L79.7793 173.36H81.4353V178.988H82.5513V180.176H81.4353V182H80.0913V180.176H75.7473ZM80.1513 174.752L77.3193 178.988H80.1513V174.752ZM83.6848 177.512C83.6848 176.128 83.9168 175.048 84.3808 174.272C84.8528 173.488 85.6608 173.096 86.8048 173.096C87.9488 173.096 88.7528 173.488 89.2168 174.272C89.6888 175.048 89.9248 176.128 89.9248 177.512C89.9248 178.912 89.6888 180.008 89.2168 180.8C88.7528 181.584 87.9488 181.976 86.8048 181.976C85.6608 181.976 84.8528 181.584 84.3808 180.8C83.9168 180.008 83.6848 178.912 83.6848 177.512ZM88.5808 177.512C88.5808 176.864 88.5368 176.316 88.4488 175.868C88.3688 175.42 88.2008 175.056 87.9448 174.776C87.6888 174.488 87.3088 174.344 86.8048 174.344C86.3008 174.344 85.9208 174.488 85.6648 174.776C85.4088 175.056 85.2368 175.42 85.1488 175.868C85.0688 176.316 85.0288 176.864 85.0288 177.512C85.0288 178.184 85.0688 178.748 85.1488 179.204C85.2288 179.66 85.3968 180.028 85.6528 180.308C85.9168 180.588 86.3008 180.728 86.8048 180.728C87.3088 180.728 87.6888 180.588 87.9448 180.308C88.2088 180.028 88.3808 179.66 88.4608 179.204C88.5408 178.748 88.5808 178.184 88.5808 177.512Z" fill="#B0B0B0"/>
<path d="M72.04 205.5V204.252H74.536V213H73.156V205.5H72.04ZM77.1713 211.14C77.9393 210.476 78.5433 209.932 78.9833 209.508C79.4313 209.076 79.8033 208.628 80.0993 208.164C80.3953 207.7 80.5433 207.236 80.5433 206.772C80.5433 206.292 80.4273 205.916 80.1953 205.644C79.9713 205.372 79.6153 205.236 79.1273 205.236C78.6553 205.236 78.2873 205.388 78.0233 205.692C77.7673 205.988 77.6313 206.388 77.6153 206.892H76.2953C76.3193 205.98 76.5913 205.284 77.1113 204.804C77.6393 204.316 78.3073 204.072 79.1153 204.072C79.9873 204.072 80.6673 204.312 81.1553 204.792C81.6513 205.272 81.8993 205.912 81.8993 206.712C81.8993 207.288 81.7513 207.844 81.4553 208.38C81.1673 208.908 80.8193 209.384 80.4113 209.808C80.0113 210.224 79.4993 210.708 78.8753 211.26L78.3353 211.74H82.1393V212.88H76.3073V211.884L77.1713 211.14ZM83.3411 208.512C83.3411 207.128 83.5731 206.048 84.0371 205.272C84.5091 204.488 85.3171 204.096 86.4611 204.096C87.6051 204.096 88.4091 204.488 88.8731 205.272C89.3451 206.048 89.5811 207.128 89.5811 208.512C89.5811 209.912 89.3451 211.008 88.8731 211.8C88.4091 212.584 87.6051 212.976 86.4611 212.976C85.3171 212.976 84.5091 212.584 84.0371 211.8C83.5731 211.008 83.3411 209.912 83.3411 208.512ZM88.2371 208.512C88.2371 207.864 88.1931 207.316 88.1051 206.868C88.0251 206.42 87.8571 206.056 87.6011 205.776C87.3451 205.488 86.9651 205.344 86.4611 205.344C85.9571 205.344 85.5771 205.488 85.3211 205.776C85.0651 206.056 84.8931 206.42 84.8051 206.868C84.7251 207.316 84.6851 207.864 84.6851 208.512C84.6851 209.184 84.7251 209.748 84.8051 210.204C84.8851 210.66 85.0531 211.028 85.3091 211.308C85.5731 211.588 85.9571 211.728 86.4611 211.728C86.9651 211.728 87.3451 211.588 87.6011 211.308C87.8651 211.028 88.0371 210.66 88.1171 210.204C88.1971 209.748 88.2371 209.184 88.2371 208.512Z" fill="#B0B0B0"/>
<path d="M71.54 236.5V235.252H74.036V244H72.656V236.5H71.54ZM75.9153 239.512C75.9153 238.128 76.1473 237.048 76.6113 236.272C77.0833 235.488 77.8913 235.096 79.0353 235.096C80.1793 235.096 80.9833 235.488 81.4473 236.272C81.9193 237.048 82.1553 238.128 82.1553 239.512C82.1553 240.912 81.9193 242.008 81.4473 242.8C80.9833 243.584 80.1793 243.976 79.0353 243.976C77.8913 243.976 77.0833 243.584 76.6113 242.8C76.1473 242.008 75.9153 240.912 75.9153 239.512ZM80.8113 239.512C80.8113 238.864 80.7673 238.316 80.6793 237.868C80.5993 237.42 80.4313 237.056 80.1753 236.776C79.9193 236.488 79.5393 236.344 79.0353 236.344C78.5313 236.344 78.1513 236.488 77.8953 236.776C77.6393 237.056 77.4673 237.42 77.3793 237.868C77.2993 238.316 77.2593 238.864 77.2593 239.512C77.2593 240.184 77.2993 240.748 77.3793 241.204C77.4593 241.66 77.6273 242.028 77.8833 242.308C78.1473 242.588 78.5313 242.728 79.0353 242.728C79.5393 242.728 79.9193 242.588 80.1753 242.308C80.4393 242.028 80.6113 241.66 80.6913 241.204C80.7713 240.748 80.8113 240.184 80.8113 239.512ZM83.6028 239.512C83.6028 238.128 83.8348 237.048 84.2988 236.272C84.7708 235.488 85.5788 235.096 86.7228 235.096C87.8668 235.096 88.6708 235.488 89.1348 236.272C89.6068 237.048 89.8428 238.128 89.8428 239.512C89.8428 240.912 89.6068 242.008 89.1348 242.8C88.6708 243.584 87.8668 243.976 86.7228 243.976C85.5788 243.976 84.7708 243.584 84.2988 242.8C83.8348 242.008 83.6028 240.912 83.6028 239.512ZM88.4988 239.512C88.4988 238.864 88.4548 238.316 88.3668 237.868C88.2868 237.42 88.1188 237.056 87.8628 236.776C87.6068 236.488 87.2268 236.344 86.7228 236.344C86.2188 236.344 85.8388 236.488 85.5828 236.776C85.3268 237.056 85.1548 237.42 85.0668 237.868C84.9868 238.316 84.9468 238.864 84.9468 239.512C84.9468 240.184 84.9868 240.748 85.0668 241.204C85.1468 241.66 85.3148 242.028 85.5708 242.308C85.8348 242.588 86.2188 242.728 86.7228 242.728C87.2268 242.728 87.6068 242.588 87.8628 242.308C88.1268 242.028 88.2988 241.66 88.3788 241.204C88.4588 240.748 88.4988 240.184 88.4988 239.512Z" fill="#B0B0B0"/>
<path d="M75.196 270.428C74.364 270.012 73.948 269.356 73.948 268.46C73.948 268.028 74.056 267.632 74.272 267.272C74.488 266.912 74.812 266.628 75.244 266.42C75.676 266.204 76.204 266.096 76.828 266.096C77.444 266.096 77.968 266.204 78.4 266.42C78.84 266.628 79.168 266.912 79.384 267.272C79.6 267.632 79.708 268.028 79.708 268.46C79.708 268.908 79.592 269.304 79.36 269.648C79.136 269.984 78.836 270.244 78.46 270.428C78.916 270.596 79.276 270.872 79.54 271.256C79.804 271.632 79.936 272.076 79.936 272.588C79.936 273.108 79.804 273.568 79.54 273.968C79.276 274.368 78.908 274.676 78.436 274.892C77.964 275.108 77.428 275.216 76.828 275.216C76.228 275.216 75.692 275.108 75.22 274.892C74.756 274.676 74.392 274.368 74.128 273.968C73.864 273.568 73.732 273.108 73.732 272.588C73.732 272.068 73.864 271.62 74.128 271.244C74.392 270.868 74.748 270.596 75.196 270.428ZM78.4 268.628C78.4 268.18 78.26 267.836 77.98 267.596C77.7 267.356 77.316 267.236 76.828 267.236C76.348 267.236 75.968 267.356 75.688 267.596C75.408 267.836 75.268 268.184 75.268 268.64C75.268 269.04 75.412 269.368 75.7 269.624C75.996 269.872 76.372 269.996 76.828 269.996C77.284 269.996 77.66 269.868 77.956 269.612C78.252 269.356 78.4 269.028 78.4 268.628ZM76.828 271.028C76.3 271.028 75.868 271.16 75.532 271.424C75.204 271.68 75.04 272.052 75.04 272.54C75.04 272.996 75.2 273.368 75.52 273.656C75.84 273.936 76.276 274.076 76.828 274.076C77.372 274.076 77.8 273.932 78.112 273.644C78.432 273.356 78.592 272.988 78.592 272.54C78.592 272.06 78.428 271.688 78.1 271.424C77.78 271.16 77.356 271.028 76.828 271.028ZM81.3723 270.512C81.3723 269.128 81.6043 268.048 82.0683 267.272C82.5403 266.488 83.3483 266.096 84.4923 266.096C85.6363 266.096 86.4403 266.488 86.9043 267.272C87.3763 268.048 87.6123 269.128 87.6123 270.512C87.6123 271.912 87.3763 273.008 86.9043 273.8C86.4403 274.584 85.6363 274.976 84.4923 274.976C83.3483 274.976 82.5403 274.584 82.0683 273.8C81.6043 273.008 81.3723 271.912 81.3723 270.512ZM86.2683 270.512C86.2683 269.864 86.2243 269.316 86.1363 268.868C86.0563 268.42 85.8883 268.056 85.6323 267.776C85.3763 267.488 84.9963 267.344 84.4923 267.344C83.9883 267.344 83.6083 267.488 83.3523 267.776C83.0963 268.056 82.9243 268.42 82.8363 268.868C82.7563 269.316 82.7163 269.864 82.7163 270.512C82.7163 271.184 82.7563 271.748 82.8363 272.204C82.9163 272.66 83.0843 273.028 83.3403 273.308C83.6043 273.588 83.9883 273.728 84.4923 273.728C84.9963 273.728 85.3763 273.588 85.6323 273.308C85.8963 273.028 86.0683 272.66 86.1483 272.204C86.2283 271.748 86.2683 271.184 86.2683 270.512Z" fill="#B0B0B0"/>
<path d="M78.424 299.28C78.336 298.912 78.176 298.636 77.944 298.452C77.712 298.268 77.388 298.176 76.972 298.176C76.34 298.176 75.868 298.42 75.556 298.908C75.244 299.388 75.08 300.188 75.064 301.308C75.272 300.956 75.576 300.684 75.976 300.492C76.376 300.3 76.808 300.204 77.272 300.204C77.8 300.204 78.264 300.32 78.664 300.552C79.072 300.776 79.388 301.104 79.612 301.536C79.844 301.968 79.96 302.484 79.96 303.084C79.96 303.644 79.848 304.144 79.624 304.584C79.408 305.024 79.084 305.372 78.652 305.628C78.22 305.876 77.7 306 77.092 306C76.268 306 75.62 305.82 75.148 305.46C74.684 305.092 74.356 304.576 74.164 303.912C73.98 303.248 73.888 302.42 73.888 301.428C73.888 298.5 74.92 297.036 76.984 297.036C77.784 297.036 78.412 297.252 78.868 297.684C79.332 298.116 79.604 298.648 79.684 299.28H78.424ZM76.972 301.356C76.484 301.356 76.068 301.504 75.724 301.8C75.388 302.088 75.22 302.508 75.22 303.06C75.22 303.612 75.376 304.052 75.688 304.38C76.008 304.7 76.452 304.86 77.02 304.86C77.524 304.86 77.92 304.704 78.208 304.392C78.504 304.08 78.652 303.664 78.652 303.144C78.652 302.6 78.508 302.168 78.22 301.848C77.94 301.52 77.524 301.356 76.972 301.356ZM81.4192 301.512C81.4192 300.128 81.6512 299.048 82.1152 298.272C82.5872 297.488 83.3952 297.096 84.5392 297.096C85.6832 297.096 86.4872 297.488 86.9512 298.272C87.4232 299.048 87.6592 300.128 87.6592 301.512C87.6592 302.912 87.4232 304.008 86.9512 304.8C86.4872 305.584 85.6832 305.976 84.5392 305.976C83.3952 305.976 82.5872 305.584 82.1152 304.8C81.6512 304.008 81.4192 302.912 81.4192 301.512ZM86.3152 301.512C86.3152 300.864 86.2712 300.316 86.1832 299.868C86.1032 299.42 85.9352 299.056 85.6792 298.776C85.4232 298.488 85.0432 298.344 84.5392 298.344C84.0352 298.344 83.6552 298.488 83.3992 298.776C83.1432 299.056 82.9712 299.42 82.8832 299.868C82.8032 300.316 82.7632 300.864 82.7632 301.512C82.7632 302.184 82.8032 302.748 82.8832 303.204C82.9632 303.66 83.1312 304.028 83.3872 304.308C83.6512 304.588 84.0352 304.728 84.5392 304.728C85.0432 304.728 85.4232 304.588 85.6792 304.308C85.9432 304.028 86.1152 303.66 86.1952 303.204C86.2752 302.748 86.3152 302.184 86.3152 301.512Z" fill="#B0B0B0"/>
<path d="M73.552 335.176V334.144L77.584 328.36H79.24V333.988H80.356V335.176H79.24V337H77.896V335.176H73.552ZM77.956 329.752L75.124 333.988H77.956V329.752ZM81.4895 332.512C81.4895 331.128 81.7215 330.048 82.1855 329.272C82.6575 328.488 83.4655 328.096 84.6095 328.096C85.7535 328.096 86.5575 328.488 87.0215 329.272C87.4935 330.048 87.7295 331.128 87.7295 332.512C87.7295 333.912 87.4935 335.008 87.0215 335.8C86.5575 336.584 85.7535 336.976 84.6095 336.976C83.4655 336.976 82.6575 336.584 82.1855 335.8C81.7215 335.008 81.4895 333.912 81.4895 332.512ZM86.3855 332.512C86.3855 331.864 86.3415 331.316 86.2535 330.868C86.1735 330.42 86.0055 330.056 85.7495 329.776C85.4935 329.488 85.1135 329.344 84.6095 329.344C84.1055 329.344 83.7255 329.488 83.4695 329.776C83.2135 330.056 83.0415 330.42 82.9535 330.868C82.8735 331.316 82.8335 331.864 82.8335 332.512C82.8335 333.184 82.8735 333.748 82.9535 334.204C83.0335 334.66 83.2015 335.028 83.4575 335.308C83.7215 335.588 84.1055 335.728 84.6095 335.728C85.1135 335.728 85.4935 335.588 85.7495 335.308C86.0135 335.028 86.1855 334.66 86.2655 334.204C86.3455 333.748 86.3855 333.184 86.3855 332.512Z" fill="#B0B0B0"/>
<path d="M74.976 366.14C75.744 365.476 76.348 364.932 76.788 364.508C77.236 364.076 77.608 363.628 77.904 363.164C78.2 362.7 78.348 362.236 78.348 361.772C78.348 361.292 78.232 360.916 78 360.644C77.776 360.372 77.42 360.236 76.932 360.236C76.46 360.236 76.092 360.388 75.828 360.692C75.572 360.988 75.436 361.388 75.42 361.892H74.1C74.124 360.98 74.396 360.284 74.916 359.804C75.444 359.316 76.112 359.072 76.92 359.072C77.792 359.072 78.472 359.312 78.96 359.792C79.456 360.272 79.704 360.912 79.704 361.712C79.704 362.288 79.556 362.844 79.26 363.38C78.972 363.908 78.624 364.384 78.216 364.808C77.816 365.224 77.304 365.708 76.68 366.26L76.14 366.74H79.944V367.88H74.112V366.884L74.976 366.14ZM81.1458 363.512C81.1458 362.128 81.3778 361.048 81.8418 360.272C82.3138 359.488 83.1218 359.096 84.2658 359.096C85.4098 359.096 86.2138 359.488 86.6778 360.272C87.1498 361.048 87.3858 362.128 87.3858 363.512C87.3858 364.912 87.1498 366.008 86.6778 366.8C86.2138 367.584 85.4098 367.976 84.2658 367.976C83.1218 367.976 82.3138 367.584 81.8418 366.8C81.3778 366.008 81.1458 364.912 81.1458 363.512ZM86.0418 363.512C86.0418 362.864 85.9978 362.316 85.9098 361.868C85.8298 361.42 85.6618 361.056 85.4058 360.776C85.1498 360.488 84.7698 360.344 84.2658 360.344C83.7618 360.344 83.3818 360.488 83.1258 360.776C82.8698 361.056 82.6978 361.42 82.6098 361.868C82.5298 362.316 82.4898 362.864 82.4898 363.512C82.4898 364.184 82.5298 364.748 82.6098 365.204C82.6898 365.66 82.8578 366.028 83.1138 366.308C83.3778 366.588 83.7618 366.728 84.2658 366.728C84.7698 366.728 85.1498 366.588 85.4058 366.308C85.6698 366.028 85.8418 365.66 85.9218 365.204C86.0018 364.748 86.0418 364.184 86.0418 363.512Z" fill="#B0B0B0"/>
<path d="M96.54 383.5V382.252H99.036V391H97.656V383.5H96.54ZM101.671 389.14C102.439 388.476 103.043 387.932 103.483 387.508C103.931 387.076 104.303 386.628 104.599 386.164C104.895 385.7 105.043 385.236 105.043 384.772C105.043 384.292 104.927 383.916 104.695 383.644C104.471 383.372 104.115 383.236 103.627 383.236C103.155 383.236 102.787 383.388 102.523 383.692C102.267 383.988 102.131 384.388 102.115 384.892H100.795C100.819 383.98 101.091 383.284 101.611 382.804C102.139 382.316 102.807 382.072 103.615 382.072C104.487 382.072 105.167 382.312 105.655 382.792C106.151 383.272 106.399 383.912 106.399 384.712C106.399 385.288 106.251 385.844 105.955 386.38C105.667 386.908 105.319 387.384 104.911 387.808C104.511 388.224 103.999 388.708 103.375 389.26L102.835 389.74H106.639V390.88H100.807V389.884L101.671 389.14ZM113.049 389.296H109.557L108.957 391H107.529L110.517 382.648H112.101L115.089 391H113.649L113.049 389.296ZM112.665 388.18L111.309 384.304L109.941 388.18H112.665ZM125.172 382.66V391H123.804V385.288L121.26 391H120.312L117.756 385.288V391H116.388V382.66H117.864L120.792 389.2L123.708 382.66H125.172Z" fill="#B0B0B0"/>
<path d="M142.696 384.412C142.744 383.668 143.028 383.088 143.548 382.672C144.076 382.256 144.748 382.048 145.564 382.048C146.124 382.048 146.608 382.148 147.016 382.348C147.424 382.548 147.732 382.82 147.94 383.164C148.148 383.508 148.252 383.896 148.252 384.328C148.252 384.824 148.12 385.248 147.856 385.6C147.592 385.952 147.276 386.188 146.908 386.308V386.356C147.38 386.5 147.748 386.764 148.012 387.148C148.276 387.524 148.408 388.008 148.408 388.6C148.408 389.072 148.3 389.492 148.084 389.86C147.868 390.228 147.548 390.52 147.124 390.736C146.7 390.944 146.192 391.048 145.6 391.048C144.736 391.048 144.024 390.828 143.464 390.388C142.912 389.94 142.616 389.3 142.576 388.468H143.896C143.928 388.892 144.092 389.24 144.388 389.512C144.684 389.776 145.084 389.908 145.588 389.908C146.076 389.908 146.452 389.776 146.716 389.512C146.98 389.24 147.112 388.892 147.112 388.468C147.112 387.908 146.932 387.512 146.572 387.28C146.22 387.04 145.676 386.92 144.94 386.92H144.628V385.792H144.952C145.6 385.784 146.092 385.676 146.428 385.468C146.772 385.26 146.944 384.932 146.944 384.484C146.944 384.1 146.82 383.796 146.572 383.572C146.324 383.34 145.972 383.224 145.516 383.224C145.068 383.224 144.72 383.34 144.472 383.572C144.224 383.796 144.076 384.076 144.028 384.412H142.696ZM155.053 389.296H151.561L150.961 391H149.533L152.521 382.648H154.105L157.093 391H155.653L155.053 389.296ZM154.669 388.18L153.313 384.304L151.945 388.18H154.669ZM167.176 382.66V391H165.808V385.288L163.264 391H162.316L159.76 385.288V391H158.392V382.66H159.868L162.796 389.2L165.712 382.66H167.176Z" fill="#B0B0B0"/>
<path d="M189.424 384.28C189.336 383.912 189.176 383.636 188.944 383.452C188.712 383.268 188.388 383.176 187.972 383.176C187.34 383.176 186.868 383.42 186.556 383.908C186.244 384.388 186.08 385.188 186.064 386.308C186.272 385.956 186.576 385.684 186.976 385.492C187.376 385.3 187.808 385.204 188.272 385.204C188.8 385.204 189.264 385.32 189.664 385.552C190.072 385.776 190.388 386.104 190.612 386.536C190.844 386.968 190.96 387.484 190.96 388.084C190.96 388.644 190.848 389.144 190.624 389.584C190.408 390.024 190.084 390.372 189.652 390.628C189.22 390.876 188.7 391 188.092 391C187.268 391 186.62 390.82 186.148 390.46C185.684 390.092 185.356 389.576 185.164 388.912C184.98 388.248 184.888 387.42 184.888 386.428C184.888 383.5 185.92 382.036 187.984 382.036C188.784 382.036 189.412 382.252 189.868 382.684C190.332 383.116 190.604 383.648 190.684 384.28H189.424ZM187.972 386.356C187.484 386.356 187.068 386.504 186.724 386.8C186.388 387.088 186.22 387.508 186.22 388.06C186.22 388.612 186.376 389.052 186.688 389.38C187.008 389.7 187.452 389.86 188.02 389.86C188.524 389.86 188.92 389.704 189.208 389.392C189.504 389.08 189.652 388.664 189.652 388.144C189.652 387.6 189.508 387.168 189.22 386.848C188.94 386.52 188.524 386.356 187.972 386.356ZM197.627 389.296H194.135L193.535 391H192.107L195.095 382.648H196.679L199.667 391H198.227L197.627 389.296ZM197.243 388.18L195.887 384.304L194.519 388.18H197.243ZM209.75 382.66V391H208.382V385.288L205.838 391H204.89L202.334 385.288V391H200.966V382.66H202.442L205.37 389.2L208.286 382.66H209.75Z" fill="#B0B0B0"/>
<path d="M228.424 388.624C228.504 389.024 228.676 389.328 228.94 389.536C229.204 389.744 229.56 389.848 230.008 389.848C230.576 389.848 230.992 389.624 231.256 389.176C231.52 388.728 231.652 387.964 231.652 386.884C231.46 387.156 231.188 387.368 230.836 387.52C230.492 387.664 230.116 387.736 229.708 387.736C229.188 387.736 228.716 387.632 228.292 387.424C227.868 387.208 227.532 386.892 227.284 386.476C227.044 386.052 226.924 385.54 226.924 384.94C226.924 384.06 227.18 383.36 227.692 382.84C228.212 382.312 228.924 382.048 229.828 382.048C230.916 382.048 231.688 382.412 232.144 383.14C232.608 383.86 232.84 384.968 232.84 386.464C232.84 387.496 232.752 388.34 232.576 388.996C232.408 389.652 232.112 390.148 231.688 390.484C231.264 390.82 230.676 390.988 229.924 390.988C229.068 390.988 228.408 390.764 227.944 390.316C227.48 389.868 227.22 389.304 227.164 388.624H228.424ZM229.948 386.584C230.428 386.584 230.804 386.436 231.076 386.14C231.356 385.836 231.496 385.436 231.496 384.94C231.496 384.388 231.348 383.96 231.052 383.656C230.764 383.344 230.368 383.188 229.864 383.188C229.36 383.188 228.96 383.348 228.664 383.668C228.376 383.98 228.232 384.392 228.232 384.904C228.232 385.392 228.372 385.796 228.652 386.116C228.94 386.428 229.372 386.584 229.948 386.584ZM239.545 389.296H236.053L235.453 391H234.025L237.013 382.648H238.597L241.585 391H240.145L239.545 389.296ZM239.161 388.18L237.805 384.304L236.437 388.18H239.161ZM251.668 382.66V391H250.3V385.288L247.756 391H246.808L244.252 385.288V391H242.884V382.66H244.36L247.288 389.2L250.204 382.66H251.668Z" fill="#B0B0B0"/>
<path d="M268.54 383.5V382.252H271.036V391H269.656V383.5H268.54ZM273.671 389.14C274.439 388.476 275.043 387.932 275.483 387.508C275.931 387.076 276.303 386.628 276.599 386.164C276.895 385.7 277.043 385.236 277.043 384.772C277.043 384.292 276.927 383.916 276.695 383.644C276.471 383.372 276.115 383.236 275.627 383.236C275.155 383.236 274.787 383.388 274.523 383.692C274.267 383.988 274.131 384.388 274.115 384.892H272.795C272.819 383.98 273.091 383.284 273.611 382.804C274.139 382.316 274.807 382.072 275.615 382.072C276.487 382.072 277.167 382.312 277.655 382.792C278.151 383.272 278.399 383.912 278.399 384.712C278.399 385.288 278.251 385.844 277.955 386.38C277.667 386.908 277.319 387.384 276.911 387.808C276.511 388.224 275.999 388.708 275.375 389.26L274.835 389.74H278.639V390.88H272.807V389.884L273.671 389.14ZM285.853 385.144C285.853 385.568 285.753 385.968 285.553 386.344C285.353 386.72 285.033 387.028 284.593 387.268C284.153 387.5 283.589 387.616 282.901 387.616H281.389V391H280.021V382.66H282.901C283.541 382.66 284.081 382.772 284.521 382.996C284.969 383.212 285.301 383.508 285.517 383.884C285.741 384.26 285.853 384.68 285.853 385.144ZM282.901 386.5C283.421 386.5 283.809 386.384 284.065 386.152C284.321 385.912 284.449 385.576 284.449 385.144C284.449 384.232 283.933 383.776 282.901 383.776H281.389V386.5H282.901ZM295.942 382.66V391H294.574V385.288L292.03 391H291.082L288.526 385.288V391H287.158V382.66H288.634L291.562 389.2L294.478 382.66H295.942Z" fill="#B0B0B0"/>
<path d="M312.696 384.412C312.744 383.668 313.028 383.088 313.548 382.672C314.076 382.256 314.748 382.048 315.564 382.048C316.124 382.048 316.608 382.148 317.016 382.348C317.424 382.548 317.732 382.82 317.94 383.164C318.148 383.508 318.252 383.896 318.252 384.328C318.252 384.824 318.12 385.248 317.856 385.6C317.592 385.952 317.276 386.188 316.908 386.308V386.356C317.38 386.5 317.748 386.764 318.012 387.148C318.276 387.524 318.408 388.008 318.408 388.6C318.408 389.072 318.3 389.492 318.084 389.86C317.868 390.228 317.548 390.52 317.124 390.736C316.7 390.944 316.192 391.048 315.6 391.048C314.736 391.048 314.024 390.828 313.464 390.388C312.912 389.94 312.616 389.3 312.576 388.468H313.896C313.928 388.892 314.092 389.24 314.388 389.512C314.684 389.776 315.084 389.908 315.588 389.908C316.076 389.908 316.452 389.776 316.716 389.512C316.98 389.24 317.112 388.892 317.112 388.468C317.112 387.908 316.932 387.512 316.572 387.28C316.22 387.04 315.676 386.92 314.94 386.92H314.628V385.792H314.952C315.6 385.784 316.092 385.676 316.428 385.468C316.772 385.26 316.944 384.932 316.944 384.484C316.944 384.1 316.82 383.796 316.572 383.572C316.324 383.34 315.972 383.224 315.516 383.224C315.068 383.224 314.72 383.34 314.472 383.572C314.224 383.796 314.076 384.076 314.028 384.412H312.696ZM325.857 385.144C325.857 385.568 325.757 385.968 325.557 386.344C325.357 386.72 325.037 387.028 324.597 387.268C324.157 387.5 323.593 387.616 322.905 387.616H321.393V391H320.025V382.66H322.905C323.545 382.66 324.085 382.772 324.525 382.996C324.973 383.212 325.305 383.508 325.521 383.884C325.745 384.26 325.857 384.68 325.857 385.144ZM322.905 386.5C323.425 386.5 323.813 386.384 324.069 386.152C324.325 385.912 324.453 385.576 324.453 385.144C324.453 384.232 323.937 383.776 322.905 383.776H321.393V386.5H322.905ZM335.946 382.66V391H334.578V385.288L332.034 391H331.086L328.53 385.288V391H327.162V382.66H328.638L331.566 389.2L334.482 382.66H335.946Z" fill="#B0B0B0"/>
<path d="M357.424 384.28C357.336 383.912 357.176 383.636 356.944 383.452C356.712 383.268 356.388 383.176 355.972 383.176C355.34 383.176 354.868 383.42 354.556 383.908C354.244 384.388 354.08 385.188 354.064 386.308C354.272 385.956 354.576 385.684 354.976 385.492C355.376 385.3 355.808 385.204 356.272 385.204C356.8 385.204 357.264 385.32 357.664 385.552C358.072 385.776 358.388 386.104 358.612 386.536C358.844 386.968 358.96 387.484 358.96 388.084C358.96 388.644 358.848 389.144 358.624 389.584C358.408 390.024 358.084 390.372 357.652 390.628C357.22 390.876 356.7 391 356.092 391C355.268 391 354.62 390.82 354.148 390.46C353.684 390.092 353.356 389.576 353.164 388.912C352.98 388.248 352.888 387.42 352.888 386.428C352.888 383.5 353.92 382.036 355.984 382.036C356.784 382.036 357.412 382.252 357.868 382.684C358.332 383.116 358.604 383.648 358.684 384.28H357.424ZM355.972 386.356C355.484 386.356 355.068 386.504 354.724 386.8C354.388 387.088 354.22 387.508 354.22 388.06C354.22 388.612 354.376 389.052 354.688 389.38C355.008 389.7 355.452 389.86 356.02 389.86C356.524 389.86 356.92 389.704 357.208 389.392C357.504 389.08 357.652 388.664 357.652 388.144C357.652 387.6 357.508 387.168 357.22 386.848C356.94 386.52 356.524 386.356 355.972 386.356ZM366.431 385.144C366.431 385.568 366.331 385.968 366.131 386.344C365.931 386.72 365.611 387.028 365.171 387.268C364.731 387.5 364.167 387.616 363.479 387.616H361.967V391H360.599V382.66H363.479C364.119 382.66 364.659 382.772 365.099 382.996C365.547 383.212 365.879 383.508 366.095 383.884C366.319 384.26 366.431 384.68 366.431 385.144ZM363.479 386.5C363.999 386.5 364.387 386.384 364.643 386.152C364.899 385.912 365.027 385.576 365.027 385.144C365.027 384.232 364.511 383.776 363.479 383.776H361.967V386.5H363.479ZM376.52 382.66V391H375.152V385.288L372.608 391H371.66L369.104 385.288V391H367.736V382.66H369.212L372.14 389.2L375.056 382.66H376.52Z" fill="#B0B0B0"/>
<rect width="335" height="33" transform="translate(97 242)" fill="#19ABC9" fill-opacity="0.1"/>
<path d="M97 288.191C103.797 285.051 119.81 273.194 129.487 250.88C142.274 228.783 171.551 185.33 198.646 238.362C218.655 286.983 245.648 384.057 263.62 309C267.306 293.303 280.861 274.425 293.303 274.425C304.592 274.305 329.729 264.645 339.959 226.971C346.641 217.312 363.253 208.569 376.247 250.88C383.966 281.791 406.522 329.776 435 274.425" stroke="#19ABC9" stroke-width="2.5"/>
<ellipse cx="169.837" cy="212.5" rx="4.28451" ry="4.5" fill="#66E4FE"/>
<ellipse cx="247.91" cy="335.5" rx="4.28451" ry="4.5" fill="#66E4FE"/>
<line x1="96.75" y1="129" x2="96.75" y2="373" stroke="#B0B0B0" stroke-width="1.5"/>
<line x1="96" y1="372.25" x2="451" y2="372.25" stroke="#B0B0B0" stroke-width="1.5"/>
<g filter="url(#filter1_d_454_123)">
<rect x="115" y="161" width="110" height="42.2561" rx="6.70732" fill="#AFB7BE" fill-opacity="0.1" shape-rendering="crispEdges"/>
<path d="M122.553 167.126V172.72H121.636V170.273H119.004V172.72H118.086V167.126H119.004V169.524H121.636V167.126H122.553ZM124.228 167.697C124.062 167.697 123.922 167.641 123.809 167.528C123.697 167.416 123.64 167.276 123.64 167.11C123.64 166.943 123.697 166.804 123.809 166.691C123.922 166.579 124.062 166.522 124.228 166.522C124.389 166.522 124.526 166.579 124.638 166.691C124.751 166.804 124.807 166.943 124.807 167.11C124.807 167.276 124.751 167.416 124.638 167.528C124.526 167.641 124.389 167.697 124.228 167.697ZM124.679 168.285V172.72H123.761V168.285H124.679ZM127.67 168.212C128.014 168.212 128.317 168.282 128.58 168.422C128.848 168.556 129.057 168.725 129.207 168.929V168.285H130.133V172.792C130.133 173.2 130.047 173.562 129.876 173.879C129.704 174.201 129.454 174.453 129.127 174.635C128.805 174.818 128.419 174.909 127.968 174.909C127.367 174.909 126.868 174.767 126.471 174.482C126.074 174.203 125.848 173.822 125.795 173.339H126.704C126.774 173.57 126.922 173.755 127.147 173.895C127.378 174.04 127.651 174.112 127.968 174.112C128.338 174.112 128.636 173.999 128.861 173.774C129.092 173.549 129.207 173.221 129.207 172.792V172.052C129.052 172.261 128.84 172.438 128.572 172.583C128.309 172.722 128.008 172.792 127.67 172.792C127.284 172.792 126.93 172.696 126.608 172.502C126.291 172.304 126.039 172.03 125.851 171.681C125.669 171.327 125.577 170.928 125.577 170.482C125.577 170.037 125.669 169.642 125.851 169.299C126.039 168.956 126.291 168.69 126.608 168.502C126.93 168.309 127.284 168.212 127.67 168.212ZM129.207 170.498C129.207 170.192 129.143 169.927 129.014 169.701C128.891 169.476 128.727 169.304 128.523 169.186C128.319 169.068 128.099 169.009 127.863 169.009C127.627 169.009 127.407 169.068 127.203 169.186C126.999 169.299 126.833 169.468 126.704 169.693C126.581 169.913 126.519 170.176 126.519 170.482C126.519 170.788 126.581 171.056 126.704 171.287C126.833 171.518 126.999 171.695 127.203 171.818C127.413 171.936 127.633 171.995 127.863 171.995C128.099 171.995 128.319 171.936 128.523 171.818C128.727 171.7 128.891 171.529 129.014 171.303C129.143 171.072 129.207 170.804 129.207 170.498ZM133.632 168.212C133.97 168.212 134.271 168.285 134.534 168.43C134.802 168.575 135.011 168.789 135.161 169.074C135.317 169.358 135.395 169.701 135.395 170.104V172.72H134.485V170.241C134.485 169.844 134.386 169.54 134.188 169.331C133.989 169.117 133.718 169.009 133.375 169.009C133.031 169.009 132.758 169.117 132.554 169.331C132.355 169.54 132.256 169.844 132.256 170.241V172.72H131.338V166.764H132.256V168.8C132.411 168.612 132.607 168.467 132.843 168.365C133.085 168.263 133.348 168.212 133.632 168.212ZM140.63 170.394C140.63 170.56 140.619 170.71 140.598 170.844H137.209C137.236 171.199 137.367 171.483 137.604 171.698C137.84 171.912 138.129 172.019 138.473 172.019C138.966 172.019 139.315 171.813 139.519 171.4H140.509C140.375 171.808 140.131 172.143 139.777 172.406C139.428 172.663 138.993 172.792 138.473 172.792C138.049 172.792 137.668 172.698 137.33 172.51C136.997 172.317 136.734 172.049 136.541 171.706C136.353 171.357 136.259 170.954 136.259 170.498C136.259 170.042 136.351 169.642 136.533 169.299C136.721 168.95 136.981 168.682 137.314 168.494C137.652 168.306 138.038 168.212 138.473 168.212C138.891 168.212 139.264 168.304 139.592 168.486C139.919 168.669 140.174 168.926 140.356 169.259C140.539 169.586 140.63 169.964 140.63 170.394ZM139.672 170.104C139.667 169.766 139.546 169.495 139.31 169.291C139.074 169.087 138.781 168.985 138.433 168.985C138.116 168.985 137.845 169.087 137.62 169.291C137.394 169.489 137.26 169.76 137.217 170.104H139.672ZM143.143 172.792C142.794 172.792 142.48 172.73 142.201 172.607C141.927 172.478 141.71 172.307 141.549 172.092C141.388 171.872 141.302 171.628 141.291 171.359H142.241C142.257 171.547 142.346 171.706 142.507 171.834C142.673 171.958 142.88 172.019 143.127 172.019C143.384 172.019 143.583 171.971 143.722 171.875C143.867 171.773 143.939 171.644 143.939 171.488C143.939 171.322 143.859 171.199 143.698 171.118C143.542 171.038 143.293 170.949 142.949 170.852C142.617 170.761 142.346 170.673 142.137 170.587C141.927 170.501 141.745 170.369 141.589 170.192C141.439 170.015 141.364 169.782 141.364 169.492C141.364 169.256 141.434 169.041 141.573 168.848C141.713 168.65 141.911 168.494 142.169 168.381C142.432 168.269 142.732 168.212 143.07 168.212C143.575 168.212 143.98 168.341 144.286 168.599C144.597 168.851 144.763 169.197 144.785 169.637H143.867C143.851 169.439 143.77 169.28 143.626 169.162C143.481 169.044 143.285 168.985 143.038 168.985C142.797 168.985 142.611 169.031 142.483 169.122C142.354 169.213 142.289 169.334 142.289 169.484C142.289 169.602 142.332 169.701 142.418 169.782C142.504 169.862 142.609 169.927 142.732 169.975C142.856 170.018 143.038 170.074 143.279 170.144C143.601 170.23 143.864 170.319 144.068 170.41C144.278 170.496 144.457 170.624 144.608 170.796C144.758 170.968 144.836 171.196 144.841 171.48C144.841 171.732 144.771 171.958 144.632 172.156C144.492 172.355 144.294 172.51 144.036 172.623C143.784 172.736 143.486 172.792 143.143 172.792ZM146.903 169.033V171.488C146.903 171.655 146.94 171.775 147.016 171.85C147.096 171.92 147.23 171.955 147.418 171.955H147.981V172.72H147.257C146.844 172.72 146.527 172.623 146.307 172.43C146.087 172.237 145.977 171.923 145.977 171.488V169.033H145.454V168.285H145.977V167.182H146.903V168.285H147.981V169.033H146.903ZM153.823 172.72L152.536 170.482H151.835V172.72H150.918V167.126H152.85C153.279 167.126 153.641 167.201 153.936 167.351C154.237 167.501 154.459 167.703 154.604 167.955C154.754 168.207 154.83 168.489 154.83 168.8C154.83 169.165 154.722 169.498 154.508 169.798C154.298 170.093 153.974 170.294 153.534 170.402L154.918 172.72H153.823ZM151.835 169.75H152.85C153.193 169.75 153.451 169.664 153.622 169.492C153.799 169.32 153.888 169.09 153.888 168.8C153.888 168.51 153.802 168.285 153.63 168.124C153.459 167.958 153.198 167.874 152.85 167.874H151.835V169.75ZM160.068 170.394C160.068 170.56 160.057 170.71 160.036 170.844H156.647C156.674 171.199 156.806 171.483 157.042 171.698C157.278 171.912 157.568 172.019 157.911 172.019C158.405 172.019 158.753 171.813 158.957 171.4H159.947C159.813 171.808 159.569 172.143 159.215 172.406C158.866 172.663 158.431 172.792 157.911 172.792C157.487 172.792 157.106 172.698 156.768 172.51C156.435 172.317 156.172 172.049 155.979 171.706C155.791 171.357 155.698 170.954 155.698 170.498C155.698 170.042 155.789 169.642 155.971 169.299C156.159 168.95 156.419 168.682 156.752 168.494C157.09 168.306 157.476 168.212 157.911 168.212C158.329 168.212 158.702 168.304 159.03 168.486C159.357 168.669 159.612 168.926 159.794 169.259C159.977 169.586 160.068 169.964 160.068 170.394ZM159.11 170.104C159.105 169.766 158.984 169.495 158.748 169.291C158.512 169.087 158.219 168.985 157.871 168.985C157.554 168.985 157.283 169.087 157.058 169.291C156.832 169.489 156.698 169.76 156.655 170.104H159.11ZM160.665 170.482C160.665 170.037 160.756 169.642 160.939 169.299C161.127 168.956 161.379 168.69 161.695 168.502C162.017 168.309 162.371 168.212 162.758 168.212C163.107 168.212 163.41 168.282 163.667 168.422C163.93 168.556 164.14 168.725 164.295 168.929V168.285H165.221V172.72H164.295V172.06C164.14 172.269 163.928 172.443 163.659 172.583C163.391 172.722 163.085 172.792 162.742 172.792C162.361 172.792 162.012 172.696 161.695 172.502C161.379 172.304 161.127 172.03 160.939 171.681C160.756 171.327 160.665 170.928 160.665 170.482ZM164.295 170.498C164.295 170.192 164.231 169.927 164.102 169.701C163.979 169.476 163.815 169.304 163.611 169.186C163.407 169.068 163.187 169.009 162.951 169.009C162.715 169.009 162.495 169.068 162.291 169.186C162.087 169.299 161.921 169.468 161.792 169.693C161.669 169.913 161.607 170.176 161.607 170.482C161.607 170.788 161.669 171.056 161.792 171.287C161.921 171.518 162.087 171.695 162.291 171.818C162.5 171.936 162.72 171.995 162.951 171.995C163.187 171.995 163.407 171.936 163.611 171.818C163.815 171.7 163.979 171.529 164.102 171.303C164.231 171.072 164.295 170.804 164.295 170.498ZM166.12 170.482C166.12 170.037 166.211 169.642 166.394 169.299C166.582 168.956 166.834 168.69 167.15 168.502C167.472 168.309 167.829 168.212 168.221 168.212C168.511 168.212 168.795 168.277 169.074 168.406C169.358 168.529 169.584 168.695 169.75 168.905V166.764H170.676V172.72H169.75V172.052C169.6 172.266 169.391 172.443 169.122 172.583C168.859 172.722 168.556 172.792 168.213 172.792C167.826 172.792 167.472 172.696 167.15 172.502C166.834 172.304 166.582 172.03 166.394 171.681C166.211 171.327 166.12 170.928 166.12 170.482ZM169.75 170.498C169.75 170.192 169.686 169.927 169.557 169.701C169.433 169.476 169.27 169.304 169.066 169.186C168.862 169.068 168.642 169.009 168.406 169.009C168.17 169.009 167.95 169.068 167.746 169.186C167.542 169.299 167.376 169.468 167.247 169.693C167.123 169.913 167.062 170.176 167.062 170.482C167.062 170.788 167.123 171.056 167.247 171.287C167.376 171.518 167.542 171.695 167.746 171.818C167.955 171.936 168.175 171.995 168.406 171.995C168.642 171.995 168.862 171.936 169.066 171.818C169.27 171.7 169.433 171.529 169.557 171.303C169.686 171.072 169.75 170.804 169.75 170.498ZM172.348 167.697C172.181 167.697 172.042 167.641 171.929 167.528C171.816 167.416 171.76 167.276 171.76 167.11C171.76 166.943 171.816 166.804 171.929 166.691C172.042 166.579 172.181 166.522 172.348 166.522C172.509 166.522 172.645 166.579 172.758 166.691C172.871 166.804 172.927 166.943 172.927 167.11C172.927 167.276 172.871 167.416 172.758 167.528C172.645 167.641 172.509 167.697 172.348 167.697ZM172.798 168.285V172.72H171.881V168.285H172.798ZM176.241 168.212C176.589 168.212 176.901 168.285 177.174 168.43C177.453 168.575 177.671 168.789 177.826 169.074C177.982 169.358 178.06 169.701 178.06 170.104V172.72H177.15V170.241C177.15 169.844 177.051 169.54 176.852 169.331C176.654 169.117 176.383 169.009 176.039 169.009C175.696 169.009 175.422 169.117 175.218 169.331C175.02 169.54 174.921 169.844 174.921 170.241V172.72H174.003V168.285H174.921V168.792C175.071 168.609 175.261 168.467 175.492 168.365C175.728 168.263 175.978 168.212 176.241 168.212ZM181.017 168.212C181.36 168.212 181.664 168.282 181.926 168.422C182.195 168.556 182.404 168.725 182.554 168.929V168.285H183.48V172.792C183.48 173.2 183.394 173.562 183.222 173.879C183.051 174.201 182.801 174.453 182.474 174.635C182.152 174.818 181.765 174.909 181.315 174.909C180.714 174.909 180.215 174.767 179.818 174.482C179.421 174.203 179.195 173.822 179.142 173.339H180.051C180.121 173.57 180.268 173.755 180.494 173.895C180.724 174.04 180.998 174.112 181.315 174.112C181.685 174.112 181.983 173.999 182.208 173.774C182.439 173.549 182.554 173.221 182.554 172.792V172.052C182.399 172.261 182.187 172.438 181.918 172.583C181.655 172.722 181.355 172.792 181.017 172.792C180.631 172.792 180.276 172.696 179.954 172.502C179.638 172.304 179.386 172.03 179.198 171.681C179.015 171.327 178.924 170.928 178.924 170.482C178.924 170.037 179.015 169.642 179.198 169.299C179.386 168.956 179.638 168.69 179.954 168.502C180.276 168.309 180.631 168.212 181.017 168.212ZM182.554 170.498C182.554 170.192 182.49 169.927 182.361 169.701C182.238 169.476 182.074 169.304 181.87 169.186C181.666 169.068 181.446 169.009 181.21 169.009C180.974 169.009 180.754 169.068 180.55 169.186C180.346 169.299 180.18 169.468 180.051 169.693C179.928 169.913 179.866 170.176 179.866 170.482C179.866 170.788 179.928 171.056 180.051 171.287C180.18 171.518 180.346 171.695 180.55 171.818C180.759 171.936 180.979 171.995 181.21 171.995C181.446 171.995 181.666 171.936 181.87 171.818C182.074 171.7 182.238 171.529 182.361 171.303C182.49 171.072 182.554 170.804 182.554 170.498Z" fill="#B0B0B0"/>
<path d="M191.656 168.301C191.688 167.802 191.879 167.413 192.228 167.134C192.582 166.855 193.033 166.715 193.58 166.715C193.956 166.715 194.28 166.782 194.554 166.917C194.828 167.051 195.034 167.233 195.174 167.464C195.313 167.695 195.383 167.955 195.383 168.245C195.383 168.577 195.294 168.862 195.117 169.098C194.94 169.334 194.728 169.492 194.481 169.573V169.605C194.798 169.701 195.045 169.879 195.222 170.136C195.399 170.388 195.488 170.713 195.488 171.11C195.488 171.427 195.415 171.708 195.27 171.955C195.125 172.202 194.911 172.398 194.626 172.543C194.342 172.682 194.001 172.752 193.604 172.752C193.025 172.752 192.547 172.604 192.171 172.309C191.801 172.009 191.603 171.579 191.576 171.021H192.461C192.483 171.306 192.593 171.539 192.791 171.722C192.99 171.899 193.258 171.987 193.596 171.987C193.923 171.987 194.176 171.899 194.353 171.722C194.53 171.539 194.618 171.306 194.618 171.021C194.618 170.646 194.498 170.38 194.256 170.225C194.02 170.064 193.655 169.983 193.161 169.983H192.952V169.227H193.169C193.604 169.221 193.934 169.149 194.159 169.009C194.39 168.87 194.506 168.65 194.506 168.349C194.506 168.092 194.422 167.888 194.256 167.738C194.09 167.582 193.854 167.504 193.548 167.504C193.247 167.504 193.014 167.582 192.848 167.738C192.681 167.888 192.582 168.076 192.55 168.301H191.656ZM196.942 172.776C196.776 172.776 196.636 172.72 196.524 172.607C196.411 172.494 196.355 172.355 196.355 172.189C196.355 172.022 196.411 171.883 196.524 171.77C196.636 171.657 196.776 171.601 196.942 171.601C197.103 171.601 197.24 171.657 197.353 171.77C197.465 171.883 197.522 172.022 197.522 172.189C197.522 172.355 197.465 172.494 197.353 172.607C197.24 172.72 197.103 172.776 196.942 172.776ZM196.942 169.396C196.776 169.396 196.636 169.339 196.524 169.227C196.411 169.114 196.355 168.974 196.355 168.808C196.355 168.642 196.411 168.502 196.524 168.389C196.636 168.277 196.776 168.22 196.942 168.22C197.103 168.22 197.24 168.277 197.353 168.389C197.465 168.502 197.522 168.642 197.522 168.808C197.522 168.974 197.465 169.114 197.353 169.227C197.24 169.339 197.103 169.396 196.942 169.396ZM198.408 168.301C198.44 167.802 198.631 167.413 198.98 167.134C199.334 166.855 199.784 166.715 200.332 166.715C200.707 166.715 201.032 166.782 201.306 166.917C201.579 167.051 201.786 167.233 201.925 167.464C202.065 167.695 202.135 167.955 202.135 168.245C202.135 168.577 202.046 168.862 201.869 169.098C201.692 169.334 201.48 169.492 201.233 169.573V169.605C201.55 169.701 201.797 169.879 201.974 170.136C202.151 170.388 202.239 170.713 202.239 171.11C202.239 171.427 202.167 171.708 202.022 171.955C201.877 172.202 201.663 172.398 201.378 172.543C201.094 172.682 200.753 172.752 200.356 172.752C199.776 172.752 199.299 172.604 198.923 172.309C198.553 172.009 198.354 171.579 198.328 171.021H199.213C199.234 171.306 199.344 171.539 199.543 171.722C199.742 171.899 200.01 171.987 200.348 171.987C200.675 171.987 200.927 171.899 201.104 171.722C201.282 171.539 201.37 171.306 201.37 171.021C201.37 170.646 201.249 170.38 201.008 170.225C200.772 170.064 200.407 169.983 199.913 169.983H199.704V169.227H199.921C200.356 169.221 200.686 169.149 200.911 169.009C201.142 168.87 201.257 168.65 201.257 168.349C201.257 168.092 201.174 167.888 201.008 167.738C200.842 167.582 200.605 167.504 200.3 167.504C199.999 167.504 199.766 167.582 199.599 167.738C199.433 167.888 199.334 168.076 199.302 168.301H198.408ZM203.203 169.709C203.203 168.781 203.359 168.057 203.67 167.536C203.987 167.01 204.529 166.748 205.296 166.748C206.063 166.748 206.602 167.01 206.914 167.536C207.23 168.057 207.389 168.781 207.389 169.709C207.389 170.649 207.23 171.384 206.914 171.915C206.602 172.441 206.063 172.704 205.296 172.704C204.529 172.704 203.987 172.441 203.67 171.915C203.359 171.384 203.203 170.649 203.203 169.709ZM206.487 169.709C206.487 169.275 206.458 168.907 206.399 168.607C206.345 168.306 206.232 168.062 206.061 167.874C205.889 167.681 205.634 167.585 205.296 167.585C204.958 167.585 204.703 167.681 204.531 167.874C204.36 168.062 204.244 168.306 204.185 168.607C204.131 168.907 204.105 169.275 204.105 169.709C204.105 170.16 204.131 170.539 204.185 170.844C204.239 171.15 204.351 171.397 204.523 171.585C204.7 171.773 204.958 171.867 205.296 171.867C205.634 171.867 205.889 171.773 206.061 171.585C206.238 171.397 206.353 171.15 206.407 170.844C206.46 170.539 206.487 170.16 206.487 169.709ZM213.943 171.577H211.601L211.199 172.72H210.241L212.245 167.118H213.308L215.312 172.72H214.346L213.943 171.577ZM213.686 170.828L212.776 168.229L211.859 170.828H213.686ZM222.075 167.126V172.72H221.157V168.889L219.451 172.72H218.815L217.101 168.889V172.72H216.183V167.126H217.173L219.137 171.512L221.093 167.126H222.075Z" fill="#B0B0B0"/>
<path d="M118.01 182.533V180.613H121.354V189.427H119.205V182.533H118.01ZM122.549 182.533V180.613H125.893V189.427H123.744V182.533H122.549ZM127.305 184.899C127.305 183.515 127.571 182.424 128.102 181.627C128.641 180.831 129.507 180.432 130.698 180.432C131.889 180.432 132.75 180.831 133.282 181.627C133.821 182.424 134.09 183.515 134.09 184.899C134.09 186.3 133.821 187.398 133.282 188.195C132.75 188.992 131.889 189.391 130.698 189.391C129.507 189.391 128.641 188.992 128.102 188.195C127.571 187.398 127.305 186.3 127.305 184.899ZM132.062 184.899C132.062 184.086 131.974 183.463 131.797 183.028C131.619 182.585 131.253 182.364 130.698 182.364C130.143 182.364 129.776 182.585 129.599 183.028C129.422 183.463 129.334 184.086 129.334 184.899C129.334 185.447 129.366 185.901 129.43 186.264C129.495 186.618 129.623 186.907 129.817 187.133C130.018 187.35 130.312 187.459 130.698 187.459C131.084 187.459 131.374 187.35 131.567 187.133C131.768 186.907 131.901 186.618 131.966 186.264C132.03 185.901 132.062 185.447 132.062 184.899Z" fill="#B0B0B0"/>
<path d="M148.091 183.535C147.898 183.181 147.632 182.911 147.294 182.726C146.956 182.541 146.562 182.448 146.111 182.448C145.612 182.448 145.17 182.561 144.783 182.787C144.397 183.012 144.095 183.334 143.878 183.752C143.66 184.171 143.552 184.654 143.552 185.201C143.552 185.765 143.66 186.256 143.878 186.674C144.103 187.093 144.413 187.415 144.807 187.64C145.202 187.865 145.661 187.978 146.184 187.978C146.828 187.978 147.355 187.809 147.765 187.471C148.176 187.125 148.445 186.646 148.574 186.034H145.677V184.742H150.24V186.215C150.128 186.803 149.886 187.346 149.516 187.845C149.146 188.344 148.667 188.747 148.079 189.052C147.5 189.35 146.848 189.499 146.123 189.499C145.31 189.499 144.574 189.318 143.914 188.956C143.262 188.586 142.747 188.075 142.369 187.423C141.998 186.771 141.813 186.03 141.813 185.201C141.813 184.372 141.998 183.632 142.369 182.98C142.747 182.32 143.262 181.809 143.914 181.446C144.574 181.076 145.306 180.891 146.111 180.891C147.061 180.891 147.886 181.124 148.586 181.591C149.286 182.05 149.769 182.698 150.035 183.535H148.091ZM154.461 189.535C153.817 189.535 153.237 189.395 152.722 189.113C152.207 188.823 151.801 188.417 151.503 187.893C151.213 187.37 151.068 186.767 151.068 186.082C151.068 185.398 151.217 184.795 151.515 184.272C151.821 183.748 152.235 183.346 152.758 183.064C153.282 182.774 153.865 182.63 154.509 182.63C155.153 182.63 155.737 182.774 156.26 183.064C156.783 183.346 157.193 183.748 157.491 184.272C157.797 184.795 157.95 185.398 157.95 186.082C157.95 186.767 157.793 187.37 157.479 187.893C157.173 188.417 156.755 188.823 156.223 189.113C155.7 189.395 155.113 189.535 154.461 189.535ZM154.461 188.062C154.767 188.062 155.052 187.99 155.318 187.845C155.592 187.692 155.809 187.467 155.97 187.169C156.131 186.871 156.211 186.509 156.211 186.082C156.211 185.447 156.042 184.96 155.704 184.622C155.374 184.276 154.968 184.102 154.485 184.102C154.002 184.102 153.596 184.276 153.266 184.622C152.944 184.96 152.783 185.447 152.783 186.082C152.783 186.718 152.94 187.209 153.253 187.555C153.575 187.893 153.978 188.062 154.461 188.062ZM162.16 189.535C161.516 189.535 160.936 189.395 160.421 189.113C159.906 188.823 159.5 188.417 159.202 187.893C158.912 187.37 158.767 186.767 158.767 186.082C158.767 185.398 158.916 184.795 159.214 184.272C159.52 183.748 159.934 183.346 160.457 183.064C160.981 182.774 161.564 182.63 162.208 182.63C162.852 182.63 163.436 182.774 163.959 183.064C164.482 183.346 164.892 183.748 165.19 184.272C165.496 184.795 165.649 185.398 165.649 186.082C165.649 186.767 165.492 187.37 165.178 187.893C164.872 188.417 164.454 188.823 163.922 189.113C163.399 189.395 162.812 189.535 162.16 189.535ZM162.16 188.062C162.466 188.062 162.751 187.99 163.017 187.845C163.291 187.692 163.508 187.467 163.669 187.169C163.83 186.871 163.91 186.509 163.91 186.082C163.91 185.447 163.741 184.96 163.403 184.622C163.073 184.276 162.667 184.102 162.184 184.102C161.701 184.102 161.295 184.276 160.965 184.622C160.643 184.96 160.482 185.447 160.482 186.082C160.482 186.718 160.639 187.209 160.952 187.555C161.274 187.893 161.677 188.062 162.16 188.062ZM166.454 186.058C166.454 185.382 166.587 184.783 166.853 184.259C167.126 183.736 167.496 183.334 167.963 183.052C168.43 182.77 168.949 182.63 169.521 182.63C169.955 182.63 170.37 182.726 170.764 182.919C171.159 183.104 171.473 183.354 171.706 183.668V180.493H173.42V189.427H171.706V188.437C171.497 188.767 171.203 189.032 170.825 189.234C170.446 189.435 170.008 189.535 169.509 189.535C168.945 189.535 168.43 189.391 167.963 189.101C167.496 188.811 167.126 188.405 166.853 187.881C166.587 187.35 166.454 186.742 166.454 186.058ZM171.718 186.082C171.718 185.672 171.638 185.322 171.477 185.032C171.316 184.734 171.098 184.509 170.825 184.356C170.551 184.195 170.257 184.115 169.943 184.115C169.629 184.115 169.34 184.191 169.074 184.344C168.808 184.497 168.591 184.722 168.422 185.02C168.261 185.31 168.181 185.656 168.181 186.058C168.181 186.461 168.261 186.815 168.422 187.121C168.591 187.419 168.808 187.648 169.074 187.809C169.348 187.97 169.637 188.05 169.943 188.05C170.257 188.05 170.551 187.974 170.825 187.821C171.098 187.66 171.316 187.435 171.477 187.145C171.638 186.847 171.718 186.493 171.718 186.082Z" fill="#66E4FE"/>
<path d="M158.327 192.989C158.613 192.989 158.868 193.049 159.092 193.17C159.315 193.286 159.492 193.463 159.622 193.7C159.751 193.937 159.816 194.225 159.816 194.565V196.731H159.213V194.652C159.213 194.286 159.121 194.006 158.938 193.814C158.759 193.617 158.515 193.519 158.206 193.519C157.889 193.519 157.636 193.621 157.449 193.827C157.261 194.028 157.167 194.321 157.167 194.706V196.731H156.563V194.652C156.563 194.286 156.472 194.006 156.288 193.814C156.109 193.617 155.866 193.519 155.557 193.519C155.24 193.519 154.987 193.621 154.799 193.827C154.611 194.028 154.517 194.321 154.517 194.706V196.731H153.907V193.056H154.517V193.586C154.638 193.393 154.799 193.246 155 193.143C155.206 193.04 155.432 192.989 155.678 192.989C155.986 192.989 156.259 193.058 156.496 193.197C156.733 193.335 156.91 193.539 157.026 193.807C157.129 193.548 157.299 193.346 157.536 193.203C157.773 193.06 158.037 192.989 158.327 192.989ZM162.333 192.995C162.651 192.995 162.928 193.065 163.165 193.203C163.406 193.342 163.585 193.516 163.702 193.727V193.056H164.319V196.812C164.319 197.147 164.247 197.445 164.104 197.704C163.961 197.968 163.755 198.174 163.487 198.321C163.223 198.469 162.915 198.542 162.561 198.542C162.078 198.542 161.676 198.428 161.354 198.2C161.032 197.972 160.842 197.662 160.784 197.268H161.388C161.455 197.492 161.593 197.67 161.803 197.805C162.014 197.943 162.266 198.013 162.561 198.013C162.897 198.013 163.169 197.907 163.38 197.697C163.594 197.487 163.702 197.192 163.702 196.812V196.041C163.581 196.255 163.402 196.434 163.165 196.577C162.928 196.72 162.651 196.792 162.333 196.792C162.007 196.792 161.71 196.711 161.441 196.55C161.177 196.389 160.969 196.164 160.817 195.873C160.665 195.582 160.589 195.251 160.589 194.88C160.589 194.505 160.665 194.176 160.817 193.894C160.969 193.608 161.177 193.387 161.441 193.23C161.71 193.074 162.007 192.995 162.333 192.995ZM163.702 194.887C163.702 194.61 163.646 194.368 163.534 194.163C163.422 193.957 163.27 193.8 163.078 193.693C162.89 193.581 162.682 193.525 162.454 193.525C162.226 193.525 162.018 193.579 161.83 193.686C161.642 193.794 161.493 193.95 161.381 194.156C161.269 194.362 161.213 194.603 161.213 194.88C161.213 195.162 161.269 195.408 161.381 195.618C161.493 195.824 161.642 195.982 161.83 196.094C162.018 196.202 162.226 196.255 162.454 196.255C162.682 196.255 162.89 196.202 163.078 196.094C163.27 195.982 163.422 195.824 163.534 195.618C163.646 195.408 163.702 195.164 163.702 194.887ZM167.631 190.413L165.793 197.872H165.189L167.02 190.413H167.631ZM168.312 194.88C168.312 194.505 168.388 194.176 168.54 193.894C168.692 193.608 168.9 193.387 169.164 193.23C169.432 193.074 169.732 192.995 170.063 192.995C170.349 192.995 170.615 193.063 170.861 193.197C171.107 193.326 171.295 193.499 171.424 193.713V191.768H172.041V196.731H171.424V196.041C171.303 196.26 171.125 196.441 170.888 196.584C170.651 196.723 170.373 196.792 170.056 196.792C169.729 196.792 169.432 196.711 169.164 196.55C168.9 196.389 168.692 196.164 168.54 195.873C168.388 195.582 168.312 195.251 168.312 194.88ZM171.424 194.887C171.424 194.61 171.368 194.368 171.257 194.163C171.145 193.957 170.993 193.8 170.8 193.693C170.613 193.581 170.405 193.525 170.177 193.525C169.949 193.525 169.741 193.579 169.553 193.686C169.365 193.794 169.215 193.95 169.103 194.156C168.992 194.362 168.936 194.603 168.936 194.88C168.936 195.162 168.992 195.408 169.103 195.618C169.215 195.824 169.365 195.982 169.553 196.094C169.741 196.202 169.949 196.255 170.177 196.255C170.405 196.255 170.613 196.202 170.8 196.094C170.993 195.982 171.145 195.824 171.257 195.618C171.368 195.408 171.424 195.164 171.424 194.887ZM173.683 191.768V196.731H173.073V191.768H173.683Z" fill="#9D9D9D"/>
</g>
</g>
<defs>
<filter id="filter0_d_454_123" x="-0.824578" y="0.332484" width="178.414" height="102.491" filterUnits="userSpaceOnUse" color-interpolation-filters="sRGB">
<feFlood flood-opacity="0" result="BackgroundImageFix"/>
<feColorMatrix in="SourceAlpha" type="matrix" values="0 0 0 0 0 0 0 0 0 0 0 0 0 0 0 0 0 0 127 0" result="hardAlpha"/>
<feOffset dx="-3.1178" dy="1.03927"/>
<feGaussianBlur stdDeviation="9.35339"/>
<feComposite in2="hardAlpha" operator="out"/>
<feColorMatrix type="matrix" values="0 0 0 0 0 0 0 0 0 0 0 0 0 0 0 0 0 0 0.25 0"/>
<feBlend mode="normal" in2="BackgroundImageFix" result="effect1_dropShadow_454_123"/>
<feBlend mode="normal" in="SourceGraphic" in2="effect1_dropShadow_454_123" result="shape"/>
</filter>
<filter id="filter1_d_454_123" x="100.915" y="149.598" width="134.146" height="66.4022" filterUnits="userSpaceOnUse" color-interpolation-filters="sRGB">
<feFlood flood-opacity="0" result="BackgroundImageFix"/>
<feColorMatrix in="SourceAlpha" type="matrix" values="0 0 0 0 0 0 0 0 0 0 0 0 0 0 0 0 0 0 127 0" result="hardAlpha"/>
<feOffset dx="-2.0122" dy="0.670732"/>
<feGaussianBlur stdDeviation="6.03659"/>
<feComposite in2="hardAlpha" operator="out"/>
<feColorMatrix type="matrix" values="0 0 0 0 0 0 0 0 0 0 0 0 0 0 0 0 0 0 0.25 0"/>
<feBlend mode="normal" in2="BackgroundImageFix" result="effect1_dropShadow_454_123"/>
<feBlend mode="normal" in="SourceGraphic" in2="effect1_dropShadow_454_123" result="shape"/>
</filter>
<clipPath id="clip0_454_123">
<rect width="379" height="344" fill="white" transform="translate(53 68)"/>
</clipPath>
<clipPath id="clip1_454_123">
<rect width="24" height="24" fill="white" transform="translate(273 92)"/>
</clipPath>
</defs>
</svg>
