<svg width="152" height="178" viewBox="0 0 152 178" fill="none" xmlns="http://www.w3.org/2000/svg">
<rect x="3.82227" width="174.052" height="174.052" rx="32.84" transform="rotate(1.03485 3.82227 0)" fill="#66E4FE"/>
<path d="M37.5625 28.0905C38.8466 28.1231 40.108 28.3803 41.3465 28.8622C42.585 29.3441 43.6964 30.1144 44.6807 31.1731C45.6744 32.232 46.4552 33.6527 47.0232 35.4354C47.6007 37.2088 47.8704 39.4081 47.8324 42.0332C47.7868 44.5549 47.4932 46.7956 46.9514 48.7551C46.4098 50.7053 45.6533 52.3468 44.6821 53.6796C43.7203 55.0127 42.5627 56.0186 41.2094 56.6975C39.8561 57.3764 38.3405 57.7007 36.6624 57.6704C34.9468 57.6394 33.4296 57.2744 32.1105 56.5753C30.7915 55.8763 29.7256 54.924 28.9128 53.7183C28.1001 52.5033 27.6047 51.1158 27.4266 49.5559L31.7155 49.6334C31.9744 50.8759 32.5281 51.8893 33.3767 52.6736C34.2348 53.4487 35.3529 53.8487 36.731 53.8736C38.8403 53.9117 40.5021 53.0227 41.7165 51.2066C42.9311 49.3812 43.573 46.8139 43.6421 43.5048L43.4171 43.5007C42.9151 44.2981 42.2932 44.9809 41.5515 45.5489C40.8191 46.1171 40.0001 46.5524 39.0944 46.8549C38.1886 47.1574 37.2248 47.2994 36.203 47.2809C34.5437 47.251 33.0417 46.8159 31.6971 45.9757C30.3526 45.1356 29.29 43.9958 28.5095 42.5562C27.7291 41.1167 27.3553 39.4829 27.3883 37.6549C27.4212 35.8362 27.8635 34.1937 28.7152 32.7274C29.5763 31.2613 30.7599 30.1105 32.2661 29.2749C33.7818 28.4302 35.5472 28.0354 37.5625 28.0905ZM37.5105 31.7469C36.4136 31.7271 35.4197 31.9811 34.5287 32.5089C33.6472 33.0275 32.945 33.7416 32.4222 34.6512C31.8995 35.5514 31.6281 36.5593 31.608 37.6748C31.5878 38.7904 31.8133 39.8073 32.2843 40.7254C32.7649 41.6344 33.4269 42.3637 34.2704 42.9135C35.1234 43.4541 36.103 43.7343 37.2092 43.7543C38.0341 43.7692 38.8057 43.6237 39.524 43.3179C40.2422 43.012 40.8736 42.5827 41.4181 42.0298C41.9628 41.4676 42.3916 40.8283 42.7047 40.1119C43.0177 39.3954 43.1814 38.6388 43.1958 37.842C43.2149 36.7826 42.9796 35.7937 42.4898 34.8752C42.0094 33.9569 41.3382 33.2133 40.4764 32.6445C39.6147 32.0662 38.6261 31.7671 37.5105 31.7469ZM52.6334 57.565L52.6903 54.4151L62.6176 44.4946C63.678 43.4166 64.5532 42.4712 65.243 41.6584C65.9425 40.8364 66.4677 40.0535 66.8187 39.3096C67.1698 38.5657 67.3529 37.7719 67.3681 36.9282C67.3854 35.972 67.1753 35.143 66.7379 34.4411C66.3006 33.7299 65.6963 33.1797 64.925 32.7907C64.1538 32.3923 63.2808 32.1843 62.3058 32.1667C61.2746 32.148 60.3708 32.3427 59.5945 32.7507C58.8181 33.1587 58.2168 33.7433 57.7904 34.5045C57.364 35.2658 57.1415 36.1621 57.1229 37.1933L52.9746 37.1183C53.0063 35.3653 53.4371 33.8398 54.267 32.5419C55.0969 31.244 56.2215 30.2469 57.6407 29.5504C59.0601 28.8446 60.6651 28.5078 62.4557 28.5402C64.265 28.5729 65.8522 28.9626 67.2172 29.7093C68.5918 30.4469 69.657 31.4414 70.4127 32.6929C71.1686 33.935 71.5326 35.3295 71.5047 36.8763C71.4854 37.945 71.2649 38.9867 70.8433 40.0012C70.4312 41.016 69.7215 42.1425 68.7145 43.381C67.7076 44.61 66.3116 46.0993 64.5264 47.8488L58.6949 53.7358L58.6911 53.9468L71.6563 54.181L71.589 57.9074L52.6334 57.565Z" fill="#030606"/>
<path d="M25.5854 81.7962L25.7707 71.5399L27.6871 71.5745L27.6569 73.2438L27.7838 73.2461C28.0077 72.6846 28.3651 72.2502 28.856 71.9429C29.347 71.6312 29.9308 71.4814 30.6075 71.4936C31.293 71.506 31.8643 71.6767 32.3215 72.0055C32.7831 72.3345 33.1202 72.7814 33.3326 73.3463L33.4395 73.3483C33.6942 72.8051 34.0916 72.3759 34.6316 72.0606C35.1718 71.7409 35.8113 71.5876 36.5503 71.601C37.4806 71.6178 38.2344 71.9231 38.8114 72.5168C39.3929 73.1107 39.6731 73.9952 39.6519 75.1704L39.5276 82.0481L37.5311 82.012L37.652 75.3213C37.6645 74.6269 37.4844 74.1204 37.1117 73.802C36.7389 73.4836 36.2899 73.3196 35.7646 73.3101C35.1147 73.2984 34.6058 73.4896 34.238 73.8837C33.8703 74.2734 33.6808 74.7798 33.6695 75.403L33.5514 81.9401L31.5616 81.9042L31.6847 75.0866C31.6948 74.5302 31.5293 74.0797 31.1882 73.7351C30.8471 73.3905 30.3983 73.2132 29.8418 73.2031C29.4635 73.1963 29.1122 73.2901 28.7881 73.4847C28.4685 73.6748 28.2076 73.944 28.0053 74.2921C27.8076 74.6403 27.7045 75.0459 27.6961 75.5089L27.5819 81.8323L25.5854 81.7962ZM46.4304 86.2339C45.6158 86.2192 44.9166 86.0997 44.3329 85.8754C43.7536 85.6512 43.2823 85.3599 42.9192 85.0015C42.5561 84.6432 42.2871 84.2531 42.1121 83.8314L43.841 83.1546C43.9576 83.3527 44.1141 83.5625 44.3105 83.7843C44.5113 84.0106 44.7838 84.2047 45.1282 84.3668C45.4771 84.529 45.9275 84.615 46.4795 84.625C47.2363 84.6387 47.8651 84.4652 48.3658 84.1047C48.8666 83.7486 49.1242 83.1699 49.1386 82.3686L49.1751 80.3521L49.0482 80.3498C48.9241 80.5657 48.7461 80.8052 48.5142 81.0682C48.2868 81.3313 47.9755 81.5572 47.5802 81.746C47.1849 81.9348 46.6735 82.0235 46.0458 82.0122C45.2356 81.9975 44.509 81.7952 43.8659 81.405C43.2273 81.0105 42.7256 80.4382 42.3606 79.6879C42.0002 78.9333 41.8298 78.0107 41.8495 76.9201C41.8692 75.8294 42.0709 74.898 42.4544 74.1256C42.8424 73.3534 43.3651 72.7661 44.0225 72.3638C44.68 71.9571 45.4205 71.7612 46.244 71.7761C46.8806 71.7876 47.3928 71.9037 47.7807 72.1245C48.1687 72.3408 48.4692 72.5911 48.6822 72.8755C48.8998 73.16 49.0667 73.4101 49.183 73.626L49.3299 73.6286L49.3599 71.966L51.3164 72.0013L51.127 82.4847C51.1111 83.3661 50.8933 84.0858 50.4735 84.6437C50.0538 85.2017 49.492 85.6101 48.7882 85.869C48.0888 86.128 47.3029 86.2496 46.4304 86.2339ZM46.5164 80.3642C47.0907 80.3745 47.5783 80.2497 47.9793 79.9898C48.3848 79.7255 48.6945 79.3437 48.9084 78.8444C49.1268 78.3407 49.2424 77.7349 49.2552 77.0271C49.2676 76.3371 49.1762 75.7277 48.9809 75.1987C48.7856 74.6697 48.4926 74.2547 48.1017 73.9538C47.7109 73.6484 47.2239 73.4904 46.6408 73.4799C46.0398 73.469 45.5362 73.6158 45.1299 73.9201C44.7237 74.22 44.4135 74.633 44.1991 75.1591C43.9892 75.6852 43.8784 76.2754 43.8666 76.9298C43.8544 77.602 43.9462 78.1937 44.1418 78.7048C44.3374 79.216 44.6329 79.6177 45.0284 79.9098C45.4283 80.202 45.9243 80.3535 46.5164 80.3642ZM59.2756 68.084L54.5729 84.3771L52.79 84.3449L57.4928 68.0517L59.2756 68.084ZM64.5489 82.7004C63.7209 82.6855 62.9858 82.4607 62.3435 82.026C61.7057 81.587 61.2092 80.9702 60.854 80.1756C60.5033 79.3767 60.3379 78.423 60.358 77.3145C60.378 76.2061 60.5798 75.2612 60.9636 74.48C61.3517 73.6988 61.8745 73.1049 62.532 72.6982C63.1895 72.2915 63.93 72.0956 64.7535 72.1104C65.3901 72.1219 65.9001 72.238 66.2835 72.4587C66.6715 72.675 66.9698 72.9253 67.1784 73.2096C67.3914 73.494 67.5561 73.7441 67.6725 73.96L67.7927 73.9621L67.8845 68.8807L69.881 68.9168L69.6339 82.5919L67.6842 82.5567L67.713 80.9608L67.5461 80.9578C67.4219 81.1737 67.2438 81.4199 67.0117 81.6962C66.7841 81.9726 66.4725 82.2119 66.077 82.4141C65.6815 82.6162 65.1721 82.7117 64.5489 82.7004ZM65.0204 81.0057C65.5946 81.016 66.0826 80.8734 66.4842 80.5779C66.8904 80.278 67.2008 79.8583 67.4154 79.3189C67.6344 78.7796 67.7504 78.1494 67.7634 77.4282C67.7763 76.716 67.6852 76.0909 67.4901 75.5531C67.2949 75.0152 67.002 74.5935 66.6112 74.2881C66.2204 73.9827 65.7334 73.8247 65.1503 73.8142C64.5493 73.8033 64.0457 73.9501 63.6394 74.2545C63.2332 74.5588 62.9228 74.9785 62.7083 75.5134C62.4982 76.0485 62.3871 76.6543 62.3749 77.3309C62.3625 78.0164 62.4537 78.6348 62.6486 79.1861C62.8435 79.7373 63.1384 80.1768 63.5332 80.5046C63.9326 80.8279 64.4283 80.995 65.0204 81.0057ZM72.6437 82.6463L72.8908 68.9711L74.9541 69.0084L74.7391 80.9074L80.9357 81.0193L80.9036 82.7955L72.6437 82.6463Z" fill="#030606"/>
<path d="M24.8205 128.778L25.0819 114.307L30.5086 114.405C31.6203 114.425 32.5493 114.649 33.2955 115.077C34.0464 115.506 34.6084 116.086 34.9816 116.818C35.3596 117.546 35.5403 118.369 35.5237 119.288C35.5069 120.216 35.2965 121.037 34.8925 121.75C34.4885 122.464 33.9012 123.021 33.1306 123.422C32.3601 123.818 31.4166 124.006 30.3002 123.986L26.7036 123.921L26.7425 121.766L29.9858 121.824C30.6359 121.836 31.1702 121.733 31.5888 121.514C32.0075 121.295 32.3193 120.99 32.5243 120.598C32.734 120.206 32.8435 119.753 32.8527 119.24C32.862 118.726 32.7689 118.272 32.5734 117.877C32.3826 117.483 32.0796 117.173 31.6642 116.949C31.2537 116.72 30.721 116.6 30.0662 116.588L27.6638 116.545L27.442 128.825L24.8205 128.778ZM42.1583 129.303C41.0702 129.284 40.1345 129.041 39.3513 128.574C38.5729 128.103 37.9792 127.447 37.5703 126.605C37.1615 125.759 36.9673 124.768 36.9878 123.633C37.008 122.517 37.2377 121.541 37.6769 120.705C38.1209 119.865 38.731 119.216 39.5074 118.759C40.2838 118.297 41.1902 118.076 42.2265 118.094C42.8954 118.106 43.5247 118.226 44.1143 118.453C44.7088 118.676 45.2304 119.016 45.6792 119.471C46.1328 119.927 46.4852 120.504 46.7365 121.201C46.9879 121.893 47.105 122.715 47.0878 123.667L47.0736 124.451L38.1776 124.291L38.2087 122.567L44.6529 122.683C44.657 122.193 44.5589 121.755 44.3585 121.37C44.1582 120.98 43.874 120.671 43.5059 120.443C43.1424 120.215 42.7158 120.096 42.2259 120.087C41.703 120.078 41.2414 120.197 40.8411 120.444C40.4409 120.687 40.1264 121.011 39.8976 121.417C39.6736 121.818 39.5548 122.261 39.5414 122.746L39.5142 124.251C39.5028 124.882 39.6084 125.426 39.8311 125.883C40.0538 126.334 40.3703 126.684 40.7805 126.932C41.1907 127.175 41.6738 127.301 42.2297 127.311C42.6018 127.318 42.9396 127.272 43.2429 127.174C43.5464 127.071 43.8106 126.918 44.0358 126.715C44.2609 126.512 44.4328 126.258 44.5514 125.954L46.9348 126.265C46.7727 126.894 46.4754 127.44 46.0429 127.903C45.6152 128.362 45.0717 128.715 44.4122 128.962C43.7528 129.205 43.0016 129.319 42.1583 129.303ZM52.2714 129.493C51.5836 129.481 50.9664 129.347 50.4197 129.092C49.8778 128.832 49.451 128.457 49.1395 127.966C48.8326 127.475 48.6856 126.874 48.6985 126.163C48.7095 125.551 48.8317 125.046 49.0651 124.65C49.2984 124.254 49.6127 123.939 50.0081 123.706C50.4034 123.472 50.8471 123.299 51.3392 123.185C51.8361 123.067 52.3489 122.985 52.8775 122.938C53.5147 122.883 54.0315 122.834 54.4282 122.789C54.8249 122.739 55.1138 122.66 55.2948 122.55C55.4807 122.436 55.5758 122.256 55.5802 122.011L55.581 121.969C55.5906 121.436 55.4402 121.021 55.1299 120.723C54.8196 120.426 54.3676 120.271 53.7741 120.261C53.1476 120.249 52.6481 120.377 52.2757 120.644C51.9081 120.91 51.6573 121.229 51.5234 121.598L49.1412 121.216C49.3416 120.56 49.6624 120.014 50.1038 119.579C50.5453 119.14 51.0813 118.815 51.7118 118.605C52.3424 118.39 53.0369 118.289 53.7953 118.303C54.3182 118.313 54.8376 118.383 55.3536 118.515C55.8695 118.647 56.3393 118.858 56.7628 119.148C57.1865 119.434 57.5235 119.82 57.7739 120.305C58.029 120.79 58.1501 121.393 58.1371 122.114L58.0059 129.378L55.5469 129.333L55.5738 127.842L55.489 127.841C55.3281 128.139 55.104 128.418 54.8166 128.677C54.534 128.931 54.1793 129.134 53.7524 129.287C53.3303 129.434 52.8367 129.503 52.2714 129.493ZM52.9696 127.625C53.483 127.635 53.93 127.542 54.3105 127.346C54.6911 127.145 54.9857 126.877 55.1944 126.542C55.4078 126.206 55.5181 125.838 55.5254 125.438L55.5485 124.159C55.4672 124.224 55.3295 124.282 55.1353 124.335C54.9459 124.389 54.733 124.434 54.4967 124.472C54.2604 124.51 54.0266 124.544 53.7951 124.573C53.5637 124.602 53.363 124.626 53.193 124.647C52.8105 124.692 52.4674 124.77 52.1638 124.883C51.8602 124.995 51.6194 125.155 51.4412 125.364C51.2632 125.568 51.1712 125.835 51.1652 126.165C51.1567 126.636 51.3223 126.995 51.6618 127.241C52.0013 127.488 52.4372 127.616 52.9696 127.625ZM62.9712 126.06L63.0199 122.972L63.4297 122.98L67.4089 118.69L70.3978 118.744L65.5035 124L64.9735 123.99L62.9712 126.06ZM60.5779 129.424L60.8393 114.953L63.3972 114.999L63.1358 129.47L60.5779 129.424ZM67.3895 129.547L63.9457 124.544L65.7024 122.773L70.449 129.602L67.3895 129.547ZM34.2776 142.099C34.1667 141.716 34.0103 141.371 33.8085 141.066C33.6115 140.756 33.3713 140.49 33.0878 140.268C32.8091 140.047 32.487 139.878 32.1215 139.763C31.7561 139.644 31.3567 139.58 30.9234 139.572C30.1461 139.558 29.4501 139.741 28.8354 140.121C28.2206 140.501 27.7321 141.067 27.3698 141.819C27.0123 142.567 26.8238 143.482 26.8042 144.566C26.7845 145.658 26.9397 146.587 27.2699 147.352C27.6001 148.116 28.0678 148.702 28.673 149.109C29.2783 149.511 29.9861 149.719 30.7964 149.734C31.5312 149.747 32.1697 149.617 32.7118 149.344C33.2587 149.072 33.6828 148.679 33.9842 148.166C34.2857 147.648 34.4428 147.038 34.4555 146.337L35.0474 146.439L31.1187 146.368L31.1557 144.319L37.0275 144.425L36.9961 146.163C36.9737 147.402 36.6906 148.469 36.1467 149.364C35.6027 150.259 34.8647 150.943 33.9326 151.416C33.0005 151.885 31.9362 152.108 30.7397 152.087C29.4066 152.063 28.2414 151.742 27.2441 151.126C26.2517 150.505 25.4828 149.636 24.9375 148.518C24.397 147.397 24.1406 146.072 24.1681 144.546C24.1892 143.378 24.3729 142.338 24.7193 141.425C25.0703 140.512 25.5508 139.741 26.1606 139.111C26.7705 138.477 27.4812 138 28.2928 137.68C29.1045 137.355 29.9837 137.201 30.9305 137.218C31.7313 137.233 32.4759 137.364 33.1641 137.612C33.8524 137.856 34.4612 138.196 34.9904 138.635C35.5244 139.073 35.9604 139.59 36.2983 140.185C36.6363 140.78 36.853 141.434 36.9485 142.148L34.2776 142.099ZM42.1318 137.619L41.8704 152.09L39.3126 152.044L39.574 137.572L42.1318 137.619ZM51.5008 147.698L51.6144 141.409L54.1723 141.455L53.9762 152.308L51.4961 152.264L51.5309 150.335L51.4179 150.333C51.1619 150.936 50.7502 151.426 50.1826 151.802C49.6198 152.178 48.9309 152.359 48.116 152.344C47.4047 152.331 46.7786 152.162 46.2379 151.836C45.702 151.506 45.2864 151.035 44.9912 150.421C44.696 149.804 44.5563 149.061 44.572 148.194L44.6968 141.284L47.2547 141.33L47.137 147.845C47.1246 148.533 47.3031 149.083 47.6727 149.495C48.0422 149.906 48.5332 150.118 49.1455 150.129C49.5224 150.136 49.8891 150.051 50.2457 149.873C50.6024 149.696 50.897 149.428 51.1297 149.069C51.3671 148.706 51.4908 148.249 51.5008 147.698ZM61.3369 152.653C60.2535 152.634 59.3274 152.379 58.5587 151.889C57.7948 151.4 57.2108 150.732 56.8067 149.886C56.4074 149.035 56.2176 148.061 56.2374 146.963C56.2573 145.861 56.4869 144.892 56.9261 144.057C57.3654 143.216 57.9755 142.568 58.7566 142.11C59.5424 141.649 60.4653 141.427 61.5252 141.447C62.4061 141.462 63.1828 141.639 63.8552 141.976C64.5325 142.309 65.0684 142.773 65.4628 143.37C65.8574 143.961 66.0759 144.648 66.1183 145.431L63.6735 145.387C63.584 144.862 63.3563 144.422 62.9905 144.067C62.6294 143.707 62.1404 143.522 61.5233 143.51C61.0004 143.501 60.5385 143.634 60.1377 143.91C59.737 144.18 59.4212 144.575 59.1904 145.094C58.9643 145.613 58.8446 146.238 58.8314 146.968C58.8181 147.707 58.9149 148.345 59.122 148.881C59.3291 149.413 59.6256 149.826 60.0114 150.12C60.402 150.41 60.8635 150.56 61.3958 150.569C61.7726 150.576 62.1107 150.512 62.41 150.376C62.7141 150.235 62.9699 150.03 63.1774 149.76C63.3849 149.491 63.5299 149.161 63.6123 148.772L66.0572 148.816C65.9821 149.583 65.7436 150.259 65.3419 150.846C64.9403 151.427 64.3997 151.879 63.72 152.202C63.0404 152.519 62.2461 152.67 61.3369 152.653ZM72.8209 152.861C71.761 152.842 70.8466 152.592 70.0778 152.112C69.309 151.631 68.7178 150.968 68.3043 150.122C67.8954 149.275 67.7012 148.292 67.7214 147.171C67.7417 146.05 67.9714 145.071 68.4106 144.236C68.8545 143.4 69.4693 142.756 70.255 142.304C71.0406 141.852 71.9634 141.635 73.0233 141.654C74.0832 141.673 74.9976 141.923 75.7664 142.404C76.5352 142.884 77.124 143.55 77.5328 144.4C77.9462 145.251 78.1428 146.237 78.1225 147.359C78.1023 148.48 77.8702 149.456 77.4264 150.286C76.9873 151.117 76.3749 151.759 75.5893 152.211C74.8036 152.663 73.8808 152.88 72.8209 152.861ZM72.872 150.812C73.4467 150.822 73.9301 150.673 74.322 150.365C74.7141 150.051 75.0092 149.628 75.2073 149.094C75.4102 148.561 75.5175 147.964 75.5294 147.305C75.5414 146.64 75.4557 146.038 75.2723 145.498C75.0936 144.953 74.8141 144.516 74.4336 144.189C74.0531 143.862 73.5755 143.693 73.0008 143.682C72.412 143.672 71.9192 143.823 71.5224 144.136C71.1304 144.45 70.8329 144.876 70.6299 145.414C70.4318 145.947 70.3268 146.546 70.3148 147.21C70.3028 147.87 70.3862 148.47 70.565 149.01C70.7484 149.551 71.0304 149.985 71.4109 150.312C71.7961 150.635 72.2832 150.801 72.872 150.812ZM88.9186 144.952L86.5823 145.165C86.5206 144.928 86.4091 144.705 86.248 144.494C86.0916 144.284 85.8779 144.113 85.607 143.981C85.3361 143.849 85.0028 143.779 84.6071 143.772C84.0748 143.762 83.6252 143.87 83.2583 144.094C82.8961 144.318 82.7141 144.614 82.7121 144.982C82.7017 145.297 82.8125 145.556 83.0445 145.758C83.2811 145.96 83.6739 146.13 84.2227 146.267L86.0669 146.696C87.0898 146.936 87.8466 147.301 88.3372 147.791C88.8326 148.28 89.0756 148.914 89.0663 149.691C89.0492 150.374 88.8381 150.973 88.433 151.489C88.0327 152 87.4813 152.395 86.7788 152.675C86.0763 152.954 85.2729 153.086 84.3685 153.07C83.0401 153.046 81.9758 152.748 81.1756 152.178C80.3755 151.603 79.9067 150.814 79.7693 149.813L82.2679 149.618C82.3721 150.11 82.6057 150.484 82.9686 150.74C83.3315 150.996 83.8074 151.13 84.3962 151.14C85.0039 151.151 85.4937 151.035 85.8657 150.792C86.2423 150.549 86.434 150.244 86.4406 149.877C86.4462 149.566 86.3307 149.307 86.0941 149.1C85.8623 148.893 85.4976 148.731 85.0003 148.614L83.156 148.192C82.1189 147.956 81.3553 147.577 80.8652 147.055C80.3752 146.528 80.1398 145.868 80.1588 145.077C80.1661 144.408 80.358 143.832 80.7342 143.349C81.1153 142.861 81.638 142.488 82.3024 142.232C82.9715 141.971 83.7395 141.848 84.6062 141.864C85.8781 141.886 86.8742 142.175 87.5946 142.73C88.3197 143.285 88.761 144.026 88.9186 144.952ZM95.9178 153.278C94.8296 153.258 93.8939 153.015 93.1107 152.549C92.3323 152.078 91.7386 151.421 91.3297 150.58C90.9209 149.734 90.7268 148.743 90.7473 147.608C90.7674 146.491 90.9971 145.515 91.4363 144.68C91.8803 143.84 92.4905 143.191 93.2668 142.734C94.0432 142.272 94.9496 142.05 95.986 142.069C96.6549 142.081 97.2842 142.201 97.8738 142.428C98.4682 142.651 98.9898 142.99 99.4387 143.446C99.8923 143.902 100.245 144.479 100.496 145.176C100.747 145.868 100.864 146.69 100.847 147.642L100.833 148.426L91.937 148.265L91.9682 146.541L98.4123 146.658C98.4165 146.168 98.3183 145.73 98.118 145.345C97.9177 144.955 97.6335 144.646 97.2653 144.418C96.9019 144.19 96.4752 144.071 95.9853 144.062C95.4624 144.053 95.0008 144.172 94.6006 144.419C94.2003 144.661 93.8858 144.986 93.657 145.391C93.433 145.793 93.3143 146.236 93.3008 146.721L93.2736 148.226C93.2622 148.857 93.3679 149.401 93.5905 149.857C93.8132 150.309 94.1297 150.659 94.5399 150.907C94.9502 151.15 95.4333 151.276 95.9891 151.286C96.3613 151.293 96.699 151.247 97.0024 151.149C97.3058 151.046 97.5701 150.893 97.7952 150.69C98.0204 150.486 98.1922 150.233 98.3108 149.929L100.694 150.24C100.532 150.869 100.235 151.415 99.8024 151.878C99.3747 152.337 98.8311 152.69 98.1717 152.937C97.5123 153.18 96.761 153.293 95.9178 153.278Z" fill="#030606"/>
</svg>
