<svg width="48" height="48" viewBox="0 0 48 48" fill="none" xmlns="http://www.w3.org/2000/svg">
<path d="M24.8393 39.0289C29.7433 38.0459 36.0839 34.5182 36.0839 25.3957C36.0839 17.0942 30.0074 11.5662 25.638 9.02618C24.6685 8.46255 23.5334 9.2038 23.5334 10.3253V13.1938C23.5334 15.4558 22.5823 19.5847 19.9397 21.3021C18.5906 22.1789 17.1334 20.8666 16.9695 19.2659L16.8348 17.9515C16.6783 16.4234 15.1221 15.4958 13.9008 16.4275C11.7068 18.1011 9.41406 21.0319 9.41406 25.3957C9.41406 36.5517 17.7114 39.3407 21.86 39.3407C22.1013 39.3407 22.3549 39.3335 22.6189 39.3183C20.5704 39.1432 17.2581 37.8723 17.2581 33.7623C17.2581 30.5473 19.6036 28.3723 21.3857 27.315C21.865 27.0307 22.426 27.3999 22.426 27.9572V28.8815C22.426 29.589 22.6996 30.6947 23.3508 31.4517C24.0878 32.3083 25.1695 31.411 25.2568 30.2844C25.2843 29.9289 25.6417 29.7025 25.9495 29.8824C26.9556 30.4703 28.2398 31.7265 28.2398 33.7623C28.2398 36.9752 26.4687 38.4532 24.8393 39.0289Z" fill="#66E4FE"/>
</svg>
