<svg width="20" height="25" viewBox="0 0 20 25" fill="none" xmlns="http://www.w3.org/2000/svg">
<path d="M14.5946 17.3755L15.1918 16.7783C16.2603 15.7099 18.0287 15.7459 19.1417 16.8589C20.2547 17.9719 20.2908 19.7404 19.2223 20.8088L18.6251 21.406C18.5748 21.2782 18.5105 21.1303 18.4288 20.9661C18.1648 20.4354 17.7214 19.7385 16.9918 19.0089C16.2622 18.2793 15.5652 17.8358 15.0346 17.5718C14.8704 17.4902 14.7224 17.4258 14.5946 17.3755Z" fill="#66E4FE"/>
<path d="M13.1641 18.806L12.6123 19.3578C11.5438 20.4263 11.5799 22.1947 12.6929 23.3077C13.8059 24.4207 15.5743 24.4568 16.6428 23.3883L17.1945 22.8367L17.0782 22.2886L17.0748 22.2754C17.0699 22.2576 17.0603 22.2242 17.0444 22.1771C17.0126 22.0829 16.9558 21.9341 16.8619 21.7455C16.6747 21.369 16.3385 20.8305 15.7544 20.2463C15.1703 19.6622 14.6316 19.326 14.2551 19.1387C14.0664 19.0448 13.9176 18.9879 13.8234 18.9561C13.7763 18.9402 13.7428 18.9306 13.725 18.9257L13.7118 18.9223L13.1641 18.806Z" fill="#66E4FE"/>
<path d="M2.58881 1.55321C2.5 1.76761 2.5 2.03941 2.5 2.58301C2.5 3.12661 2.5 3.39841 2.58881 3.6128C2.70722 3.89867 2.93434 4.12579 3.2202 4.2442C3.4346 4.33301 3.7064 4.33301 4.25 4.33301H6H13H14.75C15.2936 4.33301 15.5654 4.33301 15.7798 4.2442C16.0657 4.12579 16.2928 3.89867 16.4112 3.6128C16.5 3.39841 16.5 3.12661 16.5 2.58301C16.5 2.03941 16.5 1.76761 16.4112 1.55321C16.2928 1.26734 16.0657 1.04022 15.7798 0.921815C15.5654 0.833008 15.2936 0.833008 14.75 0.833008H4.25C3.7064 0.833008 3.4346 0.833008 3.2202 0.921815C2.93434 1.04022 2.70722 1.26734 2.58881 1.55321Z" fill="#66E4FE"/>
<path d="M4.54098 5.5L1.91744 7.59879C1.3432 8.05817 0.893441 8.64004 0.593531 9.29159H18.4128C18.1166 8.64143 17.6714 8.05986 17.1023 7.59912L14.5092 5.5H4.54098Z" fill="#66E4FE"/>
<path fill-rule="evenodd" clip-rule="evenodd" d="M18.8327 11.2263C18.8327 11.1645 18.8315 11.103 18.829 11.0416H0.170349C0.167467 11.1085 0.166016 11.1756 0.166016 11.2428V18.6249H10.939C11.0688 18.4492 11.2136 18.2805 11.3738 18.1204L13.9533 15.5408C15.2869 14.2072 17.2131 13.9344 18.8327 14.5946V11.2263ZM10.3743 13.9583V12.4999C10.3743 12.0167 9.9826 11.6249 9.49935 11.6249C9.0161 11.6249 8.62435 12.0167 8.62435 12.4999V13.9583H7.16601C6.68277 13.9583 6.29101 14.35 6.29101 14.8333C6.29101 15.3165 6.68277 15.7083 7.16601 15.7083H8.62435V17.1666C8.62435 17.6498 9.0161 18.0416 9.49935 18.0416C9.9826 18.0416 10.3743 17.6498 10.3743 17.1666V15.7083H11.8327C12.3159 15.7083 12.7077 15.3165 12.7077 14.8333C12.7077 14.35 12.3159 13.9583 11.8327 13.9583H10.3743Z" fill="#66E4FE"/>
<path d="M10.1677 20.3749C9.90924 21.683 10.2444 23.0842 11.1147 24.1666H5.9491C5.2828 24.1666 4.94966 24.1666 4.63384 24.1232C3.69706 23.9947 2.82144 23.5845 2.12295 22.9472C1.88748 22.7323 1.67419 22.4764 1.24765 21.9645C0.854587 21.4929 0.561523 20.9521 0.380305 20.3749H10.1677Z" fill="#66E4FE"/>
</svg>
