<svg width="56" height="54" viewBox="0 0 56 54" fill="none" xmlns="http://www.w3.org/2000/svg">
<g filter="url(#filter0_d_454_572)">
<rect x="3" y="3.0957" width="18.1825" height="8.39191" rx="1.34017" fill="#66E4FE"/>
<path d="M5.61049 4.70606V6.09473H5.38271V5.14364L4.95912 6.09473H4.80127L4.37568 5.14364V6.09473H4.1479V4.70606H4.39367L4.8812 5.79502L5.36673 4.70606H5.61049ZM6.38742 6.11271C6.28352 6.11271 6.18961 6.0894 6.10569 6.04278C6.02177 5.99482 5.95583 5.92822 5.90788 5.84297C5.85992 5.75639 5.83595 5.65648 5.83595 5.54326C5.83595 5.43137 5.86059 5.33213 5.90988 5.24554C5.95916 5.15896 6.02643 5.09236 6.11168 5.04574C6.19693 4.99912 6.29217 4.9758 6.39741 4.9758C6.50264 4.9758 6.59788 4.99912 6.68313 5.04574C6.76838 5.09236 6.83565 5.15896 6.88494 5.24554C6.93422 5.33213 6.95887 5.43137 6.95887 5.54326C6.95887 5.65515 6.93356 5.75439 6.88294 5.84097C6.83232 5.92755 6.76305 5.99482 6.67514 6.04278C6.58856 6.0894 6.49265 6.11271 6.38742 6.11271ZM6.38742 5.9149C6.44603 5.9149 6.50064 5.90091 6.55126 5.87294C6.60321 5.84497 6.64517 5.80301 6.67714 5.74706C6.70911 5.69112 6.72509 5.62318 6.72509 5.54326C6.72509 5.46333 6.70977 5.39607 6.67914 5.34145C6.6485 5.28551 6.60787 5.24355 6.55725 5.21557C6.50663 5.1876 6.45202 5.17361 6.39341 5.17361C6.3348 5.17361 6.28019 5.1876 6.22957 5.21557C6.18028 5.24355 6.14099 5.28551 6.11168 5.34145C6.08238 5.39607 6.06772 5.46333 6.06772 5.54326C6.06772 5.66181 6.0977 5.75372 6.15764 5.81899C6.21891 5.88293 6.2955 5.9149 6.38742 5.9149ZM7.10811 5.53926C7.10811 5.4287 7.13076 5.3308 7.17605 5.24554C7.22267 5.16029 7.28528 5.09436 7.36387 5.04774C7.44379 4.99978 7.53237 4.9758 7.62961 4.9758C7.70154 4.9758 7.77214 4.99179 7.84141 5.02376C7.912 5.0544 7.96795 5.09569 8.00924 5.14764V4.61615H8.23902V6.09473H8.00924V5.92889C7.97195 5.98217 7.92 6.02613 7.85339 6.06076C7.78812 6.09539 7.71286 6.11271 7.62761 6.11271C7.5317 6.11271 7.44379 6.08873 7.36387 6.04078C7.28528 5.99149 7.22267 5.92356 7.17605 5.83697C7.13076 5.74906 7.10811 5.64982 7.10811 5.53926ZM8.00924 5.54326C8.00924 5.46733 7.99326 5.40139 7.96129 5.34545C7.93065 5.2895 7.89003 5.24688 7.83941 5.21757C7.78879 5.18827 7.73418 5.17361 7.67557 5.17361C7.61696 5.17361 7.56234 5.18827 7.51172 5.21757C7.46111 5.24554 7.41981 5.2875 7.38784 5.34345C7.35721 5.39806 7.34189 5.46333 7.34189 5.53926C7.34189 5.61519 7.35721 5.68179 7.38784 5.73907C7.41981 5.79635 7.46111 5.84031 7.51172 5.87094C7.56367 5.90025 7.61829 5.9149 7.67557 5.9149C7.73418 5.9149 7.78879 5.90025 7.83941 5.87094C7.89003 5.84164 7.93065 5.79901 7.96129 5.74307C7.99326 5.68579 8.00924 5.61918 8.00924 5.54326ZM9.53524 4.99379V6.09473H9.30746V5.96485C9.2715 6.01014 9.22421 6.04611 9.1656 6.07275C9.10832 6.09806 9.04705 6.11071 8.98178 6.11071C8.89519 6.11071 8.81727 6.09273 8.748 6.05676C8.68007 6.0208 8.62612 5.96752 8.58616 5.89692C8.54753 5.82632 8.52821 5.74107 8.52821 5.64116V4.99379H8.754V5.6072C8.754 5.70577 8.77864 5.78169 8.82792 5.83498C8.87721 5.88693 8.94448 5.9129 9.02973 5.9129C9.11498 5.9129 9.18225 5.88693 9.23154 5.83498C9.28215 5.78169 9.30746 5.70577 9.30746 5.6072V4.99379H9.53524ZM10.0636 4.61615V6.09473H9.83578V4.61615H10.0636ZM11.3716 5.51728C11.3716 5.55858 11.369 5.59587 11.3637 5.62918H10.5225C10.5291 5.71709 10.5618 5.78769 10.6204 5.84097C10.679 5.89425 10.7509 5.92089 10.8362 5.92089C10.9587 5.92089 11.0453 5.86961 11.0959 5.76704H11.3417C11.3084 5.86828 11.2478 5.95153 11.1598 6.0168C11.0733 6.08074 10.9654 6.11271 10.8362 6.11271C10.7309 6.11271 10.6364 6.0894 10.5524 6.04278C10.4698 5.99482 10.4046 5.92822 10.3566 5.84297C10.31 5.75639 10.2867 5.65648 10.2867 5.54326C10.2867 5.43003 10.3093 5.3308 10.3546 5.24554C10.4012 5.15896 10.4659 5.09236 10.5484 5.04574C10.6324 4.99912 10.7283 4.9758 10.8362 4.9758C10.9401 4.9758 11.0326 4.99845 11.1139 5.04374C11.1951 5.08903 11.2584 5.15297 11.3037 5.23555C11.349 5.31681 11.3716 5.41072 11.3716 5.51728ZM11.1339 5.44535C11.1325 5.36143 11.1026 5.29416 11.044 5.24355C10.9854 5.19293 10.9128 5.16762 10.8262 5.16762C10.7476 5.16762 10.6803 5.19293 10.6244 5.24355C10.5684 5.29283 10.5351 5.3601 10.5245 5.44535H11.1339ZM12.0549 4.84593V4.63813H12.4705V6.09473H12.2407V4.84593H12.0549Z" fill="black"/>
<path d="M4.97706 7.89534V8.01123H4.58943V9.29199H4.44957V8.01123H4.05994V7.89534H4.97706ZM5.33777 8.39486C5.36841 8.32692 5.41503 8.27431 5.47764 8.23701C5.54158 8.19971 5.6195 8.18106 5.71141 8.18106V8.32692H5.67345C5.57221 8.32692 5.49096 8.35423 5.42968 8.40884C5.36841 8.46346 5.33777 8.5547 5.33777 8.68258V9.29199H5.19791V8.20104H5.33777V8.39486ZM6.90887 8.69057C6.90887 8.73853 6.90754 8.77516 6.90487 8.80047H5.99974C6.00374 8.88305 6.02372 8.95365 6.05969 9.01226C6.09565 9.07087 6.14294 9.1155 6.20155 9.14613C6.26016 9.17544 6.3241 9.19009 6.39337 9.19009C6.48395 9.19009 6.55987 9.16811 6.62115 9.12415C6.68375 9.0802 6.72505 9.02092 6.74503 8.94633H6.89288C6.86624 9.05289 6.80897 9.14014 6.72105 9.20807C6.63447 9.27468 6.52524 9.30798 6.39337 9.30798C6.2908 9.30798 6.19889 9.28533 6.11763 9.24004C6.03638 9.19342 5.97244 9.12815 5.92582 9.04423C5.88053 8.95898 5.85788 8.85974 5.85788 8.74652C5.85788 8.63329 5.88053 8.53406 5.92582 8.4488C5.97111 8.36355 6.03438 8.29828 6.11563 8.25299C6.19689 8.2077 6.28947 8.18506 6.39337 8.18506C6.49727 8.18506 6.58784 8.2077 6.6651 8.25299C6.74369 8.29828 6.80364 8.35956 6.84493 8.43682C6.88756 8.51274 6.90887 8.59733 6.90887 8.69057ZM6.76701 8.68658C6.76834 8.60532 6.75169 8.53605 6.71705 8.47878C6.68375 8.4215 6.6378 8.37821 6.57919 8.3489C6.52058 8.3196 6.45664 8.30494 6.38737 8.30494C6.28347 8.30494 6.19489 8.33824 6.12163 8.40485C6.04836 8.47145 6.00774 8.56536 5.99974 8.68658H6.76701ZM7.67627 8.18106C7.80681 8.18106 7.91337 8.22169 7.99596 8.30295C8.07855 8.38287 8.11984 8.49942 8.11984 8.65261V9.29199H7.98198V8.66859C7.98198 8.55004 7.952 8.45946 7.89206 8.39685C7.83345 8.33425 7.75286 8.30295 7.6503 8.30295C7.54506 8.30295 7.46114 8.33625 7.39854 8.40285C7.33593 8.46945 7.30463 8.56736 7.30463 8.69657V9.29199H7.16476V8.20104H7.30463V8.38686C7.33926 8.32026 7.38921 8.26964 7.45448 8.23501C7.51975 8.19905 7.59368 8.18106 7.67627 8.18106ZM8.36523 8.74452C8.36523 8.63263 8.38788 8.53472 8.43317 8.4508C8.47846 8.36555 8.5404 8.30028 8.61899 8.25499C8.69891 8.20837 8.78882 8.18506 8.88873 8.18506C8.98463 8.18506 9.07122 8.20837 9.14848 8.25499C9.22574 8.30161 9.28235 8.36222 9.31831 8.43682V7.81342H9.45818V9.29199H9.31831V9.04823C9.28501 9.12415 9.2304 9.18676 9.15447 9.23605C9.07854 9.284 8.9893 9.30798 8.88673 9.30798C8.78682 9.30798 8.69691 9.28467 8.61699 9.23804C8.5384 9.19142 8.47646 9.12549 8.43117 9.04023C8.38721 8.95498 8.36523 8.85641 8.36523 8.74452ZM9.31831 8.74652C9.31831 8.6586 9.30033 8.58134 9.26436 8.51474C9.2284 8.44814 9.17911 8.39685 9.11651 8.36089C9.05523 8.32492 8.9873 8.30694 8.9127 8.30694C8.83544 8.30694 8.76618 8.32426 8.7049 8.35889C8.64363 8.39352 8.59501 8.44414 8.55904 8.51074C8.52441 8.57602 8.50709 8.65394 8.50709 8.74452C8.50709 8.83377 8.52441 8.91236 8.55904 8.98029C8.59501 9.0469 8.64363 9.09818 8.7049 9.13414C8.76618 9.16878 8.83544 9.18609 8.9127 9.18609C8.9873 9.18609 9.05523 9.16811 9.11651 9.13215C9.17911 9.09618 9.2284 9.0449 9.26436 8.97829C9.30033 8.91169 9.31831 8.83443 9.31831 8.74652ZM11.135 8.96031H10.4996L10.3777 9.29199H10.2299L10.7394 7.91332H10.8972L11.4047 9.29199H11.2569L11.135 8.96031ZM11.093 8.84442L10.8173 8.08915L10.5416 8.84442H11.093ZM12.1407 8.18106C12.2713 8.18106 12.3778 8.22169 12.4604 8.30295C12.543 8.38287 12.5843 8.49942 12.5843 8.65261V9.29199H12.4464V8.66859C12.4464 8.55004 12.4165 8.45946 12.3565 8.39685C12.2979 8.33425 12.2173 8.30295 12.1147 8.30295C12.0095 8.30295 11.9256 8.33625 11.863 8.40285C11.8004 8.46945 11.7691 8.56736 11.7691 8.69657V9.29199H11.6292V8.20104H11.7691V8.38686C11.8037 8.32026 11.8537 8.26964 11.9189 8.23501C11.9842 8.19905 12.0581 8.18106 12.1407 8.18106ZM12.8297 8.74452C12.8297 8.63263 12.8517 8.53472 12.8956 8.4508C12.9409 8.36555 13.0028 8.30028 13.0814 8.25499C13.1614 8.20837 13.2513 8.18506 13.3512 8.18506C13.4551 8.18506 13.5443 8.20904 13.6189 8.25699C13.6948 8.30494 13.7495 8.36622 13.7828 8.44081V8.20104H13.9226V9.29199H13.7828V9.05023C13.7481 9.12482 13.6928 9.18676 13.6169 9.23605C13.5423 9.284 13.4531 9.30798 13.3492 9.30798C13.2506 9.30798 13.1614 9.28467 13.0814 9.23804C13.0028 9.19142 12.9409 9.12549 12.8956 9.04023C12.8517 8.95498 12.8297 8.85641 12.8297 8.74452ZM13.7828 8.74652C13.7828 8.6586 13.7648 8.58134 13.7288 8.51474C13.6928 8.44814 13.6436 8.39685 13.581 8.36089C13.5197 8.32492 13.4517 8.30694 13.3772 8.30694C13.2999 8.30694 13.2306 8.32426 13.1694 8.35889C13.1081 8.39352 13.0595 8.44414 13.0235 8.51074C12.9889 8.57602 12.9715 8.65394 12.9715 8.74452C12.9715 8.83377 12.9889 8.91236 13.0235 8.98029C13.0595 9.0469 13.1081 9.09818 13.1694 9.13414C13.2306 9.16878 13.2999 9.18609 13.3772 9.18609C13.4517 9.18609 13.5197 9.16811 13.581 9.13215C13.6436 9.09618 13.6928 9.0449 13.7288 8.97829C13.7648 8.91169 13.7828 8.83443 13.7828 8.74652ZM14.3818 7.81342V9.29199H14.2419V7.81342H14.3818ZM15.5977 8.20104L14.9503 9.8055H14.8044L15.0162 9.286L14.5686 8.20104H14.7225L15.0941 9.13215L15.4538 8.20104H15.5977ZM16.163 9.30798C16.0377 9.30798 15.9352 9.27934 15.8552 9.22206C15.7767 9.16345 15.7327 9.08419 15.7234 8.98429H15.8672C15.8739 9.04556 15.9025 9.09551 15.9532 9.13414C16.0051 9.17144 16.0744 9.19009 16.161 9.19009C16.2369 9.19009 16.2962 9.17211 16.3388 9.13614C16.3827 9.10018 16.4047 9.05555 16.4047 9.00227C16.4047 8.96497 16.3927 8.93434 16.3688 8.91036C16.3448 8.88638 16.3141 8.86773 16.2768 8.85441C16.2409 8.83976 16.1916 8.82444 16.129 8.80846C16.0477 8.78715 15.9818 8.76583 15.9312 8.74452C15.8806 8.72321 15.8373 8.6919 15.8013 8.65061C15.7667 8.60798 15.7493 8.55137 15.7493 8.48077C15.7493 8.42749 15.7653 8.37821 15.7973 8.33292C15.8293 8.28763 15.8746 8.25166 15.9332 8.22502C15.9918 8.19838 16.0584 8.18506 16.133 8.18506C16.2502 8.18506 16.3448 8.21503 16.4167 8.27497C16.4886 8.33358 16.5273 8.41484 16.5326 8.51874H16.3927C16.3887 8.4548 16.3634 8.40351 16.3168 8.36489C16.2715 8.32492 16.2089 8.30494 16.129 8.30494C16.0584 8.30494 16.0011 8.32159 15.9571 8.3549C15.9132 8.3882 15.8912 8.42949 15.8912 8.47878C15.8912 8.5214 15.9039 8.5567 15.9292 8.58467C15.9558 8.61131 15.9885 8.63263 16.0271 8.64861C16.0657 8.66326 16.1177 8.67992 16.1829 8.69856C16.2615 8.71988 16.3241 8.74052 16.3708 8.7605C16.4174 8.78049 16.4573 8.80979 16.4906 8.84842C16.5239 8.88705 16.5413 8.93833 16.5426 9.00227C16.5426 9.06088 16.5266 9.1135 16.4946 9.16012C16.4627 9.20541 16.418 9.24137 16.3608 9.26802C16.3035 9.29466 16.2375 9.30798 16.163 9.30798ZM16.8758 7.99524C16.8478 7.99524 16.8238 7.98525 16.8039 7.96527C16.7839 7.94529 16.7739 7.92065 16.7739 7.89134C16.7739 7.86204 16.7839 7.83806 16.8039 7.81941C16.8238 7.79943 16.8478 7.78944 16.8758 7.78944C16.9038 7.78944 16.9277 7.79943 16.9477 7.81941C16.9677 7.83806 16.9777 7.86204 16.9777 7.89134C16.9777 7.92065 16.9677 7.94529 16.9477 7.96527C16.9277 7.98525 16.9038 7.99524 16.8758 7.99524ZM16.9457 8.20104V9.29199H16.8059V8.20104H16.9457ZM17.6381 9.30798C17.5129 9.30798 17.4103 9.27934 17.3304 9.22206C17.2518 9.16345 17.2078 9.08419 17.1985 8.98429H17.3424C17.349 9.04556 17.3777 9.09551 17.4283 9.13414C17.4802 9.17144 17.5495 9.19009 17.6361 9.19009C17.712 9.19009 17.7713 9.17211 17.8139 9.13614C17.8579 9.10018 17.8799 9.05555 17.8799 9.00227C17.8799 8.96497 17.8679 8.93434 17.8439 8.91036C17.8199 8.88638 17.7893 8.86773 17.752 8.85441C17.716 8.83976 17.6667 8.82444 17.6041 8.80846C17.5229 8.78715 17.4569 8.76583 17.4063 8.74452C17.3557 8.72321 17.3124 8.6919 17.2764 8.65061C17.2418 8.60798 17.2245 8.55137 17.2245 8.48077C17.2245 8.42749 17.2405 8.37821 17.2724 8.33292C17.3044 8.28763 17.3497 8.25166 17.4083 8.22502C17.4669 8.19838 17.5335 8.18506 17.6081 8.18506C17.7253 8.18506 17.8199 8.21503 17.8918 8.27497C17.9638 8.33358 18.0024 8.41484 18.0077 8.51874H17.8679C17.8639 8.4548 17.8386 8.40351 17.7919 8.36489C17.7467 8.32492 17.684 8.30494 17.6041 8.30494C17.5335 8.30494 17.4762 8.32159 17.4323 8.3549C17.3883 8.3882 17.3664 8.42949 17.3664 8.47878C17.3664 8.5214 17.379 8.5567 17.4043 8.58467C17.431 8.61131 17.4636 8.63263 17.5022 8.64861C17.5409 8.66326 17.5928 8.67992 17.6581 8.69856C17.7367 8.71988 17.7993 8.74052 17.8459 8.7605C17.8925 8.78049 17.9325 8.80979 17.9658 8.84842C17.9991 8.88705 18.0164 8.93833 18.0177 9.00227C18.0177 9.06088 18.0017 9.1135 17.9698 9.16012C17.9378 9.20541 17.8932 9.24137 17.8359 9.26802C17.7786 9.29466 17.7127 9.30798 17.6381 9.30798Z" fill="black"/>
</g>
<g clip-path="url(#clip0_454_572)">
<rect x="7.12695" y="9.54297" width="48.8735" height="44.3601" rx="7" fill="white" fill-opacity="0.07"/>
<circle cx="11.0592" cy="14.2506" r="1.37465" stroke="#66E4FE" stroke-width="0.47455"/>
<path d="M15.9672 14.013C15.9346 13.9528 15.8873 13.9073 15.8254 13.8763C15.7652 13.8437 15.6938 13.8273 15.6113 13.8273C15.4686 13.8273 15.3543 13.8746 15.2683 13.9692C15.1823 14.062 15.1393 14.1867 15.1393 14.3431C15.1393 14.5099 15.184 14.6406 15.2734 14.7352C15.3646 14.828 15.4892 14.8744 15.6474 14.8744C15.7557 14.8744 15.8469 14.8469 15.9208 14.7919C15.9965 14.7369 16.0515 14.6578 16.0859 14.5546H15.5262V14.2297H16.4856V14.6397C16.4529 14.7498 16.3971 14.8521 16.318 14.9466C16.2406 15.0412 16.1417 15.1177 16.0214 15.1762C15.901 15.2346 15.7652 15.2639 15.6139 15.2639C15.4351 15.2639 15.2752 15.2252 15.1342 15.1478C14.9949 15.0687 14.8857 14.9595 14.8066 14.8203C14.7293 14.681 14.6906 14.522 14.6906 14.3431C14.6906 14.1643 14.7293 14.0053 14.8066 13.866C14.8857 13.725 14.9949 13.6158 15.1342 13.5385C15.2734 13.4594 15.4325 13.4198 15.6113 13.4198C15.828 13.4198 16.0102 13.4723 16.1581 13.5772C16.3077 13.682 16.4065 13.8273 16.4547 14.013H15.9672ZM17.1709 13.3425V15.251H16.7299V13.3425H17.1709ZM18.9116 13.8119V15.251H18.4706V15.055C18.4259 15.1186 18.3648 15.1702 18.2875 15.2097C18.2118 15.2475 18.1276 15.2665 18.0347 15.2665C17.9247 15.2665 17.8275 15.2424 17.7433 15.1942C17.659 15.1444 17.5937 15.073 17.5473 14.9802C17.5008 14.8873 17.4776 14.7781 17.4776 14.6526V13.8119H17.9161V14.5933C17.9161 14.6896 17.941 14.7644 17.9909 14.8177C18.0407 14.871 18.1078 14.8976 18.192 14.8976C18.278 14.8976 18.3459 14.871 18.3958 14.8177C18.4456 14.7644 18.4706 14.6896 18.4706 14.5933V13.8119H18.9116ZM19.1407 14.5314C19.1407 14.3818 19.1708 14.2512 19.231 14.1394C19.2929 14.0276 19.378 13.9417 19.4863 13.8815C19.5963 13.8213 19.7218 13.7912 19.8628 13.7912C20.0434 13.7912 20.1938 13.8385 20.3142 13.9331C20.4362 14.0276 20.5162 14.1609 20.554 14.3328H20.0846C20.0451 14.2228 19.9686 14.1678 19.8551 14.1678C19.7743 14.1678 19.7098 14.1996 19.6617 14.2632C19.6135 14.3251 19.5895 14.4145 19.5895 14.5314C19.5895 14.6483 19.6135 14.7386 19.6617 14.8022C19.7098 14.8641 19.7743 14.8951 19.8551 14.8951C19.9686 14.8951 20.0451 14.84 20.0846 14.73H20.554C20.5162 14.8985 20.4362 15.0309 20.3142 15.1272C20.1921 15.2235 20.0416 15.2716 19.8628 15.2716C19.7218 15.2716 19.5963 15.2415 19.4863 15.1813C19.378 15.1212 19.2929 15.0352 19.231 14.9234C19.1708 14.8117 19.1407 14.681 19.1407 14.5314ZM21.445 15.2716C21.304 15.2716 21.1768 15.2415 21.0633 15.1813C20.9516 15.1212 20.863 15.0352 20.7977 14.9234C20.7341 14.8117 20.7022 14.681 20.7022 14.5314C20.7022 14.3835 20.7349 14.2537 20.8002 14.142C20.8656 14.0285 20.955 13.9417 21.0685 13.8815C21.1819 13.8213 21.3092 13.7912 21.4502 13.7912C21.5912 13.7912 21.7184 13.8213 21.8319 13.8815C21.9454 13.9417 22.0348 14.0285 22.1001 14.142C22.1654 14.2537 22.1981 14.3835 22.1981 14.5314C22.1981 14.6793 22.1646 14.81 22.0975 14.9234C22.0322 15.0352 21.9419 15.1212 21.8267 15.1813C21.7132 15.2415 21.586 15.2716 21.445 15.2716ZM21.445 14.8899C21.5293 14.8899 21.6006 14.859 21.6591 14.7971C21.7193 14.7352 21.7493 14.6466 21.7493 14.5314C21.7493 14.4162 21.7201 14.3277 21.6617 14.2658C21.6049 14.2039 21.5344 14.1729 21.4502 14.1729C21.3642 14.1729 21.2929 14.2039 21.2361 14.2658C21.1794 14.3259 21.151 14.4145 21.151 14.5314C21.151 14.6466 21.1785 14.7352 21.2335 14.7971C21.2903 14.859 21.3608 14.8899 21.445 14.8899ZM23.0175 15.2716C22.892 15.2716 22.7803 15.2501 22.6822 15.2071C22.5842 15.1641 22.5069 15.1057 22.4501 15.0318C22.3934 14.9561 22.3616 14.8719 22.3547 14.779H22.7906C22.7957 14.8289 22.8189 14.8693 22.8602 14.9002C22.9015 14.9312 22.9522 14.9466 23.0124 14.9466C23.0674 14.9466 23.1095 14.9363 23.1387 14.9157C23.1697 14.8933 23.1852 14.865 23.1852 14.8306C23.1852 14.7893 23.1637 14.7592 23.1207 14.7403C23.0777 14.7197 23.0081 14.6973 22.9118 14.6733C22.8086 14.6492 22.7227 14.6243 22.6539 14.5985C22.5851 14.571 22.5258 14.5288 22.4759 14.4721C22.4261 14.4136 22.4011 14.3354 22.4011 14.2374C22.4011 14.1549 22.4235 14.0801 22.4682 14.013C22.5146 13.9442 22.5817 13.8901 22.6694 13.8505C22.7588 13.811 22.8645 13.7912 22.9866 13.7912C23.1671 13.7912 23.309 13.8359 23.4121 13.9253C23.517 14.0147 23.5772 14.1334 23.5927 14.2812H23.1852C23.1783 14.2314 23.1559 14.1918 23.1181 14.1626C23.082 14.1334 23.0339 14.1188 22.9737 14.1188C22.9221 14.1188 22.8826 14.1291 22.855 14.1497C22.8275 14.1686 22.8138 14.1953 22.8138 14.2297C22.8138 14.2709 22.8353 14.3019 22.8783 14.3225C22.923 14.3431 22.9917 14.3638 23.0846 14.3844C23.1912 14.4119 23.278 14.4394 23.3451 14.4669C23.4121 14.4927 23.4706 14.5357 23.5204 14.5959C23.572 14.6544 23.5987 14.7334 23.6004 14.8332C23.6004 14.9174 23.5763 14.9931 23.5282 15.0601C23.4818 15.1255 23.4138 15.177 23.3244 15.2149C23.2367 15.2527 23.1344 15.2716 23.0175 15.2716ZM25.2268 14.5082C25.2268 14.5495 25.2242 14.5925 25.2191 14.6372H24.221C24.2278 14.7266 24.2562 14.7953 24.3061 14.8435C24.3577 14.8899 24.4204 14.9131 24.4943 14.9131C24.6044 14.9131 24.6809 14.8667 24.7239 14.7738H25.1933C25.1692 14.8684 25.1254 14.9535 25.0617 15.0292C24.9998 15.1048 24.9216 15.1641 24.827 15.2071C24.7325 15.2501 24.6267 15.2716 24.5098 15.2716C24.3688 15.2716 24.2433 15.2415 24.1333 15.1813C24.0232 15.1212 23.9373 15.0352 23.8754 14.9234C23.8135 14.8117 23.7825 14.681 23.7825 14.5314C23.7825 14.3818 23.8126 14.2512 23.8728 14.1394C23.9347 14.0276 24.0207 13.9417 24.1307 13.8815C24.2407 13.8213 24.3671 13.7912 24.5098 13.7912C24.6491 13.7912 24.7729 13.8204 24.8812 13.8789C24.9895 13.9374 25.0738 14.0208 25.134 14.1291C25.1959 14.2374 25.2268 14.3638 25.2268 14.5082ZM24.7755 14.3921C24.7755 14.3165 24.7497 14.2563 24.6981 14.2116C24.6465 14.1669 24.582 14.1446 24.5047 14.1446C24.4307 14.1446 24.368 14.166 24.3164 14.209C24.2665 14.252 24.2356 14.3131 24.2235 14.3921H24.7755ZM25.9312 14.3431C25.9312 14.1643 25.9699 14.0053 26.0473 13.866C26.1246 13.725 26.2321 13.6158 26.3697 13.5385C26.5089 13.4594 26.6663 13.4198 26.8416 13.4198C27.0566 13.4198 27.2405 13.4766 27.3936 13.5901C27.5466 13.7035 27.6489 13.8583 27.7005 14.0543H27.2156C27.1795 13.9786 27.1279 13.921 27.0609 13.8815C26.9955 13.8419 26.9207 13.8222 26.8365 13.8222C26.7006 13.8222 26.5906 13.8695 26.5063 13.964C26.4221 14.0586 26.38 14.185 26.38 14.3431C26.38 14.5013 26.4221 14.6277 26.5063 14.7223C26.5906 14.8168 26.7006 14.8641 26.8365 14.8641C26.9207 14.8641 26.9955 14.8443 27.0609 14.8048C27.1279 14.7653 27.1795 14.7077 27.2156 14.632H27.7005C27.6489 14.828 27.5466 14.9828 27.3936 15.0962C27.2405 15.208 27.0566 15.2639 26.8416 15.2639C26.6663 15.2639 26.5089 15.2252 26.3697 15.1478C26.2321 15.0687 26.1246 14.9595 26.0473 14.8203C25.9699 14.681 25.9312 14.522 25.9312 14.3431ZM28.8552 13.7964C29.0202 13.7964 29.1526 13.8514 29.2523 13.9614C29.3521 14.0698 29.4019 14.2193 29.4019 14.4102V15.251H28.9635V14.4695C28.9635 14.3732 28.9386 14.2984 28.8887 14.2451C28.8388 14.1918 28.7718 14.1652 28.6875 14.1652C28.6033 14.1652 28.5362 14.1918 28.4864 14.2451C28.4365 14.2984 28.4116 14.3732 28.4116 14.4695V15.251H27.9705V13.3425H28.4116V14.0053C28.4563 13.9417 28.5173 13.8909 28.5947 13.8531C28.672 13.8153 28.7589 13.7964 28.8552 13.7964ZM29.6207 14.5288C29.6207 14.381 29.6482 14.2512 29.7032 14.1394C29.76 14.0276 29.8365 13.9417 29.9328 13.8815C30.0291 13.8213 30.1365 13.7912 30.2552 13.7912C30.3566 13.7912 30.4451 13.8119 30.5208 13.8531C30.5982 13.8944 30.6575 13.9485 30.6988 14.0156V13.8119H31.1398V15.251H30.6988V15.0472C30.6558 15.1143 30.5956 15.1684 30.5182 15.2097C30.4426 15.251 30.354 15.2716 30.2526 15.2716C30.1357 15.2716 30.0291 15.2415 29.9328 15.1813C29.8365 15.1194 29.76 15.0326 29.7032 14.9209C29.6482 14.8074 29.6207 14.6767 29.6207 14.5288ZM30.6988 14.5314C30.6988 14.4214 30.6678 14.3345 30.6059 14.2709C30.5457 14.2073 30.4718 14.1755 30.3841 14.1755C30.2964 14.1755 30.2216 14.2073 30.1597 14.2709C30.0996 14.3328 30.0695 14.4188 30.0695 14.5288C30.0695 14.6389 30.0996 14.7266 30.1597 14.7919C30.2216 14.8555 30.2964 14.8873 30.3841 14.8873C30.4718 14.8873 30.5457 14.8555 30.6059 14.7919C30.6678 14.7283 30.6988 14.6415 30.6988 14.5314ZM31.8999 14.0517C31.9514 13.9726 32.0159 13.9107 32.0933 13.866C32.1707 13.8196 32.2566 13.7964 32.3512 13.7964V14.2632H32.23C32.1199 14.2632 32.0374 14.2873 31.9824 14.3354C31.9274 14.3818 31.8999 14.4644 31.8999 14.583V15.251H31.4588V13.8119H31.8999V14.0517ZM33.3641 14.877V15.251H33.1397C32.9798 15.251 32.8552 15.2123 32.7657 15.1349C32.6763 15.0558 32.6316 14.9277 32.6316 14.7506V14.1781H32.4563V13.8119H32.6316V13.4611H33.0727V13.8119H33.3615V14.1781H33.0727V14.7558C33.0727 14.7988 33.083 14.8297 33.1036 14.8486C33.1242 14.8676 33.1586 14.877 33.2068 14.877H33.3641Z" fill="white"/>
<g clip-path="url(#clip1_454_572)">
<path fill-rule="evenodd" clip-rule="evenodd" d="M37.2237 14.7744C37.1874 14.8106 37.1383 14.831 37.087 14.831C37.0357 14.831 36.9866 14.8106 36.9503 14.7744L36.2207 14.045C36.1844 14.0088 36.1641 13.9596 36.1641 13.9082C36.1641 13.8569 36.1845 13.8077 36.2208 13.7715C36.257 13.7352 36.3062 13.7148 36.3576 13.7148C36.4089 13.7149 36.4581 13.7352 36.4943 13.7715L37.087 14.3642L37.6797 13.7715C37.7161 13.7363 37.765 13.7168 37.8157 13.7172C37.8664 13.7176 37.9149 13.7379 37.9508 13.7738C37.9867 13.8096 38.0071 13.8581 38.0075 13.9088C38.008 13.9595 37.9885 14.0084 37.9533 14.0449L37.2238 14.7745L37.2237 14.7744Z" fill="#66E4FE"/>
</g>
<path d="M9.5169 19.6022V19.4412H9.83877V20.5693H9.66081V19.6022H9.5169ZM10.6877 19.7028C10.6764 19.6553 10.6557 19.6197 10.6258 19.596C10.5959 19.5723 10.5541 19.5604 10.5005 19.5604C10.419 19.5604 10.3581 19.5919 10.3179 19.6548C10.2776 19.7167 10.2565 19.8199 10.2544 19.9643C10.2812 19.9189 10.3205 19.8838 10.372 19.8591C10.4236 19.8343 10.4793 19.8219 10.5392 19.8219C10.6072 19.8219 10.6671 19.8369 10.7187 19.8668C10.7713 19.8957 10.812 19.938 10.8409 19.9937C10.8708 20.0494 10.8858 20.1159 10.8858 20.1933C10.8858 20.2655 10.8713 20.33 10.8425 20.3867C10.8146 20.4435 10.7728 20.4884 10.7171 20.5214C10.6614 20.5533 10.5943 20.5693 10.5159 20.5693C10.4097 20.5693 10.3261 20.5461 10.2653 20.4997C10.2054 20.4522 10.1631 20.3857 10.1384 20.3001C10.1146 20.2145 10.1028 20.1077 10.1028 19.9798C10.1028 19.6022 10.2359 19.4134 10.502 19.4134C10.6052 19.4134 10.6862 19.4412 10.745 19.497C10.8048 19.5527 10.8399 19.6213 10.8502 19.7028H10.6877ZM10.5005 19.9705C10.4375 19.9705 10.3839 19.9896 10.3395 20.0277C10.2962 20.0649 10.2745 20.119 10.2745 20.1902C10.2745 20.2614 10.2947 20.3181 10.3349 20.3604C10.3762 20.4017 10.4334 20.4223 10.5067 20.4223C10.5717 20.4223 10.6227 20.4022 10.6599 20.362C10.698 20.3217 10.7171 20.2681 10.7171 20.201C10.7171 20.1309 10.6985 20.0752 10.6614 20.0339C10.6253 19.9916 10.5717 19.9705 10.5005 19.9705ZM11.074 19.9906C11.074 19.8121 11.1039 19.6728 11.1637 19.5728C11.2246 19.4717 11.3288 19.4211 11.4763 19.4211C11.6238 19.4211 11.7275 19.4717 11.7873 19.5728C11.8482 19.6728 11.8786 19.8121 11.8786 19.9906C11.8786 20.1711 11.8482 20.3125 11.7873 20.4146C11.7275 20.5157 11.6238 20.5662 11.4763 20.5662C11.3288 20.5662 11.2246 20.5157 11.1637 20.4146C11.1039 20.3125 11.074 20.1711 11.074 19.9906ZM11.7053 19.9906C11.7053 19.907 11.6996 19.8364 11.6883 19.7786C11.678 19.7208 11.6563 19.6739 11.6233 19.6378C11.5903 19.6006 11.5413 19.5821 11.4763 19.5821C11.4113 19.5821 11.3623 19.6006 11.3293 19.6378C11.2963 19.6739 11.2741 19.7208 11.2627 19.7786C11.2524 19.8364 11.2473 19.907 11.2473 19.9906C11.2473 20.0772 11.2524 20.15 11.2627 20.2088C11.2731 20.2676 11.2947 20.315 11.3277 20.3511C11.3618 20.3873 11.4113 20.4053 11.4763 20.4053C11.5413 20.4053 11.5903 20.3873 11.6233 20.3511C11.6573 20.315 11.6795 20.2676 11.6898 20.2088C11.7002 20.15 11.7053 20.0772 11.7053 19.9906Z" fill="#B0B0B0"/>
<path d="M9.5169 23.2789V23.118H9.83877V24.2461H9.66081V23.2789H9.5169ZM10.0594 24.0109V23.8778L10.5794 23.1319H10.7929V23.8577H10.9369V24.0109H10.7929V24.2461H10.6196V24.0109H10.0594ZM10.6274 23.3114L10.2622 23.8577H10.6274V23.3114ZM11.083 23.6673C11.083 23.4889 11.1129 23.3496 11.1728 23.2495C11.2336 23.1484 11.3378 23.0979 11.4854 23.0979C11.6329 23.0979 11.7366 23.1484 11.7964 23.2495C11.8573 23.3496 11.8877 23.4889 11.8877 23.6673C11.8877 23.8479 11.8573 23.9892 11.7964 24.0913C11.7366 24.1924 11.6329 24.243 11.4854 24.243C11.3378 24.243 11.2336 24.1924 11.1728 24.0913C11.1129 23.9892 11.083 23.8479 11.083 23.6673ZM11.7144 23.6673C11.7144 23.5838 11.7087 23.5131 11.6974 23.4553C11.687 23.3976 11.6654 23.3506 11.6324 23.3145C11.5994 23.2774 11.5504 23.2588 11.4854 23.2588C11.4204 23.2588 11.3714 23.2774 11.3384 23.3145C11.3053 23.3506 11.2832 23.3976 11.2718 23.4553C11.2615 23.5131 11.2563 23.5838 11.2563 23.6673C11.2563 23.754 11.2615 23.8267 11.2718 23.8855C11.2821 23.9443 11.3038 23.9918 11.3368 24.0279C11.3708 24.064 11.4204 24.0821 11.4854 24.0821C11.5504 24.0821 11.5994 24.064 11.6324 24.0279C11.6664 23.9918 11.6886 23.9443 11.6989 23.8855C11.7092 23.8267 11.7144 23.754 11.7144 23.6673Z" fill="#B0B0B0"/>
<path d="M9.5169 26.9547V26.7938H9.83877V27.9219H9.66081V26.9547H9.5169ZM10.1786 27.682C10.2776 27.5964 10.3555 27.5262 10.4123 27.4716C10.47 27.4159 10.518 27.3581 10.5562 27.2983C10.5943 27.2384 10.6134 27.1786 10.6134 27.1188C10.6134 27.0569 10.5985 27.0084 10.5686 26.9733C10.5397 26.9382 10.4938 26.9207 10.4308 26.9207C10.37 26.9207 10.3225 26.9403 10.2885 26.9795C10.2555 27.0177 10.2379 27.0692 10.2359 27.1342H10.0656C10.0687 27.0166 10.1038 26.9269 10.1709 26.865C10.239 26.802 10.3251 26.7706 10.4293 26.7706C10.5417 26.7706 10.6294 26.8015 10.6924 26.8634C10.7563 26.9253 10.7883 27.0079 10.7883 27.111C10.7883 27.1853 10.7692 27.257 10.731 27.3261C10.6939 27.3942 10.649 27.4556 10.5964 27.5103C10.5448 27.5639 10.4788 27.6263 10.3983 27.6975L10.3287 27.7594H10.8192V27.9064H10.0672V27.778L10.1786 27.682ZM10.9742 27.3431C10.9742 27.1647 11.0041 27.0254 11.064 26.9253C11.1248 26.8242 11.229 26.7737 11.3766 26.7737C11.5241 26.7737 11.6278 26.8242 11.6876 26.9253C11.7485 27.0254 11.7789 27.1647 11.7789 27.3431C11.7789 27.5237 11.7485 27.665 11.6876 27.7671C11.6278 27.8682 11.5241 27.9188 11.3766 27.9188C11.229 27.9188 11.1248 27.8682 11.064 27.7671C11.0041 27.665 10.9742 27.5237 10.9742 27.3431ZM11.6056 27.3431C11.6056 27.2596 11.5999 27.1889 11.5886 27.1311C11.5782 27.0734 11.5566 27.0264 11.5236 26.9903C11.4906 26.9532 11.4415 26.9346 11.3766 26.9346C11.3116 26.9346 11.2626 26.9532 11.2295 26.9903C11.1965 27.0264 11.1744 27.0734 11.163 27.1311C11.1527 27.1889 11.1475 27.2596 11.1475 27.3431C11.1475 27.4298 11.1527 27.5025 11.163 27.5613C11.1733 27.6201 11.195 27.6676 11.228 27.7037C11.262 27.7398 11.3116 27.7578 11.3766 27.7578C11.4415 27.7578 11.4906 27.7398 11.5236 27.7037C11.5576 27.6676 11.5798 27.6201 11.5901 27.5613C11.6004 27.5025 11.6056 27.4298 11.6056 27.3431Z" fill="#B0B0B0"/>
<path d="M9.5169 30.6315V30.4705H9.83877V31.5986H9.66081V30.6315H9.5169ZM10.0811 31.0199C10.0811 30.8414 10.111 30.7021 10.1709 30.6021C10.2317 30.501 10.3359 30.4504 10.4834 30.4504C10.631 30.4504 10.7347 30.501 10.7945 30.6021C10.8554 30.7021 10.8858 30.8414 10.8858 31.0199C10.8858 31.2004 10.8554 31.3418 10.7945 31.4439C10.7347 31.545 10.631 31.5955 10.4834 31.5955C10.3359 31.5955 10.2317 31.545 10.1709 31.4439C10.111 31.3418 10.0811 31.2004 10.0811 31.0199ZM10.7125 31.0199C10.7125 30.9363 10.7068 30.8657 10.6954 30.8079C10.6851 30.7501 10.6635 30.7032 10.6305 30.6671C10.5974 30.6299 10.5484 30.6114 10.4834 30.6114C10.4185 30.6114 10.3695 30.6299 10.3364 30.6671C10.3034 30.7032 10.2812 30.7501 10.2699 30.8079C10.2596 30.8657 10.2544 30.9363 10.2544 31.0199C10.2544 31.1065 10.2596 31.1793 10.2699 31.2381C10.2802 31.2969 10.3019 31.3443 10.3349 31.3804C10.3689 31.4166 10.4185 31.4346 10.4834 31.4346C10.5484 31.4346 10.5974 31.4166 10.6305 31.3804C10.6645 31.3443 10.6867 31.2969 10.697 31.2381C10.7073 31.1793 10.7125 31.1065 10.7125 31.0199ZM11.0724 31.0199C11.0724 30.8414 11.1024 30.7021 11.1622 30.6021C11.2231 30.501 11.3273 30.4504 11.4748 30.4504C11.6223 30.4504 11.726 30.501 11.7858 30.6021C11.8467 30.7021 11.8771 30.8414 11.8771 31.0199C11.8771 31.2004 11.8467 31.3418 11.7858 31.4439C11.726 31.545 11.6223 31.5955 11.4748 31.5955C11.3273 31.5955 11.2231 31.545 11.1622 31.4439C11.1024 31.3418 11.0724 31.2004 11.0724 31.0199ZM11.7038 31.0199C11.7038 30.9363 11.6981 30.8657 11.6868 30.8079C11.6765 30.7501 11.6548 30.7032 11.6218 30.6671C11.5888 30.6299 11.5398 30.6114 11.4748 30.6114C11.4098 30.6114 11.3608 30.6299 11.3278 30.6671C11.2948 30.7032 11.2726 30.7501 11.2612 30.8079C11.2509 30.8657 11.2458 30.9363 11.2458 31.0199C11.2458 31.1065 11.2509 31.1793 11.2612 31.2381C11.2716 31.2969 11.2932 31.3443 11.3262 31.3804C11.3603 31.4166 11.4098 31.4346 11.4748 31.4346C11.5398 31.4346 11.5888 31.4166 11.6218 31.3804C11.6558 31.3443 11.678 31.2969 11.6883 31.2381C11.6986 31.1793 11.7038 31.1065 11.7038 31.0199Z" fill="#B0B0B0"/>
<path d="M10.2304 34.6858C10.1232 34.6322 10.0695 34.5476 10.0695 34.432C10.0695 34.3763 10.0834 34.3253 10.1113 34.2788C10.1391 34.2324 10.1809 34.1958 10.2366 34.169C10.2923 34.1411 10.3604 34.1272 10.4409 34.1272C10.5203 34.1272 10.5879 34.1411 10.6436 34.169C10.7004 34.1958 10.7427 34.2324 10.7705 34.2788C10.7984 34.3253 10.8123 34.3763 10.8123 34.432C10.8123 34.4898 10.7973 34.5409 10.7674 34.5852C10.7385 34.6286 10.6998 34.6621 10.6514 34.6858C10.7102 34.7075 10.7566 34.7431 10.7906 34.7926C10.8247 34.8411 10.8417 34.8983 10.8417 34.9644C10.8417 35.0314 10.8247 35.0907 10.7906 35.1423C10.7566 35.1939 10.7091 35.2336 10.6483 35.2615C10.5874 35.2893 10.5183 35.3032 10.4409 35.3032C10.3635 35.3032 10.2944 35.2893 10.2335 35.2615C10.1737 35.2336 10.1268 35.1939 10.0927 35.1423C10.0587 35.0907 10.0417 35.0314 10.0417 34.9644C10.0417 34.8973 10.0587 34.8395 10.0927 34.791C10.1268 34.7426 10.1727 34.7075 10.2304 34.6858ZM10.6436 34.4537C10.6436 34.3959 10.6256 34.3516 10.5895 34.3206C10.5533 34.2897 10.5038 34.2742 10.4409 34.2742C10.379 34.2742 10.33 34.2897 10.2939 34.3206C10.2578 34.3516 10.2397 34.3964 10.2397 34.4552C10.2397 34.5068 10.2583 34.5491 10.2954 34.5821C10.3336 34.6141 10.3821 34.6301 10.4409 34.6301C10.4997 34.6301 10.5482 34.6136 10.5864 34.5806C10.6245 34.5476 10.6436 34.5053 10.6436 34.4537ZM10.4409 34.7632C10.3728 34.7632 10.3171 34.7802 10.2738 34.8143C10.2315 34.8473 10.2103 34.8952 10.2103 34.9582C10.2103 35.017 10.231 35.0649 10.2722 35.1021C10.3135 35.1382 10.3697 35.1562 10.4409 35.1562C10.5111 35.1562 10.5662 35.1377 10.6065 35.1005C10.6477 35.0634 10.6684 35.0159 10.6684 34.9582C10.6684 34.8963 10.6472 34.8483 10.6049 34.8143C10.5637 34.7802 10.509 34.7632 10.4409 34.7632ZM11.0269 34.6966C11.0269 34.5182 11.0568 34.3789 11.1167 34.2788C11.1775 34.1777 11.2817 34.1272 11.4292 34.1272C11.5768 34.1272 11.6804 34.1777 11.7403 34.2788C11.8011 34.3789 11.8316 34.5182 11.8316 34.6966C11.8316 34.8772 11.8011 35.0185 11.7403 35.1206C11.6804 35.2217 11.5768 35.2723 11.4292 35.2723C11.2817 35.2723 11.1775 35.2217 11.1167 35.1206C11.0568 35.0185 11.0269 34.8772 11.0269 34.6966ZM11.6583 34.6966C11.6583 34.6131 11.6526 34.5424 11.6412 34.4846C11.6309 34.4269 11.6093 34.3799 11.5763 34.3438C11.5432 34.3067 11.4942 34.2881 11.4292 34.2881C11.3643 34.2881 11.3153 34.3067 11.2822 34.3438C11.2492 34.3799 11.227 34.4269 11.2157 34.4846C11.2054 34.5424 11.2002 34.6131 11.2002 34.6966C11.2002 34.7833 11.2054 34.856 11.2157 34.9148C11.226 34.9736 11.2477 35.0211 11.2807 35.0572C11.3147 35.0933 11.3643 35.1114 11.4292 35.1114C11.4942 35.1114 11.5432 35.0933 11.5763 35.0572C11.6103 35.0211 11.6325 34.9736 11.6428 34.9148C11.6531 34.856 11.6583 34.7833 11.6583 34.6966Z" fill="#B0B0B0"/>
<path d="M10.6467 38.0846C10.6354 38.0371 10.6147 38.0016 10.5848 37.9778C10.5549 37.9541 10.5131 37.9422 10.4595 37.9422C10.378 37.9422 10.3171 37.9737 10.2769 38.0366C10.2366 38.0985 10.2155 38.2017 10.2134 38.3461C10.2402 38.3007 10.2795 38.2657 10.331 38.2409C10.3826 38.2161 10.4383 38.2038 10.4982 38.2038C10.5662 38.2038 10.6261 38.2187 10.6777 38.2486C10.7303 38.2775 10.771 38.3198 10.7999 38.3755C10.8298 38.4312 10.8448 38.4978 10.8448 38.5751C10.8448 38.6474 10.8303 38.7118 10.8015 38.7686C10.7736 38.8253 10.7318 38.8702 10.6761 38.9032C10.6204 38.9352 10.5533 38.9512 10.4749 38.9512C10.3687 38.9512 10.2851 38.928 10.2243 38.8815C10.1644 38.8341 10.1221 38.7675 10.0974 38.6819C10.0736 38.5963 10.0618 38.4895 10.0618 38.3616C10.0618 37.984 10.1949 37.7952 10.461 37.7952C10.5642 37.7952 10.6452 37.8231 10.704 37.8788C10.7638 37.9345 10.7989 38.0031 10.8092 38.0846H10.6467ZM10.4595 38.3523C10.3965 38.3523 10.3429 38.3714 10.2985 38.4096C10.2552 38.4467 10.2335 38.5009 10.2335 38.572C10.2335 38.6432 10.2537 38.7 10.2939 38.7423C10.3352 38.7835 10.3924 38.8042 10.4657 38.8042C10.5307 38.8042 10.5817 38.784 10.6189 38.7438C10.657 38.7036 10.6761 38.6499 10.6761 38.5829C10.6761 38.5127 10.6575 38.457 10.6204 38.4158C10.5843 38.3735 10.5307 38.3523 10.4595 38.3523ZM11.033 38.3724C11.033 38.194 11.0629 38.0547 11.1227 37.9546C11.1836 37.8535 11.2878 37.803 11.4353 37.803C11.5828 37.803 11.6865 37.8535 11.7463 37.9546C11.8072 38.0547 11.8376 38.194 11.8376 38.3724C11.8376 38.553 11.8072 38.6943 11.7463 38.7964C11.6865 38.8975 11.5828 38.9481 11.4353 38.9481C11.2878 38.9481 11.1836 38.8975 11.1227 38.7964C11.0629 38.6943 11.033 38.553 11.033 38.3724ZM11.6643 38.3724C11.6643 38.2889 11.6586 38.2182 11.6473 38.1604C11.637 38.1027 11.6153 38.0557 11.5823 38.0196C11.5493 37.9825 11.5003 37.9639 11.4353 37.9639C11.3703 37.9639 11.3213 37.9825 11.2883 38.0196C11.2553 38.0557 11.2331 38.1027 11.2217 38.1604C11.2114 38.2182 11.2063 38.2889 11.2063 38.3724C11.2063 38.4591 11.2114 38.5318 11.2217 38.5906C11.2321 38.6494 11.2537 38.6969 11.2867 38.733C11.3208 38.7691 11.3703 38.7871 11.4353 38.7871C11.5003 38.7871 11.5493 38.7691 11.5823 38.733C11.6163 38.6969 11.6385 38.6494 11.6488 38.5906C11.6592 38.5318 11.6643 38.4591 11.6643 38.3724Z" fill="#B0B0B0"/>
<path d="M10.0184 42.3927V42.2596L10.5384 41.5138H10.7519V42.2395H10.8958V42.3927H10.7519V42.6279H10.5786V42.3927H10.0184ZM10.5864 41.6933L10.2212 42.2395H10.5864V41.6933ZM11.042 42.0492C11.042 41.8707 11.0719 41.7314 11.1318 41.6314C11.1926 41.5303 11.2968 41.4797 11.4444 41.4797C11.5919 41.4797 11.6956 41.5303 11.7554 41.6314C11.8163 41.7314 11.8467 41.8707 11.8467 42.0492C11.8467 42.2297 11.8163 42.3711 11.7554 42.4732C11.6956 42.5743 11.5919 42.6248 11.4444 42.6248C11.2968 42.6248 11.1926 42.5743 11.1318 42.4732C11.0719 42.3711 11.042 42.2297 11.042 42.0492ZM11.6734 42.0492C11.6734 41.9656 11.6677 41.895 11.6564 41.8372C11.646 41.7794 11.6244 41.7325 11.5914 41.6964C11.5584 41.6592 11.5094 41.6407 11.4444 41.6407C11.3794 41.6407 11.3304 41.6592 11.2974 41.6964C11.2643 41.7325 11.2422 41.7794 11.2308 41.8372C11.2205 41.895 11.2153 41.9656 11.2153 42.0492C11.2153 42.1358 11.2205 42.2086 11.2308 42.2674C11.2411 42.3262 11.2628 42.3736 11.2958 42.4097C11.3298 42.4458 11.3794 42.4639 11.4444 42.4639C11.5094 42.4639 11.5584 42.4458 11.5914 42.4097C11.6254 42.3736 11.6476 42.3262 11.6579 42.2674C11.6682 42.2086 11.6734 42.1358 11.6734 42.0492Z" fill="#B0B0B0"/>
<path d="M10.1376 46.0639C10.2366 45.9782 10.3145 45.9081 10.3713 45.8534C10.429 45.7977 10.477 45.7399 10.5152 45.6801C10.5533 45.6203 10.5724 45.5604 10.5724 45.5006C10.5724 45.4387 10.5575 45.3902 10.5276 45.3551C10.4987 45.3201 10.4528 45.3025 10.3898 45.3025C10.329 45.3025 10.2815 45.3221 10.2475 45.3613C10.2145 45.3995 10.1969 45.4511 10.1949 45.5161H10.0246C10.0277 45.3985 10.0628 45.3087 10.1299 45.2468C10.198 45.1839 10.2841 45.1524 10.3883 45.1524C10.5007 45.1524 10.5884 45.1834 10.6514 45.2453C10.7153 45.3072 10.7473 45.3897 10.7473 45.4928C10.7473 45.5671 10.7282 45.6388 10.69 45.7079C10.6529 45.776 10.608 45.8374 10.5554 45.8921C10.5038 45.9457 10.4378 46.0081 10.3573 46.0793L10.2877 46.1412H10.7782V46.2882H10.0262V46.1598L10.1376 46.0639ZM10.9332 45.725C10.9332 45.5465 10.9631 45.4072 11.023 45.3072C11.0838 45.2061 11.188 45.1555 11.3356 45.1555C11.4831 45.1555 11.5868 45.2061 11.6466 45.3072C11.7075 45.4072 11.7379 45.5465 11.7379 45.725C11.7379 45.9055 11.7075 46.0468 11.6466 46.149C11.5868 46.2501 11.4831 46.3006 11.3356 46.3006C11.188 46.3006 11.0838 46.2501 11.023 46.149C10.9631 46.0468 10.9332 45.9055 10.9332 45.725ZM11.5646 45.725C11.5646 45.6414 11.5589 45.5707 11.5476 45.513C11.5372 45.4552 11.5156 45.4083 11.4826 45.3721C11.4495 45.335 11.4005 45.3164 11.3356 45.3164C11.2706 45.3164 11.2216 45.335 11.1885 45.3721C11.1555 45.4083 11.1334 45.4552 11.122 45.513C11.1117 45.5707 11.1065 45.6414 11.1065 45.725C11.1065 45.8116 11.1117 45.8844 11.122 45.9432C11.1323 46.002 11.154 46.0494 11.187 46.0855C11.221 46.1216 11.2706 46.1397 11.3356 46.1397C11.4005 46.1397 11.4495 46.1216 11.4826 46.0855C11.5166 46.0494 11.5388 46.002 11.5491 45.9432C11.5594 45.8844 11.5646 45.8116 11.5646 45.725Z" fill="#B0B0B0"/>
<path d="M12.7415 50.5514V50.3905H13.0634V51.5186H12.8854V50.5514H12.7415ZM13.4032 51.2787C13.5022 51.1931 13.5801 51.1229 13.6369 51.0682C13.6946 51.0125 13.7426 50.9548 13.7808 50.8949C13.819 50.8351 13.838 50.7753 13.838 50.7154C13.838 50.6535 13.8231 50.605 13.7932 50.57C13.7643 50.5349 13.7184 50.5174 13.6554 50.5174C13.5946 50.5174 13.5471 50.537 13.5131 50.5762C13.4801 50.6143 13.4625 50.6659 13.4605 50.7309H13.2902C13.2933 50.6133 13.3284 50.5235 13.3955 50.4616C13.4636 50.3987 13.5497 50.3673 13.6539 50.3673C13.7663 50.3673 13.854 50.3982 13.917 50.4601C13.9809 50.522 14.0129 50.6045 14.0129 50.7077C14.0129 50.782 13.9938 50.8537 13.9557 50.9228C13.9185 50.9909 13.8736 51.0523 13.821 51.1069C13.7694 51.1606 13.7034 51.223 13.6229 51.2942L13.5533 51.3561H14.0439V51.5031H13.2918V51.3746L13.4032 51.2787ZM14.8704 51.2988H14.4201L14.3427 51.5186H14.1586L14.5439 50.4415H14.7482L15.1335 51.5186H14.9478L14.8704 51.2988ZM14.8209 51.1549L14.646 50.6551L14.4696 51.1549H14.8209ZM16.4338 50.4431V51.5186H16.2573V50.782L15.9293 51.5186H15.807L15.4774 50.782V51.5186H15.301V50.4431H15.4914L15.8689 51.2864L16.245 50.4431H16.4338Z" fill="#B0B0B0"/>
<path d="M18.6952 50.669C18.7014 50.5731 18.738 50.4983 18.8051 50.4446C18.8732 50.391 18.9598 50.3642 19.0651 50.3642C19.1373 50.3642 19.1997 50.3771 19.2523 50.4028C19.3049 50.4286 19.3446 50.4637 19.3715 50.5081C19.3983 50.5524 19.4117 50.6025 19.4117 50.6582C19.4117 50.7221 19.3947 50.7768 19.3606 50.8222C19.3266 50.8676 19.2858 50.898 19.2384 50.9135V50.9197C19.2992 50.9383 19.3467 50.9723 19.3807 51.0218C19.4148 51.0703 19.4318 51.1327 19.4318 51.2091C19.4318 51.2699 19.4179 51.3241 19.39 51.3715C19.3622 51.419 19.3209 51.4567 19.2662 51.4845C19.2116 51.5113 19.146 51.5247 19.0697 51.5247C18.9583 51.5247 18.8665 51.4964 18.7943 51.4396C18.7231 51.3819 18.6849 51.2993 18.6797 51.192H18.85C18.8541 51.2467 18.8752 51.2916 18.9134 51.3267C18.9516 51.3607 19.0032 51.3777 19.0682 51.3777C19.1311 51.3777 19.1796 51.3607 19.2136 51.3267C19.2477 51.2916 19.2647 51.2467 19.2647 51.192C19.2647 51.1198 19.2415 51.0688 19.195 51.0388C19.1497 51.0079 19.0795 50.9924 18.9846 50.9924H18.9444V50.847H18.9861C19.0697 50.8459 19.1331 50.832 19.1765 50.8052C19.2208 50.7784 19.243 50.7361 19.243 50.6783C19.243 50.6288 19.227 50.5896 19.195 50.5607C19.1631 50.5308 19.1177 50.5158 19.0589 50.5158C19.0011 50.5158 18.9562 50.5308 18.9242 50.5607C18.8923 50.5896 18.8732 50.6257 18.867 50.669H18.6952ZM20.2887 51.2988H19.8384L19.761 51.5186H19.5769L19.9622 50.4415H20.1665L20.5518 51.5186H20.3661L20.2887 51.2988ZM20.2392 51.1549L20.0643 50.6551L19.8879 51.1549H20.2392ZM21.852 50.4431V51.5186H21.6756V50.782L21.3476 51.5186H21.2253L20.8957 50.782V51.5186H20.7193V50.4431H20.9096L21.2872 51.2864L21.6632 50.4431H21.852Z" fill="#B0B0B0"/>
<path d="M25.2405 50.652C25.2291 50.6045 25.2085 50.5689 25.1786 50.5452C25.1486 50.5215 25.1069 50.5096 25.0532 50.5096C24.9717 50.5096 24.9109 50.5411 24.8706 50.604C24.8304 50.6659 24.8092 50.7691 24.8072 50.9135C24.834 50.8681 24.8732 50.833 24.9248 50.8083C24.9764 50.7835 25.0321 50.7711 25.0919 50.7711C25.16 50.7711 25.2198 50.7861 25.2714 50.816C25.324 50.8449 25.3648 50.8872 25.3937 50.9429C25.4236 50.9986 25.4385 51.0652 25.4385 51.1425C25.4385 51.2147 25.4241 51.2792 25.3952 51.336C25.3674 51.3927 25.3256 51.4376 25.2699 51.4706C25.2142 51.5026 25.1471 51.5186 25.0687 51.5186C24.9624 51.5186 24.8789 51.4953 24.818 51.4489C24.7582 51.4015 24.7159 51.3349 24.6911 51.2493C24.6674 51.1637 24.6555 51.0569 24.6555 50.929C24.6555 50.5514 24.7886 50.3626 25.0548 50.3626C25.1579 50.3626 25.2389 50.3905 25.2977 50.4462C25.3576 50.5019 25.3926 50.5705 25.4029 50.652H25.2405ZM25.0532 50.9197C24.9903 50.9197 24.9366 50.9388 24.8923 50.9769C24.849 51.0141 24.8273 51.0682 24.8273 51.1394C24.8273 51.2106 24.8474 51.2674 24.8876 51.3096C24.9289 51.3509 24.9862 51.3715 25.0594 51.3715C25.1244 51.3715 25.1755 51.3514 25.2126 51.3112C25.2508 51.271 25.2699 51.2173 25.2699 51.1503C25.2699 51.0801 25.2513 51.0244 25.2142 50.9831C25.178 50.9408 25.1244 50.9197 25.0532 50.9197ZM26.2983 51.2988H25.848L25.7706 51.5186H25.5865L25.9718 50.4415H26.176L26.5614 51.5186H26.3757L26.2983 51.2988ZM26.2488 51.1549L26.0739 50.6551L25.8975 51.1549H26.2488ZM27.8616 50.4431V51.5186H27.6852V50.782L27.3572 51.5186H27.2349L26.9053 50.782V51.5186H26.7289V50.4431H26.9192L27.2968 51.2864L27.6728 50.4431H27.8616Z" fill="#B0B0B0"/>
<path d="M30.7872 51.2122C30.7975 51.2637 30.8197 51.3029 30.8537 51.3298C30.8878 51.3566 30.9337 51.37 30.9915 51.37C31.0647 51.37 31.1183 51.3411 31.1524 51.2833C31.1864 51.2256 31.2035 51.1271 31.2035 50.9878C31.1787 51.0229 31.1436 51.0502 31.0982 51.0698C31.0539 51.0884 31.0054 51.0976 30.9528 51.0976C30.8857 51.0976 30.8248 51.0842 30.7702 51.0574C30.7155 51.0296 30.6722 50.9888 30.6402 50.9352C30.6092 50.8805 30.5938 50.8145 30.5938 50.7371C30.5938 50.6236 30.6268 50.5333 30.6928 50.4663C30.7599 50.3982 30.8517 50.3642 30.9682 50.3642C31.1085 50.3642 31.2081 50.4111 31.2669 50.505C31.3267 50.5978 31.3567 50.7407 31.3567 50.9336C31.3567 51.0667 31.3453 51.1755 31.3226 51.2601C31.3009 51.3447 31.2628 51.4087 31.2081 51.452C31.1534 51.4953 31.0776 51.517 30.9806 51.517C30.8702 51.517 30.7851 51.4881 30.7253 51.4304C30.6655 51.3726 30.6319 51.2998 30.6247 51.2122H30.7872ZM30.9837 50.9491C31.0456 50.9491 31.0941 50.93 31.1292 50.8918C31.1653 50.8526 31.1833 50.8011 31.1833 50.7371C31.1833 50.6659 31.1643 50.6107 31.1261 50.5715C31.0889 50.5313 31.0379 50.5112 30.9729 50.5112C30.9079 50.5112 30.8563 50.5318 30.8181 50.5731C30.781 50.6133 30.7624 50.6664 30.7624 50.7325C30.7624 50.7954 30.7805 50.8475 30.8166 50.8887C30.8537 50.929 30.9094 50.9491 30.9837 50.9491ZM32.2213 51.2988H31.771L31.6936 51.5186H31.5095L31.8948 50.4415H32.0991L32.4844 51.5186H32.2987L32.2213 51.2988ZM32.1718 51.1549L31.9969 50.6551L31.8205 51.1549H32.1718ZM33.7846 50.4431V51.5186H33.6082V50.782L33.2802 51.5186H33.1579L32.8283 50.782V51.5186H32.6519V50.4431H32.8422L33.2198 51.2864L33.5959 50.4431H33.7846Z" fill="#B0B0B0"/>
<path d="M36.4778 50.5514V50.3905H36.7997V51.5186H36.6218V50.5514H36.4778ZM37.1395 51.2787C37.2386 51.1931 37.3165 51.1229 37.3732 51.0682C37.431 51.0125 37.4789 50.9548 37.5171 50.8949C37.5553 50.8351 37.5744 50.7753 37.5744 50.7154C37.5744 50.6535 37.5594 50.605 37.5295 50.57C37.5006 50.5349 37.4547 50.5174 37.3918 50.5174C37.3309 50.5174 37.2835 50.537 37.2494 50.5762C37.2164 50.6143 37.1989 50.6659 37.1968 50.7309H37.0266C37.0297 50.6133 37.0647 50.5235 37.1318 50.4616C37.1999 50.3987 37.286 50.3673 37.3902 50.3673C37.5027 50.3673 37.5904 50.3982 37.6533 50.4601C37.7173 50.522 37.7492 50.6045 37.7492 50.7077C37.7492 50.782 37.7301 50.8537 37.692 50.9228C37.6548 50.9909 37.61 51.0523 37.5574 51.1069C37.5058 51.1606 37.4397 51.223 37.3593 51.2942L37.2896 51.3561H37.7802V51.5031H37.0281V51.3746L37.1395 51.2787ZM38.7104 50.7634C38.7104 50.8181 38.6975 50.8697 38.6717 50.9181C38.6459 50.9666 38.6047 51.0064 38.5479 51.0373C38.4912 51.0672 38.4185 51.0822 38.3298 51.0822H38.1348V51.5186H37.9584V50.4431H38.3298C38.4123 50.4431 38.4819 50.4575 38.5387 50.4864C38.5964 50.5143 38.6392 50.5524 38.6671 50.6009C38.696 50.6494 38.7104 50.7036 38.7104 50.7634ZM38.3298 50.9383C38.3968 50.9383 38.4468 50.9233 38.4799 50.8934C38.5129 50.8624 38.5294 50.8191 38.5294 50.7634C38.5294 50.6458 38.4628 50.587 38.3298 50.587H38.1348V50.9383H38.3298ZM40.0114 50.4431V51.5186H39.835V50.782L39.5069 51.5186H39.3847L39.0551 50.782V51.5186H38.8787V50.4431H39.069L39.4466 51.2864L39.8226 50.4431H40.0114Z" fill="#B0B0B0"/>
<path d="M42.4335 50.669C42.4397 50.5731 42.4763 50.4983 42.5434 50.4446C42.6115 50.391 42.6981 50.3642 42.8033 50.3642C42.8756 50.3642 42.938 50.3771 42.9906 50.4028C43.0432 50.4286 43.0829 50.4637 43.1097 50.5081C43.1366 50.5524 43.15 50.6025 43.15 50.6582C43.15 50.7221 43.1329 50.7768 43.0989 50.8222C43.0649 50.8676 43.0241 50.898 42.9767 50.9135V50.9197C43.0375 50.9383 43.085 50.9723 43.119 51.0218C43.1531 51.0703 43.1701 51.1327 43.1701 51.2091C43.1701 51.2699 43.1562 51.3241 43.1283 51.3715C43.1005 51.419 43.0592 51.4567 43.0045 51.4845C42.9498 51.5113 42.8843 51.5247 42.808 51.5247C42.6966 51.5247 42.6048 51.4964 42.5325 51.4396C42.4614 51.3819 42.4232 51.2993 42.418 51.192H42.5882C42.5924 51.2467 42.6135 51.2916 42.6517 51.3267C42.6899 51.3607 42.7414 51.3777 42.8064 51.3777C42.8694 51.3777 42.9179 51.3607 42.9519 51.3267C42.9859 51.2916 43.003 51.2467 43.003 51.192C43.003 51.1198 42.9798 51.0688 42.9333 51.0388C42.8879 51.0079 42.8178 50.9924 42.7229 50.9924H42.6826V50.847H42.7244C42.808 50.8459 42.8714 50.832 42.9148 50.8052C42.9591 50.7784 42.9813 50.7361 42.9813 50.6783C42.9813 50.6288 42.9653 50.5896 42.9333 50.5607C42.9013 50.5308 42.856 50.5158 42.7972 50.5158C42.7394 50.5158 42.6945 50.5308 42.6625 50.5607C42.6305 50.5896 42.6115 50.6257 42.6053 50.669H42.4335ZM44.1307 50.7634C44.1307 50.8181 44.1178 50.8697 44.092 50.9181C44.0662 50.9666 44.0249 51.0064 43.9682 51.0373C43.9114 51.0672 43.8387 51.0822 43.75 51.0822H43.555V51.5186H43.3786V50.4431H43.75C43.8325 50.4431 43.9022 50.4575 43.9589 50.4864C44.0167 50.5143 44.0595 50.5524 44.0873 50.6009C44.1162 50.6494 44.1307 50.7036 44.1307 50.7634ZM43.75 50.9383C43.817 50.9383 43.8671 50.9233 43.9001 50.8934C43.9331 50.8624 43.9496 50.8191 43.9496 50.7634C43.9496 50.6458 43.8831 50.587 43.75 50.587H43.555V50.9383H43.75ZM45.4316 50.4431V51.5186H45.2552V50.782L44.9272 51.5186H44.8049L44.4753 50.782V51.5186H44.2989V50.4431H44.4892L44.8668 51.2864L45.2429 50.4431H45.4316Z" fill="#B0B0B0"/>
<path d="M48.9768 50.652C48.9654 50.6045 48.9448 50.5689 48.9149 50.5452C48.885 50.5215 48.8432 50.5096 48.7895 50.5096C48.708 50.5096 48.6472 50.5411 48.6069 50.604C48.5667 50.6659 48.5456 50.7691 48.5435 50.9135C48.5703 50.8681 48.6095 50.833 48.6611 50.8083C48.7127 50.7835 48.7684 50.7711 48.8282 50.7711C48.8963 50.7711 48.9562 50.7861 49.0077 50.816C49.0604 50.8449 49.1011 50.8872 49.13 50.9429C49.1599 50.9986 49.1749 51.0652 49.1749 51.1425C49.1749 51.2147 49.1604 51.2792 49.1315 51.336C49.1037 51.3927 49.0619 51.4376 49.0062 51.4706C48.9505 51.5026 48.8834 51.5186 48.805 51.5186C48.6988 51.5186 48.6152 51.4953 48.5543 51.4489C48.4945 51.4015 48.4522 51.3349 48.4274 51.2493C48.4037 51.1637 48.3919 51.0569 48.3919 50.929C48.3919 50.5514 48.5249 50.3626 48.7911 50.3626C48.8943 50.3626 48.9752 50.3905 49.034 50.4462C49.0939 50.5019 49.129 50.5705 49.1393 50.652H48.9768ZM48.7895 50.9197C48.7266 50.9197 48.673 50.9388 48.6286 50.9769C48.5853 51.0141 48.5636 51.0682 48.5636 51.1394C48.5636 51.2106 48.5837 51.2674 48.624 51.3096C48.6652 51.3509 48.7225 51.3715 48.7957 51.3715C48.8607 51.3715 48.9118 51.3514 48.9489 51.3112C48.9871 51.271 49.0062 51.2173 49.0062 51.1503C49.0062 51.0801 48.9876 51.0244 48.9505 50.9831C48.9144 50.9408 48.8607 50.9197 48.7895 50.9197ZM50.1383 50.7634C50.1383 50.8181 50.1254 50.8697 50.0996 50.9181C50.0738 50.9666 50.0326 51.0064 49.9758 51.0373C49.9191 51.0672 49.8464 51.0822 49.7576 51.0822H49.5627V51.5186H49.3862V50.4431H49.7576C49.8402 50.4431 49.9098 50.4575 49.9665 50.4864C50.0243 50.5143 50.0671 50.5524 50.095 50.6009C50.1239 50.6494 50.1383 50.7036 50.1383 50.7634ZM49.7576 50.9383C49.8247 50.9383 49.8747 50.9233 49.9077 50.8934C49.9407 50.8624 49.9573 50.8191 49.9573 50.7634C49.9573 50.6458 49.8907 50.587 49.7576 50.587H49.5627V50.9383H49.7576ZM51.4393 50.4431V51.5186H51.2629V50.782L50.9348 51.5186H50.8126L50.483 50.782V51.5186H50.3066V50.4431H50.4969L50.8745 51.2864L51.2505 50.4431H51.4393Z" fill="#B0B0B0"/>
<path d="M54.5255 51.2122C54.5358 51.2637 54.558 51.3029 54.592 51.3298C54.6261 51.3566 54.672 51.37 54.7297 51.37C54.803 51.37 54.8566 51.3411 54.8907 51.2833C54.9247 51.2256 54.9417 51.1271 54.9417 50.9878C54.917 51.0229 54.8819 51.0502 54.8365 51.0698C54.7922 51.0884 54.7437 51.0976 54.6911 51.0976C54.624 51.0976 54.5631 51.0842 54.5085 51.0574C54.4538 51.0296 54.4104 50.9888 54.3785 50.9352C54.3475 50.8805 54.332 50.8145 54.332 50.7371C54.332 50.6236 54.3651 50.5333 54.4311 50.4663C54.4981 50.3982 54.59 50.3642 54.7065 50.3642C54.8468 50.3642 54.9464 50.4111 55.0052 50.505C55.065 50.5978 55.0949 50.7407 55.0949 50.9336C55.0949 51.0667 55.0836 51.1755 55.0609 51.2601C55.0392 51.3447 55.0011 51.4087 54.9464 51.452C54.8917 51.4953 54.8159 51.517 54.7189 51.517C54.6085 51.517 54.5234 51.4881 54.4636 51.4304C54.4037 51.3726 54.3702 51.2998 54.363 51.2122H54.5255ZM54.722 50.9491C54.7839 50.9491 54.8324 50.93 54.8675 50.8918C54.9036 50.8526 54.9216 50.8011 54.9216 50.7371C54.9216 50.6659 54.9025 50.6107 54.8644 50.5715C54.8272 50.5313 54.7762 50.5112 54.7112 50.5112C54.6462 50.5112 54.5946 50.5318 54.5564 50.5731C54.5193 50.6133 54.5007 50.6664 54.5007 50.7325C54.5007 50.7954 54.5188 50.8475 54.5549 50.8887C54.592 50.929 54.6477 50.9491 54.722 50.9491ZM56.0633 50.7634C56.0633 50.8181 56.0504 50.8697 56.0246 50.9181C55.9988 50.9666 55.9575 51.0064 55.9008 51.0373C55.8441 51.0672 55.7713 51.0822 55.6826 51.0822H55.4876V51.5186H55.3112V50.4431H55.6826C55.7651 50.4431 55.8348 50.4575 55.8915 50.4864C55.9493 50.5143 55.9921 50.5524 56.0199 50.6009C56.0488 50.6494 56.0633 50.7036 56.0633 50.7634ZM55.6826 50.9383C55.7497 50.9383 55.7997 50.9233 55.8327 50.8934C55.8657 50.8624 55.8822 50.8191 55.8822 50.7634C55.8822 50.6458 55.8157 50.587 55.6826 50.587H55.4876V50.9383H55.6826ZM57.3643 50.4431V51.5186H57.1878V50.782L56.8598 51.5186H56.7375L56.4079 50.782V51.5186H56.2315V50.4431H56.4219L56.7994 51.2864L57.1755 50.4431H57.3643Z" fill="#B0B0B0"/>
<rect width="43.1995" height="4.25547" transform="translate(12.8008 31.9814)" fill="#66E4FE" fill-opacity="0.15"/>
<path d="M12.8008 37.9372C13.6773 37.5324 15.7422 36.0033 16.9901 33.1258C18.639 30.2764 22.4144 24.6729 25.9085 31.5117C28.4887 37.7815 31.9695 50.2996 34.287 40.6207C34.7624 38.5965 36.5103 36.1622 38.1147 36.1622C39.5706 36.1466 42.8121 34.9009 44.1313 30.0428C44.9929 28.7971 47.1351 27.6698 48.8108 33.1258C49.8061 37.112 52.7149 43.2999 56.3872 36.1622" stroke="#66E4FE" stroke-width="0.322384"/>
<ellipse cx="22.1931" cy="28.177" rx="0.552503" ry="0.580292" fill="#66E4FE"/>
<ellipse cx="32.2615" cy="44.0383" rx="0.552503" ry="0.580292" fill="#66E4FE"/>
<line x1="12.7686" y1="17.4092" x2="12.7686" y2="48.8739" stroke="#B0B0B0" stroke-width="0.193431"/>
<line x1="12.6719" y1="48.7773" x2="58.4505" y2="48.7773" stroke="#B0B0B0" stroke-width="0.193431"/>
<g filter="url(#filter1_d_454_572)">
<g clip-path="url(#clip2_454_572)">
<rect x="15.1211" y="21.5361" width="14.1849" height="5.44908" rx="0.864934" fill="#AFB7BE" fill-opacity="0.1" shape-rendering="crispEdges"/>
<path d="M15.4781 21.9388V22.6602H15.3598V22.3446H15.0204V22.6602H14.9021V21.9388H15.0204V22.2481H15.3598V21.9388H15.4781ZM15.6941 22.0125C15.6726 22.0125 15.6546 22.0052 15.6401 21.9907C15.6256 21.9762 15.6183 21.9582 15.6183 21.9367C15.6183 21.9153 15.6256 21.8973 15.6401 21.8828C15.6546 21.8682 15.6726 21.861 15.6941 21.861C15.7148 21.861 15.7325 21.8682 15.747 21.8828C15.7615 21.8973 15.7688 21.9153 15.7688 21.9367C15.7688 21.9582 15.7615 21.9762 15.747 21.9907C15.7325 22.0052 15.7148 22.0125 15.6941 22.0125ZM15.7522 22.0883V22.6602H15.6339V22.0883H15.7522ZM16.138 22.0789C16.1823 22.0789 16.2213 22.0879 16.2553 22.1059C16.2898 22.1232 16.3168 22.145 16.3362 22.1713V22.0883H16.4556V22.6695C16.4556 22.7221 16.4445 22.7688 16.4224 22.8096C16.4002 22.8511 16.368 22.8837 16.3258 22.9072C16.2843 22.9307 16.2345 22.9425 16.1764 22.9425C16.0989 22.9425 16.0345 22.9241 15.9833 22.8875C15.9321 22.8515 15.9031 22.8024 15.8961 22.7401H16.0134C16.0224 22.7698 16.0414 22.7937 16.0705 22.8117C16.1003 22.8304 16.1355 22.8397 16.1764 22.8397C16.2241 22.8397 16.2625 22.8252 16.2916 22.7961C16.3213 22.7671 16.3362 22.7249 16.3362 22.6695V22.574C16.3161 22.601 16.2888 22.6238 16.2542 22.6425C16.2203 22.6605 16.1816 22.6695 16.138 22.6695C16.0881 22.6695 16.0425 22.657 16.001 22.6321C15.9601 22.6065 15.9276 22.5712 15.9034 22.5263C15.8799 22.4806 15.8681 22.429 15.8681 22.3716C15.8681 22.3142 15.8799 22.2633 15.9034 22.219C15.9276 22.1748 15.9601 22.1405 16.001 22.1163C16.0425 22.0914 16.0881 22.0789 16.138 22.0789ZM16.3362 22.3737C16.3362 22.3342 16.3279 22.3 16.3113 22.2709C16.2954 22.2419 16.2743 22.2197 16.248 22.2045C16.2217 22.1893 16.1933 22.1817 16.1629 22.1817C16.1324 22.1817 16.1041 22.1893 16.0778 22.2045C16.0515 22.219 16.03 22.2408 16.0134 22.2699C15.9975 22.2983 15.9895 22.3322 15.9895 22.3716C15.9895 22.4111 15.9975 22.4457 16.0134 22.4754C16.03 22.5052 16.0515 22.528 16.0778 22.5439C16.1048 22.5591 16.1331 22.5667 16.1629 22.5667C16.1933 22.5667 16.2217 22.5591 16.248 22.5439C16.2743 22.5287 16.2954 22.5065 16.3113 22.4775C16.3279 22.4477 16.3362 22.4131 16.3362 22.3737ZM16.9068 22.0789C16.9504 22.0789 16.9891 22.0883 17.023 22.1069C17.0576 22.1256 17.0846 22.1533 17.104 22.19C17.1241 22.2267 17.1341 22.2709 17.1341 22.3228V22.6602H17.0168V22.3405C17.0168 22.2893 17.004 22.2502 16.9784 22.2232C16.9528 22.1955 16.9179 22.1817 16.8736 22.1817C16.8293 22.1817 16.794 22.1955 16.7677 22.2232C16.7421 22.2502 16.7293 22.2893 16.7293 22.3405V22.6602H16.611V21.8921H16.7293V22.1547C16.7494 22.1305 16.7746 22.1118 16.8051 22.0986C16.8362 22.0855 16.8701 22.0789 16.9068 22.0789ZM17.8092 22.3602C17.8092 22.3816 17.8078 22.401 17.805 22.4183H17.3681C17.3715 22.464 17.3885 22.5007 17.4189 22.5283C17.4494 22.556 17.4867 22.5699 17.531 22.5699C17.5947 22.5699 17.6396 22.5432 17.6659 22.4899H17.7936C17.7763 22.5425 17.7448 22.5858 17.6992 22.6197C17.6542 22.6529 17.5981 22.6695 17.531 22.6695C17.4763 22.6695 17.4272 22.6574 17.3836 22.6332C17.3407 22.6083 17.3068 22.5737 17.2819 22.5294C17.2577 22.4844 17.2456 22.4325 17.2456 22.3737C17.2456 22.3149 17.2573 22.2633 17.2809 22.219C17.3051 22.1741 17.3386 22.1395 17.3815 22.1152C17.4251 22.091 17.475 22.0789 17.531 22.0789C17.585 22.0789 17.6331 22.0907 17.6753 22.1142C17.7175 22.1377 17.7504 22.1709 17.7739 22.2139C17.7974 22.2561 17.8092 22.3048 17.8092 22.3602ZM17.6857 22.3228C17.685 22.2792 17.6694 22.2443 17.639 22.218C17.6085 22.1917 17.5708 22.1786 17.5258 22.1786C17.485 22.1786 17.4501 22.1917 17.421 22.218C17.3919 22.2436 17.3746 22.2785 17.3691 22.3228H17.6857ZM18.1332 22.6695C18.0882 22.6695 18.0477 22.6615 18.0118 22.6456C17.9765 22.629 17.9484 22.6069 17.9277 22.5792C17.9069 22.5508 17.8959 22.5193 17.8945 22.4847H18.017C18.019 22.509 18.0304 22.5294 18.0512 22.546C18.0727 22.5619 18.0993 22.5699 18.1311 22.5699C18.1643 22.5699 18.1899 22.5636 18.2079 22.5512C18.2266 22.538 18.236 22.5214 18.236 22.5014C18.236 22.4799 18.2256 22.464 18.2048 22.4536C18.1847 22.4432 18.1526 22.4318 18.1083 22.4194C18.0654 22.4076 18.0304 22.3962 18.0035 22.3851C17.9765 22.374 17.9529 22.3571 17.9329 22.3342C17.9135 22.3114 17.9038 22.2813 17.9038 22.244C17.9038 22.2135 17.9128 22.1858 17.9308 22.1609C17.9488 22.1353 17.9744 22.1152 18.0076 22.1007C18.0415 22.0862 18.0803 22.0789 18.1239 22.0789C18.1889 22.0789 18.2411 22.0955 18.2806 22.1287C18.3207 22.1613 18.3422 22.2059 18.3449 22.2626H18.2266C18.2245 22.237 18.2142 22.2166 18.1955 22.2014C18.1768 22.1862 18.1515 22.1786 18.1197 22.1786C18.0886 22.1786 18.0647 22.1844 18.0481 22.1962C18.0315 22.208 18.0232 22.2235 18.0232 22.2429C18.0232 22.2581 18.0287 22.2709 18.0398 22.2813C18.0509 22.2917 18.0643 22.3 18.0803 22.3062C18.0962 22.3118 18.1197 22.319 18.1508 22.328C18.1924 22.3391 18.2263 22.3505 18.2526 22.3623C18.2795 22.3733 18.3027 22.39 18.3221 22.4121C18.3415 22.4342 18.3515 22.4636 18.3522 22.5003C18.3522 22.5328 18.3432 22.5619 18.3252 22.5875C18.3072 22.6131 18.2816 22.6332 18.2484 22.6477C18.2159 22.6622 18.1775 22.6695 18.1332 22.6695ZM18.6181 22.1848V22.5014C18.6181 22.5228 18.6229 22.5384 18.6326 22.5481C18.643 22.5571 18.6603 22.5616 18.6845 22.5616H18.7572V22.6602H18.6638C18.6105 22.6602 18.5697 22.6477 18.5413 22.6228C18.5129 22.5979 18.4987 22.5574 18.4987 22.5014V22.1848H18.4313V22.0883H18.4987V21.9461H18.6181V22.0883H18.7572V22.1848H18.6181ZM19.5105 22.6602L19.3445 22.3716H19.2542V22.6602H19.1358V21.9388H19.3849C19.4403 21.9388 19.487 21.9485 19.5251 21.9679C19.5638 21.9872 19.5925 22.0132 19.6112 22.0457C19.6306 22.0782 19.6403 22.1146 19.6403 22.1547C19.6403 22.2017 19.6264 22.2446 19.5988 22.2834C19.5718 22.3214 19.5299 22.3474 19.4732 22.3612L19.6517 22.6602H19.5105ZM19.2542 22.2772H19.3849C19.4292 22.2772 19.4624 22.2661 19.4846 22.244C19.5074 22.2218 19.5188 22.1921 19.5188 22.1547C19.5188 22.1173 19.5078 22.0883 19.4856 22.0675C19.4635 22.0461 19.4299 22.0353 19.3849 22.0353H19.2542V22.2772ZM20.3158 22.3602C20.3158 22.3816 20.3144 22.401 20.3116 22.4183H19.8747C19.8781 22.464 19.8951 22.5007 19.9255 22.5283C19.956 22.556 19.9933 22.5699 20.0376 22.5699C20.1013 22.5699 20.1463 22.5432 20.1726 22.4899H20.3002C20.2829 22.5425 20.2514 22.5858 20.2058 22.6197C20.1608 22.6529 20.1047 22.6695 20.0376 22.6695C19.983 22.6695 19.9338 22.6574 19.8902 22.6332C19.8473 22.6083 19.8134 22.5737 19.7885 22.5294C19.7643 22.4844 19.7522 22.4325 19.7522 22.3737C19.7522 22.3149 19.764 22.2633 19.7875 22.219C19.8117 22.1741 19.8453 22.1395 19.8882 22.1152C19.9318 22.091 19.9816 22.0789 20.0376 22.0789C20.0916 22.0789 20.1397 22.0907 20.1819 22.1142C20.2241 22.1377 20.257 22.1709 20.2805 22.2139C20.304 22.2561 20.3158 22.3048 20.3158 22.3602ZM20.1923 22.3228C20.1916 22.2792 20.176 22.2443 20.1456 22.218C20.1151 22.1917 20.0774 22.1786 20.0324 22.1786C19.9916 22.1786 19.9567 22.1917 19.9276 22.218C19.8985 22.2436 19.8812 22.2785 19.8757 22.3228H20.1923ZM20.3928 22.3716C20.3928 22.3142 20.4046 22.2633 20.4281 22.219C20.4523 22.1748 20.4848 22.1405 20.5256 22.1163C20.5672 22.0914 20.6128 22.0789 20.6627 22.0789C20.7076 22.0789 20.7467 22.0879 20.7799 22.1059C20.8138 22.1232 20.8408 22.145 20.8609 22.1713V22.0883H20.9803V22.6602H20.8609V22.575C20.8408 22.602 20.8135 22.6245 20.7789 22.6425C20.7443 22.6605 20.7049 22.6695 20.6606 22.6695C20.6114 22.6695 20.5665 22.657 20.5256 22.6321C20.4848 22.6065 20.4523 22.5712 20.4281 22.5263C20.4046 22.4806 20.3928 22.429 20.3928 22.3716ZM20.8609 22.3737C20.8609 22.3342 20.8526 22.3 20.836 22.2709C20.8201 22.2419 20.799 22.2197 20.7727 22.2045C20.7464 22.1893 20.718 22.1817 20.6876 22.1817C20.6571 22.1817 20.6287 22.1893 20.6025 22.2045C20.5762 22.219 20.5547 22.2408 20.5381 22.2699C20.5222 22.2983 20.5142 22.3322 20.5142 22.3716C20.5142 22.4111 20.5222 22.4457 20.5381 22.4754C20.5547 22.5052 20.5762 22.528 20.6025 22.5439C20.6294 22.5591 20.6578 22.5667 20.6876 22.5667C20.718 22.5667 20.7464 22.5591 20.7727 22.5439C20.799 22.5287 20.8201 22.5065 20.836 22.4775C20.8526 22.4477 20.8609 22.4131 20.8609 22.3737ZM21.0962 22.3716C21.0962 22.3142 21.108 22.2633 21.1315 22.219C21.1557 22.1748 21.1883 22.1405 21.2291 22.1163C21.2706 22.0914 21.3166 22.0789 21.3671 22.0789C21.4045 22.0789 21.4412 22.0872 21.4771 22.1038C21.5138 22.1197 21.5429 22.1412 21.5643 22.1682V21.8921H21.6837V22.6602H21.5643V22.574C21.545 22.6017 21.518 22.6245 21.4834 22.6425C21.4495 22.6605 21.4104 22.6695 21.3661 22.6695C21.3163 22.6695 21.2706 22.657 21.2291 22.6321C21.1883 22.6065 21.1557 22.5712 21.1315 22.5263C21.108 22.4806 21.0962 22.429 21.0962 22.3716ZM21.5643 22.3737C21.5643 22.3342 21.556 22.3 21.5394 22.2709C21.5235 22.2419 21.5024 22.2197 21.4761 22.2045C21.4498 22.1893 21.4214 22.1817 21.391 22.1817C21.3605 22.1817 21.3322 22.1893 21.3059 22.2045C21.2796 22.219 21.2581 22.2408 21.2415 22.2699C21.2256 22.2983 21.2177 22.3322 21.2177 22.3716C21.2177 22.4111 21.2256 22.4457 21.2415 22.4754C21.2581 22.5052 21.2796 22.528 21.3059 22.5439C21.3329 22.5591 21.3612 22.5667 21.391 22.5667C21.4214 22.5667 21.4498 22.5591 21.4761 22.5439C21.5024 22.5287 21.5235 22.5065 21.5394 22.4775C21.556 22.4477 21.5643 22.4131 21.5643 22.3737ZM21.8993 22.0125C21.8779 22.0125 21.8599 22.0052 21.8453 21.9907C21.8308 21.9762 21.8235 21.9582 21.8235 21.9367C21.8235 21.9153 21.8308 21.8973 21.8453 21.8828C21.8599 21.8682 21.8779 21.861 21.8993 21.861C21.9201 21.861 21.9377 21.8682 21.9522 21.8828C21.9668 21.8973 21.974 21.9153 21.974 21.9367C21.974 21.9582 21.9668 21.9762 21.9522 21.9907C21.9377 22.0052 21.9201 22.0125 21.8993 22.0125ZM21.9574 22.0883V22.6602H21.8391V22.0883H21.9574ZM22.4013 22.0789C22.4463 22.0789 22.4864 22.0883 22.5217 22.1069C22.5577 22.1256 22.5857 22.1533 22.6058 22.19C22.6259 22.2267 22.6359 22.2709 22.6359 22.3228V22.6602H22.5186V22.3405C22.5186 22.2893 22.5058 22.2502 22.4802 22.2232C22.4546 22.1955 22.4197 22.1817 22.3754 22.1817C22.3311 22.1817 22.2958 22.1955 22.2695 22.2232C22.2439 22.2502 22.2311 22.2893 22.2311 22.3405V22.6602H22.1128V22.0883H22.2311V22.1537C22.2505 22.1301 22.275 22.1118 22.3048 22.0986C22.3352 22.0855 22.3674 22.0789 22.4013 22.0789ZM23.0172 22.0789C23.0615 22.0789 23.1006 22.0879 23.1345 22.1059C23.1691 22.1232 23.1961 22.145 23.2155 22.1713V22.0883H23.3348V22.6695C23.3348 22.7221 23.3238 22.7688 23.3016 22.8096C23.2795 22.8511 23.2473 22.8837 23.2051 22.9072C23.1636 22.9307 23.1138 22.9425 23.0556 22.9425C22.9781 22.9425 22.9138 22.9241 22.8626 22.8875C22.8114 22.8515 22.7823 22.8024 22.7754 22.7401H22.8927C22.9017 22.7698 22.9207 22.7937 22.9498 22.8117C22.9795 22.8304 23.0148 22.8397 23.0556 22.8397C23.1034 22.8397 23.1418 22.8252 23.1708 22.7961C23.2006 22.7671 23.2155 22.7249 23.2155 22.6695V22.574C23.1954 22.601 23.1681 22.6238 23.1335 22.6425C23.0996 22.6605 23.0608 22.6695 23.0172 22.6695C22.9674 22.6695 22.9217 22.657 22.8802 22.6321C22.8394 22.6065 22.8069 22.5712 22.7827 22.5263C22.7591 22.4806 22.7474 22.429 22.7474 22.3716C22.7474 22.3142 22.7591 22.2633 22.7827 22.219C22.8069 22.1748 22.8394 22.1405 22.8802 22.1163C22.9217 22.0914 22.9674 22.0789 23.0172 22.0789ZM23.2155 22.3737C23.2155 22.3342 23.2072 22.3 23.1906 22.2709C23.1746 22.2419 23.1535 22.2197 23.1273 22.2045C23.101 22.1893 23.0726 22.1817 23.0421 22.1817C23.0117 22.1817 22.9833 22.1893 22.957 22.2045C22.9307 22.219 22.9093 22.2408 22.8927 22.2699C22.8768 22.2983 22.8688 22.3322 22.8688 22.3716C22.8688 22.4111 22.8768 22.4457 22.8927 22.4754C22.9093 22.5052 22.9307 22.528 22.957 22.5439C22.984 22.5591 23.0124 22.5667 23.0421 22.5667C23.0726 22.5667 23.101 22.5591 23.1273 22.5439C23.1535 22.5287 23.1746 22.5065 23.1906 22.4775C23.2072 22.4477 23.2155 22.4131 23.2155 22.3737Z" fill="#B0B0B0"/>
<path d="M24.7497 22.0903C24.7538 22.026 24.7784 21.9758 24.8233 21.9398C24.869 21.9039 24.9271 21.8859 24.9977 21.8859C25.0462 21.8859 25.088 21.8945 25.1233 21.9118C25.1586 21.9291 25.1852 21.9526 25.2032 21.9824C25.2212 22.0121 25.2302 22.0457 25.2302 22.0831C25.2302 22.126 25.2188 22.1626 25.196 22.1931C25.1731 22.2235 25.1458 22.244 25.114 22.2543V22.2585C25.1548 22.2709 25.1866 22.2938 25.2095 22.327C25.2323 22.3595 25.2437 22.4014 25.2437 22.4526C25.2437 22.4934 25.2344 22.5297 25.2157 22.5616C25.197 22.5934 25.1693 22.6186 25.1326 22.6373C25.096 22.6553 25.052 22.6643 25.0008 22.6643C24.9261 22.6643 24.8645 22.6453 24.8161 22.6072C24.7683 22.5685 24.7427 22.5131 24.7393 22.4412H24.8534C24.8562 22.4778 24.8704 22.5079 24.896 22.5315C24.9216 22.5543 24.9562 22.5657 24.9998 22.5657C25.042 22.5657 25.0745 22.5543 25.0974 22.5315C25.1202 22.5079 25.1316 22.4778 25.1316 22.4412C25.1316 22.3927 25.116 22.3585 25.0849 22.3384C25.0545 22.3176 25.0074 22.3073 24.9437 22.3073H24.9168V22.2097H24.9448C25.0008 22.209 25.0434 22.1997 25.0724 22.1817C25.1022 22.1637 25.1171 22.1353 25.1171 22.0966C25.1171 22.0634 25.1064 22.0371 25.0849 22.0177C25.0635 21.9976 25.033 21.9876 24.9936 21.9876C24.9548 21.9876 24.9247 21.9976 24.9033 22.0177C24.8818 22.0371 24.869 22.0613 24.8649 22.0903H24.7497ZM25.4313 22.6674C25.4099 22.6674 25.3919 22.6602 25.3773 22.6456C25.3628 22.6311 25.3555 22.6131 25.3555 22.5917C25.3555 22.5702 25.3628 22.5522 25.3773 22.5377C25.3919 22.5232 25.4099 22.5159 25.4313 22.5159C25.4521 22.5159 25.4697 22.5232 25.4842 22.5377C25.4988 22.5522 25.506 22.5702 25.506 22.5917C25.506 22.6131 25.4988 22.6311 25.4842 22.6456C25.4697 22.6602 25.4521 22.6674 25.4313 22.6674ZM25.4313 22.2315C25.4099 22.2315 25.3919 22.2242 25.3773 22.2097C25.3628 22.1952 25.3555 22.1772 25.3555 22.1557C25.3555 22.1343 25.3628 22.1163 25.3773 22.1018C25.3919 22.0872 25.4099 22.08 25.4313 22.08C25.4521 22.08 25.4697 22.0872 25.4842 22.1018C25.4988 22.1163 25.506 22.1343 25.506 22.1557C25.506 22.1772 25.4988 22.1952 25.4842 22.2097C25.4697 22.2242 25.4521 22.2315 25.4313 22.2315ZM25.6203 22.0903C25.6245 22.026 25.649 21.9758 25.694 21.9398C25.7397 21.9039 25.7978 21.8859 25.8684 21.8859C25.9168 21.8859 25.9587 21.8945 25.994 21.9118C26.0293 21.9291 26.0559 21.9526 26.0739 21.9824C26.0919 22.0121 26.1009 22.0457 26.1009 22.0831C26.1009 22.126 26.0895 22.1626 26.0666 22.1931C26.0438 22.2235 26.0165 22.244 25.9846 22.2543V22.2585C26.0255 22.2709 26.0573 22.2938 26.0801 22.327C26.103 22.3595 26.1144 22.4014 26.1144 22.4526C26.1144 22.4934 26.105 22.5297 26.0864 22.5616C26.0677 22.5934 26.04 22.6186 26.0033 22.6373C25.9666 22.6553 25.9227 22.6643 25.8715 22.6643C25.7968 22.6643 25.7352 22.6453 25.6868 22.6072C25.639 22.5685 25.6134 22.5131 25.61 22.4412H25.7241C25.7269 22.4778 25.7411 22.5079 25.7667 22.5315C25.7923 22.5543 25.8269 22.5657 25.8705 22.5657C25.9127 22.5657 25.9452 22.5543 25.968 22.5315C25.9909 22.5079 26.0023 22.4778 26.0023 22.4412C26.0023 22.3927 25.9867 22.3585 25.9556 22.3384C25.9251 22.3176 25.8781 22.3073 25.8144 22.3073H25.7874V22.2097H25.8155C25.8715 22.209 25.9141 22.1997 25.9431 22.1817C25.9729 22.1637 25.9878 22.1353 25.9878 22.0966C25.9878 22.0634 25.977 22.0371 25.9556 22.0177C25.9341 21.9976 25.9037 21.9876 25.8642 21.9876C25.8255 21.9876 25.7954 21.9976 25.7739 22.0177C25.7525 22.0371 25.7397 22.0613 25.7355 22.0903H25.6203ZM26.2387 22.272C26.2387 22.1523 26.2587 22.0589 26.2989 21.9917C26.3397 21.9239 26.4096 21.89 26.5085 21.89C26.6075 21.89 26.677 21.9239 26.7172 21.9917C26.758 22.0589 26.7784 22.1523 26.7784 22.272C26.7784 22.3931 26.758 22.4879 26.7172 22.5564C26.677 22.6242 26.6075 22.6581 26.5085 22.6581C26.4096 22.6581 26.3397 22.6242 26.2989 22.5564C26.2587 22.4879 26.2387 22.3931 26.2387 22.272ZM26.6621 22.272C26.6621 22.2159 26.6583 22.1685 26.6507 22.1298C26.6438 22.091 26.6293 22.0595 26.6071 22.0353C26.585 22.0104 26.5521 21.998 26.5085 21.998C26.4649 21.998 26.4321 22.0104 26.4099 22.0353C26.3878 22.0595 26.3729 22.091 26.3653 22.1298C26.3584 22.1685 26.3549 22.2159 26.3549 22.272C26.3549 22.3301 26.3584 22.3789 26.3653 22.4183C26.3722 22.4578 26.3867 22.4896 26.4089 22.5138C26.4317 22.538 26.4649 22.5501 26.5085 22.5501C26.5521 22.5501 26.585 22.538 26.6071 22.5138C26.63 22.4896 26.6448 22.4578 26.6518 22.4183C26.6587 22.3789 26.6621 22.3301 26.6621 22.272ZM27.6237 22.5128H27.3216L27.2697 22.6602H27.1462L27.4047 21.9378H27.5417L27.8001 22.6602H27.6756L27.6237 22.5128ZM27.5904 22.4162L27.4732 22.081L27.3548 22.4162H27.5904ZM28.6722 21.9388V22.6602H28.5539V22.1661L28.3339 22.6602H28.2519L28.0308 22.1661V22.6602H27.9125V21.9388H28.0401L28.2934 22.5045L28.5456 21.9388H28.6722Z" fill="#B0B0B0"/>
<path d="M15.5088 24.6364V24.3889H15.9401V25.5254H15.663V24.6364H15.5088ZM16.0942 24.6364V24.3889H16.5254V25.5254H16.2483V24.6364H16.0942ZM16.7076 24.9416C16.7076 24.763 16.7418 24.6224 16.8103 24.5196C16.8799 24.4169 16.9914 24.3655 17.145 24.3655C17.2987 24.3655 17.4097 24.4169 17.4782 24.5196C17.5478 24.6224 17.5825 24.763 17.5825 24.9416C17.5825 25.1222 17.5478 25.2638 17.4782 25.3666C17.4097 25.4693 17.2987 25.5207 17.145 25.5207C16.9914 25.5207 16.8799 25.4693 16.8103 25.3666C16.7418 25.2638 16.7076 25.1222 16.7076 24.9416ZM17.321 24.9416C17.321 24.8367 17.3096 24.7563 17.2867 24.7002C17.2639 24.6432 17.2167 24.6146 17.145 24.6146C17.0734 24.6146 17.0262 24.6432 17.0034 24.7002C16.9805 24.7563 16.9691 24.8367 16.9691 24.9416C16.9691 25.0121 16.9733 25.0708 16.9816 25.1175C16.9899 25.1632 17.0065 25.2005 17.0314 25.2296C17.0573 25.2576 17.0952 25.2716 17.145 25.2716C17.1949 25.2716 17.2322 25.2576 17.2571 25.2296C17.2831 25.2005 17.3002 25.1632 17.3085 25.1175C17.3168 25.0708 17.321 25.0121 17.321 24.9416Z" fill="#B0B0B0"/>
<path d="M20.1961 24.7656C20.1712 24.72 20.1369 24.6852 20.0933 24.6613C20.0498 24.6374 19.9989 24.6255 19.9408 24.6255C19.8764 24.6255 19.8193 24.64 19.7695 24.6691C19.7197 24.6982 19.6808 24.7397 19.6527 24.7937C19.6247 24.8476 19.6107 24.9099 19.6107 24.9805C19.6107 25.0531 19.6247 25.1164 19.6527 25.1704C19.6818 25.2244 19.7218 25.2659 19.7726 25.295C19.8235 25.324 19.8826 25.3386 19.9501 25.3386C20.0331 25.3386 20.1011 25.3168 20.1541 25.2732C20.207 25.2285 20.2418 25.1668 20.2584 25.0879H19.8847V24.9213H20.4732V25.1113C20.4587 25.187 20.4276 25.2571 20.3798 25.3214C20.3321 25.3858 20.2703 25.4377 20.1945 25.4771C20.1198 25.5155 20.0357 25.5347 19.9423 25.5347C19.8375 25.5347 19.7425 25.5114 19.6574 25.4647C19.5733 25.4169 19.5069 25.351 19.4581 25.2669C19.4104 25.1829 19.3865 25.0874 19.3865 24.9805C19.3865 24.8736 19.4104 24.7781 19.4581 24.694C19.5069 24.6089 19.5733 24.543 19.6574 24.4963C19.7425 24.4485 19.837 24.4247 19.9408 24.4247C20.0632 24.4247 20.1696 24.4548 20.2599 24.515C20.3502 24.5741 20.4125 24.6577 20.4468 24.7656H20.1961ZM21.0175 25.5394C20.9344 25.5394 20.8597 25.5212 20.7933 25.4849C20.7269 25.4475 20.6744 25.3951 20.636 25.3277C20.5987 25.2602 20.58 25.1824 20.58 25.0941C20.58 25.0059 20.5992 24.9281 20.6376 24.8606C20.677 24.7931 20.7305 24.7412 20.798 24.7049C20.8654 24.6675 20.9407 24.6489 21.0237 24.6489C21.1067 24.6489 21.182 24.6675 21.2495 24.7049C21.3169 24.7412 21.3699 24.7931 21.4083 24.8606C21.4477 24.9281 21.4674 25.0059 21.4674 25.0941C21.4674 25.1824 21.4472 25.2602 21.4067 25.3277C21.3673 25.3951 21.3133 25.4475 21.2448 25.4849C21.1773 25.5212 21.1015 25.5394 21.0175 25.5394ZM21.0175 25.3495C21.0569 25.3495 21.0938 25.3401 21.128 25.3214C21.1633 25.3017 21.1913 25.2727 21.2121 25.2343C21.2328 25.1959 21.2432 25.1491 21.2432 25.0941C21.2432 25.0121 21.2214 24.9493 21.1778 24.9058C21.1353 24.8611 21.0829 24.8388 21.0206 24.8388C20.9583 24.8388 20.9059 24.8611 20.8633 24.9058C20.8218 24.9493 20.8011 25.0121 20.8011 25.0941C20.8011 25.1761 20.8213 25.2394 20.8618 25.2841C20.9033 25.3277 20.9552 25.3495 21.0175 25.3495ZM22.0103 25.5394C21.9273 25.5394 21.8525 25.5212 21.7861 25.4849C21.7197 25.4475 21.6673 25.3951 21.6289 25.3277C21.5915 25.2602 21.5728 25.1824 21.5728 25.0941C21.5728 25.0059 21.592 24.9281 21.6304 24.8606C21.6699 24.7931 21.7233 24.7412 21.7908 24.7049C21.8582 24.6675 21.9335 24.6489 22.0165 24.6489C22.0996 24.6489 22.1748 24.6675 22.2423 24.7049C22.3097 24.7412 22.3627 24.7931 22.4011 24.8606C22.4405 24.9281 22.4602 25.0059 22.4602 25.0941C22.4602 25.1824 22.44 25.2602 22.3995 25.3277C22.3601 25.3951 22.3061 25.4475 22.2376 25.4849C22.1701 25.5212 22.0944 25.5394 22.0103 25.5394ZM22.0103 25.3495C22.0497 25.3495 22.0866 25.3401 22.1208 25.3214C22.1561 25.3017 22.1841 25.2727 22.2049 25.2343C22.2257 25.1959 22.236 25.1491 22.236 25.0941C22.236 25.0121 22.2142 24.9493 22.1707 24.9058C22.1281 24.8611 22.0757 24.8388 22.0134 24.8388C21.9511 24.8388 21.8987 24.8611 21.8562 24.9058C21.8146 24.9493 21.7939 25.0121 21.7939 25.0941C21.7939 25.1761 21.8141 25.2394 21.8546 25.2841C21.8961 25.3277 21.948 25.3495 22.0103 25.3495ZM22.5641 25.091C22.5641 25.0038 22.5812 24.9265 22.6154 24.859C22.6507 24.7916 22.6985 24.7397 22.7587 24.7034C22.8189 24.667 22.8858 24.6489 22.9595 24.6489C23.0156 24.6489 23.069 24.6613 23.1199 24.6862C23.1707 24.7101 23.2112 24.7423 23.2413 24.7828V24.3733H23.4624V25.5254H23.2413V25.3977C23.2143 25.4403 23.1764 25.4745 23.1277 25.5005C23.0789 25.5264 23.0223 25.5394 22.958 25.5394C22.8853 25.5394 22.8189 25.5207 22.7587 25.4834C22.6985 25.446 22.6507 25.3936 22.6154 25.3261C22.5812 25.2576 22.5641 25.1792 22.5641 25.091ZM23.2429 25.0941C23.2429 25.0412 23.2325 24.9961 23.2117 24.9587C23.191 24.9203 23.1629 24.8912 23.1277 24.8715C23.0924 24.8507 23.0545 24.8404 23.014 24.8404C22.9735 24.8404 22.9362 24.8502 22.9019 24.8699C22.8677 24.8897 22.8396 24.9187 22.8178 24.9571C22.7971 24.9945 22.7867 25.0391 22.7867 25.091C22.7867 25.1429 22.7971 25.1886 22.8178 25.228C22.8396 25.2664 22.8677 25.296 22.9019 25.3168C22.9372 25.3375 22.9746 25.3479 23.014 25.3479C23.0545 25.3479 23.0924 25.338 23.1277 25.3183C23.1629 25.2976 23.191 25.2685 23.2117 25.2311C23.2325 25.1927 23.2429 25.1471 23.2429 25.0941Z" fill="#66E4FE"/>
<path d="M21.9686 25.4373C22.0055 25.4373 22.0384 25.4451 22.0672 25.4606C22.0961 25.4756 22.1188 25.4984 22.1356 25.529C22.1523 25.5595 22.1606 25.5967 22.1606 25.6405V25.9199H22.0828V25.6518C22.0828 25.6045 22.071 25.5685 22.0473 25.5437C22.0243 25.5183 21.9928 25.5056 21.9531 25.5056C21.9121 25.5056 21.8795 25.5189 21.8553 25.5454C21.8311 25.5714 21.819 25.6091 21.819 25.6587V25.9199H21.7411V25.6518C21.7411 25.6045 21.7293 25.5685 21.7057 25.5437C21.6826 25.5183 21.6512 25.5056 21.6114 25.5056C21.5705 25.5056 21.5379 25.5189 21.5137 25.5454C21.4894 25.5714 21.4773 25.6091 21.4773 25.6587V25.9199H21.3986V25.4459H21.4773V25.5143C21.4929 25.4895 21.5137 25.4704 21.5396 25.4572C21.5661 25.4439 21.5953 25.4373 21.627 25.4373C21.6668 25.4373 21.7019 25.4462 21.7325 25.4641C21.7631 25.482 21.7858 25.5082 21.8008 25.5428C21.8141 25.5094 21.836 25.4834 21.8666 25.465C21.8971 25.4465 21.9311 25.4373 21.9686 25.4373ZM22.4852 25.4382C22.5262 25.4382 22.5619 25.4471 22.5925 25.465C22.6236 25.4828 22.6467 25.5053 22.6617 25.5324V25.4459H22.7412V25.9303C22.7412 25.9735 22.732 26.0119 22.7136 26.0453C22.6951 26.0794 22.6686 26.1059 22.634 26.1249C22.6 26.1439 22.5602 26.1535 22.5146 26.1535C22.4524 26.1535 22.4005 26.1388 22.3589 26.1093C22.3174 26.0799 22.2929 26.0399 22.2854 25.9891H22.3633C22.3719 26.0179 22.3898 26.041 22.4169 26.0583C22.444 26.0762 22.4766 26.0851 22.5146 26.0851C22.5579 26.0851 22.5931 26.0716 22.6202 26.0445C22.6478 26.0174 22.6617 25.9793 22.6617 25.9303V25.8308C22.6461 25.8585 22.623 25.8816 22.5925 25.9C22.5619 25.9185 22.5262 25.9277 22.4852 25.9277C22.4431 25.9277 22.4048 25.9173 22.3702 25.8966C22.3362 25.8758 22.3094 25.8467 22.2897 25.8092C22.2701 25.7717 22.2603 25.7291 22.2603 25.6812C22.2603 25.6328 22.2701 25.5904 22.2897 25.5541C22.3094 25.5172 22.3362 25.4886 22.3702 25.4684C22.4048 25.4482 22.4431 25.4382 22.4852 25.4382ZM22.6617 25.6821C22.6617 25.6463 22.6545 25.6152 22.64 25.5887C22.6256 25.5621 22.606 25.5419 22.5812 25.5281C22.557 25.5137 22.5302 25.5065 22.5008 25.5065C22.4714 25.5065 22.4446 25.5134 22.4204 25.5272C22.3961 25.5411 22.3768 25.5613 22.3624 25.5878C22.348 25.6143 22.3408 25.6454 22.3408 25.6812C22.3408 25.7175 22.348 25.7492 22.3624 25.7763C22.3768 25.8029 22.3961 25.8233 22.4204 25.8378C22.4446 25.8516 22.4714 25.8585 22.5008 25.8585C22.5302 25.8585 22.557 25.8516 22.5812 25.8378C22.606 25.8233 22.6256 25.8029 22.64 25.7763C22.6545 25.7492 22.6617 25.7178 22.6617 25.6821ZM23.1683 25.1052L22.9313 26.067H22.8535L23.0896 25.1052H23.1683ZM23.2562 25.6812C23.2562 25.6328 23.266 25.5904 23.2856 25.5541C23.3052 25.5172 23.332 25.4886 23.366 25.4684C23.4006 25.4482 23.4393 25.4382 23.4819 25.4382C23.5188 25.4382 23.5532 25.4468 23.5849 25.4641C23.6166 25.4808 23.6408 25.503 23.6575 25.5307V25.2799H23.7371V25.9199H23.6575V25.8308C23.642 25.8591 23.6189 25.8824 23.5883 25.9009C23.5578 25.9188 23.522 25.9277 23.4811 25.9277C23.439 25.9277 23.4006 25.9173 23.366 25.8966C23.332 25.8758 23.3052 25.8467 23.2856 25.8092C23.266 25.7717 23.2562 25.7291 23.2562 25.6812ZM23.6575 25.6821C23.6575 25.6463 23.6503 25.6152 23.6359 25.5887C23.6215 25.5621 23.6019 25.5419 23.5771 25.5281C23.5529 25.5137 23.5261 25.5065 23.4966 25.5065C23.4672 25.5065 23.4404 25.5134 23.4162 25.5272C23.392 25.5411 23.3727 25.5613 23.3583 25.5878C23.3438 25.6143 23.3366 25.6454 23.3366 25.6812C23.3366 25.7175 23.3438 25.7492 23.3583 25.7763C23.3727 25.8029 23.392 25.8233 23.4162 25.8378C23.4404 25.8516 23.4672 25.8585 23.4966 25.8585C23.5261 25.8585 23.5529 25.8516 23.5771 25.8378C23.6019 25.8233 23.6215 25.8029 23.6359 25.7763C23.6503 25.7492 23.6575 25.7178 23.6575 25.6821ZM23.9488 25.2799V25.9199H23.8701V25.2799H23.9488Z" fill="#9D9D9D"/>
</g>
</g>
</g>
<defs>
<filter id="filter0_d_454_572" x="0.185639" y="0.81741" width="23.0063" height="13.2162" filterUnits="userSpaceOnUse" color-interpolation-filters="sRGB">
<feFlood flood-opacity="0" result="BackgroundImageFix"/>
<feColorMatrix in="SourceAlpha" type="matrix" values="0 0 0 0 0 0 0 0 0 0 0 0 0 0 0 0 0 0 127 0" result="hardAlpha"/>
<feOffset dx="-0.402052" dy="0.134017"/>
<feGaussianBlur stdDeviation="1.20615"/>
<feComposite in2="hardAlpha" operator="out"/>
<feColorMatrix type="matrix" values="0 0 0 0 0 0 0 0 0 0 0 0 0 0 0 0 0 0 0.25 0"/>
<feBlend mode="normal" in2="BackgroundImageFix" result="effect1_dropShadow_454_572"/>
<feBlend mode="normal" in="SourceGraphic" in2="effect1_dropShadow_454_572" result="shape"/>
</filter>
<filter id="filter1_d_454_572" x="13.3047" y="20.0657" width="17.2993" height="8.56298" filterUnits="userSpaceOnUse" color-interpolation-filters="sRGB">
<feFlood flood-opacity="0" result="BackgroundImageFix"/>
<feColorMatrix in="SourceAlpha" type="matrix" values="0 0 0 0 0 0 0 0 0 0 0 0 0 0 0 0 0 0 127 0" result="hardAlpha"/>
<feOffset dx="-0.25948" dy="0.0864934"/>
<feGaussianBlur stdDeviation="0.77844"/>
<feComposite in2="hardAlpha" operator="out"/>
<feColorMatrix type="matrix" values="0 0 0 0 0 0 0 0 0 0 0 0 0 0 0 0 0 0 0.25 0"/>
<feBlend mode="normal" in2="BackgroundImageFix" result="effect1_dropShadow_454_572"/>
<feBlend mode="normal" in="SourceGraphic" in2="effect1_dropShadow_454_572" result="shape"/>
</filter>
<clipPath id="clip0_454_572">
<rect x="7.12695" y="9.54297" width="48.8735" height="44.3601" rx="7" fill="white"/>
</clipPath>
<clipPath id="clip1_454_572">
<rect width="3.09489" height="3.09489" fill="white" transform="translate(35.5391 12.7031)"/>
</clipPath>
<clipPath id="clip2_454_572">
<rect x="15.1211" y="21.5361" width="14.1849" height="5.44908" rx="0.864934" fill="white"/>
</clipPath>
</defs>
</svg>
