<svg width="70" height="71" viewBox="0 0 70 71" fill="none" xmlns="http://www.w3.org/2000/svg">
<path fill-rule="evenodd" clip-rule="evenodd" d="M44.8735 12.2697C44.8735 11.3074 45.6536 10.5273 46.6158 10.5273H58.2312C59.1934 10.5273 59.9735 11.3074 59.9735 12.2697V23.885C59.9735 24.8473 59.1934 25.6273 58.2312 25.6273C57.2689 25.6273 56.4889 24.8473 56.4889 23.885V16.476L45.907 27.0578C48.8861 30.5941 50.6812 35.1607 50.6812 40.1466C50.6812 51.3728 41.5805 60.4735 30.3543 60.4735C19.128 60.4735 10.0273 51.3728 10.0273 40.1466C10.0273 28.9203 19.128 19.8197 30.3543 19.8197C35.3401 19.8197 39.9067 21.6147 43.443 24.5938L54.0249 14.012H46.6158C45.6536 14.012 44.8735 13.2319 44.8735 12.2697ZM30.3543 23.3043C21.0525 23.3043 13.512 30.8448 13.512 40.1466C13.512 49.4483 21.0525 56.9889 30.3543 56.9889C39.656 56.9889 47.1966 49.4483 47.1966 40.1466C47.1966 30.8448 39.656 23.3043 30.3543 23.3043Z" fill="#66E4FE"/>
<path d="M31.516 25.627C27.4506 25.8205 18.7391 28.7631 16.416 38.9846" stroke="#66E4FE" stroke-width="2.32308" stroke-linecap="round"/>
</svg>
