<svg width="25" height="25" viewBox="0 0 25 25" fill="none" xmlns="http://www.w3.org/2000/svg">
<path d="M20.2908 15.4525C20.8661 14.8787 21.2263 14.5413 22.012 14.5413C22.7052 14.5413 23.3348 14.8183 23.858 15.1798C22.647 20.3313 18.0217 24.1663 12.5006 24.1663C7.21294 24.1663 2.74685 20.6486 1.31494 15.8257C2.27768 16.3539 3.5183 16.8747 4.72107 16.8747C5.67036 16.8747 6.6283 16.5519 7.43398 16.1773C8.0549 15.8886 8.62701 15.5493 9.09311 15.2439C9.89508 16.2384 11.1236 16.8747 12.5006 16.8747C13.3777 16.8747 14.1944 16.6166 14.8791 16.1723C15.5486 16.5649 16.3786 16.8747 17.3336 16.8747C18.8657 16.8747 19.6741 16.068 20.2661 15.4771L20.2908 15.4525Z" fill="#66E4FE"/>
<path d="M9.87565 12.4997C9.87565 11.0499 11.0509 9.87467 12.5006 9.87467C13.9504 9.87467 15.1256 11.0499 15.1256 12.4997C15.1256 13.9494 13.9504 15.1247 12.5006 15.1247C11.0509 15.1247 9.87565 13.9494 9.87565 12.4997Z" fill="#66E4FE"/>
<path fill-rule="evenodd" clip-rule="evenodd" d="M12.5006 8.12467C10.0844 8.12467 8.12565 10.0834 8.12565 12.4997C8.12565 12.9082 8.18165 13.3037 8.2864 13.6788C7.84459 13.9766 7.28925 14.3147 6.69616 14.5904C5.99155 14.918 5.30305 15.1247 4.72107 15.1247C3.83461 15.1247 2.7447 14.6502 1.78956 14.0813C1.43966 13.8728 1.12739 13.6637 0.874982 13.4847C0.847833 13.16 0.833984 12.8314 0.833984 12.4997C0.833984 8.99744 2.37718 5.85563 4.82068 3.71714C4.8397 3.74057 4.86012 3.76325 4.88193 3.78506L6.0486 4.95173C6.39031 5.29343 6.94433 5.29343 7.28603 4.95173C7.62774 4.61002 7.62774 4.056 7.28603 3.71429L6.23091 2.65917C8.04171 1.50304 10.1929 0.833008 12.5006 0.833008C16.0029 0.833008 19.1447 2.3762 21.2832 4.8197C21.2597 4.83873 21.2371 4.85914 21.2153 4.88096L20.0486 6.04762C19.7069 6.38933 19.7069 6.94335 20.0486 7.28506C20.3903 7.62677 20.9443 7.62677 21.286 7.28506L22.3412 6.22994C23.4973 8.04074 24.1673 10.192 24.1673 12.4997C24.1673 12.7739 24.1579 13.046 24.1392 13.3155C23.5289 13.0088 22.8139 12.7913 22.012 12.7913C20.4799 12.7913 19.6716 13.5981 19.0795 14.1889L19.0549 14.2135C18.4796 14.7874 18.1194 15.1247 17.3336 15.1247C16.9249 15.1247 16.5369 15.029 16.1766 14.873C16.6189 14.1893 16.8756 13.3745 16.8756 12.4997C16.8756 10.0834 14.9169 8.12467 12.5006 8.12467ZM17.6923 3.63301C18.0789 3.92296 18.1573 4.47141 17.8673 4.85801L16.1173 7.19134C15.8274 7.57794 15.2789 7.65629 14.8923 7.36634C14.5057 7.07639 14.4274 6.52794 14.7173 6.14134L16.4673 3.80801C16.7573 3.42141 17.3057 3.34306 17.6923 3.63301ZM10.7153 2.54762C10.3736 2.88933 10.3736 3.44335 10.7153 3.78506L11.8819 4.95173C12.2236 5.29343 12.7777 5.29343 13.1194 4.95173C13.4611 4.61002 13.4611 4.056 13.1194 3.71429L11.9527 2.54762C11.611 2.20591 11.057 2.20591 10.7153 2.54762ZM8.31177 7.31984C8.43684 7.78662 8.91664 8.06363 9.38342 7.93855L10.9771 7.51153C11.4439 7.38645 11.7209 6.90666 11.5958 6.43987C11.4708 5.97309 10.991 5.69608 10.5242 5.82116L8.93049 6.24819C8.4637 6.37326 8.18669 6.85305 8.31177 7.31984ZM18.044 11.4944C18.5267 11.4717 18.8997 11.062 18.877 10.5793L18.7995 8.93118C18.7768 8.44847 18.3671 8.07554 17.8844 8.09823C17.4017 8.12091 17.0288 8.53062 17.0514 9.01334L17.1289 10.6614C17.1516 11.1442 17.5613 11.5171 18.044 11.4944ZM20.5988 11.9792C20.9182 12.3419 21.4711 12.377 21.8338 12.0576L23.203 10.9222C23.5656 10.6028 23.6007 10.0499 23.2813 9.68723C22.9619 9.32458 22.409 9.2895 22.0464 9.60888L20.6772 10.7443C20.3145 11.0637 20.2794 11.6166 20.5988 11.9792ZM5.38032 6.86892C4.94039 7.0689 4.74587 7.58764 4.94584 8.02758L5.6286 9.52959C5.82858 9.96952 6.34733 10.164 6.78726 9.96407C7.22719 9.76409 7.42171 9.24534 7.22174 8.80541L6.53897 7.3034C6.339 6.86347 5.82025 6.66894 5.38032 6.86892ZM6.60091 11.2104C6.99088 11.4958 7.07564 12.0433 6.79023 12.4333L5.81579 13.7647C5.53039 14.1547 4.98289 14.2395 4.59292 13.954C4.20296 13.6686 4.1182 13.1211 4.4036 12.7312L5.37804 11.3998C5.66345 11.0098 6.21095 10.925 6.60091 11.2104ZM2.65671 8.05332C2.17421 8.0802 1.80486 8.49313 1.83174 8.97563L1.92351 10.623C1.95039 11.1055 2.36332 11.4748 2.84583 11.448C3.32833 11.4211 3.69768 11.0082 3.6708 10.5257L3.57903 8.87829C3.55215 8.39579 3.13921 8.02644 2.65671 8.05332Z" fill="#66E4FE"/>
</svg>
