<svg width="14" height="17" viewBox="0 0 14 17" fill="none" xmlns="http://www.w3.org/2000/svg">
<path fill-rule="evenodd" clip-rule="evenodd" d="M0 16.3793C0 16.0479 0.268629 15.7793 0.6 15.7793H13.4C13.7314 15.7793 14 16.0479 14 16.3793C14 16.7107 13.7314 16.9793 13.4 16.9793H0.6C0.268629 16.9793 0 16.7107 0 16.3793Z" fill="#66E4FE"/>
<path d="M6.61564 10.7221L6.61567 10.7221L11.349 5.98871C10.7048 5.72058 9.9418 5.28016 9.22019 4.55854C8.49846 3.83681 8.05801 3.07368 7.7899 2.4294L3.05646 7.16284L3.05644 7.16286C2.68707 7.53223 2.50238 7.71692 2.34354 7.92056C2.15618 8.16078 1.99554 8.4207 1.86447 8.69572C1.75336 8.92886 1.67076 9.17665 1.50557 9.67223L0.634456 12.2856C0.553163 12.5294 0.616636 12.7983 0.798413 12.9801C0.98019 13.1619 1.24907 13.2254 1.49295 13.1441L4.10628 12.2729C4.60186 12.1078 4.84966 12.0252 5.08279 11.914C5.35781 11.783 5.61773 11.6223 5.85795 11.435C6.06159 11.2761 6.24629 11.0914 6.61564 10.7221Z" fill="#66E4FE"/>
<path d="M12.6625 4.67526C13.6453 3.69241 13.6453 2.0989 12.6625 1.11604C11.6796 0.133194 10.0861 0.133194 9.10325 1.11604L8.53555 1.68375C8.54332 1.70722 8.55139 1.73102 8.55975 1.75513C8.76783 2.3549 9.16044 3.14115 9.89901 3.87972C10.6376 4.61829 11.4238 5.0109 12.0236 5.21898C12.0476 5.22731 12.0713 5.23533 12.0947 5.24307L12.6625 4.67526Z" fill="#66E4FE"/>
</svg>
