<svg width="35" height="35" viewBox="0 0 35 35" fill="none" xmlns="http://www.w3.org/2000/svg">
<rect width="35" height="35" rx="11.4" fill="white" fill-opacity="0.1"/>
<rect x="0.194444" y="0.194444" width="34.6111" height="34.6111" rx="11.2056" stroke="white" stroke-opacity="0.1" stroke-width="0.388889"/>
<path fill-rule="evenodd" clip-rule="evenodd" d="M19.4416 12.6569C19.4416 11.1841 20.641 9.99023 22.1204 9.99023C23.5999 9.99023 24.7992 11.1841 24.7992 12.6569C24.7992 14.1297 23.5999 15.3236 22.1204 15.3236C21.3734 15.3236 20.6982 15.019 20.2129 14.529L16.5046 17.0539C16.5388 17.2242 16.5568 17.4002 16.5568 17.58C16.5568 17.936 16.4864 18.2763 16.3589 18.5873L20.4251 21.2589C20.8865 20.8831 21.4771 20.6569 22.1204 20.6569C23.5999 20.6569 24.7992 21.8508 24.7992 23.3236C24.7992 24.7963 23.5999 25.9902 22.1204 25.9902C20.641 25.9902 19.4416 24.7963 19.4416 23.3236C19.4416 22.9378 19.5242 22.5706 19.6726 22.2391L15.6393 19.5892C15.1688 19.9981 14.5525 20.2466 13.878 20.2466C12.3986 20.2466 11.1992 19.0527 11.1992 17.58C11.1992 16.1072 12.3986 14.9133 13.878 14.9133C14.7287 14.9133 15.486 15.308 15.9764 15.9224L19.5704 13.4754C19.4868 13.2171 19.4416 12.9419 19.4416 12.6569Z" fill="#66E4FE"/>
</svg>
