<svg width="20" height="17" viewBox="0 0 20 17" fill="none" xmlns="http://www.w3.org/2000/svg">
<path fill-rule="evenodd" clip-rule="evenodd" d="M7.11365 14.7754C4.31846 12.6331 0.5 9.09425 0.5 5.74828C0.5 0.158569 5.72515 -1.92836 10 2.38964C14.2748 -1.92836 19.5 0.158569 19.5 5.74825C19.5 9.0943 15.6816 12.6331 12.8864 14.7754C11.621 15.7452 10.9883 16.2301 10 16.2301C9.01173 16.2301 8.37904 15.7452 7.11365 14.7754ZM14.275 3.16758C14.6685 3.16758 14.9875 3.48658 14.9875 3.88008V5.06759H16.175C16.5685 5.06759 16.8875 5.38659 16.8875 5.78009C16.8875 6.1736 16.5685 6.49259 16.175 6.49259H14.9875V7.68008C14.9875 8.07358 14.6685 8.39258 14.275 8.39258C13.8815 8.39258 13.5625 8.07358 13.5625 7.68008V6.49259L12.375 6.49259C11.9815 6.49259 11.6625 6.1736 11.6625 5.78009C11.6625 5.38659 11.9815 5.06759 12.375 5.06759H13.5625V3.88008C13.5625 3.48658 13.8815 3.16758 14.275 3.16758Z" fill="#FF5C5C"/>
</svg>
