<svg width="28" height="28" viewBox="0 0 28 28" fill="none" xmlns="http://www.w3.org/2000/svg">
<rect width="27.5" height="27.5" rx="13.75" fill="#66E4FE"/>
<path fill-rule="evenodd" clip-rule="evenodd" d="M7.58203 20.8003C7.58203 20.5083 7.8188 20.2715 8.11088 20.2715H19.3929C19.685 20.2715 19.9218 20.5083 19.9218 20.8003C19.9218 21.0924 19.685 21.3292 19.3929 21.3292H8.11088C7.8188 21.3292 7.58203 21.0924 7.58203 20.8003Z" fill="black"/>
<path d="M12.7441 16.4461C12.9236 16.3061 13.0864 16.1433 13.412 15.8177L17.584 11.6457C17.0162 11.4094 16.3437 11.0212 15.7076 10.3851C15.0715 9.74901 14.6833 9.07637 14.447 8.5085L10.2749 12.6806L10.2749 12.6806C9.94929 13.0062 9.78649 13.169 9.6465 13.3485C9.48135 13.5602 9.33976 13.7893 9.22423 14.0317C9.1263 14.2372 9.0535 14.4556 8.9079 14.8924L8.14009 17.1958C8.06844 17.4108 8.12438 17.6478 8.2846 17.808C8.44482 17.9682 8.68181 18.0242 8.89677 17.9525L11.2002 17.1847C11.637 17.0391 11.8554 16.9663 12.0609 16.8684C12.3033 16.7528 12.5324 16.6112 12.7441 16.4461Z" fill="black"/>
<path d="M18.7417 10.488C19.608 9.62173 19.608 8.21719 18.7417 7.35089C17.8754 6.4846 16.4709 6.4846 15.6046 7.35089L15.1042 7.85127C15.111 7.87196 15.1182 7.89294 15.1255 7.91419C15.3089 8.44284 15.655 9.13584 16.306 9.78682C16.9569 10.4378 17.65 10.7839 18.1786 10.9673C18.1997 10.9746 18.2206 10.9817 18.2412 10.9885L18.7417 10.488Z" fill="black"/>
</svg>
