<svg width="89" height="90" viewBox="0 0 89 90" fill="none" xmlns="http://www.w3.org/2000/svg">
<g clip-path="url(#clip0_635_1584)">
<rect y="0.5" width="89" height="89" rx="43.5896" fill="white" fill-opacity="0.2"/>
<g filter="url(#filter0_d_635_1584)">
<rect x="11.125" y="11.625" width="66.673" height="66.673" rx="33.3365" fill="white"/>
<rect width="12.1262" height="2.225" transform="translate(30.5391 40.5)" fill="black"/>
<rect width="12.1262" height="2.225" transform="translate(45.334 40.5)" fill="black"/>
<path d="M35.0458 48.783C35.5056 48.783 35.9158 48.8785 36.2766 49.0695C36.6444 49.2605 36.9309 49.5434 37.136 49.9183C37.3482 50.2932 37.4543 50.7459 37.4543 51.2764V54.7246H36.2554V51.4567C36.2554 50.9333 36.1245 50.5337 35.8628 50.2578C35.6011 49.9749 35.2439 49.8334 34.7912 49.8334C34.3385 49.8334 33.9777 49.9749 33.709 50.2578C33.4472 50.5337 33.3164 50.9333 33.3164 51.4567V54.7246H32.1175V51.4567C32.1175 50.9333 31.9866 50.5337 31.7249 50.2578C31.4632 49.9749 31.106 49.8334 30.6533 49.8334C30.2006 49.8334 29.8398 49.9749 29.5711 50.2578C29.3093 50.5337 29.1785 50.9333 29.1785 51.4567V54.7246H27.969V48.8785H29.1785V49.5469C29.3765 49.3064 29.6276 49.119 29.9318 48.9846C30.236 48.8502 30.5613 48.783 30.9079 48.783C31.3748 48.783 31.7921 48.882 32.1599 49.0801C32.5277 49.2781 32.8106 49.5646 33.0087 49.9395C33.1855 49.5858 33.4614 49.3064 33.8363 49.1013C34.2112 48.8891 34.6143 48.783 35.0458 48.783ZM41.3488 48.783C41.8015 48.783 42.2012 48.875 42.5478 49.0589C42.9014 49.2357 43.1773 49.4585 43.3753 49.7273V48.8785H44.5955V54.8201C44.5955 55.3577 44.4823 55.8351 44.256 56.2524C44.0296 56.6768 43.7007 57.0093 43.2692 57.2498C42.8448 57.4903 42.3356 57.6105 41.7414 57.6105C40.9492 57.6105 40.2914 57.4231 39.7679 57.0482C39.2445 56.6804 38.9474 56.1782 38.8767 55.5416H40.0756C40.1676 55.8457 40.3621 56.0898 40.6592 56.2737C40.9633 56.4646 41.3241 56.5601 41.7414 56.5601C42.2295 56.5601 42.622 56.4116 42.9191 56.1145C43.2233 55.8174 43.3753 55.386 43.3753 54.8201V53.844C43.1702 54.1198 42.8908 54.3533 42.5371 54.5442C42.1906 54.7281 41.7944 54.8201 41.3488 54.8201C40.8395 54.8201 40.3727 54.6928 39.9483 54.4381C39.531 54.1764 39.1985 53.8157 38.951 53.3559C38.7105 52.8891 38.5902 52.3621 38.5902 51.775C38.5902 51.1879 38.7105 50.6681 38.951 50.2154C39.1985 49.7627 39.531 49.4125 39.9483 49.165C40.3727 48.9103 40.8395 48.783 41.3488 48.783ZM43.3753 51.7962C43.3753 51.3931 43.2905 51.0429 43.1207 50.7459C42.958 50.4488 42.7423 50.2224 42.4735 50.0668C42.2047 49.9112 41.9147 49.8334 41.6035 49.8334C41.2922 49.8334 41.0022 49.9112 40.7334 50.0668C40.4647 50.2154 40.2454 50.4382 40.0756 50.7352C39.9129 51.0253 39.8316 51.3718 39.8316 51.775C39.8316 52.1782 39.9129 52.5319 40.0756 52.836C40.2454 53.1402 40.4647 53.3736 40.7334 53.5363C41.0093 53.6919 41.2993 53.7697 41.6035 53.7697C41.9147 53.7697 42.2047 53.6919 42.4735 53.5363C42.7423 53.3807 42.958 53.1543 43.1207 52.8572C43.2905 52.5531 43.3753 52.1994 43.3753 51.7962ZM50.1099 44.7088L47.2239 56.5814H46.0356L48.9109 44.7088H50.1099ZM51.231 51.775C51.231 51.1879 51.3513 50.6681 51.5918 50.2154C51.8394 49.7627 52.1718 49.4125 52.5891 49.165C53.0135 48.9103 53.4839 48.783 54.0003 48.783C54.3822 48.783 54.7571 48.8679 55.1249 49.0376C55.4998 49.2003 55.7969 49.4196 56.0162 49.6955V46.8732H57.2363V54.7246H56.0162V53.844C55.8181 54.1269 55.5422 54.3603 55.1886 54.5442C54.842 54.7281 54.4423 54.8201 53.9896 54.8201C53.4804 54.8201 53.0135 54.6928 52.5891 54.4381C52.1718 54.1764 51.8394 53.8157 51.5918 53.3559C51.3513 52.8891 51.231 52.3621 51.231 51.775ZM56.0162 51.7962C56.0162 51.3931 55.9313 51.0429 55.7615 50.7459C55.5988 50.4488 55.3831 50.2224 55.1143 50.0668C54.8455 49.9112 54.5555 49.8334 54.2443 49.8334C53.9331 49.8334 53.6431 49.9112 53.3743 50.0668C53.1055 50.2154 52.8862 50.4382 52.7164 50.7352C52.5538 51.0253 52.4724 51.3718 52.4724 51.775C52.4724 52.1782 52.5538 52.5319 52.7164 52.836C52.8862 53.1402 53.1055 53.3736 53.3743 53.5363C53.6501 53.6919 53.9401 53.7697 54.2443 53.7697C54.5555 53.7697 54.8455 53.6919 55.1143 53.5363C55.3831 53.3807 55.5988 53.1543 55.7615 52.8572C55.9313 52.5531 56.0162 52.1994 56.0162 51.7962ZM60.0345 46.8732V54.7246H58.825V46.8732H60.0345Z" fill="black"/>
</g>
</g>
<defs>
<filter id="filter0_d_635_1584" x="-6.46379" y="-5.19906" width="101.851" height="101.85" filterUnits="userSpaceOnUse" color-interpolation-filters="sRGB">
<feFlood flood-opacity="0" result="BackgroundImageFix"/>
<feColorMatrix in="SourceAlpha" type="matrix" values="0 0 0 0 0 0 0 0 0 0 0 0 0 0 0 0 0 0 127 0" result="hardAlpha"/>
<feOffset dy="0.76473"/>
<feGaussianBlur stdDeviation="8.79439"/>
<feComposite in2="hardAlpha" operator="out"/>
<feColorMatrix type="matrix" values="0 0 0 0 0 0 0 0 0 0 0 0 0 0 0 0 0 0 0.22 0"/>
<feBlend mode="normal" in2="BackgroundImageFix" result="effect1_dropShadow_635_1584"/>
<feBlend mode="normal" in="SourceGraphic" in2="effect1_dropShadow_635_1584" result="shape"/>
</filter>
<clipPath id="clip0_635_1584">
<rect y="0.5" width="89" height="89" rx="43.5896" fill="white"/>
</clipPath>
</defs>
</svg>
