<svg width="25" height="25" viewBox="0 0 25 25" fill="none" xmlns="http://www.w3.org/2000/svg">
<path fill-rule="evenodd" clip-rule="evenodd" d="M1.22524 7.68711C0.594708 9.00234 0.81605 10.5406 1.25874 13.6172L1.58396 15.8774C2.15261 19.8294 2.43694 21.8054 3.80785 22.9859C5.17876 24.1663 7.18925 24.1663 11.2102 24.1663H13.7911C17.812 24.1663 19.8225 24.1663 21.1934 22.9859C22.5644 21.8054 22.8487 19.8294 23.4173 15.8774L23.7426 13.6172C24.1852 10.5406 24.4066 9.00234 23.7761 7.68711C23.1455 6.37187 21.8034 5.5724 19.1192 3.97345L17.5036 3.01102C15.0661 1.55901 13.8473 0.833008 12.5006 0.833008C11.154 0.833008 9.9352 1.55901 7.49769 3.01102L5.88205 3.97345C3.19787 5.5724 1.85578 6.37187 1.22524 7.68711ZM8.12576 19.4994C8.12576 19.0162 8.51752 18.6244 9.00076 18.6244H16.0008C16.484 18.6244 16.8758 19.0162 16.8758 19.4994C16.8758 19.9827 16.484 20.3744 16.0008 20.3744H9.00076C8.51752 20.3744 8.12576 19.9827 8.12576 19.4994Z" fill="#66E4FE"/>
</svg>
