<svg width="43" height="46" viewBox="0 0 43 46" fill="none" xmlns="http://www.w3.org/2000/svg">
<path fill-rule="evenodd" clip-rule="evenodd" d="M18.5417 37.7695C26.7339 37.7695 33.375 31.0095 33.375 22.6705C33.375 14.3969 28.6407 4.74235 21.2542 1.28983C19.5323 0.484988 17.5511 0.484988 15.8292 1.28983C8.44263 4.74235 3.70834 14.3969 3.70834 22.6705C3.70834 31.0095 10.3494 37.7695 18.5417 37.7695ZM18.5417 28.9622C17.7736 28.9622 17.151 28.3396 17.151 27.5716L17.151 24.3268L13.9063 24.3268C13.1382 24.3268 12.5156 23.7042 12.5156 22.9362C12.5156 22.1682 13.1382 21.5456 13.9063 21.5456L17.151 21.5456L17.151 18.3008C17.151 17.5328 17.7736 16.9102 18.5417 16.9102C19.3097 16.9102 19.9323 17.5328 19.9323 18.3008L19.9323 21.5456L23.1771 21.5456C23.9451 21.5456 24.5677 22.1682 24.5677 22.9362C24.5677 23.7042 23.9451 24.3268 23.1771 24.3268L19.9323 24.3268L19.9323 27.5716C19.9323 28.3396 19.3097 28.9622 18.5417 28.9622Z" fill="#FF3D00"/>
<rect width="7.41667" height="14.8333" transform="translate(25.957 26.6445)" fill="white"/>
<path fill-rule="evenodd" clip-rule="evenodd" d="M21.3983 32.5306C25.0057 26.1345 26.8095 22.9365 29.6658 22.9365C32.5221 22.9365 34.3258 26.1345 37.9333 32.5306L38.3828 33.3276C41.3805 38.6427 42.8794 41.3002 41.5247 43.2434C40.1701 45.1865 36.8185 45.1865 30.1153 45.1865H29.2163C22.5131 45.1865 19.1615 45.1865 17.8069 43.2434C16.4522 41.3002 17.9511 38.6427 20.9488 33.3276L21.3983 32.5306ZM29.6658 28.19C30.1778 28.19 30.5929 28.6051 30.5929 29.1171V35.2976C30.5929 35.8096 30.1778 36.2247 29.6658 36.2247C29.1538 36.2247 28.7387 35.8096 28.7387 35.2976V29.1171C28.7387 28.6051 29.1538 28.19 29.6658 28.19ZM29.6658 40.2421C30.3485 40.2421 30.9019 39.6887 30.9019 39.006C30.9019 38.3233 30.3485 37.7699 29.6658 37.7699C28.9831 37.7699 28.4297 38.3233 28.4297 39.006C28.4297 39.6887 28.9831 40.2421 29.6658 40.2421Z" fill="#66E4FE"/>
<circle cx="3.70833" cy="4.39486" r="3.70833" fill="white"/>
</svg>
