<svg width="17" height="17" viewBox="0 0 17 17" fill="none" xmlns="http://www.w3.org/2000/svg">
<path d="M16.666 8.82031C16.666 13.2386 13.0843 16.8203 8.66602 16.8203C4.24774 16.8203 0.666016 13.2386 0.666016 8.82031C0.666016 4.40204 4.24774 0.820312 8.66602 0.820312C13.0843 0.820312 16.666 4.40204 16.666 8.82031Z" fill="#66E4FE"/>
<path fill-rule="evenodd" clip-rule="evenodd" d="M8.66602 5.02031C8.99739 5.02031 9.26602 5.28894 9.26602 5.62031V8.57179L11.0903 10.3961C11.3246 10.6304 11.3246 11.0103 11.0903 11.2446C10.856 11.4789 10.4761 11.4789 10.2418 11.2446L8.24175 9.24458C8.12923 9.13206 8.06602 8.97944 8.06602 8.82031V5.62031C8.06602 5.28894 8.33465 5.02031 8.66602 5.02031Z" fill="#222F30"/>
</svg>
