<svg width="343" height="343" viewBox="0 0 343 343" fill="none" xmlns="http://www.w3.org/2000/svg">
<circle cx="171.5" cy="171.5" r="170.915" stroke="#66E4FE" stroke-width="1.17065" stroke-dasharray="8.19 8.19"/>
<rect x="44.9922" y="5.82229" width="51.8735" height="51.8735" rx="25.9367" fill="#314E54"/>
<rect x="44.9922" y="5.82229" width="51.8735" height="51.8735" rx="25.9367" stroke="#66E4FE" stroke-width="1.05864"/>
<path d="M76.754 27.6427L77.2159 23.8343L77.2159 23.8343C77.3235 22.947 77.3773 22.5034 77.2844 22.1347C77.1606 21.643 76.8595 21.2241 76.4473 20.9702C76.1382 20.7798 75.7241 20.7222 74.8957 20.6069C74.0674 20.4917 73.6532 20.434 73.309 20.5335C72.8499 20.6662 72.4589 20.9887 72.2219 21.4302C72.0441 21.7613 71.9326 22.681 71.825 23.5682L63.6029 22.4241C63.7105 21.5368 63.822 20.6172 63.7292 20.2484C63.6053 19.7567 63.3042 19.3379 62.892 19.084C62.5829 18.8936 62.1688 18.8359 61.3404 18.7207C60.5121 18.6054 60.098 18.5478 59.7537 18.6473C59.2946 18.7799 58.9036 19.1025 58.6666 19.5439C58.4888 19.875 58.435 20.3187 58.3274 21.2059L57.8655 25.0143C57.7579 25.9016 57.7041 26.3452 57.797 26.7139C57.9208 27.2056 58.2219 27.6245 58.6341 27.8784C58.9432 28.0688 59.3574 28.1264 60.1857 28.2417L60.1857 28.2417L60.1857 28.2417C61.014 28.3569 61.4282 28.4146 61.7725 28.3151C62.2315 28.1824 62.6225 27.8599 62.8596 27.4184C63.0373 27.0873 63.1489 26.1676 63.2565 25.2804L71.4785 26.4245C71.3709 27.3118 71.2594 28.2314 71.3523 28.6002C71.4761 29.0919 71.7772 29.5107 72.1894 29.7646C72.4985 29.955 72.9127 30.0127 73.741 30.1279L73.741 30.1279L73.741 30.1279C74.5693 30.2432 74.9835 30.3008 75.3277 30.2013C75.7868 30.0687 76.1778 29.7461 76.4148 29.3047C76.5926 28.9736 76.6464 28.53 76.754 27.6427L76.754 27.6427Z" fill="#66E4FE"/>
<path d="M65.2452 42.3855L64.3173 38.6759C64.1011 37.8117 63.993 37.3796 64.0395 37.0009C64.1016 36.496 64.3484 36.0382 64.7256 35.7281C65.0085 35.4956 65.4119 35.3798 66.2187 35.1483C67.0255 34.9167 67.4289 34.8009 67.7825 34.8508C68.2539 34.9172 68.6813 35.1816 68.9707 35.5856C69.1878 35.8886 69.4119 36.7844 69.6281 37.6486L77.6367 35.3501C77.4205 34.4859 77.1964 33.5901 77.243 33.2114C77.305 32.7065 77.5518 32.2486 77.929 31.9386C78.2119 31.7061 78.6153 31.5903 79.4221 31.3588C80.229 31.1272 80.6324 31.0114 80.9859 31.0613C81.4573 31.1277 81.8847 31.3921 82.1741 31.7961C82.3912 32.0991 82.4993 32.5312 82.7155 33.3954L83.6435 37.105C83.8596 37.9692 83.9677 38.4013 83.9212 38.78C83.8591 39.2849 83.6124 39.7427 83.2352 40.0528C82.9523 40.2853 82.5489 40.4011 81.7421 40.6326L81.742 40.6326L81.742 40.6326C80.9352 40.8642 80.5318 40.98 80.1783 40.9301C79.7069 40.8636 79.2795 40.5993 78.99 40.1953C78.773 39.8923 78.5489 38.9965 78.3327 38.1322L70.324 40.4308C70.5402 41.295 70.7643 42.1908 70.7178 42.5695C70.6557 43.0744 70.4089 43.5322 70.0317 43.8423C69.7488 44.0748 69.3454 44.1906 68.5386 44.4221L68.5386 44.4221L68.5386 44.4221C67.7318 44.6537 67.3284 44.7695 66.9748 44.7196C66.5035 44.6532 66.076 44.3888 65.7866 43.9848C65.5695 43.6818 65.4614 43.2497 65.2452 42.3855Z" fill="white"/>
<rect x="34.5968" y="268.556" width="70.5479" height="70.5479" rx="35.274" fill="#314E54"/>
<rect x="34.5968" y="268.556" width="70.5479" height="70.5479" rx="35.274" stroke="#66E4FE" stroke-width="1.43975"/>
<path fill-rule="evenodd" clip-rule="evenodd" d="M67.5191 318.184C75.3667 318.184 81.7285 311.708 81.7285 303.72C81.7285 295.794 77.1934 286.546 70.1175 283.238C68.468 282.467 66.5701 282.467 64.9206 283.238C57.8448 286.546 53.3096 295.794 53.3096 303.72C53.3096 311.708 59.6714 318.184 67.5191 318.184ZM67.5191 309.747C66.7834 309.747 66.1869 309.15 66.1869 308.415L66.1869 305.306L63.0786 305.306C62.3429 305.306 61.7465 304.71 61.7465 303.974C61.7465 303.238 62.3429 302.642 63.0786 302.642L66.1869 302.642L66.1869 299.534C66.1869 298.798 66.7834 298.202 67.5191 298.202C68.2548 298.202 68.8512 298.798 68.8512 299.534L68.8512 302.642L71.9595 302.642C72.6952 302.642 73.2917 303.238 73.2917 303.974C73.2917 304.71 72.6952 305.306 71.9595 305.306L68.8512 305.306L68.8512 308.415C68.8512 309.15 68.2548 309.747 67.5191 309.747Z" fill="#FF3D00"/>
<rect width="7.10472" height="14.2094" transform="translate(74.625 307.523)" fill="white"/>
<path fill-rule="evenodd" clip-rule="evenodd" d="M70.2574 313.165C73.7131 307.038 75.4409 303.975 78.1771 303.975C80.9133 303.975 82.6412 307.038 86.0969 313.165L86.5275 313.929C89.3991 319.02 90.835 321.566 89.5373 323.427C88.2396 325.289 85.029 325.289 78.6078 325.289H77.7465C71.3253 325.289 68.1147 325.289 66.817 323.427C65.5193 321.566 66.9551 319.02 69.8268 313.929L70.2574 313.165ZM78.1771 309.007C78.6676 309.007 79.0652 309.405 79.0652 309.895V315.816C79.0652 316.306 78.6676 316.704 78.1771 316.704C77.6867 316.704 77.289 316.306 77.289 315.816V309.895C77.289 309.405 77.6867 309.007 78.1771 309.007ZM78.1771 320.552C78.8311 320.552 79.3613 320.022 79.3613 319.368C79.3613 318.714 78.8311 318.184 78.1771 318.184C77.5232 318.184 76.993 318.714 76.993 319.368C76.993 320.022 77.5232 320.552 78.1771 320.552Z" fill="#66E4FE"/>
<circle cx="53.3102" cy="286.213" r="3.55236" fill="white"/>
<rect x="287.348" y="45.9767" width="44.6112" height="44.6112" rx="22.3056" fill="#314E54"/>
<rect x="287.348" y="45.9767" width="44.6112" height="44.6112" rx="22.3056" stroke="#66E4FE" stroke-width="0.910432"/>
<path d="M310.656 79.7457C314.303 79.0147 319.018 76.3914 319.018 69.6076C319.018 63.4343 314.499 59.3235 311.25 57.4347C310.529 57.0155 309.685 57.5667 309.685 58.4007V60.5339C309.685 62.216 308.978 65.2864 307.013 66.5634C306.009 67.2155 304.926 66.2396 304.804 65.0493L304.704 64.0718C304.587 62.9355 303.43 62.2457 302.522 62.9385C300.891 64.1831 299.186 66.3625 299.186 69.6076C299.186 77.9036 305.356 79.9776 308.441 79.9776C308.62 79.9776 308.809 79.9722 309.005 79.9609C307.482 79.8307 305.019 78.8856 305.019 75.8293C305.019 73.4385 306.763 71.8211 308.088 71.0349C308.444 70.8234 308.862 71.098 308.862 71.5124V72.1998C308.862 72.7258 309.065 73.5481 309.549 74.111C310.097 74.748 310.902 74.0807 310.967 73.243C310.987 72.9787 311.253 72.8103 311.482 72.944C312.23 73.3813 313.185 74.3153 313.185 75.8293C313.185 78.2185 311.868 79.3176 310.656 79.7457Z" fill="#66E4FE"/>
</svg>
