<svg width="25" height="25" viewBox="0 0 25 25" fill="none" xmlns="http://www.w3.org/2000/svg">
<path fill-rule="evenodd" clip-rule="evenodd" d="M24.1673 12.4997C24.1673 18.943 18.944 24.1663 12.5006 24.1663C6.05733 24.1663 0.833984 18.943 0.833984 12.4997C0.833984 6.05635 6.05733 0.833008 12.5006 0.833008C18.944 0.833008 24.1673 6.05635 24.1673 12.4997ZM16.0006 8.99967C16.0006 10.9327 14.4336 12.4997 12.5006 12.4997C10.5677 12.4997 9.00065 10.9327 9.00065 8.99967C9.00065 7.06668 10.5677 5.49967 12.5006 5.49967C14.4336 5.49967 16.0006 7.06668 16.0006 8.99967ZM12.5006 22.4163C14.582 22.4163 16.5136 21.7751 18.1087 20.6794C18.8132 20.1955 19.1143 19.2736 18.7047 18.5234C17.8556 16.9683 16.1059 15.9997 12.5006 15.9997C8.89529 15.9997 7.14561 16.9683 6.29648 18.5234C5.88687 19.2735 6.18794 20.1954 6.89243 20.6793C8.48753 21.7751 10.4192 22.4163 12.5006 22.4163Z" fill="#66E4FE"/>
</svg>
