<svg width="241" height="277" viewBox="0 0 241 277" fill="none" xmlns="http://www.w3.org/2000/svg">
<rect width="118.652" height="109.213" transform="translate(121.984 154.416)" fill="white"/>
<path d="M122.659 155.09L68.0527 134.191L168.502 133.517L240.637 155.09H122.659Z" fill="#EBE9EC"/>
<path d="M122.659 155.09L68.0527 133.517V194.191L122.659 262.281V155.09Z" fill="#E6E4E4"/>
<path d="M115.915 175.313L74.1177 157.785L37.0391 261.605L80.1851 276.437L115.915 175.313Z" fill="#FEFEFE"/>
<path d="M74.1181 157.787L32.3203 120.034L61.9832 127.45L117.264 175.315L74.1181 157.787Z" fill="#EAEAEA"/>
<path d="M0.636719 204.977L32.3221 120.033L74.1199 157.786L37.0412 261.606L0.636719 204.977Z" fill="#E6E4E4"/>
<path d="M43.1092 161.156L26.9295 147.673L7.37891 199.583L22.2104 218.459L43.1092 161.156Z" fill="#D2D0D3"/>
<path d="M30.9746 139.583L32.9971 133.516L49.1769 147.673L47.1544 154.415L30.9746 139.583Z" fill="#D0D0D0"/>
<path d="M32.998 203.824L34.646 197.561L47.8295 212.175L46.1816 219.134L32.998 203.824Z" fill="#D0D0D0"/>
<path d="M28.9531 213.263L30.6011 207L43.7846 221.614L42.1366 228.573L28.9531 213.263Z" fill="#D0D0D0"/>
<path d="M57.9379 186.774L43.7806 173.965L37.0391 191.493L50.5222 204.976L57.9379 186.774Z" fill="black"/>
<rect x="1.31088" y="1.38217" width="213.034" height="98.427" rx="3.37079" stroke="#66E4FE" stroke-width="1.34831" stroke-dasharray="8.09 8.09"/>
<rect x="20.1885" y="20.2578" width="20.2247" height="20.2247" rx="4.7191" stroke="white" stroke-width="4.04494"/>
<rect x="61.9834" y="20.2568" width="20.2247" height="20.2247" rx="4.7191" stroke="white" stroke-width="4.04494"/>
<rect x="61.9834" y="60.707" width="20.2247" height="20.2247" rx="4.7191" stroke="white" stroke-width="4.04494"/>
<rect x="20.1885" y="60.707" width="20.2247" height="20.2247" rx="4.7191" stroke="white" stroke-width="4.04494"/>
<rect x="76.1426" y="46.5498" width="8.08989" height="8.08989" rx="4.04494" fill="white"/>
<path d="M53.222 18.2344C53.222 16.7451 52.0147 15.5377 50.5254 15.5377C49.0361 15.5377 47.8288 16.7451 47.8288 18.2344L53.222 18.2344ZM47.8288 18.2344L47.8288 46.549L53.222 46.549L53.222 18.2344L47.8288 18.2344Z" fill="white"/>
<path d="M18.166 47.8984H68.0537" stroke="white" stroke-width="5.39326" stroke-linecap="round"/>
<path d="M49.1758 58.6846L49.1758 80.2576" stroke="white" stroke-width="5.39326" stroke-linecap="round"/>
<rect width="22.9213" height="9.4382" transform="translate(90.9746 19.583)" fill="white" fill-opacity="0.4"/>
<path d="M120.248 29.1769L119.289 28.2175L123.127 24.38L119.289 20.5424L120.248 19.583L124.086 23.4206L127.924 19.583L128.883 20.5424L125.045 24.38L128.883 28.2175L127.924 29.1769L124.086 25.3394L120.248 29.1769Z" fill="white" fill-opacity="0.4"/>
<path d="M135.235 29.1769L134.275 28.2175L138.113 24.38L134.275 20.5424L135.235 19.583L139.072 23.4206L142.91 19.583L143.869 20.5424L140.032 24.38L143.869 28.2175L142.91 29.1769L139.072 25.3394L135.235 29.1769Z" fill="white" fill-opacity="0.4"/>
<path d="M150.223 29.1769L149.264 28.2175L153.101 24.38L149.264 20.5424L150.223 19.583L154.061 23.4206L157.898 19.583L158.858 20.5424L155.02 24.38L158.858 28.2175L157.898 29.1769L154.061 25.3394L150.223 29.1769Z" fill="white" fill-opacity="0.4"/>
<path d="M165.209 29.1769L164.25 28.2175L168.088 24.38L164.25 20.5424L165.209 19.583L169.047 23.4206L172.885 19.583L173.844 20.5424L170.006 24.38L173.844 28.2175L172.885 29.1769L169.047 25.3394L165.209 29.1769Z" fill="white" fill-opacity="0.4"/>
<path d="M180.198 29.1769L179.238 28.2175L183.076 24.38L179.238 20.5424L180.198 19.583L184.035 23.4206L187.873 19.583L188.832 20.5424L184.995 24.38L188.832 28.2175L187.873 29.1769L184.035 25.3394L180.198 29.1769Z" fill="white" fill-opacity="0.4"/>
<path d="M195.184 29.1769L194.225 28.2175L198.062 24.38L194.225 20.5424L195.184 19.583L199.022 23.4206L202.859 19.583L203.819 20.5424L199.981 24.38L203.819 28.2175L202.859 29.1769L199.022 25.3394L195.184 29.1769Z" fill="white" fill-opacity="0.4"/>
<rect width="22.9213" height="9.4382" transform="translate(90.9746 35.9189)" fill="white" fill-opacity="0.4"/>
<path d="M120.248 45.5129L119.289 44.5535L123.127 40.7159L119.289 36.8783L120.248 35.9189L124.086 39.7565L127.924 35.9189L128.883 36.8783L125.045 40.7159L128.883 44.5535L127.924 45.5129L124.086 41.6753L120.248 45.5129Z" fill="white" fill-opacity="0.4"/>
<path d="M135.235 45.5129L134.275 44.5535L138.113 40.7159L134.275 36.8783L135.235 35.9189L139.072 39.7565L142.91 35.9189L143.869 36.8783L140.032 40.7159L143.869 44.5535L142.91 45.5129L139.072 41.6753L135.235 45.5129Z" fill="white" fill-opacity="0.4"/>
<path d="M150.223 45.5129L149.264 44.5535L153.101 40.7159L149.264 36.8783L150.223 35.9189L154.061 39.7565L157.898 35.9189L158.858 36.8783L155.02 40.7159L158.858 44.5535L157.898 45.5129L154.061 41.6753L150.223 45.5129Z" fill="white" fill-opacity="0.4"/>
<path d="M165.209 45.5129L164.25 44.5535L168.088 40.7159L164.25 36.8783L165.209 35.9189L169.047 39.7565L172.885 35.9189L173.844 36.8783L170.006 40.7159L173.844 44.5535L172.885 45.5129L169.047 41.6753L165.209 45.5129Z" fill="white" fill-opacity="0.4"/>
<path d="M180.198 45.5129L179.238 44.5535L183.076 40.7159L179.238 36.8783L180.198 35.9189L184.035 39.7565L187.873 35.9189L188.832 36.8783L184.995 40.7159L188.832 44.5535L187.873 45.5129L184.035 41.6753L180.198 45.5129Z" fill="white" fill-opacity="0.4"/>
<path d="M195.184 45.5129L194.225 44.5535L198.062 40.7159L194.225 36.8783L195.184 35.9189L199.022 39.7565L202.859 35.9189L203.819 36.8783L199.981 40.7159L203.819 44.5535L202.859 45.5129L199.022 41.6753L195.184 45.5129Z" fill="white" fill-opacity="0.4"/>
<rect width="22.9213" height="9.4382" transform="translate(90.9746 52.4092)" fill="white" fill-opacity="0.4"/>
<path d="M120.248 61.8478L119.289 60.8884L123.127 57.0509L119.289 53.2133L120.248 52.2539L124.086 56.0915L127.924 52.2539L128.883 53.2133L125.045 57.0509L128.883 60.8884L127.924 61.8478L124.086 58.0103L120.248 61.8478Z" fill="white" fill-opacity="0.4"/>
<path d="M135.235 61.8478L134.275 60.8884L138.113 57.0509L134.275 53.2133L135.235 52.2539L139.072 56.0915L142.91 52.2539L143.869 53.2133L140.032 57.0509L143.869 60.8884L142.91 61.8478L139.072 58.0103L135.235 61.8478Z" fill="white" fill-opacity="0.4"/>
<path d="M150.223 61.8478L149.264 60.8884L153.101 57.0509L149.264 53.2133L150.223 52.2539L154.061 56.0915L157.898 52.2539L158.858 53.2133L155.02 57.0509L158.858 60.8884L157.898 61.8478L154.061 58.0103L150.223 61.8478Z" fill="white" fill-opacity="0.4"/>
<path d="M165.209 61.8478L164.25 60.8884L168.088 57.0509L164.25 53.2133L165.209 52.2539L169.047 56.0915L172.885 52.2539L173.844 53.2133L170.006 57.0509L173.844 60.8884L172.885 61.8478L169.047 58.0103L165.209 61.8478Z" fill="white" fill-opacity="0.4"/>
<path d="M180.198 61.8478L179.238 60.8884L183.076 57.0509L179.238 53.2133L180.198 52.2539L184.035 56.0915L187.873 52.2539L188.832 53.2133L184.995 57.0509L188.832 60.8884L187.873 61.8478L184.035 58.0103L180.198 61.8478Z" fill="white" fill-opacity="0.4"/>
<path d="M195.184 61.8478L194.225 60.8884L198.062 57.0509L194.225 53.2133L195.184 52.2539L199.022 56.0915L202.859 52.2539L203.819 53.2133L199.981 57.0509L203.819 60.8884L202.859 61.8478L199.022 58.0103L195.184 61.8478Z" fill="white" fill-opacity="0.4"/>
<path d="M94.9387 80.4896C95.6182 80.4896 96.1414 80.344 96.5081 80.0528C96.8748 79.7507 97.0582 79.3139 97.0582 78.7422C97.0582 78.2676 96.9288 77.8685 96.6699 77.5449C96.4218 77.2213 96.0119 76.9732 95.4402 76.8006L94.1297 76.4123C93.3099 76.1642 92.7058 75.7921 92.3175 75.2959C91.9292 74.7889 91.7351 74.1687 91.7351 73.4352C91.7351 72.8743 91.8429 72.3674 92.0587 71.9143C92.2852 71.4613 92.6411 71.1 93.1265 70.8303C93.6227 70.5606 94.2699 70.4258 95.0681 70.4258C95.5535 70.4258 96.0551 70.4851 96.5728 70.6038C97.0906 70.7116 97.6137 70.8896 98.1423 71.1377L97.6892 72.3512C97.1715 72.1247 96.7023 71.9629 96.2816 71.8658C95.8717 71.7579 95.478 71.704 95.1005 71.704C94.4856 71.704 94.0056 71.8334 93.6605 72.0923C93.3261 72.3404 93.1589 72.7557 93.1589 73.3382C93.1589 73.7588 93.2721 74.1148 93.4987 74.406C93.7252 74.6865 94.1297 74.9184 94.7121 75.1018L96.0227 75.4901C97.6623 75.9755 98.482 77.0218 98.482 78.6289C98.482 79.5566 98.2016 80.3116 97.6407 80.8941C97.0798 81.4658 96.1791 81.7516 94.9387 81.7516C94.4317 81.7516 93.8924 81.6923 93.3207 81.5737C92.7598 81.4442 92.1773 81.2447 91.5733 80.975L92.0101 79.7777C92.5818 80.0366 93.0942 80.22 93.5472 80.3278C94.011 80.4357 94.4748 80.4896 94.9387 80.4896ZM100.874 81.5898V70.5876H102.347C103.328 71.9898 104.229 73.4029 105.049 74.8267C105.879 76.2397 106.656 77.7175 107.379 79.26L107.217 75.0532V70.5876H108.592V81.5898H107.12C106.365 80.015 105.583 78.4833 104.774 76.9948C103.975 75.4955 103.102 74.0339 102.153 72.6101L102.25 77.0919V81.5898H100.874ZM112.628 75.0694H111.139V73.5809H112.628V75.0694ZM112.628 81.5898H111.139V80.1175H112.628V81.5898Z" fill="white"/>
<path d="M120.248 80.1281L119.289 79.1687L123.127 75.3311L119.289 71.4936L120.248 70.5342L124.086 74.3718L127.924 70.5342L128.883 71.4936L125.045 75.3311L128.883 79.1687L127.924 80.1281L124.086 76.2905L120.248 80.1281Z" fill="white"/>
<path d="M135.235 80.1281L134.275 79.1687L138.113 75.3311L134.275 71.4936L135.235 70.5342L139.072 74.3718L142.91 70.5342L143.869 71.4936L140.032 75.3311L143.869 79.1687L142.91 80.1281L139.072 76.2905L135.235 80.1281Z" fill="white"/>
<path d="M150.223 80.1281L149.264 79.1687L153.101 75.3311L149.264 71.4936L150.223 70.5342L154.061 74.3718L157.898 70.5342L158.858 71.4936L155.02 75.3311L158.858 79.1687L157.898 80.1281L154.061 76.2905L150.223 80.1281Z" fill="white"/>
<path d="M165.209 80.1281L164.25 79.1687L168.088 75.3311L164.25 71.4936L165.209 70.5342L169.047 74.3718L172.885 70.5342L173.844 71.4936L170.006 75.3311L173.844 79.1687L172.885 80.1281L169.047 76.2905L165.209 80.1281Z" fill="white"/>
<path d="M180.198 80.1281L179.238 79.1687L183.076 75.3311L179.238 71.4936L180.198 70.5342L184.035 74.3718L187.873 70.5342L188.832 71.4936L184.995 75.3311L188.832 79.1687L187.873 80.1281L184.035 76.2905L180.198 80.1281Z" fill="white"/>
<path d="M195.184 80.1281L194.225 79.1687L198.062 75.3311L194.225 71.4936L195.184 70.5342L199.022 74.3718L202.859 70.5342L203.819 71.4936L199.981 75.3311L203.819 79.1687L202.859 80.1281L199.022 76.2905L195.184 80.1281Z" fill="white"/>
<line x1="45.8049" y1="100.493" x2="44.4356" y2="188.133" stroke="#66E4FE" stroke-width="1.34831" stroke-dasharray="6.74 6.74"/>
</svg>
